<svg width="1000" height="1000" viewBox="0 0 1000 1000" fill="none" xmlns="http://www.w3.org/2000/svg">
<path d="M342.511 548.968V753.818H120.543V763.518H121.113L120.543 764.66V773.219H361.341V548.968H342.511ZM131.384 768.083L130.814 766.942H131.955L131.384 768.083ZM133.667 761.236L134.237 759.524L135.379 760.665L133.667 761.236ZM141.655 766.942L141.085 765.801H142.226L141.655 766.942ZM145.65 770.936L145.079 769.795H146.22L145.65 770.936ZM151.926 764.089L152.497 762.948L153.638 763.518L151.926 764.089ZM153.068 758.383L152.497 757.242H153.638L153.068 758.383ZM155.35 764.66L154.779 763.518H155.921L155.35 764.66ZM166.192 768.083L165.621 766.942H167.333L166.192 768.083ZM168.474 761.236L169.045 759.524L170.186 760.665L168.474 761.236ZM175.892 768.083L175.321 766.942H176.463L175.892 768.083ZM177.604 761.236L178.175 759.524L179.316 760.665L177.604 761.236ZM191.299 771.507L190.728 770.366H191.869L191.299 771.507ZM191.869 758.953L191.299 757.812H193.011L191.869 758.953ZM196.434 761.236L195.864 760.095H197.005L196.434 761.236ZM204.423 769.225L203.852 768.083H204.993L204.423 769.225ZM208.988 765.23L209.558 764.089L210.7 765.23H208.988ZM218.688 766.942L218.118 765.801H219.259L218.688 766.942ZM222.112 770.936L221.541 769.795H222.682L222.112 770.936ZM228.389 764.089L228.959 762.948L230.1 763.518L228.389 764.089ZM229.53 758.383L228.959 757.242H230.1L229.53 758.383ZM231.812 764.66L231.242 763.518H232.383L231.812 764.66ZM242.654 768.083L242.083 766.942H243.225L242.654 768.083ZM245.507 761.236L246.078 759.524L247.219 760.665L245.507 761.236ZM259.202 768.083L258.631 766.942H259.772L259.202 768.083ZM261.484 761.236L262.055 759.524L263.196 760.665L261.484 761.236ZM269.473 766.942L268.902 765.801H270.043L269.473 766.942ZM273.467 770.936L272.896 769.795H274.038L273.467 770.936ZM279.744 764.089L280.314 762.948L281.456 763.518L279.744 764.089ZM280.314 758.383L279.744 757.242H280.885L280.314 758.383ZM283.167 764.66L282.597 763.518H283.738L283.167 764.66ZM294.009 768.083L293.438 766.942H295.15L294.009 768.083ZM296.292 761.236L296.862 759.524L298.003 760.665L296.292 761.236ZM303.71 768.083L303.139 766.942H304.28L303.71 768.083ZM305.421 761.236L305.992 759.524L307.133 760.665L305.421 761.236ZM318.545 771.507L317.975 770.366H319.116L318.545 771.507ZM319.687 758.953L319.116 757.812H320.828L319.687 758.953ZM324.252 761.236L323.681 760.095H324.822L324.252 761.236ZM332.24 769.225L331.67 768.083H332.811L332.24 769.225ZM336.234 765.23L336.805 764.089L337.946 765.23H336.234ZM345.935 766.942L345.364 765.801H346.506L345.935 766.942ZM349.359 757.242L349.929 758.383L348.217 757.812L349.359 757.242ZM349.929 770.936L349.359 769.795H350.5L349.929 770.936ZM352.212 772.648V771.507L353.353 772.648H352.212ZM355.635 760.095L356.777 761.236L355.635 761.807V760.095ZM356.206 764.089L356.777 762.948L357.918 763.518L356.206 764.089ZM357.347 758.383L356.777 757.242H357.918L357.347 758.383ZM359.63 764.66L359.059 763.518H360.2L359.63 764.66ZM358.488 576.357L359.63 577.498L358.488 578.069V576.357ZM360.2 608.882L359.059 609.453V608.312L360.2 608.882ZM358.488 653.39L359.63 654.531L358.488 655.102V653.39ZM360.2 736.129L359.059 736.7V735.558L360.2 736.129ZM358.488 704.175L359.63 705.316L358.488 705.886V704.175ZM355.635 684.774V683.633L356.777 684.774H355.635ZM356.777 751.536L355.635 752.106V750.965L356.777 751.536ZM356.777 633.419L355.635 633.989V632.277L356.777 633.419ZM355.635 624.289V623.148L356.777 624.289H355.635ZM356.777 668.226L355.635 668.797V667.655L356.777 668.226ZM356.777 721.864L357.918 723.005L356.777 723.575V721.864ZM356.777 595.758V594.617L357.918 595.758H356.777ZM355.635 555.815L356.777 556.956L355.635 557.527V555.815ZM354.494 580.352L355.635 581.493L354.494 582.063V580.352ZM354.494 656.814L355.635 657.955L354.494 658.526V656.814ZM354.494 708.169L355.635 709.31L354.494 709.881V708.169ZM353.924 717.299V719.011L352.782 718.44L353.924 717.299ZM352.212 644.831V643.69L353.353 644.831H352.212ZM352.782 590.623L353.924 589.481V591.193L352.782 590.623ZM352.212 567.227L353.353 568.369H352.212V567.227ZM352.212 570.08L352.782 571.222L351.641 570.651L352.212 570.08ZM352.212 646.543L352.782 647.684L351.641 647.113L352.212 646.543ZM353.353 695.615L352.212 696.186V695.045L353.353 695.615ZM352.212 697.327L352.782 698.468L351.641 697.898L352.212 697.327ZM349.359 552.962L349.929 554.103L348.217 553.533L349.359 552.962ZM349.929 603.176L348.788 603.747V602.605L349.929 603.176ZM349.359 620.865L349.929 622.006L348.217 621.436L349.359 620.865ZM349.359 629.424L349.929 630.565L348.217 629.995L349.359 629.424ZM349.359 664.802L349.929 665.944L348.217 665.373L349.359 664.802ZM349.359 680.779L349.929 681.921L348.217 681.35L349.359 680.779ZM349.929 730.993L348.788 731.564V730.423L349.929 730.993ZM349.359 748.112L349.929 749.253L348.217 748.682L349.359 748.112ZM345.935 569.51L347.076 570.651L345.935 571.222V569.51ZM347.647 607.741L346.506 608.312V606.6L347.647 607.741ZM345.935 645.972L347.076 647.113L345.935 647.684V645.972ZM347.647 735.558L346.506 736.129V734.417L347.647 735.558ZM345.935 696.757L347.076 697.898L345.935 698.468V696.757Z" fill="#020203"/>
<path d="M741.369 395.473V521.008H760.77V395.473H741.369ZM757.346 426.857L758.487 427.998L757.346 428.569V426.857ZM754.493 403.462L755.634 404.603L754.493 405.174V403.462ZM753.352 430.851L754.493 431.992L753.352 432.563V430.851ZM751.069 416.015L752.211 417.156L751.069 417.727V416.015ZM751.069 419.439L751.64 421.151L750.499 420.58L751.069 419.439ZM744.793 418.868L745.934 420.01L744.793 420.58V418.868ZM744.793 506.172V504.46L745.934 505.602L744.793 506.172ZM745.363 462.235V460.523L746.505 461.664L745.363 462.235ZM747.075 487.342L748.216 486.201L748.787 487.913L747.075 487.342ZM747.075 477.071L748.216 475.93L748.787 477.641L747.075 477.071ZM747.646 457.099V455.388L748.787 456.529L747.646 457.099ZM747.075 401.75L748.216 400.609L748.787 402.32L747.075 401.75ZM750.499 506.172L751.069 505.031L751.64 506.743L750.499 506.172ZM751.069 503.319V501.607L752.211 502.748L751.069 503.319ZM752.781 442.834L751.64 442.263L752.781 441.122V442.834ZM753.352 518.726V517.014L754.493 518.155L753.352 518.726ZM754.493 491.336V489.624L755.634 490.766L754.493 491.336ZM754.493 480.495V478.783L755.634 479.924L754.493 480.495ZM755.634 447.97V446.258L756.776 447.399L755.634 447.97ZM757.346 514.161V512.449L758.487 513.59L757.346 514.161ZM757.917 463.376V461.664L759.058 462.806L757.917 463.376Z" fill="#020203"/>
<path d="M462.909 514.158L460.056 513.587C460.056 513.587 460.056 513.587 459.486 513.587L457.774 511.875C457.774 511.875 457.774 511.875 457.774 511.305L457.203 508.451L457.774 506.169L459.486 503.887C459.486 503.887 459.486 503.887 460.056 503.887L462.909 503.316L465.192 503.887L467.474 506.169L468.045 508.451L467.474 511.305C467.474 511.305 467.474 511.305 467.474 511.875L465.192 513.587L462.909 514.158ZM460.056 512.446L462.339 513.016L464.621 512.446L466.904 510.734L467.474 508.451L466.904 506.169L464.621 503.887L462.339 503.316L460.056 503.887L458.344 506.169L457.774 508.451L458.344 510.734L460.056 512.446Z" fill="#020203"/>
<path d="M440.085 516.441C439.514 516.441 439.514 516.441 440.085 516.441L437.232 515.3L434.95 514.158L433.808 511.876L433.238 509.023L433.808 506.74L434.95 503.887C434.95 503.887 434.95 503.887 434.95 503.317L437.232 502.175L440.085 501.605L442.938 502.175L445.221 503.317C445.221 503.317 445.221 503.317 445.221 503.887L446.362 506.74L446.932 509.023L446.362 511.876L445.221 514.158L442.938 515.3L440.085 516.441ZM434.95 513.017L437.232 514.158L440.085 515.3L442.938 514.158L445.221 513.017L446.362 510.735L446.932 507.882L446.362 505.599L445.221 502.746L442.938 501.605L440.085 501.034L437.232 501.605L434.95 503.887L433.808 506.74L433.238 509.023L433.808 511.876L434.95 513.017Z" fill="#020203"/>
<path d="M462.91 493.616L460.057 493.045L457.774 491.334L456.062 489.051C456.062 489.051 456.062 489.051 456.062 488.481V483.345C456.062 483.345 456.062 483.345 456.062 482.774L457.774 480.492L460.057 478.78L462.91 478.209L465.192 478.78L467.475 480.492L469.186 482.774L469.757 485.057L469.186 487.91L467.475 490.192L465.192 491.904L462.91 493.616ZM460.057 491.904L462.91 492.475L465.192 491.904L467.475 490.192L469.186 487.91L469.757 485.057L469.186 482.774L467.475 480.492L465.192 478.78L462.91 478.209L460.057 478.78L457.774 481.633L456.062 483.916V488.481L457.774 490.192L460.057 491.904Z" fill="#020203"/>
<path d="M440.085 491.906L437.232 491.335C437.232 491.335 437.232 491.335 436.661 491.335L434.949 489.053L434.379 486.2L434.949 483.917L436.661 481.635C436.661 481.635 436.661 481.635 437.232 481.635L440.085 481.064L442.938 481.635C442.938 481.635 442.938 481.635 443.508 481.635L445.22 483.917L445.791 486.2L445.22 489.053L443.508 491.335C443.508 491.335 443.508 491.335 442.938 491.335L440.085 491.906ZM437.232 490.194L439.514 490.764L441.797 490.194L443.508 487.911L444.079 485.058L443.508 482.776L441.797 480.493L439.514 479.923L437.232 480.493L435.52 482.776L434.949 485.058L435.52 487.911L437.232 490.194Z" fill="#020203"/>
<path d="M477.746 523.859H425.249C424.679 523.859 424.678 523.859 424.678 523.288V470.792C424.678 470.221 424.679 470.221 425.249 470.221H477.746C478.316 470.221 478.316 470.221 478.316 470.792V523.288L477.746 523.859ZM425.82 522.718H477.175V471.362H425.82V522.718Z" fill="#020203"/>
<path d="M425.249 521.576C424.679 521.576 424.678 521.576 424.678 521.006V470.792C424.678 470.221 424.679 470.221 425.249 470.221H477.746C478.316 470.221 478.316 470.221 478.316 470.792C478.316 471.362 478.316 471.362 477.746 471.362H425.82V521.006L425.249 521.576Z" fill="#020203"/>
<path d="M474.322 520.436H428.673C428.103 520.436 428.103 520.436 428.103 519.866V474.787C428.103 474.217 428.103 474.217 428.673 474.217H474.322C474.893 474.217 474.893 474.217 474.893 474.787V519.866L474.322 520.436ZM429.244 519.295H473.752V475.358H429.244V519.295Z" fill="#020203"/>
<path d="M582.168 471.362H477.745C477.175 471.362 477.175 471.362 477.175 470.792C477.175 470.221 477.175 470.221 477.745 470.221H582.168C582.738 470.221 582.738 470.221 582.738 470.792C582.738 471.362 582.168 471.362 582.168 471.362Z" fill="#020203"/>
<path d="M502.853 506.169C502.282 506.169 502.282 505.599 502.853 506.169L502.282 505.028V504.457L502.853 503.887C502.853 503.887 502.853 503.887 503.424 503.887H503.994C504.565 503.887 504.565 503.887 504.565 504.457V505.028L505.136 505.599V506.169H504.565L503.424 505.599L502.853 506.169Z" fill="#020203"/>
<path d="M502.853 523.289C502.282 523.289 502.282 522.718 502.853 523.289L502.282 505.6C502.282 505.029 502.282 505.029 502.853 505.029C503.424 505.029 503.424 505.029 503.424 505.6L502.853 523.289Z" fill="#020203"/>
<path d="M504.564 523.289C503.993 523.289 503.993 522.718 504.564 523.289L503.993 505.6C503.993 505.029 503.993 505.029 504.564 505.029C505.134 505.029 505.134 505.029 505.134 505.6L504.564 523.289Z" fill="#020203"/>
<path d="M504.565 506.169C503.994 506.169 503.994 505.599 504.565 506.169L503.994 505.028H503.424V505.599C503.424 506.169 503.424 506.169 502.853 506.169C502.282 506.169 502.282 506.169 502.282 505.599V504.457C502.282 503.887 502.282 503.887 502.853 503.887H504.565C505.136 503.887 505.136 503.887 505.136 504.457L504.565 506.169Z" fill="#020203"/>
<path d="M503.994 505.028H502.853C502.282 505.028 502.282 505.028 502.282 504.457C502.282 503.887 502.282 503.887 502.853 503.887H503.994C503.994 503.887 504.565 503.887 503.994 505.028Z" fill="#020203"/>
<path d="M502.853 505.028C502.282 505.028 502.282 505.028 502.853 505.028C502.282 505.028 502.282 504.457 502.282 504.457C502.282 504.457 502.282 504.457 502.282 503.887H502.853C502.853 503.887 502.853 503.887 502.853 504.457C503.424 504.457 502.853 504.457 502.853 505.028Z" fill="#020203"/>
<path d="M504.565 505.028H503.994C503.423 505.028 503.423 505.028 503.423 504.457C503.423 503.887 503.423 503.887 503.994 503.887H504.565C504.565 503.887 505.135 503.887 504.565 505.028Z" fill="#020203"/>
<path d="M536.519 517.583C535.948 517.583 535.948 517.013 536.519 517.583L535.948 477.64C535.948 477.07 535.948 477.07 536.519 477.07C537.089 477.07 537.089 477.07 537.089 477.64L536.519 517.583Z" fill="#020203"/>
<path d="M540.513 517.583C539.942 517.583 539.942 517.013 540.513 517.583L539.942 477.64C539.942 477.07 539.942 477.07 540.513 477.07C541.083 477.07 541.083 477.07 541.083 477.64L540.513 517.583Z" fill="#020203"/>
<path d="M545.078 517.583C544.507 517.583 544.507 517.013 545.078 517.583L544.507 477.64C544.507 477.07 544.507 477.07 545.078 477.07C545.649 477.07 545.649 477.07 545.649 477.64L545.078 517.583Z" fill="#020203"/>
<path d="M549.643 517.583C549.073 517.583 549.073 517.013 549.643 517.583L549.073 477.64C549.073 477.07 549.073 477.07 549.643 477.07C550.214 477.07 550.214 477.07 550.214 477.64L549.643 517.583Z" fill="#020203"/>
<path d="M554.208 517.583C553.638 517.583 553.638 517.013 554.208 517.583L553.638 477.64C553.638 477.07 553.638 477.07 554.208 477.07C554.779 477.07 554.779 477.07 554.779 477.64L554.208 517.583Z" fill="#020203"/>
<path d="M558.202 517.583C557.632 517.583 557.632 517.013 558.202 517.583L557.632 477.64C557.632 477.07 557.632 477.07 558.202 477.07C558.773 477.07 558.773 477.07 558.773 477.64L558.202 517.583Z" fill="#020203"/>
<path d="M562.768 517.583C562.197 517.583 562.197 517.013 562.768 517.583L562.197 477.64C562.197 477.07 562.197 477.07 562.768 477.07C563.338 477.07 563.338 477.07 563.338 477.64L562.768 517.583Z" fill="#020203"/>
<path d="M566.762 517.583C566.191 517.583 566.191 517.013 566.762 517.583L566.191 477.64C566.191 477.07 566.191 477.07 566.762 477.07C567.332 477.07 567.332 477.07 567.332 477.64L566.762 517.583Z" fill="#020203"/>
<path d="M571.327 517.583C570.756 517.583 570.756 517.013 571.327 517.583L570.756 477.64C570.756 477.07 570.756 477.07 571.327 477.07C571.897 477.07 571.897 477.07 571.897 477.64L571.327 517.583Z" fill="#020203"/>
<path d="M575.89 517.583C575.32 517.583 575.32 517.013 575.89 517.583L575.32 477.64C575.32 477.07 575.32 477.07 575.89 477.07C576.461 477.07 576.461 477.07 576.461 477.64L575.89 517.583Z" fill="#020203"/>
<path d="M514.836 479.922H492.582C492.011 479.922 492.011 479.921 492.011 479.351C492.011 478.78 492.011 478.78 492.582 478.78H514.836C515.406 478.78 515.406 478.78 515.406 479.351C515.406 479.921 514.836 479.922 514.836 479.922Z" fill="#020203"/>
<path d="M484.023 507.882C483.452 507.882 483.452 507.882 483.452 507.311V487.91C483.452 487.34 483.452 487.34 484.023 487.34C484.593 487.34 484.593 487.34 484.593 487.91V507.311L484.023 507.882Z" fill="#020203"/>
<path d="M484.023 510.164C483.452 510.164 483.452 510.164 483.452 509.593V507.882C483.452 507.311 483.452 507.311 484.023 507.311C484.593 507.311 484.593 507.311 484.593 507.882V509.593L484.023 510.164Z" fill="#020203"/>
<path d="M523.394 510.164C522.824 510.164 522.824 509.594 523.394 510.164L522.824 487.91C522.824 487.34 522.824 487.34 523.394 487.34C523.965 487.34 523.965 487.34 523.965 487.91L523.394 510.164Z" fill="#020203"/>
<path d="M514.836 518.725C514.265 518.725 514.265 518.725 514.836 518.725C514.265 518.154 514.265 517.583 514.836 517.583L517.689 517.013L521.113 515.301L522.825 512.448L523.395 509.024C523.395 508.454 523.966 508.454 523.966 508.454C524.536 508.454 524.536 509.024 524.536 509.024L523.395 513.019L521.683 515.872L518.26 517.583L514.836 518.725Z" fill="#020203"/>
<path d="M492.582 518.722L489.158 518.152L486.305 516.44L484.593 513.016L483.452 509.593C483.452 509.022 483.452 509.022 484.023 509.022C484.593 509.022 484.593 509.022 484.593 509.593L485.734 513.016L487.446 515.869L489.729 517.581L493.152 518.152C492.582 517.581 493.152 518.152 492.582 518.722Z" fill="#020203"/>
<path d="M484.023 488.481C483.452 488.481 483.452 487.91 483.452 487.91L484.593 484.486L486.305 481.633L488.587 479.922L492.011 478.78C492.582 478.78 492.582 478.78 492.582 479.351C492.582 479.921 492.582 479.922 492.011 479.922L488.587 480.492L486.305 482.204L485.164 484.486L484.023 488.481Z" fill="#020203"/>
<path d="M491.441 514.158C490.87 514.158 490.87 514.158 491.441 514.158L490.299 513.587L489.158 512.446V511.875L490.299 510.163L491.441 509.593H492.011L493.723 510.163C493.723 510.163 494.294 510.163 494.294 510.734L494.864 512.446V513.016H493.723C493.723 513.016 493.723 513.016 493.152 513.016L491.441 514.158ZM490.299 512.446L490.87 513.016L492.011 512.446L492.582 511.875L492.011 510.734L490.87 510.163L490.299 510.734L489.729 511.875L490.299 512.446Z" fill="#020203"/>
<path d="M523.395 488.481C522.824 488.481 522.824 488.481 523.395 488.481L522.254 484.486L520.542 482.204L517.118 480.492L514.265 479.922C513.695 479.922 513.695 479.351 513.695 479.351C513.695 478.78 514.265 478.78 514.265 478.78L517.118 479.351L520.542 481.063L522.254 483.916L522.825 487.339C523.966 487.91 523.395 488.481 523.395 488.481Z" fill="#020203"/>
<path d="M530.241 523.859C529.671 523.859 529.671 523.288 530.241 523.859L529.671 470.792C529.671 470.221 529.671 470.221 530.241 470.221C530.812 470.221 530.812 470.221 530.812 470.792L530.241 523.859Z" fill="#020203"/>
<path d="M582.168 523.859C581.597 523.859 581.597 523.288 582.168 523.859L581.597 470.792C581.597 470.221 581.597 470.221 582.168 470.221C582.738 470.221 582.738 470.221 582.738 470.792L582.168 523.859Z" fill="#020203"/>
<path d="M582.168 523.859H477.745C477.175 523.859 477.175 523.859 477.175 523.288V470.792C477.175 470.221 477.175 470.221 477.745 470.221C478.316 470.221 478.316 470.221 478.316 470.792V522.718H582.168C582.168 522.718 582.738 522.718 582.168 523.859Z" fill="#020203"/>
<path d="M582.168 471.362H477.745C477.175 471.362 477.175 471.362 477.175 470.792C477.175 470.221 477.175 470.221 477.745 470.221H582.168C582.738 470.221 582.738 470.221 582.738 470.792C582.738 471.362 582.168 471.362 582.168 471.362Z" fill="#020203"/>
<path d="M125.106 228.282V231.135L130.813 228.282H125.106ZM878.316 228.282L878.887 228.852L873.181 231.705L872.61 231.135L878.316 228.282H819.543L820.114 228.852L814.407 231.705L813.837 231.135L819.543 228.282H783.594L782.453 228.852L763.623 238.553L763.052 237.982L781.883 228.282H737.375L737.945 228.852L732.239 231.705L731.669 231.135L737.375 228.282H674.607L675.178 228.852L669.472 231.705L668.901 231.135L674.607 228.282H638.659L637.517 228.852L618.687 238.553L618.116 237.982L636.947 228.282H592.439L593.009 228.852L587.303 231.705L586.733 231.135L592.439 228.282H548.502L549.072 228.852L543.366 231.705L542.795 231.135L548.502 228.282H512.553L511.412 228.852L492.581 238.553L492.011 237.982L510.841 228.282H466.333L466.904 228.852L461.198 231.705L460.627 231.135L466.333 228.282H412.696L413.266 228.852L407.56 231.705L406.989 231.135L412.696 228.282H376.747L375.606 228.852L356.775 238.553L356.205 237.982L375.035 228.282H330.527L331.098 228.852L325.392 231.705L324.821 231.135L330.527 228.282H271.754L272.325 228.852L266.619 231.705L266.048 231.135L271.754 228.282H235.805L234.664 228.852L215.834 238.553L215.263 237.982L234.094 228.282H189.586L190.156 228.852L184.45 231.705L183.88 231.135L189.586 228.282H130.813L131.383 228.852L125.677 231.705L125.106 231.135V245.4L135.948 239.694L136.519 240.265L125.106 245.971V250.536H175.32L174.75 249.965L194.721 239.694L195.292 240.265L175.32 250.536H219.258L218.687 249.965L231.241 243.688L231.811 244.259L219.258 250.536H257.489L256.918 249.965L276.89 239.694L277.46 240.265L257.489 250.536H316.262L315.691 249.965L335.663 239.694L336.233 240.265L316.262 250.536H360.199L359.629 249.965L372.182 243.688L372.753 244.259L360.199 250.536H398.43L397.86 249.965L417.831 239.694L418.402 240.265L398.43 250.536H452.068L451.497 249.965L471.469 239.694L472.039 240.265L452.068 250.536H496.005L495.435 249.965L507.988 243.688L508.559 244.259L496.005 250.536H534.236L533.666 249.965L553.637 239.694L554.208 240.265L534.236 250.536H557.631L557.061 249.965L569.614 243.688L570.185 244.259L557.631 250.536H578.173L577.603 249.965L597.574 239.694L598.145 240.265L578.173 250.536H622.111L621.54 249.965L634.094 243.688L634.664 244.259L622.111 250.536H660.342L659.771 249.965L679.743 239.694L680.313 240.265L660.342 250.536H723.109L722.539 249.965L742.51 239.694L743.081 240.265L723.109 250.536H767.047L766.476 249.965L779.029 243.688L779.6 244.259L767.047 250.536H805.278L804.707 249.965L824.679 239.694L825.249 240.265L805.278 250.536H864.051L863.48 249.965L883.452 239.694L884.022 240.265L864.051 250.536H891.44V228.282H878.316ZM162.767 246.541V245.4L166.761 243.688L167.332 244.259L162.767 246.541ZM240.941 247.683L236.376 249.965L235.805 249.394L240.941 247.112L248.359 243.118L248.93 243.688L240.941 247.683ZM303.708 246.541V245.4L307.703 243.688L308.273 244.259L303.708 246.541ZM381.882 247.683L377.318 249.965L376.747 249.394L381.882 247.112L389.3 243.118L389.871 243.688L381.882 247.683ZM517.689 247.683L513.124 249.965L512.553 249.394L517.689 247.112L525.106 243.118L525.677 243.688L517.689 247.683ZM643.794 247.683L639.229 249.965L638.659 249.394L643.794 247.112L651.212 243.118L651.783 243.688L643.794 247.683ZM706.561 248.253V247.683L714.55 243.688L715.121 244.259L706.561 248.253ZM788.73 247.683L784.165 249.965L783.594 249.394L788.73 247.112L796.148 243.118L796.718 243.688L788.73 247.683ZM851.497 246.541V245.4L855.492 243.688L856.062 244.259L851.497 246.541Z" fill="#020203"/>
<path d="M878.316 525.001L878.887 525.572L873.181 528.425L872.61 527.854L878.316 525.001H819.543L820.114 525.572L814.407 528.425L813.837 527.854L819.543 525.001H783.594L782.453 525.572L763.623 535.272L763.052 534.701L781.883 525.001H737.375L737.945 525.572L732.239 528.425L731.669 527.854L737.375 525.001H674.607L675.178 525.572L669.472 528.425L668.901 527.854L674.607 525.001H638.659L637.517 525.572L618.687 535.272L618.116 534.701L636.947 525.001H592.439L593.009 525.572L587.303 528.425L586.733 527.854L592.439 525.001H548.502L549.072 525.572L543.366 528.425L542.795 527.854L548.502 525.001H512.553L511.412 525.572L492.581 535.272L492.011 534.701L510.841 525.001H466.333L466.904 525.572L461.198 528.425L460.627 527.854L466.333 525.001H412.696L413.266 525.572L407.56 528.425L406.989 527.854L412.696 525.001H376.747L375.606 525.572L356.775 535.272L356.205 534.701L375.035 525.001H330.527L331.098 525.572L325.392 528.425L324.821 527.854L330.527 525.001H276.319V536.984L276.89 536.413L277.46 536.984L276.319 537.554V547.255H316.262L315.691 546.684L335.663 536.413L336.233 536.984L316.262 547.255H360.199L359.629 546.684L372.182 540.408L372.753 540.978L360.199 547.255H398.43L397.86 546.684L417.831 536.413L418.402 536.984L398.43 547.255H452.068L451.497 546.684L471.469 536.413L472.039 536.984L452.068 547.255H496.005L495.435 546.684L507.988 540.408L508.559 540.978L496.005 547.255H534.236L533.666 546.684L553.637 536.413L554.208 536.984L534.236 547.255H557.631L557.061 546.684L569.614 540.408L570.185 540.978L557.631 547.255H578.173L577.603 546.684L597.574 536.413L598.145 536.984L578.173 547.255H622.111L621.54 546.684L634.094 540.408L634.664 540.978L622.111 547.255H660.342L659.771 546.684L679.743 536.413L680.313 536.984L660.342 547.255H723.109L722.539 546.684L742.51 536.413L743.081 536.984L723.109 547.255H767.047L766.476 546.684L779.029 540.408L779.6 540.978L767.047 547.255H805.278L804.707 546.684L824.679 536.413L825.249 536.984L805.278 547.255H864.051L863.48 546.684L883.452 536.413L884.022 536.984L864.051 547.255H891.44V525.001H878.316ZM303.708 543.261V542.119L307.703 540.408L308.273 540.978L303.708 543.261ZM381.882 544.402L377.318 546.684L376.747 546.114L381.882 543.831L389.3 539.837L389.871 540.408L381.882 544.402ZM517.689 544.402L513.124 546.684L512.553 546.114L517.689 543.831L525.106 539.837L525.677 540.408L517.689 544.402ZM643.794 544.402L639.229 546.684L638.659 546.114L643.794 543.831L651.212 539.837L651.783 540.408L643.794 544.402ZM706.561 544.972V544.402L714.55 540.408L715.121 540.978L706.561 544.972ZM788.73 544.402L784.165 546.684L783.594 546.114L788.73 543.831L796.148 539.837L796.718 540.408L788.73 544.402ZM851.497 543.261V542.119L855.492 540.408L856.062 540.978L851.497 543.261ZM190.156 525.572L184.45 528.425L183.88 527.854L189.586 525.001H130.813L131.383 525.572L125.677 528.425L125.106 527.854V542.119L135.948 536.413L136.519 536.984L125.106 542.69V547.255H175.32L174.75 546.684L194.721 536.413L195.292 536.984L175.32 547.255H198.716V525.001H189.586L190.156 525.572ZM162.767 543.261V542.119L166.761 540.408L167.332 540.978L162.767 543.261ZM125.106 525.001V527.854L130.813 525.001H125.106Z" fill="#020203"/>
<path d="M100 502.176V507.882L102.853 502.747V502.176H100ZM117.118 502.176L111.412 513.589L110.842 513.018L117.118 502.176H102.282L102.853 502.747L100 507.882V566.656L102.853 560.949L103.424 561.52L100.571 567.226L100 566.656V611.163L109.7 592.333L110.271 592.904L100.571 611.734L100 612.875V648.824L102.853 643.118L103.424 643.688L100.571 649.395L100 648.824V707.597L102.853 701.891L103.424 702.462L100.571 708.168L100 707.597V752.105L109.7 733.275L110.271 733.845L100.571 752.676L100 753.817V773.218H121.683V754.387L119.401 758.952L115.407 766.941L114.836 766.37L118.83 758.952L121.113 753.817L121.683 754.387V737.269L115.407 749.823L114.836 749.252L121.113 736.698L121.683 737.269V693.332L111.412 713.303L110.842 712.733L121.113 692.761L121.683 693.332V634.559L111.412 654.53L110.842 653.959L121.113 633.988L121.683 634.559V613.446L119.401 618.011L115.407 625.999L114.836 625.429L118.83 618.011L121.113 612.875L121.683 613.446V596.327L115.407 608.881L114.836 608.31L121.113 595.757L121.683 596.327V552.39L111.412 572.362L110.842 571.791L121.113 551.82L121.683 552.39V502.176H117.118ZM117.118 680.778H118.26L115.407 684.773L117.118 680.778ZM115.977 544.402L117.118 539.837H118.26L115.977 544.402Z" fill="#020203"/>
<path d="M122.254 228.282L113.125 245.971L112.554 245.401L121.113 228.282H100.571V240.265L103.424 234.559L103.995 235.13L101.142 240.836L100.571 240.265V284.773L110.272 265.943L110.842 266.514L101.142 285.344L100.571 286.485V322.434L103.424 316.728L103.995 317.298L101.142 323.004L100.571 322.434V381.207L103.424 375.501L103.995 376.071L101.142 381.777L100.571 381.207V411.449H107.989L110.272 406.884L110.842 407.455L109.13 411.449H122.254L122.825 410.308L123.396 410.879V366.942L113.125 386.913L112.554 386.342L122.825 366.371L123.396 366.942V308.168L113.125 328.14L112.554 327.569L122.825 307.598L123.396 308.168V269.937L117.119 282.491L116.548 281.92L122.825 269.367L123.396 269.937V226L122.254 228.282ZM118.26 354.388L116.548 358.953L115.978 358.382L118.26 354.388ZM119.401 291.621L121.684 286.485L122.254 287.056L119.401 291.621Z" fill="#020203"/>
<path d="M900.001 228.282H893.724V255.671H900.001V228.282Z" fill="#020203"/>
<path d="M900 252.249H760.771V258.526H900V252.249Z" fill="#020203"/>
<path d="M899.429 514.731H764.765V521.008H899.429V514.731Z" fill="#020203"/>
<path d="M771.041 395.473H764.765V519.296H771.041V395.473Z" fill="#020203"/>
<path d="M900.001 521.008H893.724V546.686H900.001V521.008Z" fill="#020203"/>
<path d="M764.765 249.967H745.364V261.379H764.765V249.967Z" fill="#020203"/>
<path d="M277.461 641.408C276.89 641.408 276.89 641.408 277.461 641.408L272.325 637.985C271.755 637.985 271.755 637.414 272.325 636.843C272.325 636.273 272.896 636.273 273.466 636.843L278.031 640.267C278.031 640.267 278.031 640.838 277.461 641.408Z" fill="#020203"/>
<path d="M272.895 637.983C272.324 637.983 272.324 637.983 272.895 637.983L270.042 635.13C270.042 634.559 270.042 634.559 270.042 633.989C270.612 633.989 270.612 633.989 271.183 633.989L273.465 636.842C273.465 637.412 273.465 637.412 272.895 637.983Z" fill="#020203"/>
<path d="M270.613 635.131C270.043 635.131 270.043 635.131 270.613 635.131L268.331 633.419C268.331 633.419 268.331 632.849 268.331 632.278C268.331 631.707 268.902 632.278 269.472 632.278L271.184 633.99C271.184 634.56 271.184 634.56 270.613 635.131Z" fill="#020203"/>
<path d="M268.901 633.419C268.33 633.419 268.33 633.419 268.33 632.848L267.76 629.425C267.76 628.854 267.76 628.854 268.33 628.854C268.901 628.854 268.901 628.854 268.901 629.425L269.472 632.848L268.901 633.419Z" fill="#020203"/>
<path d="M268.33 629.995C267.76 629.995 267.76 629.425 267.76 629.425V627.142C267.76 626.572 268.33 626.572 268.33 626.572L268.901 627.142V629.425C268.901 629.995 268.33 629.995 268.33 629.995Z" fill="#020203"/>
<path d="M268.33 627.713C267.76 627.713 267.76 627.142 267.76 627.142L268.33 624.289C268.33 623.719 268.901 623.719 268.901 623.719C269.472 623.719 269.472 624.289 269.472 624.289L268.901 627.142C268.901 627.713 268.33 627.713 268.33 627.713Z" fill="#020203"/>
<path d="M268.902 624.859C268.331 624.859 268.331 624.859 268.902 624.859C268.331 624.288 268.331 624.288 268.331 623.718L270.043 620.864C270.043 620.294 270.613 620.294 271.184 620.864C271.755 620.864 271.755 621.435 271.184 622.006L269.472 624.859C268.902 624.859 268.902 624.859 268.902 624.859Z" fill="#020203"/>
<path d="M270.612 622.008C270.042 622.008 270.042 622.008 270.612 622.008C269.471 621.437 269.471 621.437 270.042 620.866L272.324 618.584C272.324 618.584 272.895 618.584 273.465 618.584C274.036 618.584 273.465 619.155 273.465 619.725L270.612 622.008Z" fill="#020203"/>
<path d="M272.896 619.725C272.896 619.725 272.325 619.725 272.325 619.154C272.325 618.583 272.325 618.583 272.325 618.013L276.89 615.16C277.46 615.16 277.46 615.16 278.031 615.16C278.031 615.73 278.031 615.73 278.031 616.301L272.896 619.725Z" fill="#020203"/>
<path d="M308.845 641.407C308.274 641.407 308.274 640.836 308.274 640.836L308.845 637.412C308.845 636.842 309.415 636.842 309.415 636.842C309.986 636.842 309.986 637.412 309.986 637.412L309.415 640.836C309.415 641.407 308.845 641.407 308.845 641.407Z" fill="#020203"/>
<path d="M309.414 637.985C308.844 637.985 308.844 637.414 308.844 637.414L310.555 630.567C310.555 629.996 311.126 629.996 311.126 629.996C311.697 629.996 311.697 630.567 311.697 630.567L309.985 637.414C309.985 637.985 309.414 637.985 309.414 637.985Z" fill="#020203"/>
<path d="M311.126 631.135C310.556 631.135 310.556 630.565 310.556 630.565V625.429C310.556 624.858 311.126 624.858 311.126 624.858L311.697 625.429V630.565C311.697 631.135 311.126 631.135 311.126 631.135Z" fill="#020203"/>
<path d="M311.126 626.002C310.555 626.002 310.555 626.002 310.555 625.431L308.844 619.155C308.844 618.584 308.844 618.584 309.414 618.584C309.985 618.584 309.985 618.584 309.985 619.155L311.697 625.431C311.697 625.431 311.697 626.002 311.126 626.002Z" fill="#020203"/>
<path d="M309.415 619.725C308.845 619.725 308.845 619.725 308.845 619.155L308.274 616.302C308.274 615.731 308.274 615.731 308.845 615.731C309.415 615.731 309.415 615.731 309.415 616.302L309.986 619.155C309.986 619.155 309.986 619.725 309.415 619.725Z" fill="#020203"/>
<path d="M282.596 643.119C282.026 643.119 282.026 643.119 282.596 643.119L277.461 641.407C276.89 641.407 276.89 640.836 276.89 640.265C276.89 639.695 277.461 639.695 278.031 639.695L283.167 641.407C283.738 641.407 283.738 641.977 283.738 642.548C283.167 643.119 282.596 643.119 282.596 643.119Z" fill="#020203"/>
<path d="M287.16 645.402C286.589 645.402 286.589 645.402 287.16 645.402L282.024 643.12C281.454 643.12 281.454 642.549 281.454 641.979C281.454 641.408 282.024 641.408 282.595 641.408L287.16 643.691C287.731 643.691 287.731 644.261 287.731 644.832C287.16 645.402 287.16 645.402 287.16 645.402Z" fill="#020203"/>
<path d="M292.296 645.974L286.59 645.403C286.019 645.403 286.019 644.832 286.019 644.832C286.59 644.262 286.59 644.262 287.16 644.262L292.296 644.832C292.866 644.832 292.866 645.403 292.866 645.403C292.866 645.974 292.296 645.974 292.296 645.974Z" fill="#020203"/>
<path d="M296.861 646.542L292.296 645.971C291.725 645.971 291.725 645.401 291.725 645.401C291.725 644.83 292.296 644.83 292.296 644.83L296.861 645.401C297.431 645.401 297.431 645.971 297.431 645.971C297.431 646.542 296.861 646.542 296.861 646.542Z" fill="#020203"/>
<path d="M299.143 646.543H296.861C296.29 646.543 296.29 645.972 296.29 645.972L296.861 645.401H299.143C299.714 645.401 299.714 645.972 299.714 645.972L299.143 646.543Z" fill="#020203"/>
<path d="M299.143 646.542C298.572 646.542 298.572 646.542 298.572 645.971C298.572 645.401 298.572 645.401 299.143 645.401L301.425 644.83C301.996 644.83 301.996 644.83 301.996 645.401C301.996 645.971 301.996 645.971 301.425 645.971L299.143 646.542Z" fill="#020203"/>
<path d="M301.426 645.974C300.856 645.974 300.856 645.974 300.856 645.403C300.856 644.832 300.856 644.832 301.426 644.832L303.709 644.262C304.279 644.262 304.279 644.262 304.279 644.832C304.279 645.403 304.279 645.403 303.709 645.403L301.426 645.974Z" fill="#020203"/>
<path d="M303.708 645.4C303.708 645.4 303.137 645.4 303.137 644.83C303.137 644.259 303.137 644.259 303.137 643.688L305.991 641.977C306.561 641.977 306.561 641.977 307.132 641.977C307.132 642.547 307.132 642.547 307.132 643.118L303.708 645.4Z" fill="#020203"/>
<path d="M306.561 643.69C305.991 643.69 305.991 643.69 306.561 643.69C305.991 643.119 305.991 642.549 305.991 642.549L308.273 640.266C308.273 640.266 308.844 640.266 309.414 640.266C309.985 640.266 309.414 640.837 309.414 641.407L306.561 643.69Z" fill="#020203"/>
<path d="M277.461 616.872C277.461 616.872 276.89 616.872 276.89 616.301C276.89 615.73 276.89 615.73 276.89 615.16L282.026 612.307C282.596 612.307 282.596 612.307 283.167 612.307C283.167 612.877 283.167 612.877 283.167 613.448L277.461 616.872Z" fill="#020203"/>
<path d="M282.596 614.018C282.025 614.018 282.025 614.018 282.025 613.447C282.025 612.877 282.025 612.877 282.596 612.877L287.161 611.735C287.731 611.735 287.731 611.735 287.731 612.306C287.731 612.877 287.731 612.877 287.161 612.877L282.596 614.018Z" fill="#020203"/>
<path d="M287.161 612.877C286.59 612.877 286.59 612.877 286.59 612.307C286.59 611.736 286.59 611.736 287.161 611.165L292.296 609.454C292.867 609.454 292.867 609.454 293.438 610.024C294.008 610.595 293.438 610.595 292.867 611.165L287.161 612.877Z" fill="#020203"/>
<path d="M296.861 611.166H292.296C291.725 611.166 291.725 610.595 291.725 610.595C291.725 610.595 291.725 610.024 292.296 610.024H296.861C297.431 610.024 297.431 610.595 297.431 610.595L296.861 611.166Z" fill="#020203"/>
<path d="M299.143 611.166H296.861C296.29 611.166 296.29 610.595 296.29 610.595L296.861 610.024H299.143C299.714 610.024 299.714 610.595 299.714 610.595L299.143 611.166Z" fill="#020203"/>
<path d="M301.425 611.736L299.143 611.166C298.572 611.166 298.572 610.595 298.572 610.595C298.572 610.024 299.143 610.024 299.143 610.024L301.425 610.595C301.996 610.595 301.996 611.166 301.996 611.166C301.996 611.736 301.425 611.736 301.425 611.736Z" fill="#020203"/>
<path d="M303.709 611.735H301.426C300.856 611.735 300.856 611.164 300.856 611.164L301.426 610.593H303.709C304.279 610.593 304.279 611.164 304.279 611.164L303.709 611.735Z" fill="#020203"/>
<path d="M306.561 613.448C305.991 613.448 305.991 613.448 306.561 613.448L303.138 611.736C302.567 611.736 302.567 611.166 303.138 610.595C303.138 610.024 303.708 610.024 304.279 610.595L307.132 612.307C307.703 612.307 307.703 612.877 307.132 613.448C306.561 613.448 306.561 613.448 306.561 613.448Z" fill="#020203"/>
<path d="M308.844 616.871C308.273 616.871 308.273 616.871 308.844 616.871L305.991 612.877C305.991 612.306 305.991 612.306 305.991 611.735C306.561 611.735 306.561 611.735 307.132 611.735L309.414 615.73C309.414 616.3 309.414 616.871 308.844 616.871Z" fill="#020203"/>
<path d="M308.845 641.406C308.274 641.406 308.274 641.406 308.274 640.836C308.274 640.265 308.274 640.265 308.845 640.265L315.692 639.124C316.263 639.124 316.263 639.124 316.263 639.695C316.263 640.265 316.263 640.265 315.692 640.265L308.845 641.406Z" fill="#020203"/>
<path d="M315.692 617.443L308.845 616.872C308.274 616.872 308.274 616.302 308.274 616.302C308.274 615.731 308.845 615.731 308.845 615.731L315.692 616.302C316.263 616.302 316.263 616.872 316.263 616.872C316.263 617.443 315.692 617.443 315.692 617.443Z" fill="#020203"/>
<path d="M324.822 652.248C324.251 652.248 324.251 652.248 324.822 652.248L317.404 649.966C316.833 649.966 316.833 649.395 316.833 648.825C316.833 648.254 317.404 648.254 317.974 648.254L324.822 650.536C325.392 650.536 325.392 651.107 325.392 651.678C325.392 652.248 324.822 652.248 324.822 652.248Z" fill="#020203"/>
<path d="M317.974 649.965C317.974 649.965 317.403 649.965 317.403 649.395L315.121 643.118C315.121 642.547 315.121 642.547 315.692 641.977C316.262 641.977 316.262 641.977 316.833 642.547L319.115 648.824C318.545 649.395 318.545 649.965 317.974 649.965Z" fill="#020203"/>
<path d="M343.08 652.249H324.821C324.25 652.249 324.25 651.678 324.25 651.678L324.821 651.107H343.08C343.651 651.107 343.651 651.678 343.651 651.678L343.08 652.249Z" fill="#020203"/>
<path d="M343.081 652.25C342.511 652.25 342.511 651.679 342.511 651.679V604.318C342.511 603.748 343.081 603.748 343.081 603.748C343.081 603.748 343.652 603.748 343.652 604.318V651.679C343.652 652.25 343.081 652.25 343.081 652.25Z" fill="#020203"/>
<path d="M343.08 604.889H324.821C324.25 604.889 324.25 604.318 324.25 604.318L324.821 603.748H343.08C343.651 603.748 343.651 604.318 343.651 604.318L343.08 604.889Z" fill="#020203"/>
<path d="M315.692 614.018C315.121 614.018 315.121 614.018 315.692 614.018C315.121 614.018 315.121 613.447 315.121 612.877L317.403 606.6C317.403 606.029 317.974 606.029 318.545 606.029C319.115 606.029 319.115 606.6 319.115 607.171L316.833 613.447C316.262 614.018 315.692 614.018 315.692 614.018Z" fill="#020203"/>
<path d="M317.973 607.741C317.973 607.741 317.403 607.741 317.403 607.171C317.403 606.6 317.403 606.6 317.973 606.029L324.821 603.176C325.391 603.176 325.391 603.176 325.962 603.747C325.962 604.317 325.962 604.317 325.391 604.888L317.973 607.741Z" fill="#020203"/>
<path d="M315.692 643.691C315.121 643.691 315.121 643.12 315.121 643.12V613.449C315.121 612.878 315.692 612.878 315.692 612.878L316.262 613.449V643.12C316.262 643.691 315.692 643.691 315.692 643.691Z" fill="#020203"/>
<path d="M134.236 645.402C133.666 645.402 133.666 644.831 133.666 644.831V637.984C133.666 637.413 134.236 637.413 134.236 637.413L134.807 637.984V644.831C134.807 645.402 134.236 645.402 134.236 645.402Z" fill="#020203"/>
<path d="M134.236 638.556C133.666 638.556 133.666 638.556 134.236 638.556C133.666 638.556 133.666 637.985 133.666 637.415L135.948 631.138C135.948 630.567 136.519 630.567 137.089 630.567C137.66 630.567 137.66 631.138 137.66 631.709L135.377 637.985C134.807 638.556 134.236 638.556 134.236 638.556Z" fill="#020203"/>
<path d="M141.083 647.684C140.513 647.684 140.513 647.684 141.083 647.684C140.513 647.114 140.513 647.114 140.513 646.543L141.654 644.831C141.654 644.261 142.224 644.261 142.795 644.831C143.366 644.831 143.366 645.402 142.795 645.973L141.083 647.684Z" fill="#020203"/>
<path d="M142.225 645.973C141.655 645.973 141.655 645.973 142.225 645.973L140.513 645.402C139.943 645.402 139.943 644.832 139.943 644.261C139.943 643.69 140.513 643.69 141.084 643.69L142.225 644.261C142.796 644.261 142.796 644.832 142.796 645.402C142.225 645.973 142.225 645.973 142.225 645.973Z" fill="#020203"/>
<path d="M141.084 645.402H130.813C130.243 645.402 130.243 644.832 130.243 644.832L130.813 644.261H141.084C141.655 644.261 141.655 644.832 141.655 644.832L141.084 645.402Z" fill="#020203"/>
<path d="M141.084 647.684H130.813C130.243 647.684 130.243 647.114 130.243 647.114L130.813 646.543H141.084C141.655 646.543 141.655 647.114 141.655 647.114L141.084 647.684Z" fill="#020203"/>
<path d="M136.519 660.238C136.519 660.238 135.948 660.238 135.948 659.667L133.666 653.391C133.666 652.82 133.666 652.82 134.236 652.25C134.807 652.25 134.807 652.25 135.377 652.82L137.66 659.097C137.089 659.667 137.089 660.238 136.519 660.238Z" fill="#020203"/>
<path d="M134.236 653.961C133.666 653.961 133.666 653.39 133.666 653.39V647.114C133.666 646.543 134.236 646.543 134.236 646.543L134.807 647.114V653.39C134.807 653.961 134.236 653.961 134.236 653.961Z" fill="#020203"/>
<path d="M138.23 629.995C137.66 629.995 137.66 629.995 138.23 629.995C137.66 629.425 137.66 628.854 137.66 628.854L140.513 626.572C141.083 626.572 141.083 626.572 141.654 626.572C141.654 627.142 141.654 627.142 141.654 627.713L138.23 629.995Z" fill="#020203"/>
<path d="M136.519 632.279C135.949 632.279 135.949 632.279 136.519 632.279C135.949 631.708 135.949 631.708 135.949 631.138L137.661 628.855C137.661 628.285 138.231 628.285 138.802 628.855C139.373 628.855 139.373 629.426 138.802 629.996L136.519 632.279Z" fill="#020203"/>
<path d="M141.083 664.232C140.513 664.232 140.513 664.232 141.083 664.232L137.66 662.52C137.089 662.52 137.089 661.949 137.66 661.379C137.66 660.808 138.23 660.808 138.801 661.379L141.654 663.091C142.225 663.091 142.225 663.661 141.654 664.232C141.083 664.232 141.083 664.232 141.083 664.232Z" fill="#020203"/>
<path d="M138.231 662.521C137.661 662.521 137.661 662.521 138.231 662.521L135.949 660.239C135.949 659.668 135.949 659.668 135.949 659.098C136.519 659.098 136.519 659.098 137.09 659.098L138.802 661.38C138.802 661.951 138.802 661.951 138.231 662.521Z" fill="#020203"/>
<path d="M151.354 664.232H141.083C140.513 664.232 140.513 663.661 140.513 663.661L141.083 663.09H151.354C151.925 663.09 151.925 663.661 151.925 663.661L151.354 664.232Z" fill="#020203"/>
<path d="M151.355 664.232C151.355 664.232 150.784 664.232 150.784 663.662C150.784 663.091 150.784 663.091 150.784 662.52L158.773 657.956C159.343 657.956 159.343 657.956 159.914 657.956C159.914 658.526 159.914 658.526 159.914 659.097L151.355 664.232Z" fill="#020203"/>
<path d="M159.344 659.667C158.773 659.667 158.773 659.667 159.344 659.667C158.773 659.097 158.773 659.097 158.773 658.526L163.909 650.537C163.909 649.967 164.479 649.967 165.05 650.537C165.621 650.537 165.621 651.108 165.05 651.679L159.915 659.667C159.344 659.667 159.344 659.667 159.344 659.667Z" fill="#020203"/>
<path d="M164.479 651.678C163.908 651.678 163.908 651.107 163.908 651.107V640.836C163.908 640.266 164.479 640.266 164.479 640.266L165.05 640.836V651.107C165.05 651.678 164.479 651.678 164.479 651.678Z" fill="#020203"/>
<path d="M164.479 641.407C164.479 641.407 163.909 641.407 163.909 640.836L158.773 632.848C158.773 632.277 158.773 632.277 158.773 631.707C159.344 631.707 159.344 631.707 159.915 631.707L165.05 639.695C165.05 640.836 165.05 641.407 164.479 641.407Z" fill="#020203"/>
<path d="M159.343 633.419C158.773 633.419 158.773 633.419 159.343 633.419L150.784 628.283C150.214 628.283 150.214 627.712 150.784 627.142C150.784 626.571 151.355 626.571 151.925 627.142L159.914 632.277C160.485 632.277 160.485 632.848 159.914 633.419C159.343 633.419 159.343 633.419 159.343 633.419Z" fill="#020203"/>
<path d="M151.354 628.284L141.083 627.713C140.513 627.713 140.513 627.142 140.513 627.142C140.513 626.572 141.083 626.572 141.083 626.572L151.354 627.142C151.925 627.142 151.925 627.713 151.925 627.713C151.925 628.284 151.354 628.284 151.354 628.284Z" fill="#020203"/>
<path d="M130.813 652.25C130.243 652.25 130.243 652.25 130.813 652.25C130.243 651.679 130.243 651.108 130.243 651.108L131.955 649.396C131.955 649.396 132.525 649.396 133.096 649.396C133.666 649.396 133.096 649.967 133.096 650.538L130.813 652.25Z" fill="#020203"/>
<path d="M132.525 650.536C131.954 650.536 131.954 650.536 132.525 650.536L130.242 649.966C129.672 649.966 129.672 649.395 129.672 648.825C129.672 648.254 130.242 648.254 130.813 648.254L132.525 648.825C133.095 648.825 133.095 649.395 133.095 649.966C133.095 650.536 132.525 650.536 132.525 650.536Z" fill="#020203"/>
<path d="M130.242 650.537C129.672 650.537 129.672 650.537 130.242 650.537C129.672 649.966 129.672 649.396 129.672 649.396L130.242 648.825C130.242 648.825 130.813 648.825 131.383 648.825C131.954 648.825 131.383 649.396 131.383 649.966L130.242 650.537Z" fill="#020203"/>
<path d="M130.812 652.249C130.242 652.249 130.242 652.249 130.242 651.678L129.1 649.966C129.1 649.396 129.1 649.396 129.671 648.825C130.242 648.825 130.242 648.825 130.812 649.396L131.383 651.108C131.383 651.678 131.383 652.249 130.812 652.249Z" fill="#020203"/>
<path d="M130.242 645.973C129.672 645.973 129.672 645.973 130.242 645.973C129.672 645.402 129.672 644.832 129.672 644.832L130.242 644.261C130.242 644.261 130.813 644.261 131.383 644.261C131.383 644.261 131.383 644.832 131.383 645.402L130.242 645.973Z" fill="#020203"/>
<path d="M130.813 647.685C130.242 647.685 130.242 647.685 130.242 647.114L129.672 645.402C129.672 644.832 129.672 644.832 130.242 644.261C130.813 644.261 130.813 644.261 131.383 644.832L131.954 646.544C131.383 647.114 131.383 647.685 130.813 647.685Z" fill="#020203"/>
<path d="M130.813 642.548C130.813 642.548 130.243 642.548 130.243 641.977C130.243 641.407 130.243 641.407 130.243 640.836L131.955 639.695C132.525 639.695 132.525 639.695 133.096 639.695C133.096 640.265 133.096 640.265 133.096 640.836L130.813 642.548Z" fill="#020203"/>
<path d="M132.524 641.408C131.953 641.408 131.953 641.408 132.524 641.408L130.242 640.266C129.671 640.266 129.671 639.696 130.242 639.125C130.242 638.555 130.812 638.555 131.383 639.125L133.095 640.266C133.095 640.266 133.095 640.837 132.524 641.408Z" fill="#020203"/>
<path d="M130.242 641.408C129.672 641.408 129.672 641.408 130.242 641.408C129.672 641.408 129.672 640.838 129.672 640.267L130.242 639.126C130.242 638.555 130.813 638.555 131.383 638.555C131.954 638.555 131.954 639.126 131.954 639.696L131.383 640.838C130.242 641.408 130.242 641.408 130.242 641.408Z" fill="#020203"/>
<path d="M130.813 642.548C130.813 642.548 130.242 642.548 130.242 641.977L129.672 640.836C129.672 640.265 129.672 640.265 130.242 639.695C130.813 639.695 130.813 639.695 131.383 640.265L131.954 641.407C131.383 641.977 131.383 642.548 130.813 642.548Z" fill="#020203"/>
<path d="M146.22 648.256C145.649 648.256 145.649 648.256 146.22 648.256C145.649 647.686 145.649 647.115 145.649 647.115L147.931 644.833C147.931 644.833 148.502 644.833 149.073 644.833C149.643 644.833 149.073 645.403 149.073 645.974L146.22 648.256Z" fill="#020203"/>
<path d="M148.502 645.973C147.932 645.973 147.932 645.973 148.502 645.973L145.649 644.262C145.079 644.262 145.079 643.691 145.649 643.12C145.649 642.55 146.22 642.55 146.791 643.12L149.073 644.832C149.073 644.832 149.073 645.403 148.502 645.973Z" fill="#020203"/>
<path d="M144.507 645.972C143.937 645.972 143.937 645.972 144.507 645.972C143.937 645.402 143.937 644.831 143.937 644.831L145.649 643.119C145.649 643.119 146.219 643.119 146.79 643.119C147.36 643.119 146.79 643.69 146.79 644.26L144.507 645.972Z" fill="#020203"/>
<path d="M146.219 648.256C145.649 648.256 145.649 648.256 146.219 648.256L143.937 645.974C143.937 645.403 143.937 645.403 143.937 644.833C144.507 644.833 144.507 644.833 145.078 644.833L146.79 647.115C146.79 647.686 146.79 647.686 146.219 648.256Z" fill="#020203"/>
<path d="M146.219 668.227C133.666 668.227 123.965 657.956 123.965 645.973C123.965 633.99 134.236 623.719 146.219 623.719C158.202 623.719 168.473 633.99 168.473 645.973C168.473 657.956 158.202 668.227 146.219 668.227ZM146.219 624.86C134.807 624.86 125.107 634.56 125.107 645.973C125.107 657.385 134.807 667.085 146.219 667.085C157.632 667.085 167.332 657.385 167.332 645.973C167.332 634.56 157.632 624.86 146.219 624.86Z" fill="#020203"/>
<path d="M287.162 753.248C286.592 753.248 286.592 752.678 286.592 752.678V681.351C286.592 680.78 287.162 680.78 287.162 680.78L287.733 681.351V752.678C287.733 753.248 287.162 753.248 287.162 753.248Z" fill="#020203"/>
<path d="M287.162 681.921H121.113C120.543 681.921 120.543 681.35 120.543 681.35L121.113 680.78H287.162C287.732 680.78 287.732 681.35 287.732 681.35L287.162 681.921Z" fill="#020203"/>
<path d="M121.113 753.248C120.543 753.248 120.543 752.677 120.543 752.677V681.35C120.543 680.78 121.113 680.78 121.113 680.78L121.684 681.35V752.677C121.684 753.248 121.113 753.248 121.113 753.248Z" fill="#020203"/>
<path d="M287.162 753.248H121.113C120.542 753.248 120.542 752.677 120.542 752.677L121.113 752.106H287.162C287.732 752.106 287.732 752.677 287.732 752.677L287.162 753.248Z" fill="#020203"/>
<path d="M137.091 717.871C136.52 717.871 136.52 717.871 137.091 717.871C136.52 717.3 136.52 717.3 136.52 716.729L138.802 713.876C138.802 713.306 139.373 713.306 139.944 713.876C140.514 713.876 140.514 714.447 139.944 715.017L137.091 717.871Z" fill="#020203"/>
<path d="M139.373 720.151C138.802 720.151 138.802 720.151 139.373 720.151L136.52 717.869C136.52 717.869 136.52 717.298 136.52 716.728C136.52 716.157 137.091 716.728 137.661 716.728L139.944 719.01C139.944 719.581 139.944 719.581 139.373 720.151Z" fill="#020203"/>
<path d="M139.372 720.151C138.802 720.151 138.802 720.151 139.372 720.151C138.802 719.581 138.802 719.01 138.802 719.01L141.655 716.728C142.226 716.728 142.226 716.728 142.796 716.728C142.796 717.298 142.796 717.298 142.796 717.869L139.372 720.151Z" fill="#020203"/>
<path d="M142.226 717.869C141.655 717.869 141.655 717.869 142.226 717.869L138.802 715.016C138.802 715.016 138.802 714.445 138.802 713.875C138.802 713.304 139.372 713.875 139.943 713.875L142.796 716.728C142.796 717.298 142.796 717.298 142.226 717.869Z" fill="#020203"/>
<path d="M280.314 715.017C279.744 715.017 279.744 715.017 279.744 714.446L277.461 704.175C277.461 703.604 277.461 703.604 278.032 703.604C278.602 703.604 278.602 703.604 278.602 704.175L280.885 714.446C280.885 714.446 280.885 715.017 280.314 715.017Z" fill="#020203"/>
<path d="M278.032 704.746C278.032 704.746 277.462 704.746 277.462 704.175L272.326 696.187C272.326 695.616 272.326 695.616 272.326 695.045C272.897 695.045 272.897 695.045 273.467 695.045L278.603 703.034C278.603 704.175 278.603 704.746 278.032 704.746Z" fill="#020203"/>
<path d="M272.897 696.757C272.326 696.757 272.326 696.757 272.897 696.757L263.196 691.622C262.626 691.622 262.626 691.051 263.196 690.481C263.196 689.91 263.767 689.91 264.337 690.481L273.467 695.616C274.038 695.616 274.038 696.187 273.467 696.757C272.897 696.757 272.897 696.757 272.897 696.757Z" fill="#020203"/>
<path d="M263.766 691.623L254.636 688.769C254.065 688.769 254.065 688.199 254.065 687.628C254.065 687.058 254.636 687.058 255.207 687.058L264.336 689.911C264.907 689.911 264.907 690.481 264.907 691.052C264.336 691.623 263.766 691.623 263.766 691.623Z" fill="#020203"/>
<path d="M254.636 746.402C254.065 746.402 254.065 746.402 254.065 745.831C254.065 745.261 254.065 745.261 254.636 744.69L263.766 741.837C264.336 741.837 264.336 741.837 264.907 742.408C264.907 742.978 264.907 742.978 264.336 743.549L254.636 746.402Z" fill="#020203"/>
<path d="M263.766 743.547C263.766 743.547 263.196 743.547 263.196 742.976C263.196 742.405 263.196 742.405 263.196 741.835L272.326 736.699C272.896 736.699 272.896 736.699 273.467 736.699C273.467 737.27 273.467 737.27 273.467 737.84L263.766 743.547Z" fill="#020203"/>
<path d="M272.897 738.411C272.326 738.411 272.326 738.411 272.897 738.411C272.326 737.84 272.326 737.84 272.326 737.27L277.462 729.281C277.462 728.71 278.032 728.71 278.603 729.281C279.174 729.281 279.174 729.852 278.603 730.422L273.467 738.411C272.897 738.411 272.897 738.411 272.897 738.411Z" fill="#020203"/>
<path d="M278.032 730.424C277.461 730.424 277.461 729.854 277.461 729.854L279.744 719.583C279.744 719.012 280.314 719.012 280.314 719.012C280.885 719.012 280.885 719.583 280.885 719.583L278.602 729.854C278.602 730.424 278.032 730.424 278.032 730.424Z" fill="#020203"/>
<path d="M128.531 698.47C127.961 698.47 127.961 698.47 128.531 698.47C127.961 698.47 127.961 697.899 127.961 697.329L130.243 691.052C130.243 690.481 130.814 690.481 131.384 690.481C131.955 690.481 131.955 691.052 131.955 691.623L129.673 697.899C129.102 698.47 128.531 698.47 128.531 698.47Z" fill="#020203"/>
<path d="M130.813 692.193C130.813 692.193 130.243 692.193 130.243 691.623C130.243 691.052 130.243 691.052 130.813 690.481L138.231 687.058C138.802 687.058 138.802 687.058 139.372 687.628C139.372 688.199 139.372 688.199 138.802 688.769L130.813 692.193Z" fill="#020203"/>
<path d="M138.232 746.401C137.661 746.401 137.661 746.401 138.232 746.401L130.243 742.977C129.673 742.977 129.673 742.407 129.673 741.836C129.673 741.266 130.243 741.266 130.814 741.266L138.232 744.689C138.803 744.689 138.803 745.26 138.803 745.831C138.803 746.401 138.232 746.401 138.232 746.401Z" fill="#020203"/>
<path d="M130.814 742.977C130.814 742.977 130.243 742.977 130.243 742.406L127.961 736.129C127.961 735.559 127.961 735.559 128.531 734.988C129.102 734.988 129.102 734.988 129.673 735.559L131.955 741.836C131.384 742.406 131.384 742.977 130.814 742.977Z" fill="#020203"/>
<path d="M280.314 720.151C279.743 720.151 279.743 719.581 279.743 719.581V714.445C279.743 713.875 280.314 713.875 280.314 713.875L280.884 714.445V719.581C280.884 720.151 280.314 720.151 280.314 720.151Z" fill="#020203"/>
<path d="M254.637 746.4H138.232C137.661 746.4 137.661 745.829 137.661 745.829L138.232 745.258H254.637C255.207 745.258 255.207 745.829 255.207 745.829L254.637 746.4Z" fill="#020203"/>
<path d="M128.531 736.699C127.961 736.699 127.961 736.129 127.961 736.129V697.898C127.961 697.327 128.531 697.327 128.531 697.327L129.102 697.898V736.129C129.102 736.699 128.531 736.699 128.531 736.699Z" fill="#020203"/>
<path d="M254.637 688.77H138.232C137.661 688.77 137.661 688.199 137.661 688.199L138.232 687.628H254.637C255.207 687.628 255.207 688.199 255.207 688.199L254.637 688.77Z" fill="#020203"/>
<path d="M277.461 546.685L276.89 546.115L230.1 585.487L230.671 586.058L277.461 546.685Z" fill="#020203"/>
<path d="M167.332 465.086L166.762 464.515L119.971 503.887L120.542 504.458L167.332 465.086Z" fill="#020203"/>
<path d="M751.07 397.184V389.196H760.771V397.184H751.07ZM752.782 390.337V395.473H759.63V390.337H752.782Z" fill="#020203"/>
<path d="M751.07 334.417V326.429H760.771V334.417H751.07ZM752.782 327.57V332.705H759.63V327.57H752.782Z" fill="#020203"/>
<path d="M759.629 333.274H759.059V389.195H759.629V333.274Z" fill="#020203"/>
<path d="M752.782 333.274H752.211V389.195H752.782V333.274Z" fill="#020203"/>
<path d="M756.205 334.417H755.634V389.195H756.205V334.417Z" fill="#020203"/>
<path d="M760.77 258.526L761.34 259.096L721.968 305.887L721.397 305.316L760.77 258.526Z" fill="#020203"/>
<path d="M340.799 752.678H309.985C309.415 752.678 309.415 752.107 309.415 752.107V684.775C309.415 684.204 309.985 684.204 309.985 684.204H340.799C341.369 684.204 341.369 684.775 341.369 684.775V752.107C341.369 752.678 340.799 752.678 340.799 752.678ZM310.556 751.537H340.228V685.345H310.556V751.537Z" fill="#020203"/>
<path d="M309.985 752.107C309.415 752.107 309.415 752.107 309.985 752.107C309.415 752.107 309.415 751.536 309.415 750.966L340.228 684.204C340.228 683.633 340.799 683.633 341.369 683.633C341.94 683.633 341.94 684.204 341.94 684.775L311.127 751.536C310.556 752.107 309.985 752.107 309.985 752.107Z" fill="#020203"/>
<path d="M340.799 753.249C340.799 753.249 340.228 753.249 340.228 752.678L309.415 685.917C309.415 685.346 309.415 685.346 309.985 684.775C310.556 684.775 310.556 684.775 311.127 685.346L341.94 752.108C341.369 752.678 341.369 753.249 340.799 753.249Z" fill="#020203"/>
<path d="M890.871 349.254V341.265H900.001V349.254H890.871ZM892.012 342.406V347.542H898.289V342.406H892.012Z" fill="#020203"/>
<path d="M890.871 266.514V258.526H900.001V266.514H890.871ZM892.012 259.667V264.803H898.289V259.667H892.012Z" fill="#020203"/>
<path d="M890.871 431.992V424.004H900.001V431.992H890.871ZM892.012 425.145V430.281H898.289V425.145H892.012Z" fill="#020203"/>
<path d="M890.871 514.732V506.743H900.001V514.732H890.871ZM892.012 507.884V513.02H898.289V507.884H892.012Z" fill="#020203"/>
<path d="M898.858 255.673H898.288V514.731H898.858V255.673Z" fill="#020203"/>
<path d="M891.441 255.102H890.871V513.59H891.441V255.102Z" fill="#020203"/>
<path d="M895.435 264.801H894.865V341.263H895.435V264.801Z" fill="#020203"/>
<path d="M895.435 348.111H894.865V424.002H895.435V348.111Z" fill="#020203"/>
<path d="M895.435 430.85H894.865V506.741H895.435V430.85Z" fill="#020203"/>
<path d="M791.583 432.563V455.387H789.3V434.275H784.165V431.992H791.583V432.563Z" fill="black"/>
<path d="M800.142 452.534C800.713 453.105 800.713 453.105 800.713 453.675V454.246C800.713 454.246 800.713 454.816 800.142 455.387L799.001 459.952H797.289L798.431 455.387C797.86 455.387 797.86 454.816 797.86 454.816C797.86 454.816 797.289 454.246 797.289 453.675C797.289 453.105 797.289 452.534 797.86 452.534C798.431 452.534 798.431 451.963 799.001 451.963C799.572 451.963 799.572 451.963 800.142 452.534Z" fill="black"/>
<path d="M817.261 443.405C818.973 444.546 819.543 446.258 819.543 448.54C819.543 449.681 818.973 450.823 818.402 451.964C817.831 453.105 816.69 453.676 815.549 454.246C814.408 454.817 812.696 455.388 810.984 455.388C809.272 455.388 807.56 455.388 806.419 454.817C805.278 454.246 803.566 453.676 802.995 452.534L804.137 450.823C804.707 451.393 805.849 451.964 806.99 452.534C808.131 453.105 809.843 453.105 810.984 453.105C812.696 453.105 814.408 452.534 815.549 451.964C816.69 451.393 817.261 450.252 817.261 448.54C817.261 446.828 816.69 445.687 815.549 445.116C814.408 444.546 812.125 443.975 809.843 443.975H804.707L805.849 432.563H818.402V434.845H808.131L807.56 442.263H810.413C813.267 441.693 815.549 442.263 817.261 443.405Z" fill="black"/>
<path d="M787.588 494.19C787.017 491.337 786.447 489.054 786.447 485.631C786.447 482.778 787.017 479.925 787.588 477.071C788.159 474.218 789.3 471.936 790.441 470.224H792.724C791.582 472.507 790.441 474.789 789.871 477.071C789.3 479.354 788.729 482.207 788.729 485.06C788.729 487.913 789.3 490.766 789.871 493.049C790.441 495.331 791.582 498.184 792.724 499.896H790.441C789.3 499.325 788.159 496.472 787.588 494.19Z" fill="black"/>
<path d="M809.272 483.347C810.414 484.488 810.984 486.2 810.984 487.912C810.984 489.053 810.414 490.194 809.843 491.335C809.272 492.476 808.131 493.047 806.99 493.618C805.849 494.188 804.137 494.759 802.425 494.759C800.713 494.759 799.001 494.759 797.86 494.188C796.719 493.618 795.007 493.047 794.436 491.906L795.578 490.194C796.148 490.765 797.289 491.335 798.431 491.906C799.572 492.476 801.284 492.476 802.425 492.476C804.137 492.476 805.849 491.906 806.99 491.335C808.131 490.765 808.702 489.623 808.702 487.912C808.702 486.77 808.131 485.629 806.99 484.488C805.849 483.917 804.137 483.347 802.425 483.347H800.713V481.635L806.99 473.646H795.007V471.364H809.843V473.076L803.566 481.064C805.849 481.635 808.131 482.205 809.272 483.347Z" fill="black"/>
<path d="M817.261 491.906C817.832 492.477 817.832 492.477 817.832 493.047V493.618C817.832 494.189 817.832 494.189 817.261 494.759L816.12 499.324H814.408L815.549 494.759C814.978 494.759 814.978 494.189 814.978 494.189C814.978 493.618 814.408 493.618 814.408 493.047C814.408 492.477 814.408 491.906 814.978 491.906C815.549 491.906 815.549 491.335 816.12 491.335C816.69 491.335 817.261 491.335 817.261 491.906Z" fill="black"/>
<path d="M825.249 493.618C824.107 492.477 822.966 491.336 821.825 489.624C821.254 487.912 820.684 485.63 820.684 483.347C820.684 481.065 821.254 478.782 821.825 477.071C822.396 475.359 823.537 474.218 825.249 473.076C826.39 471.935 828.102 471.935 829.813 471.935C831.525 471.935 833.237 472.506 834.378 473.076C835.52 474.218 836.661 475.359 837.802 477.071C838.373 478.782 838.943 481.065 838.943 483.347C838.943 485.63 838.373 487.912 837.802 489.624C837.232 491.336 836.09 492.477 834.378 493.618C833.237 494.76 831.525 494.76 829.813 494.76C828.102 494.76 826.96 494.189 825.249 493.618ZM833.808 491.336C834.949 490.765 835.52 489.624 836.09 487.912C836.661 486.2 836.661 485.059 836.661 482.777C836.661 480.494 836.661 478.782 836.09 477.641C835.52 476.5 834.949 475.359 833.808 474.218C832.667 473.647 831.525 473.076 830.384 473.076C829.243 473.076 828.102 473.647 826.96 474.218C825.819 474.788 825.249 475.929 824.678 477.641C824.107 479.353 824.107 480.494 824.107 482.777C824.107 485.059 824.107 486.771 824.678 487.912C825.249 489.053 825.819 490.195 826.96 491.336C828.102 491.907 829.243 492.477 830.384 492.477C831.525 492.477 832.667 492.477 833.808 491.336Z" fill="black"/>
<path d="M842.367 501.036C843.509 498.753 844.65 496.471 845.22 494.188C845.791 491.906 846.362 489.053 846.362 486.2C846.362 483.347 845.791 480.494 845.22 478.211C844.65 475.929 843.509 473.076 842.367 471.364H844.65C845.791 473.076 846.932 475.358 847.503 478.211C848.073 481.064 848.644 483.917 848.644 486.77C848.644 489.623 848.073 492.476 847.503 495.33C846.932 498.183 845.791 500.465 844.65 502.177H842.367V501.036Z" fill="black"/>
<path d="M669.472 474.787V497.612H667.19V476.499H662.054V474.217H669.472V474.787Z" fill="black"/>
<path d="M691.155 474.788V476.5L681.455 497.613H679.172L688.873 476.5H676.89V481.065H674.608V474.788H691.155Z" fill="black"/>
<path d="M695.15 495.33C695.721 495.901 695.721 495.9 695.721 496.471V497.042C695.721 497.042 695.721 497.612 695.15 498.183L694.009 502.748H692.297L693.438 498.183C692.868 498.183 692.868 497.612 692.868 497.612C692.868 497.612 692.297 497.042 692.297 496.471C692.297 495.9 692.297 495.33 692.868 495.33C693.438 495.33 693.438 494.759 694.009 494.759C694.579 494.759 695.15 494.759 695.15 495.33Z" fill="black"/>
<path d="M712.268 485.059C713.409 485.63 714.551 486.2 715.121 487.342C715.692 488.483 716.263 489.624 716.263 490.765C716.263 491.906 715.692 493.618 715.121 494.189C714.551 495.33 713.409 495.901 712.268 496.471C711.127 497.042 709.986 497.613 708.274 497.613C705.421 497.613 703.138 496.471 701.427 494.76C699.715 492.477 699.144 490.195 699.144 486.2C699.144 483.918 699.715 481.635 700.285 479.924C701.427 478.212 702.568 477.071 703.709 475.929C705.421 474.788 707.133 474.788 709.415 474.788C711.698 474.788 713.409 475.359 715.121 475.929L713.98 477.641C712.839 477.071 711.127 476.5 709.415 476.5C707.133 476.5 704.85 477.071 703.709 478.782C701.997 480.494 701.427 482.777 701.427 485.63C701.427 486.2 701.427 486.771 701.427 487.342C701.997 486.2 703.138 485.059 704.28 484.489C705.421 483.918 707.133 483.347 708.845 483.347C709.986 484.489 711.127 484.489 712.268 485.059ZM712.268 494.76C713.409 493.618 713.98 492.477 713.98 491.336C713.98 490.195 713.409 488.483 712.268 487.912C711.127 486.771 709.986 486.771 708.274 486.771C707.133 486.771 705.992 486.771 705.421 487.342C704.28 487.912 703.709 488.483 703.138 489.053C702.568 489.624 702.568 490.765 702.568 491.336C702.568 492.477 702.568 493.048 703.138 493.618C703.709 494.189 704.28 494.76 705.421 495.33C706.562 495.901 707.703 495.901 708.845 495.901C709.986 496.471 711.127 495.901 712.268 494.76Z" fill="black"/>
<path d="M207.276 660.237H202.711V666.514H200.428V660.237H187.304V658.525L199.287 643.119H202.14L190.157 657.955H199.858V652.819H202.14V657.955H206.705V660.237H207.276Z" fill="black"/>
<path d="M213.553 663.09C214.124 663.66 214.124 663.66 214.124 664.231V664.802C214.124 665.372 214.124 665.372 213.553 665.943L212.412 670.508H210.7L211.841 665.943C211.27 665.943 211.27 665.372 211.27 665.372C211.27 664.801 210.7 664.802 210.7 664.231C210.7 663.66 210.7 663.09 211.27 663.09C211.841 663.09 211.841 662.519 212.412 662.519C212.412 662.519 212.982 663.09 213.553 663.09Z" fill="black"/>
<path d="M236.377 660.237H231.813V666.514H229.53V660.237H216.406V658.525L228.389 643.119H231.242L219.259 657.955H229.53V652.819H231.813V657.955H236.377V660.237Z" fill="black"/>
<path d="M563.909 424.004H369.9V309.881H563.909V424.004ZM371.612 422.863H562.768V311.023H371.612V422.863Z" fill="#020203"/>
<path d="M458.346 310.453H457.205V423.434H458.346V310.453Z" fill="#020203"/>
<path d="M562.198 347.542H458.917V348.684H562.198V347.542Z" fill="#020203"/>
<path d="M562.197 385.204H458.346V386.345H562.197V385.204Z" fill="#020203"/>
<path d="M503.424 413.163V415.445H486.305V413.734L496.576 403.462C497.718 402.321 498.859 401.18 499.429 400.039C500 398.898 500 398.327 500 397.186C500 395.474 499.429 394.333 498.288 393.762C497.147 393.191 495.435 393.191 493.723 393.191C490.87 393.191 488.588 394.333 486.876 396.045L485.164 394.333C486.305 393.191 487.447 392.621 488.588 391.48C489.729 390.338 492.011 390.338 493.723 390.338C496.006 390.338 498.288 390.909 499.429 392.05C501.141 393.191 501.712 394.903 501.712 397.186C501.712 398.327 501.712 399.468 501.141 400.609C500.571 401.751 499.429 402.892 497.718 404.604L489.158 412.592H503.424V413.163Z" fill="black"/>
<path d="M520.542 403.461C521.683 404.602 522.824 406.314 522.824 408.597C522.824 409.738 522.253 411.45 521.683 412.591C521.112 413.732 519.971 414.303 518.83 415.444C517.688 416.015 515.977 416.585 513.694 416.585C511.982 416.585 510.27 416.015 508.559 415.444C506.847 414.873 505.706 414.303 504.564 413.162L505.706 410.879C506.276 411.45 507.417 412.591 509.129 413.162C510.27 413.732 511.982 413.732 513.694 413.732C515.977 413.732 517.118 413.162 518.259 412.591C519.4 412.02 519.971 410.308 519.971 409.167C519.971 407.455 519.4 406.314 518.259 405.744C517.118 405.173 515.406 404.602 513.124 404.602H511.412V402.89L518.259 394.331H505.706V392.049H521.683V393.761L514.835 401.179C517.118 401.749 519.4 402.32 520.542 403.461Z" fill="black"/>
<path d="M529.672 412.02C530.243 412.59 530.243 412.59 530.243 413.161C530.243 413.161 530.243 413.732 530.243 414.302C530.243 414.873 530.243 414.873 529.672 415.444L527.961 420.008H526.249L527.39 414.873C526.819 414.873 526.819 414.302 526.249 414.302C526.249 413.732 525.678 413.732 525.678 413.161C525.678 412.59 525.678 412.02 526.249 412.02C526.819 412.02 526.819 411.449 527.39 411.449C527.961 411.449 529.102 412.02 529.672 412.02Z" fill="black"/>
<path d="M537.66 414.303C535.948 413.162 534.807 412.021 534.236 409.739C533.666 407.456 533.095 405.744 533.095 402.891C533.095 400.038 533.666 398.326 534.236 396.044C534.807 393.761 535.948 392.62 537.66 391.479C539.372 390.338 541.084 389.767 542.795 389.767C544.507 389.767 546.219 390.338 547.931 391.479C549.643 392.62 550.784 393.761 551.355 396.044C551.925 398.326 552.496 400.038 552.496 402.891C552.496 405.744 551.925 407.456 551.355 409.739C550.784 412.021 549.072 413.162 547.931 414.303C546.219 415.445 544.507 416.015 542.795 416.015C541.084 416.015 539.372 414.874 537.66 414.303ZM546.79 412.021C547.931 411.45 548.502 410.309 549.072 408.597C549.643 406.885 550.213 405.174 550.213 402.891C550.213 400.609 549.643 398.897 549.072 397.185C548.502 395.473 547.36 394.332 546.79 393.761C546.219 393.191 544.507 393.191 542.795 393.191C541.084 393.191 539.942 393.761 538.801 394.332C537.66 394.903 537.089 396.044 536.519 397.756C535.948 399.468 535.377 401.179 535.377 403.462C535.377 405.744 535.948 407.456 536.519 409.168C537.089 410.88 538.23 412.021 538.801 412.592C539.372 413.162 541.084 413.733 542.795 413.733C544.507 413.733 545.648 413.162 546.79 412.021Z" fill="black"/>
<path d="M511.983 376.072V378.355H494.865V376.643L505.136 366.372C506.277 365.231 507.419 364.09 507.989 362.948C508.56 361.807 508.56 361.236 508.56 360.095C508.56 358.383 507.989 357.242 506.848 356.672C505.707 356.101 504.565 355.53 502.854 355.53C500.001 355.53 497.718 356.672 496.006 358.383L494.294 356.672C495.436 355.53 496.577 354.96 497.718 353.818C499.43 353.248 501.142 352.677 502.854 352.677C505.136 352.677 507.419 353.248 508.56 354.389C510.272 355.53 510.842 357.242 510.842 359.525C510.842 360.666 510.842 361.807 510.272 362.948C509.701 364.09 508.56 365.231 506.848 366.943L498.859 376.072H511.983Z" fill="black"/>
<path d="M522.254 353.82V378.356H519.972V356.102H514.266V353.82H522.254Z" fill="black"/>
<path d="M531.385 374.93C531.955 375.501 531.955 375.501 531.955 376.071C531.955 376.071 531.955 376.642 531.955 377.212C531.955 377.783 531.955 377.783 531.385 378.354L529.673 382.919H527.961L529.102 377.783C528.532 377.783 528.532 377.212 527.961 377.212C527.961 376.642 527.39 376.642 527.39 376.071C527.39 375.501 527.39 374.93 527.961 374.93C528.532 374.93 528.532 374.359 529.102 374.359C529.673 374.359 530.814 374.93 531.385 374.93Z" fill="black"/>
<path d="M549.643 365.803C551.355 366.944 551.926 368.656 551.926 370.938C551.926 372.079 551.355 373.791 550.785 374.933C550.214 376.074 549.073 377.215 547.931 377.786C546.79 378.356 545.078 378.927 542.796 378.927C541.084 378.927 539.372 378.356 537.66 377.786C535.949 377.215 534.807 376.644 533.666 375.503L534.807 373.221C535.378 373.791 536.519 374.933 538.231 375.503C539.943 376.074 541.655 376.074 543.367 376.074C545.649 376.074 546.79 375.503 547.931 374.933C549.073 373.791 549.643 372.65 549.643 371.509C549.643 369.797 549.073 368.656 547.931 367.515C546.79 366.373 544.508 366.373 541.655 366.373H536.519L537.66 353.82H551.355V356.102H539.943L539.372 364.091H542.796C545.649 363.52 547.931 364.091 549.643 365.803Z" fill="black"/>
<path d="M501.712 316.156V340.692H499.429V318.438H493.723V316.156H501.712Z" fill="black"/>
<path d="M524.537 316.156V317.868L514.266 340.692H511.412L521.683 318.438H509.13V323.003H506.848V316.156H524.537Z" fill="black"/>
<path d="M529.672 337.84C530.243 338.411 530.243 338.411 530.243 338.981C530.243 338.981 530.243 339.552 530.243 340.123C530.243 340.693 530.243 340.693 529.672 341.264L527.961 345.829H526.249L527.39 340.693C526.819 340.693 526.819 340.123 526.249 340.123C526.249 339.552 525.678 339.552 525.678 338.981C525.678 338.411 525.678 337.84 526.249 337.84C526.819 337.84 526.819 337.27 527.39 337.27C527.961 337.27 529.102 337.27 529.672 337.84Z" fill="black"/>
<path d="M547.931 326.997C549.072 327.568 550.213 328.709 550.784 329.85C551.355 330.992 551.925 332.133 551.925 333.845C551.925 335.557 551.355 336.698 550.784 337.839C550.213 338.98 549.072 340.122 547.931 340.692C546.79 341.263 545.078 341.833 543.366 341.833C539.942 341.833 537.66 340.692 535.948 338.41C534.236 336.127 533.095 333.274 533.095 329.28C533.095 326.427 533.665 324.144 534.236 322.433C535.377 320.721 536.519 319.009 538.23 317.868C539.942 316.726 541.654 316.156 543.937 316.156C546.219 316.156 548.501 316.726 549.643 317.297L549.072 319.579C547.931 319.009 546.219 318.438 544.507 318.438C541.654 318.438 539.942 319.579 538.23 321.291C536.519 323.003 535.948 325.286 535.948 328.709C535.948 329.28 535.948 329.85 535.948 330.992C536.519 329.85 537.66 328.709 538.801 328.139C539.942 327.568 541.654 326.997 543.366 326.997C545.078 325.856 546.219 326.427 547.931 326.997ZM547.36 337.268C548.501 336.127 549.072 334.986 549.072 333.274C549.072 331.562 548.501 330.421 547.36 329.28C546.219 328.139 544.507 327.568 542.795 327.568C541.654 327.568 540.513 327.568 539.372 328.139C538.23 328.709 537.66 329.28 537.089 329.85C536.519 330.421 536.519 331.562 536.519 332.704C536.519 333.845 536.519 334.415 537.089 335.557C537.66 336.127 538.23 337.268 539.372 337.268C540.513 337.839 541.654 337.839 542.795 337.839C545.078 338.98 546.219 338.41 547.36 337.268Z" fill="black"/>
<path d="M404.136 350.964V382.918H400.713V353.817H393.295V350.964H404.136Z" fill="black"/>
<path d="M420.114 381.206C417.832 380.064 415.549 377.782 413.837 375.5C412.125 373.217 412.125 370.364 412.125 366.94C412.125 364.087 412.696 361.234 414.408 358.381C416.12 355.528 417.832 353.816 420.685 352.675C423.538 351.534 426.391 350.393 429.244 350.393C431.526 350.393 433.809 350.963 436.091 351.534C438.374 352.104 440.085 353.246 441.227 354.957L438.944 357.24C436.662 354.957 433.238 353.246 429.244 353.246C426.961 353.246 424.108 353.816 422.396 354.957C420.685 356.099 418.402 357.811 417.261 359.522C416.12 361.805 415.549 364.087 415.549 366.37C415.549 368.652 416.12 370.935 417.261 373.217C418.402 375.5 420.114 376.641 422.396 377.782C424.679 378.923 426.961 379.494 429.244 379.494C433.238 379.494 436.091 378.353 438.944 375.5L441.227 377.782C440.085 379.494 437.803 380.635 436.091 381.206C433.809 381.776 432.097 382.347 429.244 382.347C425.82 383.488 422.967 382.918 420.114 381.206Z" fill="black"/>
</svg>
