<?xml version="1.0" encoding="utf-8"?>
<!-- Generator: Adobe Illustrator 25.4.1, SVG Export Plug-In . SVG Version: 6.00 Build 0)  -->
<svg version="1.1" id="Слой_1" xmlns="http://www.w3.org/2000/svg" xmlns:xlink="http://www.w3.org/1999/xlink" x="0px" y="0px"
	 viewBox="0 0 1312.5 1615.9" style="enable-background:new 0 0 1312.5 1615.9;" xml:space="preserve">
<style type="text/css">
	.st0{fill:none;}
	.st1{fill:none;stroke:#1E1E1C;stroke-width:0.3;stroke-linecap:square;stroke-linejoin:bevel;}
	.st2{fill:#020203;}
	.st3{fill:#020203;stroke:#020203;stroke-width:0.75;stroke-miterlimit:10;}
	.st4{fill:url(#SVGID_1_);}
	.st5{fill:url(#SVGID_00000161594353225882773960000013908462048645526430_);}
	.st6{fill:url(#SVGID_00000161616667054314261220000003891893114752876960_);}
</style>
<pattern  x="908.3" y="-573.2" width="72" height="72" patternUnits="userSpaceOnUse" id="Diamond" viewBox="72.2 -144.2 72 72" style="overflow:visible;">
	<g>
		<rect x="72.2" y="-144.2" class="st0" width="72" height="72"/>
		<g>
			<line class="st1" x1="144.2" y1="-72.2" x2="216.2" y2="-0.2"/>
			<line class="st1" x1="216.2" y1="-72.2" x2="144.2" y2="-0.2"/>
			<line class="st1" x1="210.2" y1="-72.2" x2="141.2" y2="-3.2"/>
			<line class="st1" x1="204.2" y1="-72.2" x2="141.2" y2="-9.2"/>
			<line class="st1" x1="198.2" y1="-72.2" x2="141.2" y2="-15.2"/>
			<line class="st1" x1="192.2" y1="-72.2" x2="141.2" y2="-21.2"/>
			<line class="st1" x1="186.2" y1="-72.2" x2="141.2" y2="-27.2"/>
			<line class="st1" x1="180.2" y1="-72.2" x2="141.2" y2="-33.2"/>
			<line class="st1" x1="174.2" y1="-72.2" x2="141.2" y2="-39.2"/>
			<line class="st1" x1="168.2" y1="-72.2" x2="141.2" y2="-45.2"/>
			<line class="st1" x1="162.2" y1="-72.2" x2="141.2" y2="-51.2"/>
			<line class="st1" x1="156.2" y1="-72.2" x2="141.2" y2="-57.2"/>
			<line class="st1" x1="150.2" y1="-72.2" x2="141.2" y2="-63.2"/>
			<line class="st1" x1="144.2" y1="-72.2" x2="141.2" y2="-69.2"/>
		</g>
		<g>
			<line class="st1" x1="72.2" y1="-72.2" x2="144.2" y2="-0.2"/>
			<line class="st1" x1="78.2" y1="-72.2" x2="147.2" y2="-3.2"/>
			<line class="st1" x1="84.2" y1="-72.2" x2="147.2" y2="-9.2"/>
			<line class="st1" x1="90.2" y1="-72.2" x2="147.2" y2="-15.2"/>
			<line class="st1" x1="96.2" y1="-72.2" x2="147.2" y2="-21.2"/>
			<line class="st1" x1="102.2" y1="-72.2" x2="147.2" y2="-27.2"/>
			<line class="st1" x1="108.2" y1="-72.2" x2="147.2" y2="-33.2"/>
			<line class="st1" x1="114.2" y1="-72.2" x2="147.2" y2="-39.2"/>
			<line class="st1" x1="120.2" y1="-72.2" x2="147.2" y2="-45.2"/>
			<line class="st1" x1="126.2" y1="-72.2" x2="147.2" y2="-51.2"/>
			<line class="st1" x1="132.2" y1="-72.2" x2="147.2" y2="-57.2"/>
			<line class="st1" x1="138.2" y1="-72.2" x2="147.3" y2="-63.2"/>
			<line class="st1" x1="144.2" y1="-72.2" x2="147.3" y2="-69.2"/>
			<line class="st1" x1="144.2" y1="-72.2" x2="72.2" y2="-0.2"/>
			<line class="st1" x1="138.2" y1="-72.2" x2="69.2" y2="-3.2"/>
			<line class="st1" x1="132.2" y1="-72.2" x2="69.2" y2="-9.2"/>
			<line class="st1" x1="126.2" y1="-72.2" x2="69.2" y2="-15.2"/>
			<line class="st1" x1="120.2" y1="-72.2" x2="69.2" y2="-21.2"/>
			<line class="st1" x1="114.2" y1="-72.2" x2="69.2" y2="-27.2"/>
			<line class="st1" x1="108.2" y1="-72.2" x2="69.2" y2="-33.2"/>
			<line class="st1" x1="102.2" y1="-72.2" x2="69.2" y2="-39.2"/>
			<line class="st1" x1="96.2" y1="-72.2" x2="69.2" y2="-45.2"/>
			<line class="st1" x1="90.2" y1="-72.2" x2="69.2" y2="-51.2"/>
			<line class="st1" x1="84.2" y1="-72.2" x2="69.2" y2="-57.2"/>
			<line class="st1" x1="78.2" y1="-72.2" x2="69.2" y2="-63.2"/>
			<line class="st1" x1="72.2" y1="-72.2" x2="69.2" y2="-69.2"/>
		</g>
		<g>
			<line class="st1" x1="0.2" y1="-72.2" x2="72.2" y2="-0.2"/>
			<line class="st1" x1="6.2" y1="-72.2" x2="75.2" y2="-3.2"/>
			<line class="st1" x1="12.2" y1="-72.2" x2="75.2" y2="-9.2"/>
			<line class="st1" x1="18.2" y1="-72.2" x2="75.2" y2="-15.2"/>
			<line class="st1" x1="24.2" y1="-72.2" x2="75.2" y2="-21.2"/>
			<line class="st1" x1="30.2" y1="-72.2" x2="75.2" y2="-27.2"/>
			<line class="st1" x1="36.2" y1="-72.2" x2="75.2" y2="-33.2"/>
			<line class="st1" x1="42.2" y1="-72.2" x2="75.2" y2="-39.2"/>
			<line class="st1" x1="48.2" y1="-72.2" x2="75.2" y2="-45.2"/>
			<line class="st1" x1="54.2" y1="-72.2" x2="75.2" y2="-51.2"/>
			<line class="st1" x1="60.2" y1="-72.2" x2="75.2" y2="-57.2"/>
			<line class="st1" x1="66.2" y1="-72.2" x2="75.3" y2="-63.2"/>
			<line class="st1" x1="72.2" y1="-72.2" x2="75.3" y2="-69.2"/>
			<line class="st1" x1="72.2" y1="-72.2" x2="0.2" y2="-0.2"/>
		</g>
		<g>
			<line class="st1" x1="144.2" y1="-144.2" x2="216.2" y2="-72.2"/>
			<line class="st1" x1="141.2" y1="-141.2" x2="210.2" y2="-72.2"/>
			<line class="st1" x1="141.2" y1="-135.2" x2="204.2" y2="-72.2"/>
			<line class="st1" x1="141.2" y1="-129.2" x2="198.2" y2="-72.2"/>
			<line class="st1" x1="141.2" y1="-123.2" x2="192.2" y2="-72.2"/>
			<line class="st1" x1="141.2" y1="-117.2" x2="186.2" y2="-72.2"/>
			<line class="st1" x1="141.2" y1="-111.2" x2="180.2" y2="-72.2"/>
			<line class="st1" x1="141.2" y1="-105.2" x2="174.2" y2="-72.2"/>
			<line class="st1" x1="141.2" y1="-99.2" x2="168.2" y2="-72.2"/>
			<line class="st1" x1="141.2" y1="-93.2" x2="162.2" y2="-72.2"/>
			<line class="st1" x1="141.2" y1="-87.2" x2="156.2" y2="-72.2"/>
			<line class="st1" x1="141.2" y1="-81.3" x2="150.2" y2="-72.2"/>
			<line class="st1" x1="141.2" y1="-75.3" x2="144.2" y2="-72.2"/>
			<line class="st1" x1="216.2" y1="-144.2" x2="144.2" y2="-72.2"/>
			<line class="st1" x1="210.2" y1="-144.2" x2="141.2" y2="-75.2"/>
			<line class="st1" x1="204.2" y1="-144.2" x2="141.2" y2="-81.2"/>
			<line class="st1" x1="198.2" y1="-144.2" x2="141.2" y2="-87.2"/>
			<line class="st1" x1="192.2" y1="-144.2" x2="141.2" y2="-93.2"/>
			<line class="st1" x1="186.2" y1="-144.2" x2="141.2" y2="-99.2"/>
			<line class="st1" x1="180.2" y1="-144.2" x2="141.2" y2="-105.2"/>
			<line class="st1" x1="174.2" y1="-144.2" x2="141.2" y2="-111.2"/>
			<line class="st1" x1="168.2" y1="-144.2" x2="141.2" y2="-117.2"/>
			<line class="st1" x1="162.2" y1="-144.2" x2="141.2" y2="-123.2"/>
			<line class="st1" x1="156.2" y1="-144.2" x2="141.2" y2="-129.2"/>
			<line class="st1" x1="150.2" y1="-144.2" x2="141.2" y2="-135.2"/>
			<line class="st1" x1="144.2" y1="-144.2" x2="141.2" y2="-141.2"/>
		</g>
		<g>
			<line class="st1" x1="72.2" y1="-144.2" x2="144.2" y2="-72.2"/>
			<line class="st1" x1="69.2" y1="-141.2" x2="138.2" y2="-72.2"/>
			<line class="st1" x1="69.2" y1="-135.2" x2="132.2" y2="-72.2"/>
			<line class="st1" x1="69.2" y1="-129.2" x2="126.2" y2="-72.2"/>
			<line class="st1" x1="69.2" y1="-123.2" x2="120.2" y2="-72.2"/>
			<line class="st1" x1="69.2" y1="-117.2" x2="114.2" y2="-72.2"/>
			<line class="st1" x1="69.2" y1="-111.2" x2="108.2" y2="-72.2"/>
			<line class="st1" x1="69.2" y1="-105.2" x2="102.2" y2="-72.2"/>
			<line class="st1" x1="69.2" y1="-99.2" x2="96.2" y2="-72.2"/>
			<line class="st1" x1="69.2" y1="-93.2" x2="90.2" y2="-72.2"/>
			<line class="st1" x1="69.2" y1="-87.2" x2="84.2" y2="-72.2"/>
			<line class="st1" x1="69.2" y1="-81.3" x2="78.2" y2="-72.2"/>
			<line class="st1" x1="69.2" y1="-75.3" x2="72.2" y2="-72.2"/>
			<line class="st1" x1="78.2" y1="-144.2" x2="147.2" y2="-75.2"/>
			<line class="st1" x1="84.2" y1="-144.2" x2="147.2" y2="-81.2"/>
			<line class="st1" x1="90.2" y1="-144.2" x2="147.2" y2="-87.2"/>
			<line class="st1" x1="96.2" y1="-144.2" x2="147.2" y2="-93.2"/>
			<line class="st1" x1="102.2" y1="-144.2" x2="147.2" y2="-99.2"/>
			<line class="st1" x1="108.2" y1="-144.2" x2="147.2" y2="-105.2"/>
			<line class="st1" x1="114.2" y1="-144.2" x2="147.2" y2="-111.2"/>
			<line class="st1" x1="120.2" y1="-144.2" x2="147.2" y2="-117.2"/>
			<line class="st1" x1="126.2" y1="-144.2" x2="147.2" y2="-123.2"/>
			<line class="st1" x1="132.2" y1="-144.2" x2="147.2" y2="-129.2"/>
			<line class="st1" x1="138.2" y1="-144.2" x2="147.3" y2="-135.2"/>
			<line class="st1" x1="144.2" y1="-144.2" x2="147.3" y2="-141.2"/>
			<line class="st1" x1="144.2" y1="-144.2" x2="72.2" y2="-72.2"/>
			<line class="st1" x1="138.2" y1="-144.2" x2="69.2" y2="-75.2"/>
			<line class="st1" x1="132.2" y1="-144.2" x2="69.2" y2="-81.2"/>
			<line class="st1" x1="126.2" y1="-144.2" x2="69.2" y2="-87.2"/>
			<line class="st1" x1="120.2" y1="-144.2" x2="69.2" y2="-93.2"/>
			<line class="st1" x1="114.2" y1="-144.2" x2="69.2" y2="-99.2"/>
			<line class="st1" x1="108.2" y1="-144.2" x2="69.2" y2="-105.2"/>
			<line class="st1" x1="102.2" y1="-144.2" x2="69.2" y2="-111.2"/>
			<line class="st1" x1="96.2" y1="-144.2" x2="69.2" y2="-117.2"/>
			<line class="st1" x1="90.2" y1="-144.2" x2="69.2" y2="-123.2"/>
			<line class="st1" x1="84.2" y1="-144.2" x2="69.2" y2="-129.2"/>
			<line class="st1" x1="78.2" y1="-144.2" x2="69.2" y2="-135.2"/>
			<line class="st1" x1="72.2" y1="-144.2" x2="69.2" y2="-141.2"/>
			<line class="st1" x1="147.2" y1="-141.2" x2="78.2" y2="-72.2"/>
			<line class="st1" x1="147.2" y1="-135.2" x2="84.2" y2="-72.2"/>
			<line class="st1" x1="147.2" y1="-129.2" x2="90.2" y2="-72.2"/>
			<line class="st1" x1="147.2" y1="-123.2" x2="96.2" y2="-72.2"/>
			<line class="st1" x1="147.2" y1="-117.2" x2="102.2" y2="-72.2"/>
			<line class="st1" x1="147.2" y1="-111.2" x2="108.2" y2="-72.2"/>
			<line class="st1" x1="147.2" y1="-105.2" x2="114.2" y2="-72.2"/>
			<line class="st1" x1="147.2" y1="-99.2" x2="120.2" y2="-72.2"/>
			<line class="st1" x1="147.2" y1="-93.2" x2="126.2" y2="-72.2"/>
			<line class="st1" x1="147.2" y1="-87.2" x2="132.2" y2="-72.2"/>
			<line class="st1" x1="147.3" y1="-81.3" x2="138.2" y2="-72.2"/>
			<line class="st1" x1="147.3" y1="-75.3" x2="144.2" y2="-72.2"/>
		</g>
		<g>
			<line class="st1" x1="0.2" y1="-144.2" x2="72.2" y2="-72.2"/>
			<line class="st1" x1="6.2" y1="-144.2" x2="75.2" y2="-75.2"/>
			<line class="st1" x1="12.2" y1="-144.2" x2="75.2" y2="-81.2"/>
			<line class="st1" x1="18.2" y1="-144.2" x2="75.2" y2="-87.2"/>
			<line class="st1" x1="24.2" y1="-144.2" x2="75.2" y2="-93.2"/>
			<line class="st1" x1="30.2" y1="-144.2" x2="75.2" y2="-99.2"/>
			<line class="st1" x1="36.2" y1="-144.2" x2="75.2" y2="-105.2"/>
			<line class="st1" x1="42.2" y1="-144.2" x2="75.2" y2="-111.2"/>
			<line class="st1" x1="48.2" y1="-144.2" x2="75.2" y2="-117.2"/>
			<line class="st1" x1="54.2" y1="-144.2" x2="75.2" y2="-123.2"/>
			<line class="st1" x1="60.2" y1="-144.2" x2="75.2" y2="-129.2"/>
			<line class="st1" x1="66.2" y1="-144.2" x2="75.3" y2="-135.2"/>
			<line class="st1" x1="72.2" y1="-144.2" x2="75.3" y2="-141.2"/>
			<line class="st1" x1="72.2" y1="-144.2" x2="0.2" y2="-72.2"/>
			<line class="st1" x1="75.2" y1="-141.2" x2="6.2" y2="-72.2"/>
			<line class="st1" x1="75.2" y1="-135.2" x2="12.2" y2="-72.2"/>
			<line class="st1" x1="75.2" y1="-129.2" x2="18.2" y2="-72.2"/>
			<line class="st1" x1="75.2" y1="-123.2" x2="24.2" y2="-72.2"/>
			<line class="st1" x1="75.2" y1="-117.2" x2="30.2" y2="-72.2"/>
			<line class="st1" x1="75.2" y1="-111.2" x2="36.2" y2="-72.2"/>
			<line class="st1" x1="75.2" y1="-105.2" x2="42.2" y2="-72.2"/>
			<line class="st1" x1="75.2" y1="-99.2" x2="48.2" y2="-72.2"/>
			<line class="st1" x1="75.2" y1="-93.2" x2="54.2" y2="-72.2"/>
			<line class="st1" x1="75.2" y1="-87.2" x2="60.2" y2="-72.2"/>
			<line class="st1" x1="75.3" y1="-81.3" x2="66.2" y2="-72.2"/>
			<line class="st1" x1="75.3" y1="-75.3" x2="72.2" y2="-72.2"/>
		</g>
		<g>
			<line class="st1" x1="144.2" y1="-216.2" x2="216.2" y2="-144.2"/>
			<line class="st1" x1="141.2" y1="-213.2" x2="210.2" y2="-144.2"/>
			<line class="st1" x1="141.2" y1="-207.2" x2="204.2" y2="-144.2"/>
			<line class="st1" x1="141.2" y1="-201.2" x2="198.2" y2="-144.2"/>
			<line class="st1" x1="141.2" y1="-195.2" x2="192.2" y2="-144.2"/>
			<line class="st1" x1="141.2" y1="-189.2" x2="186.2" y2="-144.2"/>
			<line class="st1" x1="141.2" y1="-183.2" x2="180.2" y2="-144.2"/>
			<line class="st1" x1="141.2" y1="-177.2" x2="174.2" y2="-144.2"/>
			<line class="st1" x1="141.2" y1="-171.2" x2="168.2" y2="-144.2"/>
			<line class="st1" x1="141.2" y1="-165.2" x2="162.2" y2="-144.2"/>
			<line class="st1" x1="141.2" y1="-159.2" x2="156.2" y2="-144.2"/>
			<line class="st1" x1="141.2" y1="-153.3" x2="150.2" y2="-144.2"/>
			<line class="st1" x1="141.2" y1="-147.3" x2="144.2" y2="-144.2"/>
			<line class="st1" x1="216.2" y1="-216.2" x2="144.2" y2="-144.2"/>
		</g>
		<g>
			<line class="st1" x1="72.2" y1="-216.2" x2="144.2" y2="-144.2"/>
			<line class="st1" x1="69.2" y1="-213.2" x2="138.2" y2="-144.2"/>
			<line class="st1" x1="69.2" y1="-207.2" x2="132.2" y2="-144.2"/>
			<line class="st1" x1="69.2" y1="-201.2" x2="126.2" y2="-144.2"/>
			<line class="st1" x1="69.2" y1="-195.2" x2="120.2" y2="-144.2"/>
			<line class="st1" x1="69.2" y1="-189.2" x2="114.2" y2="-144.2"/>
			<line class="st1" x1="69.2" y1="-183.2" x2="108.2" y2="-144.2"/>
			<line class="st1" x1="69.2" y1="-177.2" x2="102.2" y2="-144.2"/>
			<line class="st1" x1="69.2" y1="-171.2" x2="96.2" y2="-144.2"/>
			<line class="st1" x1="69.2" y1="-165.2" x2="90.2" y2="-144.2"/>
			<line class="st1" x1="69.2" y1="-159.2" x2="84.2" y2="-144.2"/>
			<line class="st1" x1="69.2" y1="-153.3" x2="78.2" y2="-144.2"/>
			<line class="st1" x1="69.2" y1="-147.3" x2="72.2" y2="-144.2"/>
			<line class="st1" x1="144.2" y1="-216.2" x2="72.2" y2="-144.2"/>
			<line class="st1" x1="147.2" y1="-213.2" x2="78.2" y2="-144.2"/>
			<line class="st1" x1="147.2" y1="-207.2" x2="84.2" y2="-144.2"/>
			<line class="st1" x1="147.2" y1="-201.2" x2="90.2" y2="-144.2"/>
			<line class="st1" x1="147.2" y1="-195.2" x2="96.2" y2="-144.2"/>
			<line class="st1" x1="147.2" y1="-189.2" x2="102.2" y2="-144.2"/>
			<line class="st1" x1="147.2" y1="-183.2" x2="108.2" y2="-144.2"/>
			<line class="st1" x1="147.2" y1="-177.2" x2="114.2" y2="-144.2"/>
			<line class="st1" x1="147.2" y1="-171.2" x2="120.2" y2="-144.2"/>
			<line class="st1" x1="147.2" y1="-165.2" x2="126.2" y2="-144.2"/>
			<line class="st1" x1="147.2" y1="-159.2" x2="132.2" y2="-144.2"/>
			<line class="st1" x1="147.3" y1="-153.3" x2="138.2" y2="-144.2"/>
			<line class="st1" x1="147.3" y1="-147.3" x2="144.2" y2="-144.2"/>
		</g>
		<g>
			<line class="st1" x1="0.2" y1="-216.2" x2="72.2" y2="-144.2"/>
			<line class="st1" x1="72.2" y1="-216.2" x2="0.2" y2="-144.2"/>
			<line class="st1" x1="75.2" y1="-213.2" x2="6.2" y2="-144.2"/>
			<line class="st1" x1="75.2" y1="-207.2" x2="12.2" y2="-144.2"/>
			<line class="st1" x1="75.2" y1="-201.2" x2="18.2" y2="-144.2"/>
			<line class="st1" x1="75.2" y1="-195.2" x2="24.2" y2="-144.2"/>
			<line class="st1" x1="75.2" y1="-189.2" x2="30.2" y2="-144.2"/>
			<line class="st1" x1="75.2" y1="-183.2" x2="36.2" y2="-144.2"/>
			<line class="st1" x1="75.2" y1="-177.2" x2="42.2" y2="-144.2"/>
			<line class="st1" x1="75.2" y1="-171.2" x2="48.2" y2="-144.2"/>
			<line class="st1" x1="75.2" y1="-165.2" x2="54.2" y2="-144.2"/>
			<line class="st1" x1="75.2" y1="-159.2" x2="60.2" y2="-144.2"/>
			<line class="st1" x1="75.3" y1="-153.3" x2="66.2" y2="-144.2"/>
			<line class="st1" x1="75.3" y1="-147.3" x2="72.2" y2="-144.2"/>
		</g>
	</g>
</pattern>
<g>
	<g>
		<path class="st2" d="M1193.7,827.6v37.5l-34.2-32.7c-0.2-0.2-0.2-0.2-0.5-0.2v-37.5l34.2,32.7
			C1193.5,827.6,1193.5,827.6,1193.7,827.6z"/>
		<path class="st2" d="M1193.7,906.6v37.5l-34.2-32.7c-0.2-0.2-0.2-0.2-0.5-0.2v-37.5l34.2,32.7
			C1193.5,906.6,1193.5,906.6,1193.7,906.6z"/>
		<path class="st2" d="M1193.7,946.1v37.5l-34.2-32.7c-0.2-0.2-0.2-0.2-0.5-0.2v-37.5l34.2,32.7
			C1193.5,946.1,1193.5,946.1,1193.7,946.1z"/>
		<path class="st2" d="M1193.7,867.2v37.5l-34.2-32.7c-0.2-0.2-0.2-0.2-0.5-0.2v-37.5l34.2,32.7
			C1193.5,867,1193.5,867.2,1193.7,867.2z"/>
		<polygon class="st2" points="1162,755.7 1193.7,755.7 1193.7,786.3 		"/>
		<path class="st2" d="M1159.1,953v37.5c0.2,0,0.5,0,0.5,0.2l28.1,27h6v-31.7c-0.2,0-0.2,0-0.5-0.2L1159.1,953z"/>
		<polygon class="st2" points="1159.1,992.4 1159.1,1017.7 1185.7,1017.7 		"/>
		<path class="st2" d="M1160,756.4l33,31.5c0.2,0.2,0.2,0.2,0.5,0.2v37.5l-33.9-32.5c-0.2-0.2-0.2-0.2-0.5-0.2v-37h0.7
			C1159.8,755.9,1160,756.2,1160,756.4z"/>
	</g>
	<g>
		<path class="st2" d="M670.6,827.6v37.5l-34.2-32.7c-0.2-0.2-0.2-0.2-0.5-0.2v-37.5l34.2,32.7C670.3,827.6,670.3,827.6,670.6,827.6
			z"/>
		<path class="st2" d="M670.6,906.6v37.5l-34.2-32.7c-0.2-0.2-0.2-0.2-0.5-0.2v-37.5l34.2,32.7C670.3,906.6,670.3,906.6,670.6,906.6
			z"/>
		<path class="st2" d="M670.6,946.1v37.5l-34.2-32.7c-0.2-0.2-0.2-0.2-0.5-0.2v-37.5l34.2,32.7C670.3,946.1,670.3,946.1,670.6,946.1
			z"/>
		<path class="st2" d="M670.6,867.2v37.5L636.4,872c-0.2-0.2-0.2-0.2-0.5-0.2v-37.5l34.2,32.7C670.3,867,670.3,867.2,670.6,867.2z"
			/>
		<polygon class="st2" points="638.8,755.7 670.6,755.7 670.6,786.3 		"/>
		<path class="st2" d="M635.9,953v37.5c0.2,0,0.5,0,0.5,0.2l28.1,27h6v-31.7c-0.2,0-0.2,0-0.5-0.2L635.9,953z"/>
		<polygon class="st2" points="635.9,992.4 635.9,1017.7 662.5,1017.7 		"/>
		<path class="st2" d="M636.9,756.4l33,31.5c0.2,0.2,0.2,0.2,0.5,0.2v37.5l-33.9-32.5c-0.2-0.2-0.2-0.2-0.5-0.2v-37h0.7
			C636.6,755.9,636.9,756.2,636.9,756.4z"/>
	</g>
	<g>
		<path class="st2" d="M152.3,827.6v37.5l-34.2-32.7c-0.2-0.2-0.2-0.2-0.5-0.2v-37.5l34.2,32.7C152,827.6,152,827.6,152.3,827.6z"/>
		<path class="st2" d="M152.3,906.6v37.5l-34.2-32.7c-0.2-0.2-0.2-0.2-0.5-0.2v-37.5l34.2,32.7C152,906.6,152,906.6,152.3,906.6z"/>
		<path class="st2" d="M152.3,946.1v37.5l-34.2-32.7c-0.2-0.2-0.2-0.2-0.5-0.2v-37.5l34.2,32.7C152,946.1,152,946.1,152.3,946.1z"/>
		<path class="st2" d="M152.3,867.2v37.5L118.1,872c-0.2-0.2-0.2-0.2-0.5-0.2v-37.5l34.2,32.7C152,867,152,867.2,152.3,867.2z"/>
		<polygon class="st2" points="120.5,755.7 152.3,755.7 152.3,786.3 		"/>
		<path class="st2" d="M117.7,953v37.5c0.2,0,0.5,0,0.5,0.2l28.1,27h6v-31.7c-0.2,0-0.2,0-0.5-0.2L117.7,953z"/>
		<polygon class="st2" points="117.7,992.4 117.7,1017.7 144.3,1017.7 		"/>
		<path class="st2" d="M118.6,756.4l33,31.5c0.2,0.2,0.2,0.2,0.5,0.2v37.5l-33.9-32.5c-0.2-0.2-0.2-0.2-0.5-0.2v-37h0.7
			C118.4,755.9,118.6,756.2,118.6,756.4z"/>
	</g>
	<g>
		<path class="st2" d="M1194.1,186.5V224l-34.2-32.7c-0.2-0.2-0.2-0.2-0.5-0.2v-37.5l34.2,32.7
			C1193.8,186.5,1193.8,186.5,1194.1,186.5z"/>
		<path class="st2" d="M1194.1,265.6v37.5l-34.2-32.7c-0.2-0.2-0.2-0.2-0.5-0.2v-37.5l34.2,32.7
			C1193.8,265.6,1193.8,265.6,1194.1,265.6z"/>
		<path class="st2" d="M1194.1,305v37.5l-34.2-32.7c-0.2-0.2-0.2-0.2-0.5-0.2V272l34.2,32.7C1193.8,305,1193.8,305,1194.1,305z"/>
		<path class="st2" d="M1194.1,226.2v37.5l-34.2-32.7c-0.2-0.2-0.2-0.2-0.5-0.2v-37.5l34.2,32.7
			C1193.8,225.9,1193.8,226.2,1194.1,226.2z"/>
		<polygon class="st2" points="1162.3,114.6 1194.1,114.6 1194.1,145.2 		"/>
		<path class="st2" d="M1159.4,311.9v37.5c0.2,0,0.5,0,0.5,0.2l28.1,27h6v-31.7c-0.2,0-0.2,0-0.5-0.2L1159.4,311.9z"/>
		<polygon class="st2" points="1159.4,351.3 1159.4,376.6 1186.1,376.6 		"/>
		<path class="st2" d="M1160.4,115.3l33,31.5c0.2,0.2,0.2,0.2,0.5,0.2v37.5l-33.9-32.5c-0.2-0.2-0.2-0.2-0.5-0.2v-37h0.7
			C1160.2,114.9,1160.4,115.1,1160.4,115.3z"/>
	</g>
	<g>
		<path class="st2" d="M670.6,186.5V224l-34.2-32.7c-0.2-0.2-0.2-0.2-0.5-0.2v-37.5l34.2,32.7C670.3,186.5,670.3,186.5,670.6,186.5z
			"/>
		<path class="st2" d="M670.6,265.6v37.5l-34.2-32.7c-0.2-0.2-0.2-0.2-0.5-0.2v-37.5l34.2,32.7C670.3,265.6,670.3,265.6,670.6,265.6
			z"/>
		<path class="st2" d="M670.6,305v37.5l-34.2-32.7c-0.2-0.2-0.2-0.2-0.5-0.2V272l34.2,32.7C670.3,305,670.3,305,670.6,305z"/>
		<path class="st2" d="M670.6,226.2v37.5l-34.2-32.7c-0.2-0.2-0.2-0.2-0.5-0.2v-37.5l34.2,32.7C670.3,225.9,670.3,226.2,670.6,226.2
			z"/>
		<polygon class="st2" points="638.8,114.6 670.6,114.6 670.6,145.2 		"/>
		<path class="st2" d="M635.9,311.9v37.5c0.2,0,0.5,0,0.5,0.2l28.1,27h6v-31.7c-0.2,0-0.2,0-0.5-0.2L635.9,311.9z"/>
		<polygon class="st2" points="635.9,351.3 635.9,376.6 662.5,376.6 		"/>
		<path class="st2" d="M636.9,115.3l33,31.5c0.2,0.2,0.2,0.2,0.5,0.2v37.5l-33.9-32.5c-0.2-0.2-0.2-0.2-0.5-0.2v-37h0.7
			C636.6,114.9,636.9,115.1,636.9,115.3z"/>
	</g>
	<g>
		<path class="st2" d="M151.8,186.5V224l-34.2-32.7c-0.2-0.2-0.2-0.2-0.5-0.2v-37.5l34.2,32.7C151.6,186.5,151.6,186.5,151.8,186.5z
			"/>
		<path class="st2" d="M151.8,265.6v37.5l-34.2-32.7c-0.2-0.2-0.2-0.2-0.5-0.2v-37.5l34.2,32.7C151.6,265.6,151.6,265.6,151.8,265.6
			z"/>
		<path class="st2" d="M151.8,305v37.5l-34.2-32.7c-0.2-0.2-0.2-0.2-0.5-0.2V272l34.2,32.7C151.6,305,151.6,305,151.8,305z"/>
		<path class="st2" d="M151.8,226.2v37.5l-34.2-32.7c-0.2-0.2-0.2-0.2-0.5-0.2v-37.5l34.2,32.7C151.6,225.9,151.6,226.2,151.8,226.2
			z"/>
		<polygon class="st2" points="120,114.6 151.8,114.6 151.8,145.2 		"/>
		<path class="st2" d="M117.2,311.9v37.5c0.2,0,0.5,0,0.5,0.2l28.1,27h6v-31.7c-0.2,0-0.2,0-0.5-0.2L117.2,311.9z"/>
		<polygon class="st2" points="117.2,351.3 117.2,376.6 143.8,376.6 		"/>
		<path class="st2" d="M118.1,115.3l33,31.5c0.2,0.2,0.2,0.2,0.5,0.2v37.5l-33.9-32.5c-0.2-0.2-0.2-0.2-0.5-0.2v-37h0.7
			C117.9,114.9,118.1,115.1,118.1,115.3z"/>
	</g>
	<g>
		<polygon class="st2" points="305.4,1071.4 297.5,1076.2 294.8,1067.8 		"/>
		<polygon class="st2" points="396.8,1079.8 397.9,1070 406,1078.6 		"/>
		<path class="st2" d="M280.9,1063.3c0,0.2,0,0.5,0.2,0.5l5.2,4.8c0.2,0.2,0.5,0.2,0.7,0.2c0.2,0,0.5,0,0.7-0.2
			c0.2-0.2,0.2-0.7,0-1.2l-4.5-4.1h74.2l-1.1,1c-0.2,0.2-0.2,0.7,0,1.2c0.2,0.2,0.5,0.2,0.7,0.2c0.2,0,0.5,0,0.7-0.2l1.8-1.7
			c0.2-0.2,0.2-0.2,0.2-0.5h114.8v17.4h-72.2l6.1-0.7c0,0,0,0,0.2,0h0.2l0,0c0,0,0-0.2,0.2-0.2v-0.2l0,0c0,0,0-0.2-0.2-0.2v-0.2
			l-10.1-11h-0.2l-0.2-0.2l0,0h-0.2c-0.2,0-0.2,0-0.5,0.2l0,0l0,0c0,0-0.2,0.2-0.2,0.5l-1.8,12.7l0,0H392c0-0.2,0-0.5-0.2-0.7
			l-5.2-3.1c-0.5-0.2-0.9-0.2-1.1,0.2c-0.2,0.5-0.2,1,0.2,1.2l4.1,2.4H153v-17.4h127.9L280.9,1063.3L280.9,1063.3z M342.9,1078.3
			h6.8c0.5,0,0.9-0.2,0.9-0.7c0-0.5-0.5-0.7-0.9-0.7h-6.8c-0.5,0-0.9,0.2-0.9,0.7C342,1078.1,342.4,1078.3,342.9,1078.3z
			 M296.2,1077.9L296.2,1077.9L296.2,1077.9c0.2,0.5,0.5,0.5,0.9,0.5h0.2l0,0c0,0,0,0,0.2,0l10.1-6.2c0.2,0,0.2-0.2,0.2-0.2l0,0l0,0
			v-0.2v-0.2l0,0c0,0-0.2,0-0.2-0.2c0,0,0-0.2-0.2-0.2l-13.5-4.8h-0.2h-0.2l0,0c0,0-0.2,0-0.2,0.2l-0.2,0.2l0,0v0.2v0.2
			L296.2,1077.9z M240.3,1072.9h6.8c0.5,0,0.9-0.2,0.9-0.7c0-0.5-0.5-0.7-0.9-0.7h-6.8c-0.5,0-0.9,0.2-0.9,0.7
			C239.4,1072.6,239.8,1072.9,240.3,1072.9z M187.3,1074.5L187.3,1074.5l6.8-1.7c0.5,0,0.7-0.5,0.7-1c-0.2-0.5-0.7-0.7-1.1-0.5
			l-6.5,1.7c-0.5,0-0.7,0.5-0.7,1C186.4,1074.3,186.8,1074.5,187.3,1074.5z"/>
	</g>
	<g>
		<polygon class="st2" points="662.4,558.2 657.4,548.9 666,545.9 		"/>
		<polygon class="st2" points="654.1,665.3 663.9,667 655.3,676.2 		"/>
		<path class="st2" d="M670.3,529.4c-0.2,0-0.5,0-0.5,0.2l-4.8,6c-0.2,0.2-0.2,0.5-0.2,0.7c0,0.2,0,0.5,0.2,0.7
			c0.2,0.5,0.7,0.5,1.2,0l4.1-5.3v86.9l-1-1.4c-0.2-0.5-0.7-0.5-1.2,0c-0.2,0.2-0.2,0.5-0.2,0.7c0,0.2,0,0.5,0.2,0.7l1.7,2.1
			c0.2,0.2,0.2,0.2,0.5,0.2v134.8h-17.4v-84.8l0.7,7v0.2v0.2l0,0l0.2,0.2h0.2l0,0c0,0,0.2,0,0.2-0.2h0.2l11-12.1V666l0.2-0.2l0,0
			v-0.2c0-0.2,0-0.5-0.2-0.5l0,0l0,0c0-0.2-0.2-0.2-0.5-0.2l-12.7-2.1l0,0v-4.2c0.2,0,0.5,0,0.7-0.5l3.1-6c0.2-0.5,0.2-1.2-0.2-1.4
			s-1-0.2-1.2,0.2l-2.4,4.6V377.9h17.4v151.5L670.3,529.4L670.3,529.4z M655.5,602.4v7.9c0,0.5,0.2,0.9,0.7,0.9
			c0.5,0,0.7-0.5,0.7-0.9v-7.9c0-0.5-0.2-0.9-0.7-0.9C655.8,601.4,655.5,601.7,655.5,602.4z M656,547.5L656,547.5
			C656,547.5,655.8,547.5,656,547.5c-0.5,0.2-0.5,0.7-0.5,0.9v0.2l0,0v0.2l6.2,12.1c0,0.2,0.2,0.2,0.2,0.2l0,0l0,0h0.2h0.2l0,0
			c0,0,0-0.2,0.2-0.2l0.2-0.2l4.8-16v-0.2v-0.2l0,0c0,0,0-0.2-0.2-0.2l-0.2-0.2l0,0H667h-0.2L656,547.5z M661,482v7.9
			c0,0.5,0.2,0.9,0.7,0.9s0.7-0.5,0.7-0.9V482c0-0.5-0.2-0.9-0.7-0.9S661,481.3,661,482z M659.3,419.7L659.3,419.7l1.7,7.9
			c0,0.5,0.5,0.9,1,0.7c0.5-0.2,0.7-0.7,0.5-1.2l-1.7-7.7c0-0.5-0.5-0.9-1-0.7C659.6,418.8,659.3,419.3,659.3,419.7z"/>
	</g>
	<g>
		<polygon class="st2" points="853.4,1079.5 848.4,1071.3 857,1068.6 		"/>
		<path class="st2" d="M860.8,1054h0.5c-0.2,0-0.5,0-0.5,0.2l-4.8,5.3c-0.2,0.2-0.2,0.4-0.2,0.6c0,0.2,0,0.4,0.2,0.6
			c0.2,0.4,0.7,0.4,1.2,0l4.1-4.7v33.5h-17.9V920.1h17.4V1054z M857.7,1066.8l-10.7,3.3c-0.5,0.2-0.5,0.6-0.5,0.8v0.4l6.2,10.7
			c0,0.2,0.2,0.2,0.2,0.2h0.5c0,0,0-0.2,0.2-0.2l0.2-0.2l4.8-14.2v-0.4c0,0,0-0.2-0.2-0.2l-0.2-0.2H857.7z M852,1012.1v7
			c0,0.4,0.2,0.8,0.7,0.8c0.5,0,0.7-0.4,0.7-0.8v-7c0-0.4-0.2-0.8-0.7-0.8C852.2,1011.3,852,1011.5,852,1012.1z M850.8,956.3
			c-0.2,0-0.5,0.4-0.5,0.8l1.7,7c0,0.4,0.5,0.8,1,0.6c0.5-0.2,0.7-0.6,0.5-1l-1.7-6.8C851.8,956.5,851.3,956.1,850.8,956.3z"/>
	</g>
	<g>
		<polygon class="st2" points="852.3,1229.8 860.9,1227.1 859.3,1224.4 854.1,1224.4 		"/>
		<path class="st2" d="M850.7,1230.9v0.4c0,0,0,0.2,0.2,0.2l0.2,0.2h0.5l10.7-3.3c0.5-0.2,0.5-0.6,0.5-0.8v-0.4l-1.6-2.8h4.7v155
			h-17.4v-134.8H848c0.2,0,0.5,0,0.5-0.2l4.8-5.4c0.2-0.2,0.2-0.4,0.2-0.6c0-0.2,0-0.4-0.2-0.6c-0.2-0.4-0.7-0.4-1.2,0l-4.1,4.8
			v-18.1h4.8L850.7,1230.9z M857.4,1279.7c0-0.4-0.2-0.8-0.7-0.8c-0.5,0-0.7,0.4-0.7,0.8v7c0,0.4,0.2,0.8,0.7,0.8
			c0.5,0,0.7-0.2,0.7-0.8V1279.7z M855.9,1335.5l1.7,6.8c0,0.4,0.5,0.8,1,0.6c0.2,0,0.5-0.4,0.5-0.8l-1.7-7c0-0.4-0.5-0.8-1-0.6
			C855.9,1334.7,855.7,1335.1,855.9,1335.5z"/>
	</g>
	<g>
		<path class="st3" d="M1159.1,857.6v4.7l-3.1-1.6h-0.5c-0.2,0-0.7,0-0.9,0.5L1151,872v0.5l0.2,0.2c0,0.2,0.2,0.2,0.2,0.2h0.4
			l7.1-2.2v4.8h-19.8l5.2-4.1c0.4-0.5,0.4-1,0-1.2c-0.2-0.2-0.4-0.2-0.7-0.2c-0.2,0-0.4,0-0.7,0.2l-5.9,4.8c-0.2,0-0.2,0.2-0.2,0.5
			v-0.5h-49.8v-17.4H1159.1z M1090.7,867.7h7.7c0.4,0,0.9-0.2,0.9-0.7c0-0.5-0.4-0.7-0.9-0.7h-7.7c-0.7,0-0.9,0.2-0.9,0.7
			C1089.9,867.4,1090.3,867.7,1090.7,867.7z"/>
	</g>
	<g>
		<polygon class="st2" points="687.2,368.9 677.5,367.4 686,359.2 		"/>
		<path class="st2" d="M688.4,348.8v15.1l-0.7-6.2v-0.4l-0.2-0.2h-0.2c0,0-0.2,0-0.2,0.2h-0.2l-11,10.7v0.2l-0.2,0.2v0.2
			c0,0.2,0,0.4,0.2,0.4c0,0.2,0.2,0.2,0.5,0.2l12.7,1.9v3.7c-0.2,0-0.5,0-0.7,0.4l-3.1,5.4c-0.1,0.3-0.2,0.6-0.1,0.9h-14v-32.7
			H688.4z M688.9,381.5h-2.3l2.3-3.9V381.5z"/>
	</g>
	<g>
		<polygon class="st2" points="662,1035.4 652.2,1034 660.8,1025.7 		"/>
		<path class="st2" d="M663.2,1015.3v15.1l-0.7-6.2v-0.4l-0.2-0.2H662c0,0-0.2,0-0.2,0.2h-0.2l-11,10.7v0.2l-0.2,0.2v0.2
			c0,0.2,0,0.4,0.2,0.4c0,0.2,0.2,0.2,0.5,0.2l12.7,1.9v3.7c-0.2,0-0.5,0-0.7,0.4l-3.1,5.4c-0.2,0.4-0.2,1.1,0.2,1.2
			c0.5,0.2,1,0.2,1.2-0.2l2.4-4.1v20.6h-17.9v-49.4H663.2z"/>
	</g>
	<g>
		<polygon class="st2" points="1173.6,505.8 1175.9,489.6 1183.6,503.7 		"/>
		<polygon class="st2" points="1172.4,527.8 1165.2,535.7 1162.6,522.1 		"/>
		<path class="st2" d="M1194.6,375.2v100.3l-4.5-2.4c-0.5-0.2-1,0.2-1,0.7c-0.2,0.7,0,1.4,0.5,1.7l4.8,2.6h0.2v281.3h-36.3V375.2
			H1194.6z M1179,447.8l-6.2-5c-0.5-0.2-1,0-1,0.5c-0.2,0.7,0,1.4,0.2,1.7l6.2,5l0.2,0.2c0.2,0,0.5-0.2,0.7-0.7
			C1179.8,448.7,1179.5,448,1179,447.8z M1186,504.6c0-0.1,0-0.2,0-0.2v-0.5l-9.6-17.7c0,0-0.2,0-0.2-0.2c0,0,0-0.2-0.2-0.2h-0.2
			c0,0-0.2,0-0.2,0.2v0.2l-0.2,0.2l-3.1,20.3v0.7c0,0.2,0,0.2,0,0.2c0,0.2,0.2,0.2,0.2,0.2s0,0.2,0.2,0.2h0.2l12.7-2.6
			c0,0,0,0,0.2-0.2c0,0,0.2,0,0.2-0.2C1186,504.9,1186,504.9,1186,504.6z M1187.4,613.3c-0.2-0.7-0.7-1-1-0.5l-6.2,5
			c-0.5,0.2-0.5,1-0.2,1.7c0.2,0.5,0.5,0.7,0.7,0.7c0,0,0.2,0,0.2-0.2l6.2-5C1187.4,614.7,1187.6,613.8,1187.4,613.3z M1180,749.4
			l4.8,5c0.2,0.2,0.2,0.2,0.5,0.2c0.2,0,0.5-0.2,0.7-0.5c0.2-0.5,0.2-1.4-0.2-1.7l-4.8-5c-0.5-0.5-1-0.2-1.2,0.2
			C1179.5,748.2,1179.5,748.9,1180,749.4z M1176.9,647.9l6.2,5l0.2,0.2c0.2,0,0.5-0.2,0.7-0.7c0.2-0.7,0-1.4-0.2-1.7l-6.2-5
			c-0.5-0.2-1,0-1,0.5C1176.6,646.7,1176.4,647.7,1176.9,647.9z M1175.2,546.4l4.8,5c0.2,0.2,0.2,0.2,0.5,0.2c0.2,0,0.5-0.2,0.7-0.5
			c0.2-0.5,0.2-1.4-0.2-1.7l-4.8-5c-0.5-0.5-1-0.2-1.2,0.2C1174.7,545.2,1174.7,545.9,1175.2,546.4z M1167.8,582h6.2
			c0.5,0,0.7-0.5,0.7-1.2c0-0.7-0.2-1.2-0.7-1.2h-6.2c-0.5,0-0.7,0.5-0.7,1.2C1167.1,581.5,1167.3,582,1167.8,582z M1160.6,520.1
			c0,0.2,0,0.2,0,0.5l3.1,17.4c0.2,0.7,0.5,0.7,0.7,0.7h0.2c0,0,0,0,0.2,0l9.6-10.3c0-0.2,0.2-0.2,0.2-0.5c0-0.2,0-0.2,0-0.5
			c0-0.2,0-0.2,0-0.5l-0.2-0.2c0,0,0-0.2-0.2-0.2l-12.7-7.6h-0.5l-0.2,0.2c0,0.2-0.2,0.2-0.2,0.5
			C1160.6,519.9,1160.6,519.9,1160.6,520.1z"/>
	</g>
	<g>
		<polygon class="st2" points="132,505.8 134.4,489.6 142,503.7 		"/>
		<polygon class="st2" points="130.8,527.8 123.6,535.7 121,522.1 		"/>
		<path class="st2" d="M153,375.2v100.3l-4.5-2.4c-0.5-0.2-1,0.2-1,0.7c-0.2,0.7,0,1.4,0.5,1.7l4.8,2.6h0.2v281.3h-36.3V375.2H153z
			 M137.5,447.8l-6.2-5c-0.5-0.2-1,0-1,0.5c-0.2,0.7,0,1.4,0.2,1.7l6.2,5l0.2,0.2c0.2,0,0.5-0.2,0.7-0.7
			C138.2,448.7,138,448,137.5,447.8z M144.4,504.6c0-0.1,0-0.2,0-0.2v-0.5l-9.6-17.7c0,0-0.2,0-0.2-0.2c0,0,0-0.2-0.2-0.2h-0.2
			c0,0-0.2,0-0.2,0.2v0.2l-0.2,0.2l-3.1,20.3v0.7c0,0.2,0,0.2,0,0.2c0,0.2,0.2,0.2,0.2,0.2s0,0.2,0.2,0.2h0.2l12.7-2.6
			c0,0,0,0,0.2-0.2c0,0,0.2,0,0.2-0.2C144.4,504.9,144.4,504.9,144.4,504.6z M145.8,613.3c-0.2-0.7-0.7-1-1-0.5l-6.2,5
			c-0.5,0.2-0.5,1-0.2,1.7c0.2,0.5,0.5,0.7,0.7,0.7c0,0,0.2,0,0.2-0.2l6.2-5C145.8,614.7,146.1,613.8,145.8,613.3z M138.4,749.4
			l4.8,5c0.2,0.2,0.2,0.2,0.5,0.2s0.5-0.2,0.7-0.5c0.2-0.5,0.2-1.4-0.2-1.7l-4.8-5c-0.5-0.5-1-0.2-1.2,0.2
			C138,748.2,138,748.9,138.4,749.4z M135.3,647.9l6.2,5l0.2,0.2c0.2,0,0.5-0.2,0.7-0.7c0.2-0.7,0-1.4-0.2-1.7l-6.2-5
			c-0.5-0.2-1,0-1,0.5C135.1,646.7,134.9,647.7,135.3,647.9z M133.7,546.4l4.8,5c0.2,0.2,0.2,0.2,0.5,0.2c0.2,0,0.5-0.2,0.7-0.5
			c0.2-0.5,0.2-1.4-0.2-1.7l-4.8-5c-0.5-0.5-1-0.2-1.2,0.2C133.2,545.2,133.2,545.9,133.7,546.4z M126.3,582h6.2
			c0.5,0,0.7-0.5,0.7-1.2c0-0.7-0.2-1.2-0.7-1.2h-6.2c-0.5,0-0.7,0.5-0.7,1.2C125.5,581.5,125.8,582,126.3,582z M119.1,520.1
			c0,0.2,0,0.2,0,0.5l3.1,17.4c0.2,0.7,0.5,0.7,0.7,0.7h0.2c0,0,0,0,0.2,0l9.6-10.3c0-0.2,0.2-0.2,0.2-0.5c0-0.2,0-0.2,0-0.5
			c0-0.2,0-0.2,0-0.5l-0.2-0.2c0,0,0-0.2-0.2-0.2l-12.7-7.6h-0.5l-0.2,0.2c0,0.2-0.2,0.2-0.2,0.5
			C119.1,519.9,119.1,519.9,119.1,520.1z"/>
	</g>
	<g>
		<polygon class="st2" points="944.1,366 930.3,363.6 942.3,356 		"/>
		<polygon class="st2" points="962.8,367.2 969.5,374.4 957.9,377 		"/>
		<path class="st2" d="M1159.7,345v36.3H923.6V345H1159.7z M1149.8,359.8c0.4,0.2,1,0.2,1.4-0.2l4.3-4.8c0.2-0.2,0.2-0.2,0.2-0.5
			c0-0.2-0.2-0.5-0.4-0.7c-0.4-0.2-1.2-0.2-1.4,0.2l-4.3,4.8C1149.2,359.1,1149.4,359.6,1149.8,359.8z M1063.5,362.9
			c0.4,0,1.2,0.2,1.4-0.2l4.3-6.2l0.2-0.2c0-0.2-0.2-0.5-0.6-0.7c-0.6-0.2-1.2,0-1.4,0.2l-4.3,6.2
			C1062.9,362.4,1063.1,362.9,1063.5,362.9z M1035.1,353.1l4.3,6.2c0.2,0.5,0.8,0.5,1.4,0.2c0.4-0.2,0.6-0.5,0.6-0.7
			c0,0,0-0.2-0.2-0.2l-4.3-6.2c-0.2-0.2-1-0.5-1.4-0.2C1034.9,352.4,1034.6,352.9,1035.1,353.1z M1006.8,371.8c0,0.5,0.4,0.7,1,0.7
			c0.6,0,1-0.2,1-0.7v-6.2c0-0.5-0.4-0.7-1-0.7c-0.6,0-1,0.2-1,0.7V371.8z M977.2,364.6c0.4,0.2,1,0.2,1.4-0.2l4.3-4.8
			c0.2-0.2,0.2-0.2,0.2-0.5c0-0.2-0.2-0.5-0.4-0.7c-0.4-0.2-1.2-0.2-1.4,0.2l-4.3,4.8C976.6,363.9,976.8,364.4,977.2,364.6z
			 M955.2,378.4l0.2,0.2c0.2,0,0.2,0.2,0.4,0.2c0.2,0,0.2,0,0.4,0c0.2,0,0.2,0,0.4,0l14.8-3.1c0.6-0.2,0.6-0.5,0.6-0.7v-0.2
			c0,0,0,0,0-0.2l-8.7-9.6c-0.2,0-0.2-0.2-0.4-0.2c-0.2,0-0.2,0-0.4,0c-0.2,0-0.2,0-0.4,0l-0.2,0.2c0,0-0.2,0-0.2,0.2l-6.5,12.7
			V378.4z M927,363.9c0,0,0,0.2,0.2,0.2h0.2l0.2,0.2l17.3,3.1h0.6c0.2,0,0.2,0,0.2,0c0.2,0,0.2-0.2,0.2-0.2s0.2,0,0.2-0.2v-0.2
			l-2.2-12.7c0,0,0,0-0.2-0.2c0,0,0-0.2-0.2-0.2c-0.2,0-0.2,0-0.4,0c-0.1,0-0.1,0-0.1,0h-0.5l-15,9.6c0,0,0,0.2-0.2,0.2
			c0,0-0.2,0-0.2,0.2V363.9z"/>
	</g>
	<g>
		<polygon class="st2" points="172.4,136.1 158.6,133.7 170.6,126.1 		"/>
		<polygon class="st2" points="191.1,137.3 197.8,144.4 186.2,147.1 		"/>
		<path class="st2" d="M266.4,115.1v9.2l-1.2-1.8c-0.2-0.2-1-0.5-1.4-0.2c-0.6,0.2-0.8,0.7-0.4,1l3.1,4.4v23.7H151.9v-36.3H266.4z
			 M235.1,141.8c0,0.5,0.4,0.7,1,0.7c0.6,0,1-0.2,1-0.7v-6.2c0-0.5-0.4-0.7-1-0.7c-0.6,0-1,0.2-1,0.7V141.8z M205.5,134.6
			c0.4,0.2,1,0.2,1.4-0.2l4.3-4.8c0.2-0.2,0.2-0.2,0.2-0.5c0-0.2-0.2-0.5-0.4-0.7c-0.4-0.2-1.2-0.2-1.4,0.2l-4.3,4.8
			C204.9,133.9,205.1,134.4,205.5,134.6z M183.5,148.5l0.2,0.2c0.2,0,0.2,0.2,0.4,0.2c0.2,0,0.2,0,0.4,0c0.2,0,0.2,0,0.4,0l14.8-3.1
			c0.6-0.2,0.6-0.5,0.6-0.7v-0.2c0,0,0,0,0-0.2l-8.7-9.6c-0.2,0-0.2-0.2-0.4-0.2c-0.2,0-0.2,0-0.4,0c-0.2,0-0.2,0-0.4,0l-0.2,0.2
			c0,0-0.2,0-0.2,0.2l-6.5,12.7V148.5z M155.3,133.9c0,0,0,0.2,0.2,0.2h0.2l0.2,0.2l17.3,3.1h0.6c0.2,0,0.2,0,0.2,0
			c0.2,0,0.2-0.2,0.2-0.2s0.2,0,0.2-0.2v-0.2l-2.2-12.7c0,0,0,0-0.2-0.2c0,0,0-0.2-0.2-0.2c-0.2,0-0.2,0-0.4,0c-0.1,0-0.1,0-0.1,0
			h-0.5l-15,9.6c0,0,0,0.2-0.2,0.2c0,0-0.2,0-0.2,0.2V133.9z"/>
	</g>
	<g>
		<polygon class="st2" points="536.7,129.9 536.7,135 544.2,136.3 542.4,126.2 		"/>
		<polygon class="st2" points="562.9,137.5 569.6,144.6 558,147.3 		"/>
		<path class="st2" d="M544,124.3c0,0,0,0-0.2-0.2c0,0,0-0.2-0.2-0.2c-0.2,0-0.2,0-0.4,0c-0.1,0-0.1,0-0.1,0h-0.5l-5.9,3.7v-12.3
			h101.6v9.2l-1.2-1.8c-0.2-0.2-1-0.5-1.4-0.2c-0.6,0.2-0.8,0.7-0.4,1l3.1,4.4v23.7H536.7v-15.4l8.3,1.5h0.6c0.2,0,0.2,0,0.2,0
			c0.2,0,0.2-0.2,0.2-0.2s0.2,0,0.2-0.2V137L544,124.3z M606.9,142c0,0.5,0.4,0.7,1,0.7c0.6,0,1-0.2,1-0.7v-6.2c0-0.5-0.4-0.7-1-0.7
			c-0.6,0-1,0.2-1,0.7V142z M577.3,134.8c0.4,0.2,1,0.2,1.4-0.2l4.3-4.8c0.2-0.2,0.2-0.2,0.2-0.5c0-0.2-0.2-0.5-0.4-0.7
			c-0.4-0.2-1.2-0.2-1.4,0.2l-4.3,4.8C576.7,134.1,576.9,134.6,577.3,134.8z M555.3,148.7l0.2,0.2c0.2,0,0.2,0.2,0.4,0.2
			c0.2,0,0.2,0,0.4,0c0.2,0,0.2,0,0.4,0l14.8-3.1c0.6-0.2,0.6-0.5,0.6-0.7v-0.2c0,0,0,0,0-0.2l-8.7-9.6c-0.2,0-0.2-0.2-0.4-0.2
			c-0.2,0-0.2,0-0.4,0c-0.2,0-0.2,0-0.4,0l-0.2,0.2c0,0-0.2,0-0.2,0.2l-6.5,12.7V148.7z"/>
	</g>
	<g>
		<polygon class="st2" points="1173.4,1125 1175.8,1108.8 1183.5,1122.9 		"/>
		<polygon class="st2" points="1172.2,1147 1165.1,1154.9 1162.4,1141.3 		"/>
		<path class="st2" d="M1194.4,1018.5v76.1l-4.5-2.4c-0.5-0.2-1,0.2-1,0.7c-0.2,0.7,0,1.4,0.5,1.7l4.8,2.6h0.2v281.3h-36.3v-360.1
			H1194.4z M1178.9,1067l-6.2-5c-0.5-0.2-1,0-1,0.5c-0.2,0.7,0,1.4,0.2,1.7l6.2,5l0.2,0.2c0.2,0,0.5-0.2,0.7-0.7
			C1179.6,1067.9,1179.4,1067.2,1178.9,1067z M1185.8,1123.8c0-0.1,0-0.2,0-0.2v-0.5l-9.6-17.7c0,0-0.2,0-0.2-0.2c0,0,0-0.2-0.2-0.2
			h-0.2c0,0-0.2,0-0.2,0.2v0.2l-0.2,0.2l-3.1,20.3v0.7c0,0.2,0,0.2,0,0.2c0,0.2,0.2,0.2,0.2,0.2s0,0.2,0.2,0.2h0.2l12.7-2.6
			c0,0,0,0,0.2-0.2c0,0,0.2,0,0.2-0.2S1185.8,1124,1185.8,1123.8z M1187.3,1232.5c-0.2-0.7-0.7-1-1-0.5l-6.2,5
			c-0.5,0.2-0.5,1-0.2,1.7c0.2,0.5,0.5,0.7,0.7,0.7c0,0,0.2,0,0.2-0.2l6.2-5C1187.3,1233.9,1187.5,1233,1187.3,1232.5z
			 M1179.9,1368.6l4.8,5c0.2,0.2,0.2,0.2,0.5,0.2c0.2,0,0.5-0.2,0.7-0.5c0.2-0.5,0.2-1.4-0.2-1.7l-4.8-5c-0.5-0.5-1-0.2-1.2,0.2
			C1179.4,1367.4,1179.4,1368.1,1179.9,1368.6z M1176.8,1267.1l6.2,5l0.2,0.2c0.2,0,0.5-0.2,0.7-0.7c0.2-0.7,0-1.4-0.2-1.7l-6.2-5
			c-0.5-0.2-1,0-1,0.5C1176.5,1265.9,1176.3,1266.9,1176.8,1267.1z M1175.1,1165.6l4.8,5c0.2,0.2,0.2,0.2,0.5,0.2
			c0.2,0,0.5-0.2,0.7-0.5c0.2-0.5,0.2-1.4-0.2-1.7l-4.8-5c-0.5-0.5-1-0.2-1.2,0.2C1174.6,1164.4,1174.6,1165.1,1175.1,1165.6z
			 M1167.7,1201.2h6.2c0.5,0,0.7-0.5,0.7-1.2s-0.2-1.2-0.7-1.2h-6.2c-0.5,0-0.7,0.5-0.7,1.2S1167.2,1201.2,1167.7,1201.2z
			 M1160.5,1139.3c0,0.2,0,0.2,0,0.5l3.1,17.4c0.2,0.7,0.5,0.7,0.7,0.7h0.2c0,0,0,0,0.2,0l9.6-10.3c0-0.2,0.2-0.2,0.2-0.5
			c0-0.2,0-0.2,0-0.5c0-0.2,0-0.2,0-0.5l-0.2-0.2c0,0,0-0.2-0.2-0.2l-12.7-7.6h-0.5l-0.2,0.2c0,0.2-0.2,0.2-0.2,0.5
			C1160.5,1139.1,1160.5,1139.1,1160.5,1139.3z"/>
	</g>
	<g>
		<polygon class="st2" points="132,1125 134.4,1108.8 142,1122.9 		"/>
		<polygon class="st2" points="130.8,1147 123.6,1154.9 121,1141.3 		"/>
		<path class="st2" d="M153,1018.5v76.1l-4.5-2.4c-0.5-0.2-1,0.2-1,0.7c-0.2,0.7,0,1.4,0.5,1.7l4.8,2.6h0.2v281.3h-36.3v-360.1H153z
			 M137.5,1067l-6.2-5c-0.5-0.2-1,0-1,0.5c-0.2,0.7,0,1.4,0.2,1.7l6.2,5l0.2,0.2c0.2,0,0.5-0.2,0.7-0.7
			C138.2,1067.9,138,1067.2,137.5,1067z M144.4,1123.8c0-0.1,0-0.2,0-0.2v-0.5l-9.6-17.7c0,0-0.2,0-0.2-0.2c0,0,0-0.2-0.2-0.2h-0.2
			c0,0-0.2,0-0.2,0.2v0.2l-0.2,0.2l-3.1,20.3v0.7c0,0.2,0,0.2,0,0.2c0,0.2,0.2,0.2,0.2,0.2s0,0.2,0.2,0.2h0.2l12.7-2.6
			c0,0,0,0,0.2-0.2c0,0,0.2,0,0.2-0.2S144.4,1124,144.4,1123.8z M145.8,1232.5c-0.2-0.7-0.7-1-1-0.5l-6.2,5c-0.5,0.2-0.5,1-0.2,1.7
			c0.2,0.5,0.5,0.7,0.7,0.7c0,0,0.2,0,0.2-0.2l6.2-5C145.8,1233.9,146.1,1233,145.8,1232.5z M138.4,1368.6l4.8,5
			c0.2,0.2,0.2,0.2,0.5,0.2c0.2,0,0.5-0.2,0.7-0.5c0.2-0.5,0.2-1.4-0.2-1.7l-4.8-5c-0.5-0.5-1-0.2-1.2,0.2
			C138,1367.4,138,1368.1,138.4,1368.6z M135.3,1267.1l6.2,5l0.2,0.2c0.2,0,0.5-0.2,0.7-0.7c0.2-0.7,0-1.4-0.2-1.7l-6.2-5
			c-0.5-0.2-1,0-1,0.5C135.1,1265.9,134.9,1266.9,135.3,1267.1z M133.7,1165.6l4.8,5c0.2,0.2,0.2,0.2,0.5,0.2c0.2,0,0.5-0.2,0.7-0.5
			c0.2-0.5,0.2-1.4-0.2-1.7l-4.8-5c-0.5-0.5-1-0.2-1.2,0.2C133.2,1164.4,133.2,1165.1,133.7,1165.6z M126.3,1201.2h6.2
			c0.5,0,0.7-0.5,0.7-1.2s-0.2-1.2-0.7-1.2h-6.2c-0.5,0-0.7,0.5-0.7,1.2S125.8,1201.2,126.3,1201.2z M119.1,1139.3
			c0,0.2,0,0.2,0,0.5l3.1,17.4c0.2,0.7,0.5,0.7,0.7,0.7h0.2c0,0,0,0,0.2,0l9.6-10.3c0-0.2,0.2-0.2,0.2-0.5c0-0.2,0-0.2,0-0.5
			c0-0.2,0-0.2,0-0.5l-0.2-0.2c0,0,0-0.2-0.2-0.2l-12.7-7.6h-0.5l-0.2,0.2c0,0.2-0.2,0.2-0.2,0.5
			C119.1,1139.1,119.1,1139.1,119.1,1139.3z"/>
	</g>
	<g>
		<g>
			<polygon class="st2" points="838.3,1397.8 824.9,1395.4 836.7,1387.8 			"/>
			<polygon class="st2" points="856.8,1399 863.3,1406.2 851.8,1408.8 			"/>
			<path class="st2" d="M813,1376.8l-2,4.5c-0.2,0.5,0.2,1,0.6,1c0.6,0.2,1.2,0,1.4-0.5l2.2-4.8v-0.2h381v36.3H669.4l1.9-4.5
				c0.2-0.5-0.2-1-0.6-1c-0.6-0.2-1.1,0-1.3,0.5l-2.1,4.8v0.2H445.2v-36.3H813z M1124.7,1390.2c0.4,0.2,1,0,1.4-0.2l4.2-4.8
				c0.2-0.2,0.2-0.2,0.2-0.5s-0.2-0.5-0.4-0.7c-0.4-0.2-1.2-0.2-1.4,0.2l-4.2,4.8C1124.1,1389.4,1124.3,1389.9,1124.7,1390.2z
				 M1040.1,1391.6c0.4,0.2,1,0.2,1.4-0.2l4.2-4.8c0.2-0.2,0.2-0.2,0.2-0.5c0-0.2-0.2-0.5-0.4-0.7c-0.4-0.2-1.2-0.2-1.4,0.2
				l-4.2,4.8C1039.5,1390.9,1039.7,1391.3,1040.1,1391.6z M955.5,1394.7c0.4,0.2,1,0.2,1.4-0.2l4.2-6.2l0.2-0.2
				c0-0.2-0.2-0.5-0.6-0.7c-0.6-0.2-1.2,0-1.4,0.2l-4.2,6.2C954.9,1394.2,955.1,1394.7,955.5,1394.7z M927.4,1384.9l4.2,6.2
				c0.2,0.5,0.8,0.5,1.4,0.2c0.4-0.2,0.6-0.5,0.6-0.7c0,0,0-0.2-0.2-0.2l-4.2-6.2c-0.2-0.2-0.8-0.5-1.4-0.2
				C927.2,1384.2,927,1384.7,927.4,1384.9z M900,1403.5c0,0.5,0.4,0.7,1,0.7c0.6,0,1-0.2,1-0.7v-6.2c0-0.5-0.4-0.7-1-0.7
				c-0.6,0-1,0.2-1,0.7V1403.5z M870.7,1396.4c0.4,0.2,1.2,0.2,1.4-0.2l4.2-4.8c0.2-0.2,0.2-0.2,0.2-0.5c0-0.2-0.2-0.5-0.4-0.7
				c-0.4-0.2-1.2-0.2-1.4,0.2l-4.2,4.8C870.1,1395.6,870.3,1396.1,870.7,1396.4z M849.4,1410.2l0.2,0.2c0.2,0,0.2,0.2,0.4,0.2
				c0.2,0,0.2,0,0.4,0c0.2,0,0.2,0,0.4,0l14.5-3.1c0.6-0.2,0.6-0.5,0.6-0.7v-0.2c0,0,0,0,0-0.2l-8.6-9.6c-0.2,0-0.2-0.2-0.4-0.2
				c-0.2,0-0.2,0-0.4,0c-0.2,0-0.2,0-0.4,0c-0.2,0-0.2,0.2-0.2,0.2s-0.2,0-0.2,0.2l-6.4,12.7V1410.2z M821.5,1395.6
				c0,0,0,0.2,0.2,0.2h0.2l0.2,0.2l16.9,3.1h0.6c0.2,0,0.2,0,0.2,0c0.2,0,0.2-0.2,0.2-0.2s0.2,0,0.2-0.2v-0.2l-2.2-12.7
				c0,0,0,0-0.2-0.2c0,0,0-0.2-0.2-0.2c-0.2,0-0.2,0-0.4,0c-0.4,0-0.4,0-0.6,0l-14.7,9.6c0,0,0,0.2-0.2,0.2c0,0-0.2,0-0.2,0.2
				V1395.6z M786.1,1399.5c0.6,0.2,1.2,0,1.4-0.2l4.2-6.2l0.2-0.2c0-0.2-0.2-0.5-0.6-0.7c-0.4-0.5-1-0.2-1.4,0.2l-4.2,6.2
				C785.5,1399,785.7,1399.5,786.1,1399.5z M690,1397.8c0.6,0.5,1.1,0.2,1.3-0.2l4-6.2c0.2-0.5,0-1-0.4-1c-0.6-0.2-1.1,0-1.3,0.2
				l-4,6.2l-0.2,0.2C689.4,1397.3,689.6,1397.6,690,1397.8z M643.6,1391.3l2.1,12.7c0,0,0,0,0.2,0.2c0,0,0,0.2,0.2,0.2
				c0.2,0,0.2,0,0.4,0c0.1,0,0.1,0,0.1,0h0.4l14-9.6c0,0,0-0.2,0.2-0.2c0,0,0.2,0,0.2-0.2v-0.2c0,0,0-0.2-0.2-0.2H661l-0.2-0.2
				l-16-3.1h-0.6c-0.2,0-0.2,0-0.2,0c-0.2,0-0.2,0.2-0.2,0.2s-0.2,0-0.2,0.2V1391.3z M619.5,1383.2c0,0,0,0,0,0.2l8.1,9.6
				c0.2,0,0.2,0.2,0.4,0.2c0.2,0,0.2,0,0.4,0c0.2,0,0.2,0,0.4,0l0.2-0.2c0,0,0.2,0,0.2-0.2l6-12.7v-0.5l-0.2-0.2
				c-0.2,0-0.2-0.2-0.4-0.2c-0.2,0-0.2,0-0.4,0s-0.2,0-0.4,0l-13.8,3.1c-0.6,0.2-0.6,0.5-0.6,0.7V1383.2z M609.6,1399.7
				c0.4,0.2,1.1,0.2,1.3-0.2l4-4.8c0.4-0.5,0.2-1-0.2-1.2c-0.4-0.2-0.9-0.2-1.3,0.2l-4,4.8c-0.2,0.2-0.2,0.2-0.2,0.5
				S609.5,1399.5,609.6,1399.7z M585.3,1392.5c0,0.5,0.4,0.7,0.9,0.7c0.6,0,1-0.2,1-0.7v-6.2c0-0.5-0.4-0.7-1-0.7
				c-0.6,0-0.9,0.2-0.9,0.7V1392.5z M555.3,1399.5l4,6.2c0.2,0.2,0.9,0.5,1.3,0.2c0.6-0.2,0.8-0.7,0.4-1l-4-6.2
				c-0.2-0.5-0.8-0.5-1.3-0.2c-0.4,0.2-0.6,0.5-0.6,0.7C555.1,1399.2,555.1,1399.5,555.3,1399.5z M529.7,1402.6
				c0.6,0.2,1.1,0,1.3-0.2l4-6.2c0.2-0.5,0-1-0.4-1c-0.4,0-1.1-0.2-1.3,0.2l-4,6.2l-0.2,0.2C529.1,1402.1,529.3,1402.3,529.7,1402.6
				z M449.3,1404.5c0.4,0.2,1.1,0.2,1.3-0.2l4-4.8c0.4-0.5,0.2-1-0.2-1.2c-0.4-0.2-0.9-0.2-1.3,0.2l-4,4.8c-0.2,0.2-0.2,0.2-0.2,0.5
				S449.1,1404.2,449.3,1404.5z"/>
		</g>
		<g>
			<polygon class="st2" points="645.5,1392.1 658.3,1394.5 647.2,1402.1 			"/>
			<polygon class="st2" points="628.1,1390.9 621.9,1383.7 632.6,1381.1 			"/>
		</g>
	</g>
	<g>
		<g>
			<polygon class="st2" points="117.8,1394 116.7,1401.6 116.7,1394.2 			"/>
			<polygon class="st2" points="131,1392.8 135.7,1385.4 127.5,1383 			"/>
		</g>
		<g>
			<g>
				<path class="st2" d="M264,1399.9c0.2-0.2,0.7,0,0.9,0.2l1.5,2.4v-23.9H116.7v13.8l1.7-0.4c0,0,0,0,0.3,0c0,0,0,0,0.2,0
					c0,0,0,0,0.2,0h0.2l0.2,0.2c0,0,0,0,0,0.2v0.2l-1.6,12.7c0,0,0,0,0,0.2v0.2c0,0-0.2,0-0.2,0.2c-0.5,0-0.7,0-0.7,0
					c-0.2-0.2-0.2-0.2-0.4-0.2v9.1h149.8v-9.6l-2.7-4.2C263.6,1400.7,263.6,1400.2,264,1399.9z M137.8,1385.1c0,0,0,0,0,0.2l-6,9.6
					l-0.2,0.2H131c0,0,0-0.2-0.2-0.2c0,0-0.2,0-0.2-0.2l-4.7-12.7v-0.5c0,0,0-0.2,0.2-0.2l0.2-0.2h0.5l10.5,3.1
					c0.5,0.2,0.5,0.5,0.5,0.7V1385.1z M145.2,1401.6c-0.5,0.2-0.9,0.2-1.1-0.2l-3.1-4.8c-0.2-0.5-0.2-1,0.2-1.2
					c0.2-0.2,0.7-0.2,0.9,0.2l3,4.8c0,0.2,0.2,0.2,0.2,0.5C145.4,1401.1,145.2,1401.4,145.2,1401.6z M163.8,1394.2
					c0,0.5-0.2,0.7-0.7,0.7c-0.5,0-0.7-0.2-0.7-0.7v-6.2c0-0.5,0.2-0.7,0.7-0.7c0.5,0,0.7,0.5,0.7,0.7V1394.2z M186.8,1401.1l-3,6.2
					c-0.2,0.5-0.7,0.5-1.2,0.2c-0.4-0.2-0.4-0.7-0.2-1l3-6.2c0.2-0.5,0.7-0.5,0.9-0.2c0.2,0.2,0.5,0.5,0.5,0.7V1401.1z
					 M206.6,1403.5c0,0.2-0.2,0.5-0.5,0.7c-0.5,0.2-1,0-1-0.2l-3-6.2c-0.2-0.5,0-1,0.3-1c0.2,0,0.9,0,1.1,0.2l3,6.2V1403.5z"/>
			</g>
		</g>
	</g>
	
		<rect x="822.7" y="1063.8" transform="matrix(-1 -1.224647e-16 1.224647e-16 -1 1666.0813 2143.2949)" class="st2" width="20.7" height="15.7"/>
	<path class="st2" d="M1085.2,924.1v-67.5h-243v67.5H1085.2z M1048.4,866.6h26.1l4.2,46.8h-34.4L1048.4,866.6z M894.3,866.6H1033
		l4.8,46.8H889.6L894.3,866.6z M852.9,866.6h26.1l4.2,46.8h-34.4L852.9,866.6z"/>
	<rect x="1140.5" y="84.5" class="st2" width="54.1" height="13.6"/>
	
		<rect x="537.2" y="84.5" transform="matrix(-1 -1.224647e-16 1.224647e-16 -1 1226.4359 182.5586)" class="st2" width="152" height="13.6"/>
	<rect x="116.7" y="84.5" class="st2" width="150.1" height="13.6"/>
	<g>
		<pattern  id="SVGID_1_" xlink:href="#Diamond" patternTransform="matrix(-2.3793 0 0 2.1345 -29169.0391 6454.0415)">
		</pattern>
		<polygon class="st4" points="1194.6,98.1 1194.6,114.5 1159.7,114.5 1159.7,345 923.6,345 923.6,329.8 1140.5,329.8 1140.5,98.1 
					"/>
		<path class="st2" d="M1160,345.3H923.3v-15.8h216.9V97.8h54.7v17.1H1160V345.3z M923.9,344.7h235.6V114.2h34.8V98.4h-53.5v231.7
			H923.9V344.7z"/>
	</g>
	<g>
		
			<pattern  id="SVGID_00000085942960597312824000000013053228746487988410_" xlink:href="#Diamond" patternTransform="matrix(-2.3793 0 0 2.1345 -29169.0391 6454.0415)">
		</pattern>
		
			<rect x="116.7" y="98.1" style="fill:url(#SVGID_00000085942960597312824000000013053228746487988410_);" width="149.7" height="17.8"/>
		<path class="st2" d="M266.7,116.2H116.4V97.8h150.3V116.2z M117,115.6h149.1V98.4H117V115.6z"/>
	</g>
	<g>
		
			<pattern  id="SVGID_00000157990827043210879670000009436916882780974208_" xlink:href="#Diamond" patternTransform="matrix(-2.3793 0 0 2.1345 -29169.0391 6454.0415)">
		</pattern>
		<polygon style="fill:url(#SVGID_00000157990827043210879670000009436916882780974208_);" points="537.2,98.1 537.2,115.9 
			670,115.9 670,348.8 688.9,348.8 688.9,98.1 		"/>
		<path class="st2" d="M689.2,349.1h-19.6V116.2H536.9V97.8h152.3V349.1z M670.3,348.5h18.4V98.4H537.5v17.2h132.7V348.5z"/>
	</g>
	<path class="st2" d="M685,381.5c0,0.2,0.2,0.3,0.4,0.4c0.5,0.2,1,0.2,1.2-0.2l0.1-0.2H685z"/>
	<path class="st2" d="M793.7,382.7H688.2v-54.1h105.5V382.7z M690.6,380.3h100.8V331H690.6V380.3z"/>
	<rect x="688.9" y="347.9" class="st2" width="103.6" height="1.8"/>
	<rect x="689.4" y="364.5" class="st2" width="103.1" height="1.8"/>
	<path class="st2" d="M538,153H266.3V83.2H538V153z M268.7,150.6h266.9v-65H268.7V150.6z"/>
	<rect x="268.1" y="114.9" class="st2" width="268.7" height="1.8"/>
	<rect x="266.8" y="132.3" class="st2" width="270.1" height="1.8"/>
	
		<rect x="575.6" y="928.6" transform="matrix(0.7071 -0.7071 0.7071 0.7071 -543.6705 702.8073)" class="st2" width="1.8" height="158.1"/>
	
		<rect x="640.5" y="1006.8" transform="matrix(0.7065 -0.7078 0.7078 0.7065 -502.0111 804.9677)" class="st2" width="157.8" height="1.8"/>
	
		<rect x="845.4" y="1173.9" transform="matrix(0.7065 -0.7078 0.7078 0.7065 -562.7059 992.8284)" class="st2" width="140.2" height="1.8"/>
	
		<rect x="813.2" y="426.1" transform="matrix(0.7065 -0.7078 0.7078 0.7065 -44.5513 746.6678)" class="st2" width="129.3" height="1.8"/>
	<g>
		<path class="st2" d="M1118.6,1170.3c-7.1,0-13.2-6-13.2-13.2c0-7.1,6-13.2,13.2-13.2c7.1,0,13.2,6,13.2,13.2
			S1125.8,1170.3,1118.6,1170.3z M1118.6,1168.1c6,0,11-4.9,11-11c0-6-4.9-11-11-11c-6,0-11,4.9-11,11
			C1107.6,1163.1,1112.6,1168.1,1118.6,1168.1z"/>
		<path class="st2" d="M1113.1,1159.3v-4.9h43.4v4.9H1113.1z M1114.8,1156v1.6h39.6v-1.6H1114.8z"/>
		<path class="st2" d="M1159.3,1212.6l-44.5,0.5c-7.7,0-14.8-2.2-20.9-6c-11-7.1-29.7-22.5-28.6-52.2c1.1-28,17.6-44,30.8-52.2
			c6.6-3.8,13.7-6,20.9-6h41.8v1.6H1117c-7.1,0-14.3,1.6-19.8,5.5c-13.2,8.2-29.1,23.6-30.2,50.6c-1.1,27.5,14.3,42.3,27.5,50.6
			c6,3.8,12.6,5.5,19.8,5.5h44.5v2.2L1159.3,1212.6L1159.3,1212.6z"/>
		<path class="st2" d="M1129.6,1205.5c-13.2,0-25.3-3.3-35.7-9.9c-11.5-7.1-23.6-19.8-22-41.8c1.1-14.8,7.7-27.5,18.7-37.4
			c10.4-9.3,24.7-14.3,40.1-14.3c8.8,0,16.5,7.7,16.5,16.5v70.4C1147.2,1198.9,1139.5,1206.6,1129.6,1205.5L1129.6,1205.5z
			 M1095.5,1195c9.9,6,22,9.3,34.6,9.3c8.2,0,15.4-6.6,15.4-15.4v-70.4c0-8.2-6.6-14.3-14.3-14.3c-14.8,0-28.6,4.9-39,13.7
			c-11,9.3-17,22-18.1,36.3c0,1.1,0,2.7,0,3.8C1074.1,1173.6,1081.2,1186.2,1095.5,1195L1095.5,1195z"/>
	</g>
	<g>
		<g>
			<path class="st2" d="M909.4,1317.2c0-4.9,3.9-8.8,8.4-8.8c4.4,0,8.4,3.9,8.4,8.8c0,4.9-3.9,8.8-8.4,8.8
				S909.4,1322.1,909.4,1317.2z M910.4,1317.2c0,3.9,3.4,7.9,7.4,7.9s7.4-3.4,7.4-7.9c0-3.9-3.4-7.9-7.4-7.9
				C913.4,1309.3,910.4,1313.3,910.4,1317.2z"/>
			<path class="st2" d="M909,1317.2c0-4.9,3.9-8.8,8.4-8.8c4.4,0,8.4,3.9,8.4,8.8c0,4.9-3.9,8.8-8.4,8.8
				C912.9,1326,909,1322.1,909,1317.2z M909.9,1317.2c0,4.9,3.4,8.4,7.9,8.4s7.9-3.4,7.9-8.4c0-4.9-3.4-8.4-7.9-8.4
				S909.9,1312.3,909.9,1317.2z M910.4,1317.2c0-4.4,3.4-8.4,7.4-8.4c3.9,0,7.4,3.4,7.4,8.4c0,4.9-3.4,8.4-7.4,8.4
				C913.9,1325.5,910.4,1322.1,910.4,1317.2z M910.9,1317.2c0,3.9,2.9,7.4,6.9,7.4s6.9-3.4,6.9-7.4c0-3.9-2.9-7.4-6.9-7.4
				C913.4,1309.8,910.9,1313.3,910.9,1317.2z"/>
		</g>
		<g>
			<path class="st2" d="M874.1,1376.6l0-119.4l281.6,0v119.4L874.1,1376.6L874.1,1376.6L874.1,1376.6z M1155.2,1258.7l-280.1,0
				v117.4l280.1,0V1258.7z"/>
			<path class="st2" d="M873.6,1256.7l282.6,0v119.9l-282.6,0L873.6,1256.7z M1155.2,1258.2H874.1l0,118.4h281.1V1258.2z
				 M874.6,1375.7l0-117.9l280.6,0v117.9L874.6,1375.7L874.6,1375.7L874.6,1375.7z M1154.7,1258.7l-279.1,0v117l279.1,0V1258.7z"/>
		</g>
		<g>
			<path class="st2" d="M889.8,1349.6v-61.9c0-9.3,7.4-16.7,16.2-16.7l223.1,0c8.8,0,16.2,7.4,16.2,16.7v61.9
				c0,9.3-7.4,16.7-16.2,16.7l-223.1,0C897.2,1366.3,889.8,1358.5,889.8,1349.6L889.8,1349.6z M906.5,1271
				c-8.4,0-15.7,6.9-15.7,16.2l0,61.9c0,8.8,6.9,16.2,15.7,16.2l223.1,0c8.4,0,15.7-6.9,15.7-16.2v-61.9c0-8.8-6.9-16.2-15.7-16.2
				L906.5,1271z"/>
			<path class="st2" d="M889.8,1349.6v-61.9c0-9.8,7.4-17.2,16.7-17.2h223.1c9.3,0,16.7,7.9,16.7,17.2v61.9
				c0,9.8-7.4,17.2-16.7,17.2l-223.1,0C896.7,1366.3,889.3,1359,889.8,1349.6z M1129.1,1270.5L906,1270c-8.8,0-16.2,7.4-16.2,16.7
				v61.9c0,9.8,7.4,16.7,16.2,16.7l223.1,0c8.8,0,16.2-7.4,16.2-16.7v-61.9C1145.8,1278.4,1138,1270.5,1129.1,1270.5L1129.1,1270.5z
				 M890.8,1349.6v-61.9c0-8.8,6.9-16.2,15.7-16.2l223.1,0c8.4,0,15.7,6.9,15.7,16.2v61.9c0,8.8-6.9,16.2-15.7,16.2l-223.1,0
				C897.2,1365.3,889.8,1358.5,890.8,1349.6z M906.5,1271.5c-8.4,0-15.2,7.4-15.2,16.2v61.9c0,8.8,6.9,16.2,15.2,16.2l223.1,0
				c8.4,0,15.2-7.4,15.2-16.2v-61.9c0-8.8-6.9-16.2-15.2-16.2L906.5,1271.5z"/>
		</g>
	</g>
	<g>
		<path class="st2" d="M1094.4,985.2c0-14.8-13.7-26.4-30.8-26.4c-17.6,0-30.8,12.1-30.8,26.4c0,14.8,14.3,26.4,30.8,26.4
			C1080.7,1011.5,1094.4,999.5,1094.4,985.2z M1092.8,985.2c0,13.7-13.2,25.3-29.1,25.3c-16.5,0-29.1-11.5-29.1-25.3
			c0-13.7,13.2-25.3,29.1-25.3S1092.8,970.9,1092.8,985.2z"/>
		<path class="st2" d="M1090,985.2c0-12.6-12.1-23.1-26.4-23.1c-14.8,0-26.4,10.4-26.4,23.1c0,12.6,12.1,23.1,26.4,23.1
			C1078.5,1007.7,1090,997.2,1090,985.2z M1088.4,985.2c0,11.5-11.5,20.9-24.7,20.9c-13.7,0-24.7-9.3-24.7-20.9
			c0-11.5,11.5-20.9,24.7-20.9C1077.4,963.7,1088.4,973.1,1088.4,985.2z"/>
		<path class="st2" d="M1080.7,985.2c0-4.9-4.4-9.3-9.3-9.3c-4.9,0-9.3,4.4-9.3,9.3c0,4.9,3.8,9.3,9.3,9.3
			C1076.8,994.5,1080.7,990.1,1080.7,985.2z M1079.6,985.2c0,4.4-3.3,7.7-7.7,7.7c-4.4,0-7.7-3.3-7.7-7.7c0-4.4,3.3-7.7,7.7-7.7
			C1075.7,977.5,1079.6,980.8,1079.6,985.2z"/>
		<g>
			<path class="st2" d="M1076.8,1022l41.2-8.2l-0.5-1.1c-14.8-28.6-0.5-53.9,0-53.9l0.5-1.1l-41.2-8.2c-16.5-3.3-33.5,1.1-45.1,12.1
				c-7.7,7.1-9.3,13.2-9.9,23.1l0,0c0,11.5,3.3,18.7,9.9,25.3c8.8,8.2,22,12.6,34.6,12.6C1069.1,1022.5,1073,1022,1076.8,1022z
				 M1032.3,961.5c11.5-9.9,28-14.3,44-11.5l39,7.7c-2.7,4.9-12.6,28,0,53.9l-39,7.7c-15.9,3.3-32.4-1.1-44-11.5
				c-6.6-6-9.3-13.2-9.3-24.2C1023.5,975.3,1025.1,969.2,1032.3,961.5z"/>
			<path class="st2" d="M1160.9,1024.7c1.1-1.6,2.2-3.3,2.2-4.9l-1.1-68.7c0-3.3-2.7-6-6.6-6c-4.4-0.5-11-0.5-18.7,0.5
				c-14.8,1.1-19.2,13.2-19.2,13.2l0,0c-0.5,0.5-6.6,11-7.7,24.7c-1.6,17,7.1,29.1,7.7,30.2v0.5c3.8,7.7,13.2,13.2,23.6,13.2l13.2,0
				C1156.5,1026.9,1158.7,1025.8,1160.9,1024.7L1160.9,1024.7z M1155.4,945.6c2.7,0,4.9,2.2,4.9,4.4l1.1,68.7c0,1.6-0.5,2.7-1.6,3.8
				c-1.6,1.6-3.3,2.2-4.9,2.2l-13.2,0c-9.9,0-18.7-4.9-22-12.6l-0.5-0.5c0,0-8.8-13.2-7.7-29.1c1.1-13.7,7.7-24.2,7.7-24.2
				c0.5-0.5,3.8-11,18.1-12.1c4.9-0.5,8.8-0.5,12.6-0.5C1151.6,945.6,1153.8,945.6,1155.4,945.6L1155.4,945.6z"/>
		</g>
	</g>
	<g>
		<path class="st2" d="M1163.4,857.5L1163.4,857.5l0.5-158.4l-103.9,0v0.5c0,28-23.1,50.6-51.1,50.6h-4.4v107.2L1163.4,857.5
			L1163.4,857.5z M1008.9,750.8L1008.9,750.8c28.6,0,51.7-23.1,51.7-52.2h102.3v157.2h-157.2V750.2L1008.9,750.8L1008.9,750.8
			L1008.9,750.8z"/>
		<path class="st2" d="M1164,591.3V484.1h-104.5v107.2H1164z M1060.6,484.7l103.4,0v105.6l-103.4,0V484.7L1060.6,484.7z"/>
		<polygon class="st2" points="1125.5,783.8 1126,783.2 1135.4,821.7 1134.3,821.7 		"/>
		<polygon class="st2" points="1116.7,799.2 1141.4,793.1 1141.4,793.7 1116.7,800.3 		"/>
		<polygon class="st2" points="1088.6,820.1 1089.2,819 1127.1,827.8 1127.1,828.9 		"/>
		<polygon class="st2" points="1099.1,835.5 1106.2,811.8 1106.8,811.8 1099.6,836 		"/>
		<path class="st2" d="M1007.8,757.9v0.5l-3.3,0v-1.1h2.7c31.9,0,57.7-25.8,57.7-57.7h1.1C1066.1,731.5,1040.3,757.9,1007.8,757.9
			L1007.8,757.9z"/>
		<path class="st2" d="M1142.5,842.6c3.3,0,6.6-3.3,6.6-6.6c0-3.3-3.3-6.6-6.6-6.6c-3.3,0-6.6,2.7-6.6,6.6
			C1135.9,840.4,1139.2,842.6,1142.5,842.6z M1142.5,842.1c-2.7,0-5.5-2.2-5.5-5.5c0-2.7,2.7-5.5,5.5-5.5c2.7,0,5.5,2.2,5.5,5.5
			C1148,839.9,1145.3,842.1,1142.5,842.1z"/>
		<path class="st2" d="M1128.2,801.9c2.7,0,6-2.7,6-6s-2.7-6-6-6c-2.7,0-6,2.7-6,6C1122.7,799.7,1125.5,802.5,1128.2,801.9z
			 M1128.8,801.9c-2.7,0-5.5-2.2-5.5-5.5c0-2.7,2.2-5.5,5.5-5.5c2.7,0,5.5,2.2,5.5,5.5C1134.3,799.2,1131.5,801.9,1128.8,801.9z"/>
		<path class="st2" d="M1128.8,800.3c2.2,0,3.8-1.6,3.8-3.8c0-2.2-1.6-3.8-3.8-3.8c-2.2,0-3.8,1.6-3.8,3.8
			C1124.9,798.6,1126.6,800.3,1128.8,800.3z M1128.2,799.2c-2.2,0-3.3-1.6-3.3-3.3c0-2.2,1.6-3.3,3.3-3.3c2.2,0,3.3,1.6,3.3,3.3
			C1131.5,798.1,1130.4,799.2,1128.2,799.2z"/>
		<path class="st2" d="M1102.4,828.9c2.7,0,6-2.7,6-6s-2.7-6-6-6c-2.7,0-6,2.7-6,6S1099.1,828.9,1102.4,828.9z M1102.4,828.3
			c-2.7,0-5.5-2.7-5.5-5.5s2.2-5.5,5.5-5.5c2.7,0,5.5,2.2,5.5,5.5C1107.9,825.6,1105.1,828.3,1102.4,828.3z"/>
		<path class="st2" d="M1102.9,826.7c2.2,0,3.8-1.6,3.8-3.8s-1.6-3.8-3.8-3.8s-3.8,1.6-3.8,3.8
			C1099.1,824.5,1100.7,826.7,1102.9,826.7z M1101.8,826.1c-2.2,0-3.3-1.6-3.3-3.3c0-2.2,1.6-3.3,3.3-3.3c2.2,0,3.3,1.6,3.3,3.3
			C1105.1,823.9,1104,825.6,1101.8,826.1z"/>
		<path class="st2" d="M1066.1,747.5c2.2,4.9,3.8,8.8,6.6,11.5c5.5,6,48.9,48.4,50.6,50c0,1.1,3.8,5.5,22.5,5.5
			c7.1-1.6,7.7-9.9,7.7-10.4v-87.4c0-4.9-3.8-9.3-9.3-9.3h-71.5c-5.5,0-9.9,4.4-9.9,9.9v10.4C1062.8,735.4,1063.9,742,1066.1,747.5z
			 M1153,805.2v0.5l-1.1,0c0,0,0,7.7-6,8.8c-18.7,0-22-5-22-5.5l0,0c-0.5-0.6-45.1-44-50.6-50c-2.2-2.7-4.4-6.6-6-11
			c-2.2-5.5-3.3-12.1-3.3-19.2v-10.4c0-4.9,3.8-8.8,8.8-8.8h71.5c4.9,0,8.8,4.4,8.8,8.8L1153,805.2L1153,805.2z"/>
		<path class="st2" d="M1014.4,837.7c-0.6,5.5,3.8,9.9,9.3,9.9h87.4c0,0,9.3,0,10.4-7.7v-0.5c0-18.7-4.4-22-5.5-22.5
			c-1.6-1.6-44-45.1-50-50.6c-3.3-2.7-7.1-5-11.5-6.6c-6-2.2-12.6-3.3-19.8-3.3l-10.4,0c-5.5,0-9.9,4.4-9.9,9.9L1014.4,837.7
			L1014.4,837.7z M1120,839.9L1120,839.9c-1.1,6.6-8.8,6.6-9.3,7.1h-86.9c-4.9,0-8.8-4.4-8.8-8.8v-71.5c0-4.9,3.8-8.8,8.8-8.8h10.4
			c7.1,0,13.2,0.5,19.2,3.3c5,2.2,8.2,3.8,11,6.6c6,5.5,49.5,50,50,50.6l0,0C1115,818.4,1120,821.2,1120,839.9L1120,839.9z"/>
		<path class="st2" d="M1059.5,699.7l103.9,0V591.3h-103.9v107.8V699.7z M1162.3,592.4v106.7h-101.7V592.4H1162.3z"/>
		<path class="st2" d="M1155.7,692.5v-94.6h-90.2v94.6H1155.7z M1155.2,599v92.4h-88.5V599H1155.2z"/>
		<rect x="1068.3" y="644.7" class="st2" width="95.1" height="1.1"/>
		
			<rect x="1110.6" y="571.1" transform="matrix(0.7246 -0.6892 0.6892 0.7246 -138.5254 943.4313)" class="st2" width="1.1" height="147.9"/>
		
			<rect x="1037.5" y="644.7" transform="matrix(0.6892 -0.7246 0.7246 0.6892 -122.0478 1005.902)" class="st2" width="147.9" height="1.1"/>
		<path class="st2" d="M1153.5,618.8c0-7.1-5.5-13.2-13.2-13.2c-7.7,0-13.2,5.5-13.2,13.2c0,7.1,6,13.2,13.2,13.2
			C1147.5,632,1153,626.5,1153.5,618.8z M1128.2,618.8c0-7.1,5.5-12.6,12.1-12.6c6.6,0,12.1,5.5,12.1,12.6c0,7.1-5.5,12.6-12.1,12.6
			C1133.7,631.5,1128.2,626,1128.2,618.8z"/>
		<path class="st2" d="M1153.5,672.2c0-7.1-5.5-13.2-13.2-13.2c-7.7,0-13.2,6-13.2,13.2s6,13.2,13.2,13.2
			C1147.5,685.4,1153,679.3,1153.5,672.2z M1128.2,672.2c0-7.1,5.5-12.6,12.1-12.6c6.6,0,12.1,5.5,12.1,12.6s-5.5,12.6-12.1,12.6
			C1133.7,684.8,1128.2,678.8,1128.2,672.2z"/>
		<path class="st2" d="M1102.4,618.8c0-7.1-6-13.2-13.2-13.2s-13.2,5.5-13.2,13.2c0,7.1,6,13.2,13.2,13.2S1101.8,626.5,1102.4,618.8
			z M1077.1,618.8c0-7.1,5.5-12.6,12.1-12.6c6.6,0,12.1,5.5,12.1,12.6c0,7.1-5.5,12.6-12.1,12.6
			C1082.6,631.5,1077.1,626,1077.1,618.8z"/>
		<path class="st2" d="M1102.4,672.2c0-7.1-6-13.2-13.2-13.2s-13.2,6-13.2,13.2s6,13.2,13.2,13.2S1101.8,679.3,1102.4,672.2z
			 M1077.1,672.2c0-7.1,5.5-12.6,12.1-12.6c6.6,0,12.1,5.5,12.1,12.6s-5.5,12.6-12.1,12.6C1082.6,684.8,1077.1,679.3,1077.1,672.2z"
			/>
	</g>
	<rect x="689.9" y="86.1" class="st2" width="449.9" height="1.8"/>
	<rect x="689.9" y="97.2" class="st2" width="449.9" height="1.8"/>
	<rect x="689.9" y="117.2" class="st2" width="449.9" height="1.8"/>
	<g>
		<path class="st2" d="M727.3,155.6c2.2,2,3.3,4.7,3.3,8c0,2.3-0.6,4.3-1.7,6.1c-1.1,1.8-2.7,3.2-4.9,4.2c-2.2,1-4.8,1.5-8,1.5
			c-2.9,0-5.6-0.5-8.2-1.4c-2.6-0.9-4.6-2.2-6.2-3.7l2-3.3c1.3,1.4,3.1,2.5,5.3,3.3c2.2,0.9,4.6,1.3,7.1,1.3c3.3,0,5.8-0.7,7.6-2.1
			c1.8-1.4,2.7-3.4,2.7-5.9c0-2.5-0.9-4.4-2.7-5.8c-1.8-1.4-4.5-2.1-8.1-2.1h-2.9v-3l11.1-13.9h-20.5V135H729v2.9l-11.3,14.2
			C721.9,152.4,725.1,153.6,727.3,155.6z"/>
		<path class="st2" d="M741.7,170c0.6,0.6,0.9,1.3,0.9,2.2c0,0.5-0.1,1-0.2,1.5s-0.3,1.1-0.6,1.8l-2.4,7.9h-2.7l1.9-8.3
			c-0.6-0.2-1.1-0.5-1.5-1.1c-0.4-0.5-0.6-1.1-0.6-1.9c0-0.9,0.3-1.6,0.9-2.2c0.6-0.6,1.3-0.9,2.2-0.9
			C740.4,169.1,741.1,169.4,741.7,170z"/>
		<path class="st2" d="M776.4,171.4v3.7h-28.1v-2.9l16.6-16.3c2.1-2.1,3.5-3.8,4.3-5.3c0.7-1.5,1.1-3,1.1-4.5c0-2.4-0.8-4.2-2.4-5.5
			s-3.9-2-7-2c-4.7,0-8.3,1.5-10.9,4.5l-2.9-2.5c1.6-1.8,3.6-3.2,6-4.2c2.4-1,5.2-1.5,8.2-1.5c4.1,0,7.3,1,9.7,2.9
			c2.4,1.9,3.6,4.6,3.6,7.9c0,2.1-0.5,4-1.4,5.9c-0.9,1.9-2.7,4.1-5.2,6.6l-13.6,13.4H776.4z"/>
	</g>
	<g>
		<path class="st2" d="M205.9,1126.7c2,1,3.6,2.4,4.8,4.2c1.1,1.8,1.7,3.9,1.7,6.3c0,2.4-0.6,4.6-1.8,6.5c-1.2,1.9-2.8,3.3-4.9,4.3
			c-2.1,1-4.4,1.5-7,1.5c-5.3,0-9.4-1.7-12.2-5.2c-2.8-3.5-4.2-8.4-4.2-14.8c0-4.5,0.8-8.2,2.3-11.3c1.5-3.1,3.7-5.4,6.4-7
			c2.7-1.6,5.9-2.4,9.6-2.4c4,0,7.1,0.7,9.5,2.2l-1.7,3.3c-1.9-1.3-4.5-1.9-7.8-1.9c-4.4,0-7.9,1.4-10.4,4.2
			c-2.5,2.8-3.8,6.9-3.8,12.2c0,1,0.1,2,0.2,3.3c1-2.2,2.6-3.9,4.7-5.1s4.7-1.8,7.5-1.8C201.5,1125.2,203.9,1125.7,205.9,1126.7z
			 M205.6,1143.6c1.8-1.6,2.7-3.7,2.7-6.3s-0.9-4.7-2.7-6.3c-1.8-1.6-4.3-2.3-7.3-2.3c-2,0-3.8,0.4-5.4,1.1s-2.8,1.8-3.6,3.1
			c-0.9,1.3-1.3,2.8-1.3,4.5c0,1.5,0.4,2.9,1.2,4.2c0.8,1.3,2,2.3,3.6,3.1c1.6,0.8,3.5,1.2,5.7,1.2
			C201.4,1146,203.8,1145.2,205.6,1143.6z"/>
		<path class="st2" d="M223,1144.1c0.6,0.6,0.9,1.3,0.9,2.2c0,0.5-0.1,1-0.2,1.5c-0.1,0.5-0.3,1.1-0.6,1.8l-2.4,7.9h-2.7l1.9-8.3
			c-0.6-0.2-1.1-0.5-1.5-1.1c-0.4-0.5-0.6-1.1-0.6-1.9c0-0.9,0.3-1.6,0.9-2.2c0.6-0.6,1.3-0.9,2.2-0.9S222.4,1143.5,223,1144.1z"/>
		<path class="st2" d="M259.1,1131.9c1.4,1.7,2,3.7,2,6.1c0,2.3-0.6,4.4-1.9,6.1c-1.3,1.7-3.1,3.1-5.4,4c-2.3,0.9-5.1,1.4-8.3,1.4
			c-4.8,0-8.6-1-11.3-3.1c-2.7-2.1-4.1-4.9-4.1-8.4c0-2.4,0.7-4.4,2-6.1c1.3-1.7,3.2-2.9,5.8-3.7c-2.1-0.8-3.6-2-4.7-3.5
			c-1.1-1.5-1.6-3.3-1.6-5.3c0-3.2,1.3-5.8,3.8-7.7c2.5-1.9,5.9-2.9,10.2-2.9c2.8,0,5.3,0.4,7.4,1.3c2.1,0.9,3.8,2.1,4.9,3.7
			c1.2,1.6,1.8,3.5,1.8,5.6c0,2.1-0.6,3.8-1.7,5.3c-1.1,1.5-2.7,2.7-4.7,3.5C255.9,1129,257.8,1130.3,259.1,1131.9z M253.9,1143.8
			c2-1.4,3-3.4,3-5.9c0-2.5-1-4.4-3-5.9c-2-1.4-4.8-2.1-8.3-2.1c-3.5,0-6.3,0.7-8.3,2.1c-2,1.4-3,3.4-3,5.9c0,2.5,1,4.5,3,5.9
			c2,1.4,4.7,2.1,8.3,2.1S251.9,1145.3,253.9,1143.8z M238.4,1124.7c1.8,1.3,4.2,1.9,7.3,1.9s5.5-0.6,7.3-1.9c1.8-1.3,2.7-3,2.7-5.2
			c0-2.2-0.9-4-2.7-5.3c-1.8-1.3-4.2-1.9-7.2-1.9c-3.1,0-5.5,0.6-7.2,1.9c-1.8,1.3-2.7,3.1-2.7,5.3S236.6,1123.4,238.4,1124.7z"/>
	</g>
	<g>
		<path class="st2" d="M1078.3,415c2.8,3.5,4.2,8.4,4.2,14.8c0,4.5-0.8,8.2-2.3,11.3c-1.5,3.1-3.7,5.4-6.4,7
			c-2.7,1.6-5.9,2.4-9.6,2.4c-4,0-7.1-0.7-9.5-2.2l1.7-3.3c1.9,1.3,4.5,1.9,7.8,1.9c4.4,0,7.9-1.4,10.4-4.2
			c2.5-2.8,3.8-6.9,3.8-12.2c0-1-0.1-2.1-0.2-3.3c-1,2.2-2.6,3.9-4.7,5.1s-4.7,1.8-7.5,1.8c-2.6,0-5-0.5-7-1.5s-3.6-2.4-4.8-4.2
			c-1.1-1.8-1.7-3.9-1.7-6.3c0-2.4,0.6-4.6,1.8-6.5c1.2-1.9,2.8-3.3,4.9-4.3c2.1-1,4.4-1.5,7-1.5
			C1071.4,409.8,1075.5,411.5,1078.3,415z M1071.9,429.5c1.5-0.8,2.8-1.8,3.6-3.1c0.9-1.3,1.3-2.8,1.3-4.5c0-1.5-0.4-2.9-1.2-4.2
			c-0.8-1.3-2-2.3-3.6-3.1c-1.6-0.8-3.5-1.2-5.7-1.2c-2.9,0-5.3,0.8-7.1,2.4c-1.8,1.6-2.7,3.7-2.7,6.3c0,2.6,0.9,4.7,2.7,6.3
			c1.8,1.6,4.3,2.3,7.3,2.3C1068.6,430.6,1070.4,430.2,1071.9,429.5z"/>
		<path class="st2" d="M1093.2,445.1c0.6,0.6,0.9,1.3,0.9,2.2c0,0.5-0.1,1-0.2,1.5c-0.1,0.5-0.3,1.1-0.6,1.8l-2.4,7.9h-2.7l1.9-8.3
			c-0.6-0.2-1.1-0.5-1.5-1.1c-0.4-0.5-0.6-1.1-0.6-1.9c0-0.9,0.3-1.6,0.9-2.2c0.6-0.6,1.3-0.9,2.2-0.9
			C1091.9,444.2,1092.6,444.5,1093.2,445.1z"/>
		<path class="st2" d="M1107.1,448c-2.4-1.6-4.3-4-5.7-7.1s-2-6.7-2-10.8c0-4.2,0.7-7.8,2-10.8s3.2-5.4,5.7-7.1
			c2.4-1.6,5.2-2.5,8.3-2.5c3.1,0,5.8,0.8,8.3,2.5c2.4,1.6,4.3,4,5.7,7.1c1.4,3.1,2.1,6.7,2.1,10.8c0,4.2-0.7,7.8-2.1,10.8
			c-1.4,3.1-3.3,5.4-5.7,7.1c-2.4,1.6-5.2,2.5-8.3,2.5C1112.2,450.5,1109.5,449.7,1107.1,448z M1121.5,444.8
			c1.8-1.3,3.2-3.2,4.1-5.7c1-2.5,1.5-5.5,1.5-9c0-3.5-0.5-6.5-1.5-9c-1-2.5-2.4-4.4-4.1-5.7c-1.8-1.3-3.8-1.9-6.1-1.9
			c-2.3,0-4.4,0.6-6.2,1.9c-1.8,1.3-3.2,3.2-4.1,5.7c-1,2.5-1.5,5.5-1.5,9c0,3.5,0.5,6.5,1.5,9c1,2.5,2.4,4.4,4.1,5.7
			c1.8,1.3,3.8,1.9,6.2,1.9C1117.7,446.7,1119.7,446.1,1121.5,444.8z"/>
	</g>
	<g>
		<path class="st2" d="M194.1,997.8v40H190v-36.4h-9.4v-3.7H194.1z"/>
		<path class="st2" d="M226.8,1017.3c2.6,2.1,4,5,4,8.7c0,2.3-0.5,4.4-1.6,6.2c-1.1,1.8-2.7,3.3-4.9,4.3c-2.2,1-4.8,1.6-8,1.6
			c-2.9,0-5.6-0.5-8.2-1.4c-2.6-0.9-4.6-2.2-6.2-3.7l2-3.3c1.3,1.4,3.1,2.5,5.3,3.3c2.2,0.9,4.5,1.3,7,1.3c3.3,0,5.9-0.7,7.7-2.2
			c1.8-1.5,2.7-3.5,2.7-5.9c0-2.7-1-4.8-3.1-6.2c-2-1.4-5.5-2.1-10.3-2.1h-8.5l2.1-20.1h21.9v3.7h-18.3l-1.4,12.8h5.1
			C220,1014.2,224.2,1015.2,226.8,1017.3z"/>
		<path class="st2" d="M241.3,1032.7c0.6,0.6,0.9,1.3,0.9,2.2c0,0.5-0.1,1-0.2,1.5c-0.1,0.5-0.3,1.1-0.6,1.8l-2.4,7.9h-2.7l1.9-8.3
			c-0.6-0.2-1.1-0.5-1.5-1.1c-0.4-0.5-0.6-1.1-0.6-1.9c0-0.9,0.3-1.6,0.9-2.2c0.6-0.6,1.3-0.9,2.2-0.9S240.8,1032.1,241.3,1032.7z"
			/>
		<path class="st2" d="M258.5,997.8v40h-4.1v-36.4H245v-3.7H258.5z"/>
	</g>
	<g>
		<path class="st2" d="M934.4,1048.8h-8v10.5h-4.1v-10.5h-22.6v-3l21.2-26.5h4.6l-20.5,25.9h17.4v-9.3h4v9.3h8V1048.8z"/>
		<path class="st2" d="M944.6,1054.2c0.6,0.6,0.9,1.3,0.9,2.2c0,0.5-0.1,1-0.2,1.5c-0.1,0.5-0.3,1.1-0.6,1.8l-2.4,7.9h-2.7l1.9-8.3
			c-0.6-0.2-1.1-0.5-1.5-1.1c-0.4-0.5-0.6-1.1-0.6-1.9c0-0.9,0.3-1.6,0.9-2.2c0.6-0.6,1.3-0.9,2.2-0.9S944,1053.6,944.6,1054.2z"/>
		<path class="st2" d="M974.6,1038.8c2.6,2.1,4,5,4,8.7c0,2.3-0.5,4.4-1.6,6.2c-1.1,1.8-2.7,3.3-4.9,4.3c-2.2,1-4.8,1.6-8,1.6
			c-2.9,0-5.6-0.5-8.1-1.4c-2.6-0.9-4.6-2.2-6.2-3.7l2-3.3c1.3,1.4,3.1,2.5,5.3,3.3s4.5,1.3,7,1.3c3.3,0,5.9-0.7,7.7-2.2
			c1.8-1.5,2.7-3.5,2.7-5.9c0-2.7-1-4.8-3.1-6.2c-2-1.4-5.5-2.1-10.3-2.1h-8.5l2.1-20.1h21.9v3.7h-18.3l-1.4,12.8h5.1
			C967.7,1035.7,972,1036.7,974.6,1038.8z"/>
	</g>
	<path class="st2" d="M621.4,713.3H167.5V450.7h453.9V713.3z M169.9,710.9h449.2V453.1H169.9V710.9z"/>
	<rect x="444.1" y="451.9" class="st2" width="2.4" height="260.2"/>
	<rect x="445.3" y="536.1" class="st2" width="174.9" height="2.4"/>
	<rect x="445.3" y="623.5" class="st2" width="174.9" height="2.4"/>
	<g>
		<path class="st2" d="M274.2,537.8v78.7h-8.1V545h-18.6v-7.2H274.2z"/>
		<path class="st2" d="M326.5,580.4h-18v36.1h-8.1v-78.7h8.1v35.3h18l26.7-35.3h9L332.9,576l30.9,40.5h-9.6L326.5,580.4z"/>
	</g>
	<g>
		<path class="st2" d="M540.4,480.8v40h-4.1v-36.4h-9.4v-3.7H540.4z"/>
		<path class="st2" d="M573.2,500.4c2.6,2.1,4,5,4,8.7c0,2.3-0.5,4.4-1.6,6.2c-1.1,1.8-2.7,3.3-4.9,4.3c-2.2,1-4.8,1.6-8,1.6
			c-2.9,0-5.6-0.5-8.2-1.4s-4.6-2.2-6.2-3.7l2-3.3c1.3,1.4,3.1,2.5,5.3,3.3c2.2,0.9,4.5,1.3,7,1.3c3.3,0,5.9-0.7,7.7-2.2
			c1.8-1.5,2.7-3.5,2.7-5.9c0-2.7-1-4.8-3.1-6.2c-2-1.4-5.5-2.1-10.3-2.1h-8.5l2.1-20.1H575v3.7h-18.3l-1.4,12.8h5.1
			C566.3,497.3,570.5,498.3,573.2,500.4z"/>
		<path class="st2" d="M587.7,515.8c0.6,0.6,0.9,1.3,0.9,2.2c0,0.5-0.1,1-0.2,1.5c-0.1,0.5-0.3,1.1-0.6,1.8l-2.4,7.9h-2.7l1.9-8.3
			c-0.6-0.2-1.1-0.5-1.5-1.1c-0.4-0.5-0.6-1.1-0.6-1.9c0-0.9,0.3-1.6,0.9-2.2c0.6-0.6,1.3-0.9,2.2-0.9S587.1,515.2,587.7,515.8z"/>
		<path class="st2" d="M604.9,480.8v40h-4.1v-36.4h-9.4v-3.7H604.9z"/>
	</g>
	<g>
		<path class="st2" d="M524.4,589.6c2.2,2,3.3,4.7,3.3,8c0,2.3-0.6,4.3-1.7,6.1c-1.1,1.8-2.7,3.2-4.9,4.2c-2.2,1-4.8,1.5-7.9,1.5
			c-2.9,0-5.6-0.5-8.2-1.4c-2.6-0.9-4.6-2.2-6.2-3.7l2-3.3c1.3,1.4,3.1,2.5,5.3,3.3c2.2,0.9,4.6,1.3,7.1,1.3c3.3,0,5.8-0.7,7.6-2.1
			c1.8-1.4,2.7-3.4,2.7-5.9c0-2.5-0.9-4.4-2.7-5.8c-1.8-1.4-4.5-2.1-8.1-2.1h-2.9v-3l11.1-13.9h-20.5V569h25.7v2.9l-11.3,14.2
			C519,586.4,522.2,587.6,524.4,589.6z"/>
		<path class="st2" d="M556.1,588.6c2.6,2.1,4,5,4,8.7c0,2.3-0.5,4.4-1.6,6.2c-1.1,1.8-2.7,3.3-4.9,4.3c-2.2,1-4.8,1.6-8,1.6
			c-2.9,0-5.6-0.5-8.1-1.4c-2.6-0.9-4.6-2.2-6.2-3.7l2-3.3c1.3,1.4,3.1,2.5,5.3,3.3c2.2,0.9,4.5,1.3,7,1.3c3.3,0,5.9-0.7,7.7-2.2
			c1.8-1.5,2.7-3.5,2.7-5.9c0-2.7-1-4.8-3.1-6.2c-2-1.4-5.5-2.1-10.3-2.1h-8.5L536,569h21.9v3.7h-18.3l-1.4,12.8h5.1
			C549.2,585.5,553.4,586.5,556.1,588.6z"/>
		<path class="st2" d="M570.6,604c0.6,0.6,0.9,1.3,0.9,2.2c0,0.5-0.1,1-0.2,1.5c-0.1,0.5-0.3,1.1-0.6,1.8l-2.4,7.9h-2.7l1.9-8.3
			c-0.6-0.2-1.1-0.5-1.5-1.1c-0.4-0.5-0.6-1.1-0.6-1.9c0-0.9,0.3-1.6,0.9-2.2c0.6-0.6,1.3-0.9,2.2-0.9
			C569.3,603.1,570,603.4,570.6,604z"/>
		<path class="st2" d="M610.6,598.6h-8v10.5h-4.1v-10.5h-22.6v-3l21.2-26.5h4.6l-20.5,25.9h17.4v-9.3h4v9.3h8V598.6z"/>
	</g>
	<g>
		<path class="st2" d="M572.4,675.5c2.2,2,3.3,4.7,3.3,8c0,2.3-0.6,4.3-1.7,6.1c-1.1,1.8-2.7,3.2-4.9,4.2c-2.2,1-4.8,1.5-7.9,1.5
			c-2.9,0-5.6-0.5-8.2-1.4c-2.6-0.9-4.6-2.2-6.2-3.7l2-3.3c1.3,1.4,3.1,2.5,5.3,3.3c2.2,0.9,4.6,1.3,7.1,1.3c3.3,0,5.8-0.7,7.6-2.1
			c1.8-1.4,2.7-3.4,2.7-5.9c0-2.5-0.9-4.4-2.7-5.8c-1.8-1.4-4.5-2.1-8.1-2.1h-2.9v-3l11.1-13.9h-20.5v-3.7h25.7v2.9l-11.3,14.2
			C567,672.3,570.2,673.5,572.4,675.5z"/>
		<path class="st2" d="M609,654.9v2.9L592.2,695h-4.5l16.5-36.4h-20.6v7.5h-4.1v-11.2H609z"/>
	</g>
	
		<rect x="325.2" y="1382.1" transform="matrix(0.7071 -0.7071 0.7071 0.7071 -943.8945 661.1235)" class="st2" width="1.8" height="175.7"/>
	<rect x="632" y="1063.8" class="st2" width="31.7" height="15.7"/>
</g>
</svg>
