<svg width="1000" height="1000" viewBox="0 0 1000 1000" fill="none" xmlns="http://www.w3.org/2000/svg">
<path d="M198.683 356.162V449.575H214.97V356.162H198.683ZM212.096 379.635L213.054 380.593L212.096 381.072V379.635ZM209.701 362.389L210.659 363.347L209.701 363.826V362.389ZM208.743 382.988L209.701 383.946L208.743 384.425V382.988ZM206.826 371.491L207.784 372.449L206.826 372.928V371.491ZM206.826 373.886L207.305 374.844L206.347 374.365L206.826 373.886ZM201.557 373.407L202.515 374.365L201.557 374.844V373.407ZM201.557 439.036V438.078L202.515 439.036H201.557ZM202.036 405.982V404.545L202.994 405.503L202.036 405.982ZM203.473 425.144L204.431 424.186L204.91 425.144H203.473ZM203.473 417.479L204.431 416.521L204.91 417.479H203.473ZM203.952 402.629V401.671L204.91 402.629H203.952ZM203.473 360.952L204.431 359.994L204.91 360.952H203.473ZM206.347 439.036L206.826 438.078L207.305 439.036H206.347ZM206.826 437.12V436.162L207.784 436.641L206.826 437.12ZM208.263 391.611L207.305 391.132L208.263 390.174V391.611ZM208.743 448.138V447.18L209.701 448.138H208.743ZM209.701 428.018V426.581L210.659 427.539L209.701 428.018ZM209.701 419.874V418.916L210.659 419.874H209.701ZM210.659 395.443V394.485L211.617 395.443H210.659ZM212.096 445.263V444.305L213.054 445.263H212.096ZM212.575 406.94V405.982L213.533 406.94H212.575Z" fill="#020203"/>
<path d="M883.713 356.641V524.305H900V356.641H883.713ZM897.126 379.635L898.084 380.593L897.126 381.072V379.635ZM897.126 443.826L898.084 444.784L897.126 445.263V443.826ZM894.731 362.389L895.689 363.347L894.731 363.826V362.389ZM894.731 428.018V426.581L895.689 427.539L894.731 428.018ZM895.689 456.76L894.731 457.239V455.802L895.689 456.76ZM894.731 419.874V418.916L895.689 419.874H894.731ZM893.773 382.988L894.731 383.946L893.773 384.425V382.988ZM893.773 447.18L894.731 448.138L893.773 448.617V447.18ZM891.857 371.491L892.815 372.449L891.857 372.928V371.491ZM891.857 436.162L892.815 437.12L891.857 437.599V436.162ZM892.815 465.862L891.857 466.341V465.383L892.815 465.862ZM886.587 373.886L887.545 374.844L886.587 375.323V373.886ZM886.587 438.078L887.545 439.036L886.587 439.515V438.078ZM886.587 467.299L887.545 468.257L886.587 468.736V467.299ZM887.066 499.874V498.437L888.024 499.395L887.066 499.874ZM887.066 406.461V405.024L888.024 405.982L887.066 406.461ZM888.503 518.557L889.461 517.599L889.94 518.557H888.503ZM888.503 510.892L889.461 509.934L889.94 510.892H888.503ZM888.982 496.042V495.084L889.94 496.042H888.982ZM888.503 454.365L889.461 453.407L889.94 454.365H888.503ZM888.503 425.144L889.461 424.186L889.94 425.144H888.503ZM888.503 417.479L889.461 416.521L889.94 417.479H888.503ZM888.982 402.629V401.671L889.94 402.629H888.982ZM888.503 360.952L889.461 359.994L889.94 360.952H888.503ZM893.294 485.503L892.336 485.024L893.294 484.066V485.503ZM893.294 391.611L892.336 391.132L893.294 390.174V391.611ZM893.773 476.401L894.731 477.359L893.773 477.838V476.401ZM894.731 521.431V519.994L895.689 520.952L894.731 521.431ZM894.731 513.287V512.329L895.689 513.287H894.731ZM895.689 489.335V488.377L896.647 489.335H895.689ZM895.689 395.922V394.964L896.647 395.922H895.689ZM897.126 473.527L898.084 474.485L897.126 474.964V473.527ZM897.605 500.832V499.874L898.563 500.832H897.605ZM897.605 406.94V405.982L898.563 406.94H897.605Z" fill="#020203"/>
<path d="M199.162 606.221V635.443H215.449V606.221H199.162ZM207.305 610.054L208.263 611.012L207.305 611.491V610.054ZM202.036 612.928V611.97L202.994 612.449L202.036 612.928ZM207.305 612.449L207.784 613.407L206.826 612.928L207.305 612.449ZM208.742 628.736L207.784 628.257L208.742 627.299V628.736ZM209.221 621.551V620.592L210.18 621.551H209.221ZM211.138 632.568V631.61L212.096 632.568H211.138ZM212.575 618.676V617.718L213.533 618.197L212.575 618.676Z" fill="#020203"/>
<path d="M899.042 602.389H882.755V638.317H893.773V637.359L894.731 638.317L893.773 638.796H899.042V602.389ZM891.378 609.575L892.336 608.617V610.054L891.378 609.575ZM894.731 612.928L895.689 613.886L894.731 614.365V612.928ZM888.024 619.635L888.982 620.593L888.024 621.072V619.635ZM886.108 622.988L887.066 623.946L886.108 624.425V622.988ZM896.647 623.946L897.605 624.904L896.647 625.383V623.946ZM887.545 635.443L888.503 634.485L888.982 635.443H887.545Z" fill="#020203"/>
<path d="M624.072 372.928L626.467 372.449L627.904 370.533L628.384 368.617L627.904 366.221L626.467 364.784L624.072 364.305L622.156 364.784L620.24 366.221L619.761 368.617L620.24 370.533L622.156 372.449L624.072 372.928Z" stroke="#020203" stroke-width="0.2" stroke-miterlimit="10" stroke-linecap="round" stroke-linejoin="round"/>
<path d="M643.234 374.365L645.629 373.886L647.545 372.928L648.503 370.533L648.982 368.617L648.503 366.221L647.545 364.305L645.629 363.347L643.234 362.389L640.839 363.347L638.922 364.305L637.964 366.221L637.485 368.617L637.964 370.533L638.922 372.928L640.839 373.886L643.234 374.365Z" stroke="#020203" stroke-width="0.2" stroke-miterlimit="10" stroke-linecap="round" stroke-linejoin="round"/>
<path d="M624.072 393.527L626.467 393.048L628.384 391.611L629.821 389.694V387.778V385.383L628.384 383.467L626.467 382.03L624.072 381.551L622.156 382.03L620.24 383.467L618.803 385.383L618.324 387.778L618.803 389.694L620.24 391.611L622.156 393.048L624.072 393.527Z" stroke="#020203" stroke-width="0.2" stroke-miterlimit="10" stroke-linecap="round" stroke-linejoin="round"/>
<path d="M643.234 392.09L645.629 391.611L647.066 389.694L647.545 387.778L647.066 385.383L645.629 383.467L643.234 382.988L640.839 383.467L639.401 385.383L638.922 387.778L639.401 389.694L640.839 391.611L643.234 392.09Z" stroke="#020203" stroke-width="0.2" stroke-miterlimit="10" stroke-linecap="round" stroke-linejoin="round"/>
<path d="M611.617 400.233V356.162H655.689V400.233H611.617ZM611.617 400.233V358.078" stroke="#020203" stroke-width="0.2" stroke-miterlimit="10" stroke-linecap="round" stroke-linejoin="round"/>
<path d="M655.689 358.078V400.233H611.617" stroke="#020203" stroke-width="0.2" stroke-miterlimit="10" stroke-linecap="round" stroke-linejoin="round"/>
<path d="M614.491 396.88V359.036H652.815V396.88H614.491Z" stroke="#020203" stroke-width="0.2" stroke-miterlimit="10" stroke-linecap="round" stroke-linejoin="round"/>
<path d="M611.617 400.233H523.952" stroke="#020203" stroke-width="0.2" stroke-miterlimit="10" stroke-linecap="round" stroke-linejoin="round"/>
<path d="M590.539 371.012V371.491L590.06 371.97H589.581V371.491L589.102 371.012" stroke="#020203" stroke-width="0.2" stroke-miterlimit="10" stroke-linecap="round" stroke-linejoin="round"/>
<path d="M590.539 356.641V371.012" stroke="#020203" stroke-width="0.2" stroke-miterlimit="10" stroke-linecap="round" stroke-linejoin="round"/>
<path d="M589.102 356.641V371.012" stroke="#020203" stroke-width="0.2" stroke-miterlimit="10" stroke-linecap="round" stroke-linejoin="round"/>
<path d="M590.539 371.012V371.97H590.06H589.581H589.102V371.012" stroke="#020203" stroke-width="0.2" stroke-miterlimit="10" stroke-linecap="round" stroke-linejoin="round"/>
<path d="M590.539 371.97H590.06H589.581" stroke="#020203" stroke-width="0.2" stroke-miterlimit="10" stroke-linecap="round" stroke-linejoin="round"/>
<path d="M589.102 371.97H589.581" stroke="#020203" stroke-width="0.2" stroke-miterlimit="10" stroke-linecap="round" stroke-linejoin="round"/>
<path d="M562.275 361.431V394.485" stroke="#020203" stroke-width="0.2" stroke-miterlimit="10" stroke-linecap="round" stroke-linejoin="round"/>
<path d="M558.922 361.431V394.485" stroke="#020203" stroke-width="0.2" stroke-miterlimit="10" stroke-linecap="round" stroke-linejoin="round"/>
<path d="M555.09 361.431V394.485" stroke="#020203" stroke-width="0.2" stroke-miterlimit="10" stroke-linecap="round" stroke-linejoin="round"/>
<path d="M551.258 361.431V394.485" stroke="#020203" stroke-width="0.2" stroke-miterlimit="10" stroke-linecap="round" stroke-linejoin="round"/>
<path d="M547.425 361.431V394.485" stroke="#020203" stroke-width="0.2" stroke-miterlimit="10" stroke-linecap="round" stroke-linejoin="round"/>
<path d="M544.072 361.431V394.485" stroke="#020203" stroke-width="0.2" stroke-miterlimit="10" stroke-linecap="round" stroke-linejoin="round"/>
<path d="M540.24 361.431V394.485" stroke="#020203" stroke-width="0.2" stroke-miterlimit="10" stroke-linecap="round" stroke-linejoin="round"/>
<path d="M536.886 361.431V394.485" stroke="#020203" stroke-width="0.2" stroke-miterlimit="10" stroke-linecap="round" stroke-linejoin="round"/>
<path d="M533.054 361.431V394.485" stroke="#020203" stroke-width="0.2" stroke-miterlimit="10" stroke-linecap="round" stroke-linejoin="round"/>
<path d="M529.222 361.431V394.485" stroke="#020203" stroke-width="0.2" stroke-miterlimit="10" stroke-linecap="round" stroke-linejoin="round"/>
<path d="M599.162 393.048H580.479" stroke="#020203" stroke-width="0.2" stroke-miterlimit="10" stroke-linecap="round" stroke-linejoin="round"/>
<path d="M606.348 369.575V385.862" stroke="#020203" stroke-width="0.2" stroke-miterlimit="10" stroke-linecap="round" stroke-linejoin="round"/>
<path d="M606.348 367.659V369.096" stroke="#020203" stroke-width="0.2" stroke-miterlimit="10" stroke-linecap="round" stroke-linejoin="round"/>
<path d="M573.293 367.659V385.862" stroke="#020203" stroke-width="0.2" stroke-miterlimit="10" stroke-linecap="round" stroke-linejoin="round"/>
<path d="M580.479 360.473L578.084 360.952L575.21 362.389L573.772 364.784L573.293 367.658" stroke="#020203" stroke-width="0.2" stroke-miterlimit="10" stroke-linecap="round" stroke-linejoin="round"/>
<path d="M606.347 367.658L605.389 364.784L603.952 362.389L602.036 360.952L599.162 360.473" stroke="#020203" stroke-width="0.2" stroke-miterlimit="10" stroke-linecap="round" stroke-linejoin="round"/>
<path d="M599.162 393.047L602.036 392.568L603.952 391.131L605.389 388.736L606.347 385.862" stroke="#020203" stroke-width="0.2" stroke-miterlimit="10" stroke-linecap="round" stroke-linejoin="round"/>
<path d="M600.12 367.658L601.078 367.179L602.036 365.742L601.078 364.784L600.12 364.305L598.683 364.784L598.204 365.742L598.683 367.179L600.12 367.658Z" stroke="#020203" stroke-width="0.2" stroke-miterlimit="10" stroke-linecap="round" stroke-linejoin="round"/>
<path d="M573.293 385.862L573.772 388.736L575.21 391.131L578.084 392.568L580.479 393.047" stroke="#020203" stroke-width="0.2" stroke-miterlimit="10" stroke-linecap="round" stroke-linejoin="round"/>
<path d="M567.545 356.162V400.233" stroke="#020203" stroke-width="0.2" stroke-miterlimit="10" stroke-linecap="round" stroke-linejoin="round"/>
<path d="M523.952 356.162V400.233" stroke="#020203" stroke-width="0.2" stroke-miterlimit="10" stroke-linecap="round" stroke-linejoin="round"/>
<path d="M611.617 400.233V356.162H523.952" stroke="#020203" stroke-width="0.2" stroke-miterlimit="10" stroke-linecap="round" stroke-linejoin="round"/>
<path d="M523.952 400.233H611.617" stroke="#020203" stroke-width="0.2" stroke-miterlimit="10" stroke-linecap="round" stroke-linejoin="round"/>
<path d="M877.485 636.401L873.174 639.275L872.695 638.796L877.485 636.401H847.305L846.347 636.88L830.539 645.024L830.06 644.545L845.868 636.401H808.503L808.982 636.88L804.192 639.275L803.712 638.796L808.503 636.401H771.617L772.096 636.88L767.305 639.275L766.826 638.796L771.617 636.401H741.437L740.479 636.88L724.671 645.024L724.192 644.545L740 636.401H702.635L703.114 636.88L698.323 639.275L697.844 638.796L702.635 636.401H657.605L658.084 636.88L653.293 639.275L652.814 638.796L657.605 636.401H627.425L626.467 636.88L610.659 645.024L610.18 644.545L625.988 636.401H588.623L589.102 636.88L584.311 639.275L583.832 638.796L588.623 636.401H539.281L539.76 636.88L534.97 639.275L534.491 638.796L539.281 636.401H509.102L508.144 636.88L492.335 645.024L491.856 644.545L507.665 636.401H470.299L470.778 636.88L465.988 639.275L465.509 638.796L470.299 636.401H420.958L421.437 636.88L416.647 639.275L416.168 638.796L420.958 636.401H390.778L389.82 636.88L374.012 645.024L373.533 644.545L389.341 636.401H351.976L352.455 636.88L347.665 639.275L347.186 638.796L351.976 636.401H299.281L299.76 636.88L294.97 639.275L294.491 638.796L299.281 636.401H269.102L268.144 636.88L252.335 645.024L251.856 644.545L267.665 636.401H230.299L230.778 636.88L225.988 639.275L225.509 638.796L230.299 636.401H199.162V655.084H201.078L200.599 654.604L211.138 649.335L211.617 649.814L201.078 655.084H218.323L217.844 654.604L234.611 645.982L235.09 646.461L218.323 655.084H255.21L254.73 654.604L265.269 649.335L265.748 649.814L255.21 655.084H287.305L286.826 654.604L303.593 645.982L304.072 646.461L287.305 655.084H340L339.521 654.604L356.287 645.982L356.766 646.461L340 655.084H376.886L376.407 654.604L386.946 649.335L387.425 649.814L376.886 655.084H408.982L408.503 654.604L425.269 645.982L425.748 646.461L408.982 655.084H458.323L457.844 654.604L474.611 645.982L475.09 646.461L458.323 655.084H495.21L494.73 654.604L505.269 649.335L505.748 649.814L495.21 655.084H527.305L526.826 654.604L543.593 645.982L544.072 646.461L527.305 655.084H576.647L576.168 654.604L592.934 645.982L593.413 646.461L576.647 655.084H613.533L613.054 654.604L623.593 649.335L624.072 649.814L613.533 655.084H645.629L645.15 654.604L661.916 645.982L662.395 646.461L645.629 655.084H690.659L690.18 654.604L706.946 645.982L707.425 646.461L690.659 655.084H727.545L727.066 654.604L737.605 649.335L738.084 649.814L727.545 655.084H759.641L759.162 654.604L775.928 645.982L776.407 646.461L759.641 655.084H779.281L778.802 654.604L789.341 649.335L789.82 649.814L779.281 655.084H796.527L796.048 654.604L812.814 645.982L813.293 646.461L796.527 655.084H833.413L832.934 654.604L843.473 649.335L843.952 649.814L833.413 655.084H865.509L865.03 654.604L881.796 645.982L882.275 646.461L865.509 655.084H900V636.401H877.485ZM273.413 652.688L269.581 654.604L269.102 654.125L273.413 652.209L279.641 648.856L280.12 649.335L273.413 652.688ZM326.108 653.167V652.209L332.814 648.856L333.293 649.335L326.108 653.167ZM395.09 652.688L391.257 654.604L390.778 654.125L395.09 652.209L401.317 648.856L401.796 649.335L395.09 652.688ZM447.784 651.73V650.772L451.138 649.335L451.617 649.814L447.784 651.73ZM513.413 652.688L509.581 654.604L509.102 654.125L513.413 652.209L519.641 648.856L520.12 649.335L513.413 652.688ZM566.108 651.73V650.772L569.461 649.335L569.94 649.814L566.108 651.73ZM631.736 652.688L627.904 654.604L627.425 654.125L631.736 652.209L637.964 648.856L638.443 649.335L631.736 652.688ZM745.748 652.688L741.916 654.604L741.437 654.125L745.748 652.209L751.976 648.856L752.455 649.335L745.748 652.688ZM851.617 652.688L847.784 654.604L847.305 654.125L851.617 652.209L857.844 648.856L858.323 649.335L851.617 652.688Z" fill="#020203"/>
<path d="M876.527 337.479L872.216 340.353L871.737 339.874L876.527 337.479H846.347L845.389 337.958L829.581 346.102L829.102 345.623L844.91 337.479H807.545L808.024 337.958L803.234 340.353L802.754 339.874L807.545 337.479H770.659L771.138 337.958L766.347 340.353L765.868 339.874L770.659 337.479H740.479L739.521 337.958L723.713 346.102L723.234 345.623L739.042 337.479H701.677L702.156 337.958L697.365 340.353L696.886 339.874L701.677 337.479H656.647L657.126 337.958L652.335 340.353L651.856 339.874L656.647 337.479H626.467L625.509 337.958L609.701 346.102L609.222 345.623L625.03 337.479H587.665L588.144 337.958L583.353 340.353L582.874 339.874L587.665 337.479H538.323L538.802 337.958L534.012 340.353L533.533 339.874L538.323 337.479H508.144L507.186 337.958L491.377 346.102L490.898 345.623L506.707 337.479H469.341L469.82 337.958L465.03 340.353L464.551 339.874L469.341 337.479H420L420.479 337.958L415.689 340.353L415.21 339.874L420 337.479H389.82L388.862 337.958L373.054 346.102L372.575 345.623L388.383 337.479H351.018L351.497 337.958L346.707 340.353L346.228 339.874L351.018 337.479H298.802L299.281 337.958L294.491 340.353L294.012 339.874L298.802 337.479H268.623L267.665 337.958L251.856 346.102L251.377 345.623L267.186 337.479H229.82L230.299 337.958L225.509 340.353L225.03 339.874L229.82 337.479H198.683V356.162H200.599L200.12 355.683L210.659 350.413L211.138 350.892L200.599 356.162H217.844L217.365 355.683L234.132 347.06L234.611 347.539L217.844 356.162H254.731L254.251 355.683L264.79 350.413L265.269 350.892L254.731 356.162H286.826L286.347 355.683L303.114 347.06L303.593 347.539L286.826 356.162H339.521L339.042 355.683L355.808 347.06L356.287 347.539L339.521 356.162H376.407L375.928 355.683L386.467 350.413L386.946 350.892L376.407 356.162H408.503L408.024 355.683L424.79 347.06L425.269 347.539L408.503 356.162H457.844L457.365 355.683L474.132 347.06L474.611 347.539L457.844 356.162H494.731L494.251 355.683L504.79 350.413L505.269 350.892L494.731 356.162H526.826L526.347 355.683L543.114 347.06L543.593 347.539L526.826 356.162H576.168L575.689 355.683L592.455 347.06L592.934 347.539L576.168 356.162H613.054L612.575 355.683L623.114 350.413L623.593 350.892L613.054 356.162H645.15L644.671 355.683L661.437 347.06L661.916 347.539L645.15 356.162H690.18L689.701 355.683L706.467 347.06L706.946 347.539L690.18 356.162H727.066L726.587 355.683L737.126 350.413L737.605 350.892L727.066 356.162H759.162L758.683 355.683L775.449 347.06L775.928 347.539L759.162 356.162H778.802L778.323 355.683L788.862 350.413L789.341 350.892L778.802 356.162H796.048L795.569 355.683L812.335 347.06L812.814 347.539L796.048 356.162H832.934L832.455 355.683L842.994 350.413L843.473 350.892L832.934 356.162H865.03L864.551 355.683L881.317 347.06L881.796 347.539L865.03 356.162H900V337.479H876.527ZM272.934 353.766L269.102 355.683L268.623 355.204L272.934 353.766L279.162 349.934L279.641 350.413L272.934 353.766ZM325.629 354.245V353.287L332.335 349.934L332.814 350.413L325.629 354.245ZM394.132 353.766L390.299 355.683L389.82 355.204L394.132 353.766L400.359 349.934L400.838 350.413L394.132 353.766ZM446.826 352.808L450.18 350.413L450.659 350.892L446.826 352.808ZM512.455 353.766L508.623 355.683L508.144 355.204L512.455 353.766L518.683 349.934L519.162 350.413L512.455 353.766ZM565.15 352.808L568.503 350.413L568.982 350.892L565.15 352.808ZM630.778 353.766L626.946 355.683L626.467 355.204L630.778 353.766L637.006 349.934L637.485 350.413L630.778 353.766ZM745.269 353.766L741.437 355.683L740.958 355.204L745.269 353.766L751.497 349.934L751.976 350.413L745.269 353.766ZM850.659 353.766L846.826 355.683L846.347 355.204L850.659 353.766L856.886 349.934L857.365 350.413L850.659 353.766Z" fill="#020203"/>
<path d="M688.743 384.425H683.473V505.622H688.743V384.425Z" fill="#020203"/>
<path d="M197.725 606.221H192.455V662.269H197.725V606.221Z" fill="#020203"/>
<path d="M197.725 337.479H192.455V450.054H197.725V337.479Z" fill="#020203"/>
<path d="M389.341 658.437H192.455V663.706H389.341V658.437Z" fill="#020203"/>
<path d="M883.713 500.832H813.772V506.102H883.713V500.832Z" fill="#020203"/>
<path d="M753.413 500.832H683.473V506.102H753.413V500.832Z" fill="#020203"/>
<path d="M689.221 383.946H660.958V389.215H689.221V383.946Z" fill="#020203"/>
<path d="M665.269 354.245H660V389.694H665.269V354.245Z" fill="#020203"/>
<path d="M204.911 601.91H199.641V605.742H204.911V601.91Z" fill="#020203"/>
<path d="M719.88 389.215C719.88 389.694 719.401 390.173 719.401 390.652C719.401 391.611 719.401 392.09 719.401 393.048V394.964V398.796C719.401 400.233 719.88 401.67 719.88 403.108C720.359 404.545 720.838 405.503 721.797 406.94L724.192 411.251L726.587 415.084L728.503 417L730.898 418.437L733.294 418.916H735.21L738.084 418.437C738.563 417.958 739.521 417.479 740 417.479C740.479 416.521 741.437 416.042 741.916 415.084L744.791 411.251C745.27 409.814 746.228 408.377 746.707 406.94C747.186 405.503 747.665 404.066 748.144 403.108L748.623 398.796L749.102 394.964V393.048L748.623 391.132L748.144 389.215L746.707 386.82L744.791 384.904L741.916 384.425L736.168 382.988H731.856L726.587 384.425L724.192 384.904L721.318 386.82L719.88 389.215Z" stroke="#020203" stroke-width="0.2401" stroke-miterlimit="10" stroke-linecap="round" stroke-linejoin="round"/>
<path d="M743.833 379.156L744.791 384.904" stroke="#020203" stroke-width="0.2401" stroke-miterlimit="10" stroke-linecap="round" stroke-linejoin="round"/>
<path d="M724.671 379.156L724.192 384.904" stroke="#020203" stroke-width="0.2401" stroke-miterlimit="10" stroke-linecap="round" stroke-linejoin="round"/>
<path d="M753.892 371.491L751.976 377.239" stroke="#020203" stroke-width="0.2401" stroke-miterlimit="10" stroke-linecap="round" stroke-linejoin="round"/>
<path d="M751.976 377.239L746.707 379.155" stroke="#020203" stroke-width="0.2401" stroke-miterlimit="10" stroke-linecap="round" stroke-linejoin="round"/>
<path d="M753.892 356.162V371.491" stroke="#020203" stroke-width="0.2401" stroke-miterlimit="10" stroke-linecap="round" stroke-linejoin="round"/>
<path d="M714.132 356.162H753.892" stroke="#020203" stroke-width="0.2401" stroke-miterlimit="10" stroke-linecap="round" stroke-linejoin="round"/>
<path d="M714.132 371.491V356.162" stroke="#020203" stroke-width="0.2401" stroke-miterlimit="10" stroke-linecap="round" stroke-linejoin="round"/>
<path d="M721.796 379.155L716.527 377.239" stroke="#020203" stroke-width="0.2401" stroke-miterlimit="10" stroke-linecap="round" stroke-linejoin="round"/>
<path d="M716.527 377.239L714.132 371.491" stroke="#020203" stroke-width="0.2401" stroke-miterlimit="10" stroke-linecap="round" stroke-linejoin="round"/>
<path d="M746.707 379.156H721.796" stroke="#020203" stroke-width="0.2401" stroke-miterlimit="10" stroke-linecap="round" stroke-linejoin="round"/>
<path d="M793.174 364.305H798.922" stroke="#020203" stroke-width="0.2401" stroke-miterlimit="10" stroke-linecap="round" stroke-linejoin="round"/>
<path d="M798.922 364.305L804.192 366.221" stroke="#020203" stroke-width="0.2401" stroke-miterlimit="10" stroke-linecap="round" stroke-linejoin="round"/>
<path d="M791.258 370.054L792.695 371.012" stroke="#020203" stroke-width="0.2401" stroke-miterlimit="10" stroke-linecap="round" stroke-linejoin="round"/>
<path d="M792.695 371.012L793.174 370.054" stroke="#020203" stroke-width="0.2401" stroke-miterlimit="10" stroke-linecap="round" stroke-linejoin="round"/>
<path d="M793.174 361.431V370.054" stroke="#020203" stroke-width="0.2401" stroke-miterlimit="10" stroke-linecap="round" stroke-linejoin="round"/>
<path d="M791.258 361.431V370.054" stroke="#020203" stroke-width="0.2401" stroke-miterlimit="10" stroke-linecap="round" stroke-linejoin="round"/>
<path d="M780.719 366.221L785.988 364.305" stroke="#020203" stroke-width="0.2401" stroke-miterlimit="10" stroke-linecap="round" stroke-linejoin="round"/>
<path d="M785.988 364.305H791.258" stroke="#020203" stroke-width="0.2401" stroke-miterlimit="10" stroke-linecap="round" stroke-linejoin="round"/>
<path d="M808.024 370.054L806.108 367.659" stroke="#020203" stroke-width="0.2401" stroke-miterlimit="10" stroke-linecap="round" stroke-linejoin="round"/>
<path d="M806.108 367.659L804.192 366.222" stroke="#020203" stroke-width="0.2401" stroke-miterlimit="10" stroke-linecap="round" stroke-linejoin="round"/>
<path d="M777.365 370.054L778.802 367.659" stroke="#020203" stroke-width="0.2401" stroke-miterlimit="10" stroke-linecap="round" stroke-linejoin="round"/>
<path d="M778.803 367.659L780.719 366.222" stroke="#020203" stroke-width="0.2401" stroke-miterlimit="10" stroke-linecap="round" stroke-linejoin="round"/>
<path d="M777.365 370.054V378.676" stroke="#020203" stroke-width="0.2401" stroke-miterlimit="10" stroke-linecap="round" stroke-linejoin="round"/>
<path d="M777.365 378.677L781.198 385.383" stroke="#020203" stroke-width="0.2401" stroke-miterlimit="10" stroke-linecap="round" stroke-linejoin="round"/>
<path d="M781.198 385.383L787.904 389.695" stroke="#020203" stroke-width="0.2401" stroke-miterlimit="10" stroke-linecap="round" stroke-linejoin="round"/>
<path d="M787.904 389.694H796.527" stroke="#020203" stroke-width="0.2401" stroke-miterlimit="10" stroke-linecap="round" stroke-linejoin="round"/>
<path d="M796.527 389.695L803.234 385.383" stroke="#020203" stroke-width="0.2401" stroke-miterlimit="10" stroke-linecap="round" stroke-linejoin="round"/>
<path d="M803.234 385.383L807.545 378.677" stroke="#020203" stroke-width="0.2401" stroke-miterlimit="10" stroke-linecap="round" stroke-linejoin="round"/>
<path d="M807.545 378.676L808.024 370.054" stroke="#020203" stroke-width="0.2401" stroke-miterlimit="10" stroke-linecap="round" stroke-linejoin="round"/>
<path d="M787.425 361.431L788.862 362.868" stroke="#020203" stroke-width="0.2401" stroke-miterlimit="10" stroke-linecap="round" stroke-linejoin="round"/>
<path d="M788.862 362.868L789.341 361.431" stroke="#020203" stroke-width="0.2401" stroke-miterlimit="10" stroke-linecap="round" stroke-linejoin="round"/>
<path d="M789.341 361.431L788.862 360.952" stroke="#020203" stroke-width="0.2401" stroke-miterlimit="10" stroke-linecap="round" stroke-linejoin="round"/>
<path d="M788.862 360.952L787.425 361.431" stroke="#020203" stroke-width="0.2401" stroke-miterlimit="10" stroke-linecap="round" stroke-linejoin="round"/>
<path d="M793.174 361.431L792.695 360.952" stroke="#020203" stroke-width="0.2401" stroke-miterlimit="10" stroke-linecap="round" stroke-linejoin="round"/>
<path d="M792.695 360.952L791.258 361.431" stroke="#020203" stroke-width="0.2401" stroke-miterlimit="10" stroke-linecap="round" stroke-linejoin="round"/>
<path d="M795.569 361.431L796.527 362.868" stroke="#020203" stroke-width="0.2401" stroke-miterlimit="10" stroke-linecap="round" stroke-linejoin="round"/>
<path d="M796.527 362.868L797.485 361.431" stroke="#020203" stroke-width="0.2401" stroke-miterlimit="10" stroke-linecap="round" stroke-linejoin="round"/>
<path d="M797.485 361.431L796.527 360.952" stroke="#020203" stroke-width="0.2401" stroke-miterlimit="10" stroke-linecap="round" stroke-linejoin="round"/>
<path d="M796.527 360.952L795.569 361.431" stroke="#020203" stroke-width="0.2401" stroke-miterlimit="10" stroke-linecap="round" stroke-linejoin="round"/>
<path d="M790.779 374.365L792.695 376.281" stroke="#020203" stroke-width="0.2401" stroke-miterlimit="10" stroke-linecap="round" stroke-linejoin="round"/>
<path d="M792.695 376.281L794.132 374.365" stroke="#020203" stroke-width="0.2401" stroke-miterlimit="10" stroke-linecap="round" stroke-linejoin="round"/>
<path d="M794.132 374.365L792.695 372.928" stroke="#020203" stroke-width="0.2401" stroke-miterlimit="10" stroke-linecap="round" stroke-linejoin="round"/>
<path d="M792.695 372.928L790.779 374.365" stroke="#020203" stroke-width="0.2401" stroke-miterlimit="10" stroke-linecap="round" stroke-linejoin="round"/>
<path d="M792.216 392.569C802.269 392.569 810.419 384.419 810.419 374.365C810.419 364.312 802.269 356.162 792.216 356.162C782.162 356.162 774.012 364.312 774.012 374.365C774.012 384.419 782.162 392.569 792.216 392.569Z" stroke="#020203" stroke-width="0.2401" stroke-miterlimit="10" stroke-linecap="round" stroke-linejoin="round"/>
<path d="M882.276 497H822.396" stroke="#020203" stroke-width="0.2401" stroke-miterlimit="10" stroke-linecap="round" stroke-linejoin="round"/>
<path d="M882.276 357.599V497" stroke="#020203" stroke-width="0.2401" stroke-miterlimit="10" stroke-linecap="round" stroke-linejoin="round"/>
<path d="M822.396 357.599H882.276" stroke="#020203" stroke-width="0.2401" stroke-miterlimit="10" stroke-linecap="round" stroke-linejoin="round"/>
<path d="M822.396 497V357.599" stroke="#020203" stroke-width="0.2401" stroke-miterlimit="10" stroke-linecap="round" stroke-linejoin="round"/>
<path d="M854.491 372.928L852.096 371.012" stroke="#020203" stroke-width="0.2401" stroke-miterlimit="10" stroke-linecap="round" stroke-linejoin="round"/>
<path d="M852.096 371.012L850.18 372.928" stroke="#020203" stroke-width="0.2401" stroke-miterlimit="10" stroke-linecap="round" stroke-linejoin="round"/>
<path d="M850.18 372.928L852.096 375.323" stroke="#020203" stroke-width="0.2401" stroke-miterlimit="10" stroke-linecap="round" stroke-linejoin="round"/>
<path d="M852.096 375.323L854.491 372.928" stroke="#020203" stroke-width="0.2401" stroke-miterlimit="10" stroke-linecap="round" stroke-linejoin="round"/>
<path d="M854.491 491.251L863.114 489.335" stroke="#020203" stroke-width="0.2401" stroke-miterlimit="10" stroke-linecap="round" stroke-linejoin="round"/>
<path d="M863.114 489.335L869.821 485.024" stroke="#020203" stroke-width="0.2401" stroke-miterlimit="10" stroke-linecap="round" stroke-linejoin="round"/>
<path d="M869.821 485.024L874.132 477.359" stroke="#020203" stroke-width="0.2401" stroke-miterlimit="10" stroke-linecap="round" stroke-linejoin="round"/>
<path d="M874.132 477.359L876.527 469.694" stroke="#020203" stroke-width="0.2401" stroke-miterlimit="10" stroke-linecap="round" stroke-linejoin="round"/>
<path d="M828.144 469.694L830.539 477.359" stroke="#020203" stroke-width="0.2401" stroke-miterlimit="10" stroke-linecap="round" stroke-linejoin="round"/>
<path d="M830.539 477.359L834.85 485.024" stroke="#020203" stroke-width="0.2401" stroke-miterlimit="10" stroke-linecap="round" stroke-linejoin="round"/>
<path d="M834.851 485.024L841.557 489.335" stroke="#020203" stroke-width="0.2401" stroke-miterlimit="10" stroke-linecap="round" stroke-linejoin="round"/>
<path d="M841.557 489.335L850.18 491.251" stroke="#020203" stroke-width="0.2401" stroke-miterlimit="10" stroke-linecap="round" stroke-linejoin="round"/>
<path d="M868.383 363.826L873.653 365.742" stroke="#020203" stroke-width="0.2401" stroke-miterlimit="10" stroke-linecap="round" stroke-linejoin="round"/>
<path d="M873.653 365.742L876.527 371.97" stroke="#020203" stroke-width="0.2401" stroke-miterlimit="10" stroke-linecap="round" stroke-linejoin="round"/>
<path d="M828.144 371.97L831.018 365.742" stroke="#020203" stroke-width="0.2401" stroke-miterlimit="10" stroke-linecap="round" stroke-linejoin="round"/>
<path d="M831.018 365.742L836.287 363.826" stroke="#020203" stroke-width="0.2401" stroke-miterlimit="10" stroke-linecap="round" stroke-linejoin="round"/>
<path d="M854.492 491.251H850.18" stroke="#020203" stroke-width="0.2401" stroke-miterlimit="10" stroke-linecap="round" stroke-linejoin="round"/>
<path d="M828.144 469.694V371.97" stroke="#020203" stroke-width="0.2401" stroke-miterlimit="10" stroke-linecap="round" stroke-linejoin="round"/>
<path d="M836.288 363.826H868.383" stroke="#020203" stroke-width="0.2401" stroke-miterlimit="10" stroke-linecap="round" stroke-linejoin="round"/>
<path d="M876.527 371.97V469.694" stroke="#020203" stroke-width="0.2401" stroke-miterlimit="10" stroke-linecap="round" stroke-linejoin="round"/>
<path d="M781.677 462.03L781.198 462.509L814.252 501.79L814.731 501.311L781.677 462.03Z" fill="#020203"/>
<path d="M204.431 601.91L204.91 602.389L244.192 569.335L243.713 568.856L204.431 601.91Z" fill="#020203"/>
<path d="M847.306 554.485L847.785 554.964L887.066 521.91L886.587 521.431L847.306 554.485Z" fill="#020203"/>
<path d="M206.826 448.617V455.323H198.683V448.617H206.826ZM205.389 454.365V450.054H199.641V454.365H205.389Z" fill="#020203"/>
<path d="M206.826 540.593V547.299H198.683V540.593H206.826ZM205.389 546.341V542.03H199.641V546.341H205.389Z" fill="#020203"/>
<path d="M200.12 455.323H199.641V541.072H200.12V455.323Z" fill="#020203"/>
<path d="M205.868 455.323H205.389V541.072H205.868V455.323Z" fill="#020203"/>
<path d="M202.994 455.323H202.515V542.03H202.994V455.323Z" fill="#020203"/>
<path d="M687.306 354.724H666.707V382.509H687.306V354.724Z" stroke="#020203" stroke-width="0.2401" stroke-miterlimit="10" stroke-linecap="round" stroke-linejoin="round"/>
<path d="M667.186 382.509L687.306 355.203" stroke="#020203" stroke-width="0.2401" stroke-miterlimit="10" stroke-linecap="round" stroke-linejoin="round"/>
<path d="M667.186 354.724L687.306 382.03" stroke="#020203" stroke-width="0.2401" stroke-miterlimit="10" stroke-linecap="round" stroke-linejoin="round"/>
<path d="M108.623 581.311V588.018H100.958V581.311H108.623ZM107.665 587.06V582.748H102.395V587.06H107.665Z" fill="#020203"/>
<path d="M108.623 520.473V527.179H100.958V520.473H108.623ZM107.665 526.221V521.91H102.395V526.221H107.665Z" fill="#020203"/>
<path d="M108.623 459.635V466.341H100.958V459.635H108.623ZM107.665 465.383V461.072H102.395V465.383H107.665Z" fill="#020203"/>
<path d="M108.623 399.275V405.982H100.958V399.275H108.623ZM107.665 405.024V400.713H102.395V405.024H107.665Z" fill="#020203"/>
<path d="M108.623 338.437V345.144H100.958V338.437H108.623ZM107.665 344.186V339.874H102.395V344.186H107.665Z" fill="#020203"/>
<path d="M108.623 641.67V648.377H100.958V641.67H108.623ZM107.665 647.419V643.108H102.395V647.419H107.665Z" fill="#020203"/>
<path d="M102.396 344.186H101.917V642.15H102.396V344.186Z" fill="#020203"/>
<path d="M108.623 345.144H108.144V642.629H108.623V345.144Z" fill="#020203"/>
<path d="M105.27 587.539H104.791V641.67H105.27V587.539Z" fill="#020203"/>
<path d="M105.27 527.179H104.791V581.79H105.27V527.179Z" fill="#020203"/>
<path d="M105.27 465.862H104.791V520.952H105.27V465.862Z" fill="#020203"/>
<path d="M105.27 405.503H104.791V460.114H105.27V405.503Z" fill="#020203"/>
<path d="M105.27 345.144H104.791V400.233H105.27V345.144Z" fill="#020203"/>
<path d="M184.791 338.437H191.497V346.102H184.791V338.437ZM190.539 339.395H186.228V344.665H190.539V339.395Z" fill="#020203"/>
<path d="M190.539 344.665H106.707V345.144H190.539V344.665Z" fill="#020203"/>
<path d="M188.144 338.437H108.144V338.916H188.144V338.437Z" fill="#020203"/>
<path d="M185.749 342.269H108.144V342.748H185.749V342.269Z" fill="#020203"/>
<path d="M185.749 641.67H192.455V649.335H185.749V641.67ZM191.497 642.629H187.186V647.898H191.497V642.629Z" fill="#020203"/>
<path d="M192.455 647.898H104.791V648.377H192.455V647.898Z" fill="#020203"/>
<path d="M189.581 641.67H106.707V642.149H189.581V641.67Z" fill="#020203"/>
<path d="M186.228 645.503H108.144V645.982H186.228V645.503Z" fill="#020203"/>
<path d="M125.389 574.126V593.287H123.473V575.563H119.162V573.646H125.389V574.126Z" fill="black"/>
<path d="M132.575 590.892C133.054 591.371 133.054 591.371 133.054 591.85V592.329C133.054 592.808 133.054 592.808 132.575 593.287L131.617 597.12H130.18L131.138 593.287C130.659 593.287 130.659 592.808 130.659 592.808C130.659 592.329 130.18 592.329 130.18 591.85C130.18 591.371 130.18 590.892 130.659 590.892C131.138 590.892 131.138 590.413 131.617 590.413C132.096 590.413 132.096 590.892 132.575 590.892Z" fill="black"/>
<path d="M139.282 592.329C138.323 591.371 137.365 590.413 136.407 588.976C135.928 587.539 135.449 585.622 135.449 583.706C135.449 581.79 135.928 579.874 136.407 578.437C136.886 577 137.844 576.042 139.282 575.084C140.24 574.125 141.677 574.125 143.114 574.125C144.551 574.125 145.988 574.605 146.946 575.084C147.904 576.042 148.862 577 149.82 578.437C150.3 579.874 150.779 581.79 150.779 583.706C150.779 585.622 150.3 587.539 149.82 588.976C149.341 590.413 148.383 591.371 146.946 592.329C145.988 593.287 144.551 593.287 143.114 593.287C141.677 593.766 140.24 593.287 139.282 592.329ZM145.988 590.892C146.946 590.413 147.425 589.455 147.904 588.018C148.383 586.581 148.383 585.622 148.383 583.706C148.383 581.79 148.383 580.353 147.904 579.395C147.425 578.437 146.946 577.479 145.988 576.521C145.03 576.042 144.072 575.563 143.114 575.563C142.156 575.563 141.198 576.042 140.24 576.521C139.282 577 138.803 577.958 138.323 579.395C137.844 580.832 137.844 581.79 137.844 583.706C137.844 585.622 137.844 587.06 138.323 588.018C138.803 588.976 139.282 589.934 140.24 590.892C141.198 591.371 142.156 591.85 143.114 591.85C144.551 591.85 145.509 591.371 145.988 590.892Z" fill="black"/>
<path d="M122.515 625.862C122.036 623.467 121.557 621.551 121.557 618.676C121.557 616.281 122.036 613.886 122.515 611.491C122.994 609.096 123.952 607.179 124.91 605.742H126.826C125.868 607.658 124.91 609.575 124.431 611.491C123.952 613.407 123.473 615.802 123.473 618.197C123.473 620.592 123.952 622.988 124.431 624.904C124.91 626.82 125.868 629.215 126.826 630.652H124.91C123.473 630.173 122.994 628.257 122.515 625.862Z" fill="black"/>
<path d="M140.239 617.239C141.197 618.197 141.676 619.634 141.676 621.071C141.676 622.03 141.197 622.988 140.718 623.946C140.239 624.904 139.281 625.383 138.323 625.862C137.365 626.341 135.928 626.82 134.491 626.82C133.054 626.82 131.617 626.82 130.658 626.341C129.7 625.862 128.742 624.904 127.784 624.425L128.742 622.988C129.221 623.467 130.179 623.946 131.137 624.425C132.096 624.904 133.533 624.904 134.491 624.904C135.928 624.904 137.365 624.425 138.323 623.946C139.281 623.467 139.76 622.509 139.76 621.071C139.76 620.113 139.281 619.155 138.323 618.197C137.365 617.239 135.928 617.239 134.491 617.239H133.054V615.802L138.323 609.095H128.742V607.179H141.197V608.616L135.928 615.323C137.844 615.802 139.281 616.281 140.239 617.239Z" fill="black"/>
<path d="M147.425 623.946C147.904 624.425 147.904 624.425 147.904 624.904V625.383C147.904 625.862 147.904 625.862 147.425 626.341L146.467 630.173H145.03L145.988 626.341C145.509 626.341 145.509 625.862 145.509 625.862C145.509 625.383 145.03 625.383 145.03 624.904C145.03 624.425 145.03 623.946 145.509 623.946C145.988 623.946 145.988 623.467 146.467 623.467C146.467 623.467 146.946 623.946 147.425 623.946Z" fill="black"/>
<path d="M166.587 621.55H162.754V626.82H160.838V621.55H149.82V620.113L159.88 607.179H162.275L152.216 619.634H160.359V615.323H162.275V619.634H166.108V621.55H166.587Z" fill="black"/>
<path d="M168.024 632.089C168.982 630.173 169.94 628.257 170.419 626.341C170.898 624.425 171.377 622.029 171.377 619.634C171.377 617.239 170.898 614.844 170.419 612.928C169.94 611.012 168.982 608.616 168.024 607.179H169.94C170.898 608.616 171.856 610.532 172.335 612.928C172.814 615.323 173.293 617.718 173.293 620.113C173.293 622.509 172.814 624.904 172.335 627.299C171.856 629.694 170.898 631.61 169.94 633.047H168.024V632.089Z" fill="black"/>
<path d="M716.048 481.671H712.216V486.94H710.3V481.671H699.282V480.233L709.342 467.299H711.737L701.677 479.754H709.821V475.443H711.737V479.754H715.569V481.671H716.048Z" fill="black"/>
<path d="M720.839 484.066C721.318 484.545 721.318 484.545 721.318 485.024V485.503C721.318 485.503 721.318 485.982 720.839 486.461L719.88 490.294H718.443L719.401 486.461C718.922 486.461 718.922 485.982 718.922 485.982C718.922 485.982 718.443 485.503 718.443 485.024C718.443 484.545 718.443 484.066 718.922 484.066C719.401 484.066 719.401 483.587 719.88 483.587C720.359 483.587 720.36 484.066 720.839 484.066Z" fill="black"/>
<path d="M728.982 467.299V486.461H727.066V468.736H722.755V466.82H728.982V467.299Z" fill="black"/>
<path d="M789.341 618.676V620.592H775.928V619.155L784.072 611.491C785.03 610.533 785.988 609.574 785.988 609.095C786.467 608.137 786.467 607.658 786.467 606.7C786.467 605.742 785.988 604.784 785.509 603.826C784.551 603.347 783.593 602.868 782.156 602.868C779.761 602.868 778.323 603.347 776.886 604.784L775.449 603.347C776.407 602.389 777.365 601.91 778.323 601.431C779.282 600.952 780.719 600.952 782.156 600.952C784.072 600.952 785.509 601.431 786.946 602.389C787.904 603.347 788.862 604.784 788.862 606.221C788.862 607.179 788.862 608.137 788.383 609.095C787.904 610.053 786.946 611.012 785.988 612.449L779.282 618.676H789.341Z" fill="black"/>
<path d="M805.15 618.676V620.592H791.737V619.155L799.881 611.491C800.839 610.533 801.797 609.574 801.797 609.095C802.276 608.137 802.276 607.658 802.276 606.7C802.276 605.742 801.797 604.784 801.318 603.826C800.36 603.347 799.401 602.868 797.964 602.868C795.569 602.868 794.132 603.347 792.695 604.784L791.258 603.347C792.216 602.389 793.174 601.91 794.132 601.431C795.09 600.952 796.527 600.952 797.964 600.952C799.881 600.952 801.318 601.431 802.755 602.389C803.713 603.347 804.671 604.784 804.671 606.221C804.671 607.179 804.671 608.137 804.192 609.095C803.713 610.053 802.755 611.012 801.797 612.449L795.09 618.676H805.15Z" fill="black"/>
<path d="M810.419 618.197C810.898 618.676 810.898 618.676 810.898 619.155V619.634C810.898 620.113 810.898 620.113 810.419 620.593L809.461 624.425H808.024L808.982 620.593C808.503 620.593 808.503 620.113 808.503 620.113C808.503 619.634 808.024 619.634 808.024 619.155C808.024 618.676 808.024 618.197 808.503 618.197C808.982 618.197 808.982 617.718 809.461 617.718C809.94 617.718 809.94 617.718 810.419 618.197Z" fill="black"/>
<path d="M825.27 603.826C826.707 605.742 827.186 607.658 827.186 611.011C827.186 612.928 826.707 614.844 826.228 616.281C825.749 617.718 824.312 618.676 823.353 619.634C821.916 620.592 820.479 620.592 818.563 620.592C816.647 620.592 815.21 620.113 813.773 619.634L814.731 618.197C815.689 618.676 817.126 619.155 818.563 619.155C820.479 619.155 822.395 618.676 823.353 617.239C824.312 615.802 825.27 613.886 825.27 611.491C825.27 611.011 825.27 610.532 825.27 610.053C824.791 611.011 823.832 611.97 822.874 612.449C821.916 612.928 820.479 613.407 819.042 613.407C817.605 613.407 816.647 613.407 815.689 612.928C814.731 612.449 813.773 611.97 813.294 611.011C812.814 610.053 812.335 609.095 812.335 608.137C812.335 607.179 812.814 605.742 813.294 605.263C813.773 604.305 814.731 603.826 815.689 603.347C816.647 602.868 817.605 602.389 819.042 602.389C822.395 601.431 824.311 601.91 825.27 603.826ZM822.395 610.532C823.353 610.053 823.832 609.574 824.311 609.095C824.791 608.616 824.791 607.658 824.791 607.179C824.791 606.221 824.791 605.742 824.311 605.263C823.832 604.784 823.353 604.305 822.395 603.826C821.437 603.347 820.479 603.347 819.521 603.347C818.084 603.347 817.126 603.826 816.168 604.305C815.21 605.263 814.731 606.221 814.731 607.179C814.731 608.616 815.21 609.574 816.168 610.053C817.126 610.532 818.084 611.011 819.521 611.011C820.958 611.011 821.916 611.011 822.395 610.532Z" fill="black"/>
<path d="M588.144 479.275H426.707V574.126H588.144V479.275Z" stroke="#020203" stroke-width="0.25" stroke-miterlimit="10"/>
<path d="M500.479 479.275V574.126" stroke="#020203" stroke-width="0.25" stroke-miterlimit="10"/>
<path d="M500.479 510.892H587.665" stroke="#020203" stroke-width="0.25" stroke-miterlimit="10"/>
<path d="M500.479 542.988H587.665" stroke="#020203" stroke-width="0.25" stroke-miterlimit="10"/>
<path d="M540.24 565.982V567.898H525.869V566.461L534.491 557.838C535.449 556.88 536.408 555.922 536.887 554.964C537.366 554.006 537.366 553.527 537.366 552.569C537.366 551.132 536.887 550.174 535.929 549.695C534.97 549.216 534.012 548.737 532.575 548.737C530.18 548.737 528.264 549.695 526.827 551.132L525.39 549.695C526.348 548.737 527.306 548.257 528.264 547.299C529.701 546.82 531.138 546.341 532.575 546.341C534.491 546.341 536.408 546.82 537.366 547.778C538.803 548.737 539.282 550.174 539.282 552.09C539.282 553.048 539.282 554.006 538.803 554.964C538.324 555.922 537.366 556.88 535.929 558.317L528.743 565.024H540.24V565.982Z" fill="black"/>
<path d="M557.007 547.299V548.736L548.384 567.898H545.989L554.611 549.215H544.072V553.048H542.156V547.299H557.007Z" fill="black"/>
<path d="M561.318 565.024C561.797 565.503 561.797 565.503 561.797 565.982C561.797 565.982 561.797 566.461 561.797 566.94C561.797 567.419 561.797 567.419 561.318 567.898L559.881 571.731H558.443L559.401 567.419C558.922 567.419 558.922 566.94 558.443 566.94C558.443 566.461 557.964 566.461 557.964 565.982C557.964 565.503 557.964 565.024 558.443 565.024C558.922 565.024 558.922 564.545 559.401 564.545C560.36 564.545 560.839 565.024 561.318 565.024Z" fill="black"/>
<path d="M581.916 562.15H577.605V567.419H575.689V562.15H564.192V560.712L575.21 546.82H577.605L567.066 560.233H576.168V555.443H578.084V560.233H582.395V562.15H581.916Z" fill="black"/>
<path d="M536.886 534.365V536.281H522.515V534.844L531.138 526.221C532.096 525.263 533.054 524.305 533.533 523.347C534.012 522.389 534.012 521.91 534.012 520.952C534.012 519.515 533.533 518.556 532.575 518.077C531.617 517.598 530.659 517.119 529.222 517.119C526.827 517.119 524.91 518.077 523.473 519.515L522.036 518.077C522.994 517.119 523.952 516.64 524.91 515.682C526.348 515.203 527.785 514.724 529.222 514.724C531.138 514.724 533.054 515.203 534.012 516.161C535.449 517.119 535.928 518.556 535.928 520.473C535.928 521.431 535.928 522.389 535.449 523.347C534.97 524.305 534.012 525.263 532.575 526.7L525.389 533.407H536.886V534.365Z" fill="black"/>
<path d="M551.737 524.784C552.695 525.263 553.653 526.221 554.132 527.179C554.611 528.137 555.09 529.095 555.09 530.532C555.09 531.97 554.611 532.928 554.132 533.886C553.653 534.844 552.695 535.802 551.737 536.281C550.779 536.76 549.342 537.239 547.905 537.239C545.03 537.239 543.114 536.281 541.677 534.365C540.24 532.449 539.282 530.053 539.282 526.7C539.282 524.305 539.761 522.389 540.24 520.952C540.719 519.514 542.156 518.077 543.593 517.119C545.03 516.161 546.467 515.682 548.384 515.682C550.3 515.682 552.216 516.161 553.174 516.64L552.216 518.556C551.258 518.077 549.821 517.598 548.384 517.598C545.988 517.598 544.551 518.556 543.114 519.993C541.677 521.431 541.198 523.347 541.198 526.221C541.198 526.7 541.198 527.179 541.198 528.137C541.677 527.179 542.635 526.221 543.593 525.742C544.551 525.263 545.988 524.784 547.425 524.784C549.342 524.305 550.779 524.305 551.737 524.784ZM551.258 533.407C552.216 532.449 552.695 531.491 552.695 530.053C552.695 528.616 552.216 527.658 551.258 526.7C550.3 525.742 548.863 525.263 547.425 525.263C546.467 525.263 545.509 525.263 544.551 525.742C543.593 526.221 543.114 526.7 542.635 527.179C542.156 527.658 542.156 528.616 542.156 529.574C542.156 530.532 542.156 531.011 542.635 531.97C543.114 532.928 543.593 533.407 544.551 533.407C545.509 533.886 546.467 533.886 547.425 533.886C549.342 534.844 550.3 534.365 551.258 533.407Z" fill="black"/>
<path d="M560.36 533.886C560.839 534.365 560.839 534.365 560.839 534.844C560.839 534.844 560.839 535.323 560.839 535.802C560.839 536.281 560.839 536.281 560.36 536.76L558.923 540.592H557.485L558.443 536.281C557.964 536.281 557.964 535.802 557.485 535.802C557.485 535.323 557.006 535.323 557.006 534.844C557.006 534.365 557.006 533.886 557.485 533.886C557.964 533.886 557.964 533.407 558.443 533.407C559.881 533.407 560.36 533.407 560.36 533.886Z" fill="black"/>
<path d="M580.958 531.011H576.647V536.281H574.731V531.011H563.234V529.574L574.252 515.682H576.647L566.108 529.095H575.21V524.305H577.126V529.095H581.437V531.011H580.958Z" fill="black"/>
<path d="M539.281 503.227V505.143H524.91V503.706L533.533 495.083C534.491 494.125 535.449 493.167 535.928 492.209C536.407 491.251 536.407 490.772 536.407 489.814C536.407 488.377 535.928 487.419 534.97 486.94C534.012 486.461 533.054 485.982 531.617 485.982C529.222 485.982 527.305 486.94 525.868 488.377L524.431 486.94C525.389 485.982 526.347 485.503 527.305 484.545C528.743 484.065 530.18 483.586 531.617 483.586C533.533 483.586 535.449 484.065 536.407 485.024C537.844 485.982 538.323 487.419 538.323 489.335C538.323 490.293 538.323 491.251 537.844 492.209C537.365 493.167 536.407 494.125 534.97 495.562L527.784 502.269H539.281V503.227Z" fill="black"/>
<path d="M556.048 503.227V505.143H541.677V503.706L550.3 495.083C551.258 494.125 552.216 493.167 552.695 492.209C553.174 491.251 553.174 490.772 553.174 489.814C553.174 488.377 552.695 487.419 551.737 486.94C550.779 486.461 549.821 485.982 548.383 485.982C545.988 485.982 544.072 486.94 542.635 488.377L541.198 486.94C542.156 485.982 543.114 485.503 544.072 484.545C545.509 484.065 546.946 483.586 548.383 483.586C550.3 483.586 552.216 484.065 553.174 485.024C554.611 485.982 555.09 487.419 555.09 489.335C555.09 490.293 555.09 491.251 554.611 492.209C554.132 493.167 553.174 494.125 551.737 495.562L544.551 502.269H556.048V503.227Z" fill="black"/>
<path d="M561.797 502.269C562.276 502.748 562.276 502.748 562.276 503.227C562.276 503.227 562.276 503.706 562.276 504.185C562.276 504.664 562.276 504.664 561.797 505.143L560.36 508.976H558.922L559.88 504.664C559.401 504.664 559.401 504.185 558.922 504.185C558.922 503.706 558.443 503.706 558.443 503.227C558.443 502.748 558.443 502.269 558.922 502.269C559.401 502.269 559.401 501.79 559.88 501.79C560.36 501.79 561.797 502.269 561.797 502.269Z" fill="black"/>
<path d="M582.395 499.395H578.084V504.664H576.168V499.395H564.671V497.958L575.689 484.065H578.084L567.545 497.479H576.647V492.688H578.563V497.479H582.875V499.395H582.395Z" fill="black"/>
<path d="M454.97 513.766V540.592H452.096V516.161H445.868V513.766H454.97Z" fill="black"/>
<path d="M468.383 539.155C466.467 538.197 464.551 536.281 463.114 534.365C461.677 532.449 461.198 530.054 461.198 527.179C461.198 524.784 461.677 522.389 463.114 519.994C464.551 517.598 465.988 516.161 468.383 515.203C470.779 514.245 473.174 513.287 475.569 513.287C477.485 513.287 479.401 513.766 481.318 514.245C483.234 514.724 484.671 515.682 485.629 517.119L483.713 519.036C481.797 517.119 478.922 515.682 475.569 515.682C473.653 515.682 471.258 516.161 469.82 517.119C468.383 518.078 466.467 519.515 465.509 520.952C464.551 522.868 464.072 524.784 464.072 526.7C464.072 528.616 464.551 530.533 465.509 532.449C466.467 534.365 467.904 535.323 469.82 536.281C471.737 537.239 473.653 537.718 475.569 537.718C478.922 537.718 481.318 536.76 483.713 534.365L485.629 536.281C484.671 537.718 482.755 538.676 481.318 539.155C479.401 539.634 477.964 540.113 475.569 540.113C473.174 541.072 470.779 540.592 468.383 539.155Z" fill="black"/>
</svg>
