<?xml version="1.0" encoding="utf-8"?>
<!-- Generator: Adobe Illustrator 25.4.1, SVG Export Plug-In . SVG Version: 6.00 Build 0)  -->
<svg version="1.1" id="Слой_1" xmlns="http://www.w3.org/2000/svg" xmlns:xlink="http://www.w3.org/1999/xlink" x="0px" y="0px"
	 viewBox="0 0 1030.5 1790.9" style="enable-background:new 0 0 1030.5 1790.9;" xml:space="preserve">
<style type="text/css">
	.st0{fill:none;}
	.st1{fill:none;stroke:#1E1E1C;stroke-width:0.3;stroke-linecap:square;stroke-linejoin:bevel;}
	.st2{fill:#020203;}
	.st3{fill:url(#SVGID_1_);}
	.st4{fill:url(#SVGID_00000019679956870330094260000010935141118170550460_);}
</style>
<pattern  x="1134.3" y="-831.2" width="72" height="72" patternUnits="userSpaceOnUse" id="Diamond" viewBox="72.2 -144.2 72 72" style="overflow:visible;">
	<g>
		<rect x="72.2" y="-144.2" class="st0" width="72" height="72"/>
		<g>
			<line class="st1" x1="144.2" y1="-72.2" x2="216.2" y2="-0.2"/>
			<line class="st1" x1="216.2" y1="-72.2" x2="144.2" y2="-0.2"/>
			<line class="st1" x1="210.2" y1="-72.2" x2="141.2" y2="-3.2"/>
			<line class="st1" x1="204.2" y1="-72.2" x2="141.2" y2="-9.2"/>
			<line class="st1" x1="198.2" y1="-72.2" x2="141.2" y2="-15.2"/>
			<line class="st1" x1="192.2" y1="-72.2" x2="141.2" y2="-21.2"/>
			<line class="st1" x1="186.2" y1="-72.2" x2="141.2" y2="-27.2"/>
			<line class="st1" x1="180.2" y1="-72.2" x2="141.2" y2="-33.2"/>
			<line class="st1" x1="174.2" y1="-72.2" x2="141.2" y2="-39.2"/>
			<line class="st1" x1="168.2" y1="-72.2" x2="141.2" y2="-45.2"/>
			<line class="st1" x1="162.2" y1="-72.2" x2="141.2" y2="-51.2"/>
			<line class="st1" x1="156.2" y1="-72.2" x2="141.2" y2="-57.2"/>
			<line class="st1" x1="150.2" y1="-72.2" x2="141.2" y2="-63.2"/>
			<line class="st1" x1="144.2" y1="-72.2" x2="141.2" y2="-69.2"/>
		</g>
		<g>
			<line class="st1" x1="72.2" y1="-72.2" x2="144.2" y2="-0.2"/>
			<line class="st1" x1="78.2" y1="-72.2" x2="147.2" y2="-3.2"/>
			<line class="st1" x1="84.2" y1="-72.2" x2="147.2" y2="-9.2"/>
			<line class="st1" x1="90.2" y1="-72.2" x2="147.2" y2="-15.2"/>
			<line class="st1" x1="96.2" y1="-72.2" x2="147.2" y2="-21.2"/>
			<line class="st1" x1="102.2" y1="-72.2" x2="147.2" y2="-27.2"/>
			<line class="st1" x1="108.2" y1="-72.2" x2="147.2" y2="-33.2"/>
			<line class="st1" x1="114.2" y1="-72.2" x2="147.2" y2="-39.2"/>
			<line class="st1" x1="120.2" y1="-72.2" x2="147.2" y2="-45.2"/>
			<line class="st1" x1="126.2" y1="-72.2" x2="147.2" y2="-51.2"/>
			<line class="st1" x1="132.2" y1="-72.2" x2="147.2" y2="-57.2"/>
			<line class="st1" x1="138.2" y1="-72.2" x2="147.3" y2="-63.2"/>
			<line class="st1" x1="144.2" y1="-72.2" x2="147.3" y2="-69.2"/>
			<line class="st1" x1="144.2" y1="-72.2" x2="72.2" y2="-0.2"/>
			<line class="st1" x1="138.2" y1="-72.2" x2="69.2" y2="-3.2"/>
			<line class="st1" x1="132.2" y1="-72.2" x2="69.2" y2="-9.2"/>
			<line class="st1" x1="126.2" y1="-72.2" x2="69.2" y2="-15.2"/>
			<line class="st1" x1="120.2" y1="-72.2" x2="69.2" y2="-21.2"/>
			<line class="st1" x1="114.2" y1="-72.2" x2="69.2" y2="-27.2"/>
			<line class="st1" x1="108.2" y1="-72.2" x2="69.2" y2="-33.2"/>
			<line class="st1" x1="102.2" y1="-72.2" x2="69.2" y2="-39.2"/>
			<line class="st1" x1="96.2" y1="-72.2" x2="69.2" y2="-45.2"/>
			<line class="st1" x1="90.2" y1="-72.2" x2="69.2" y2="-51.2"/>
			<line class="st1" x1="84.2" y1="-72.2" x2="69.2" y2="-57.2"/>
			<line class="st1" x1="78.2" y1="-72.2" x2="69.2" y2="-63.2"/>
			<line class="st1" x1="72.2" y1="-72.2" x2="69.2" y2="-69.2"/>
		</g>
		<g>
			<line class="st1" x1="0.2" y1="-72.2" x2="72.2" y2="-0.2"/>
			<line class="st1" x1="6.2" y1="-72.2" x2="75.2" y2="-3.2"/>
			<line class="st1" x1="12.2" y1="-72.2" x2="75.2" y2="-9.2"/>
			<line class="st1" x1="18.2" y1="-72.2" x2="75.2" y2="-15.2"/>
			<line class="st1" x1="24.2" y1="-72.2" x2="75.2" y2="-21.2"/>
			<line class="st1" x1="30.2" y1="-72.2" x2="75.2" y2="-27.2"/>
			<line class="st1" x1="36.2" y1="-72.2" x2="75.2" y2="-33.2"/>
			<line class="st1" x1="42.2" y1="-72.2" x2="75.2" y2="-39.2"/>
			<line class="st1" x1="48.2" y1="-72.2" x2="75.2" y2="-45.2"/>
			<line class="st1" x1="54.2" y1="-72.2" x2="75.2" y2="-51.2"/>
			<line class="st1" x1="60.2" y1="-72.2" x2="75.2" y2="-57.2"/>
			<line class="st1" x1="66.2" y1="-72.2" x2="75.3" y2="-63.2"/>
			<line class="st1" x1="72.2" y1="-72.2" x2="75.3" y2="-69.2"/>
			<line class="st1" x1="72.2" y1="-72.2" x2="0.2" y2="-0.2"/>
		</g>
		<g>
			<line class="st1" x1="144.2" y1="-144.2" x2="216.2" y2="-72.2"/>
			<line class="st1" x1="141.2" y1="-141.2" x2="210.2" y2="-72.2"/>
			<line class="st1" x1="141.2" y1="-135.2" x2="204.2" y2="-72.2"/>
			<line class="st1" x1="141.2" y1="-129.2" x2="198.2" y2="-72.2"/>
			<line class="st1" x1="141.2" y1="-123.2" x2="192.2" y2="-72.2"/>
			<line class="st1" x1="141.2" y1="-117.2" x2="186.2" y2="-72.2"/>
			<line class="st1" x1="141.2" y1="-111.2" x2="180.2" y2="-72.2"/>
			<line class="st1" x1="141.2" y1="-105.2" x2="174.2" y2="-72.2"/>
			<line class="st1" x1="141.2" y1="-99.2" x2="168.2" y2="-72.2"/>
			<line class="st1" x1="141.2" y1="-93.2" x2="162.2" y2="-72.2"/>
			<line class="st1" x1="141.2" y1="-87.2" x2="156.2" y2="-72.2"/>
			<line class="st1" x1="141.2" y1="-81.3" x2="150.2" y2="-72.2"/>
			<line class="st1" x1="141.2" y1="-75.3" x2="144.2" y2="-72.2"/>
			<line class="st1" x1="216.2" y1="-144.2" x2="144.2" y2="-72.2"/>
			<line class="st1" x1="210.2" y1="-144.2" x2="141.2" y2="-75.2"/>
			<line class="st1" x1="204.2" y1="-144.2" x2="141.2" y2="-81.2"/>
			<line class="st1" x1="198.2" y1="-144.2" x2="141.2" y2="-87.2"/>
			<line class="st1" x1="192.2" y1="-144.2" x2="141.2" y2="-93.2"/>
			<line class="st1" x1="186.2" y1="-144.2" x2="141.2" y2="-99.2"/>
			<line class="st1" x1="180.2" y1="-144.2" x2="141.2" y2="-105.2"/>
			<line class="st1" x1="174.2" y1="-144.2" x2="141.2" y2="-111.2"/>
			<line class="st1" x1="168.2" y1="-144.2" x2="141.2" y2="-117.2"/>
			<line class="st1" x1="162.2" y1="-144.2" x2="141.2" y2="-123.2"/>
			<line class="st1" x1="156.2" y1="-144.2" x2="141.2" y2="-129.2"/>
			<line class="st1" x1="150.2" y1="-144.2" x2="141.2" y2="-135.2"/>
			<line class="st1" x1="144.2" y1="-144.2" x2="141.2" y2="-141.2"/>
		</g>
		<g>
			<line class="st1" x1="72.2" y1="-144.2" x2="144.2" y2="-72.2"/>
			<line class="st1" x1="69.2" y1="-141.2" x2="138.2" y2="-72.2"/>
			<line class="st1" x1="69.2" y1="-135.2" x2="132.2" y2="-72.2"/>
			<line class="st1" x1="69.2" y1="-129.2" x2="126.2" y2="-72.2"/>
			<line class="st1" x1="69.2" y1="-123.2" x2="120.2" y2="-72.2"/>
			<line class="st1" x1="69.2" y1="-117.2" x2="114.2" y2="-72.2"/>
			<line class="st1" x1="69.2" y1="-111.2" x2="108.2" y2="-72.2"/>
			<line class="st1" x1="69.2" y1="-105.2" x2="102.2" y2="-72.2"/>
			<line class="st1" x1="69.2" y1="-99.2" x2="96.2" y2="-72.2"/>
			<line class="st1" x1="69.2" y1="-93.2" x2="90.2" y2="-72.2"/>
			<line class="st1" x1="69.2" y1="-87.2" x2="84.2" y2="-72.2"/>
			<line class="st1" x1="69.2" y1="-81.3" x2="78.2" y2="-72.2"/>
			<line class="st1" x1="69.2" y1="-75.3" x2="72.2" y2="-72.2"/>
			<line class="st1" x1="78.2" y1="-144.2" x2="147.2" y2="-75.2"/>
			<line class="st1" x1="84.2" y1="-144.2" x2="147.2" y2="-81.2"/>
			<line class="st1" x1="90.2" y1="-144.2" x2="147.2" y2="-87.2"/>
			<line class="st1" x1="96.2" y1="-144.2" x2="147.2" y2="-93.2"/>
			<line class="st1" x1="102.2" y1="-144.2" x2="147.2" y2="-99.2"/>
			<line class="st1" x1="108.2" y1="-144.2" x2="147.2" y2="-105.2"/>
			<line class="st1" x1="114.2" y1="-144.2" x2="147.2" y2="-111.2"/>
			<line class="st1" x1="120.2" y1="-144.2" x2="147.2" y2="-117.2"/>
			<line class="st1" x1="126.2" y1="-144.2" x2="147.2" y2="-123.2"/>
			<line class="st1" x1="132.2" y1="-144.2" x2="147.2" y2="-129.2"/>
			<line class="st1" x1="138.2" y1="-144.2" x2="147.3" y2="-135.2"/>
			<line class="st1" x1="144.2" y1="-144.2" x2="147.3" y2="-141.2"/>
			<line class="st1" x1="144.2" y1="-144.2" x2="72.2" y2="-72.2"/>
			<line class="st1" x1="138.2" y1="-144.2" x2="69.2" y2="-75.2"/>
			<line class="st1" x1="132.2" y1="-144.2" x2="69.2" y2="-81.2"/>
			<line class="st1" x1="126.2" y1="-144.2" x2="69.2" y2="-87.2"/>
			<line class="st1" x1="120.2" y1="-144.2" x2="69.2" y2="-93.2"/>
			<line class="st1" x1="114.2" y1="-144.2" x2="69.2" y2="-99.2"/>
			<line class="st1" x1="108.2" y1="-144.2" x2="69.2" y2="-105.2"/>
			<line class="st1" x1="102.2" y1="-144.2" x2="69.2" y2="-111.2"/>
			<line class="st1" x1="96.2" y1="-144.2" x2="69.2" y2="-117.2"/>
			<line class="st1" x1="90.2" y1="-144.2" x2="69.2" y2="-123.2"/>
			<line class="st1" x1="84.2" y1="-144.2" x2="69.2" y2="-129.2"/>
			<line class="st1" x1="78.2" y1="-144.2" x2="69.2" y2="-135.2"/>
			<line class="st1" x1="72.2" y1="-144.2" x2="69.2" y2="-141.2"/>
			<line class="st1" x1="147.2" y1="-141.2" x2="78.2" y2="-72.2"/>
			<line class="st1" x1="147.2" y1="-135.2" x2="84.2" y2="-72.2"/>
			<line class="st1" x1="147.2" y1="-129.2" x2="90.2" y2="-72.2"/>
			<line class="st1" x1="147.2" y1="-123.2" x2="96.2" y2="-72.2"/>
			<line class="st1" x1="147.2" y1="-117.2" x2="102.2" y2="-72.2"/>
			<line class="st1" x1="147.2" y1="-111.2" x2="108.2" y2="-72.2"/>
			<line class="st1" x1="147.2" y1="-105.2" x2="114.2" y2="-72.2"/>
			<line class="st1" x1="147.2" y1="-99.2" x2="120.2" y2="-72.2"/>
			<line class="st1" x1="147.2" y1="-93.2" x2="126.2" y2="-72.2"/>
			<line class="st1" x1="147.2" y1="-87.2" x2="132.2" y2="-72.2"/>
			<line class="st1" x1="147.3" y1="-81.3" x2="138.2" y2="-72.2"/>
			<line class="st1" x1="147.3" y1="-75.3" x2="144.2" y2="-72.2"/>
		</g>
		<g>
			<line class="st1" x1="0.2" y1="-144.2" x2="72.2" y2="-72.2"/>
			<line class="st1" x1="6.2" y1="-144.2" x2="75.2" y2="-75.2"/>
			<line class="st1" x1="12.2" y1="-144.2" x2="75.2" y2="-81.2"/>
			<line class="st1" x1="18.2" y1="-144.2" x2="75.2" y2="-87.2"/>
			<line class="st1" x1="24.2" y1="-144.2" x2="75.2" y2="-93.2"/>
			<line class="st1" x1="30.2" y1="-144.2" x2="75.2" y2="-99.2"/>
			<line class="st1" x1="36.2" y1="-144.2" x2="75.2" y2="-105.2"/>
			<line class="st1" x1="42.2" y1="-144.2" x2="75.2" y2="-111.2"/>
			<line class="st1" x1="48.2" y1="-144.2" x2="75.2" y2="-117.2"/>
			<line class="st1" x1="54.2" y1="-144.2" x2="75.2" y2="-123.2"/>
			<line class="st1" x1="60.2" y1="-144.2" x2="75.2" y2="-129.2"/>
			<line class="st1" x1="66.2" y1="-144.2" x2="75.3" y2="-135.2"/>
			<line class="st1" x1="72.2" y1="-144.2" x2="75.3" y2="-141.2"/>
			<line class="st1" x1="72.2" y1="-144.2" x2="0.2" y2="-72.2"/>
			<line class="st1" x1="75.2" y1="-141.2" x2="6.2" y2="-72.2"/>
			<line class="st1" x1="75.2" y1="-135.2" x2="12.2" y2="-72.2"/>
			<line class="st1" x1="75.2" y1="-129.2" x2="18.2" y2="-72.2"/>
			<line class="st1" x1="75.2" y1="-123.2" x2="24.2" y2="-72.2"/>
			<line class="st1" x1="75.2" y1="-117.2" x2="30.2" y2="-72.2"/>
			<line class="st1" x1="75.2" y1="-111.2" x2="36.2" y2="-72.2"/>
			<line class="st1" x1="75.2" y1="-105.2" x2="42.2" y2="-72.2"/>
			<line class="st1" x1="75.2" y1="-99.2" x2="48.2" y2="-72.2"/>
			<line class="st1" x1="75.2" y1="-93.2" x2="54.2" y2="-72.2"/>
			<line class="st1" x1="75.2" y1="-87.2" x2="60.2" y2="-72.2"/>
			<line class="st1" x1="75.3" y1="-81.3" x2="66.2" y2="-72.2"/>
			<line class="st1" x1="75.3" y1="-75.3" x2="72.2" y2="-72.2"/>
		</g>
		<g>
			<line class="st1" x1="144.2" y1="-216.2" x2="216.2" y2="-144.2"/>
			<line class="st1" x1="141.2" y1="-213.2" x2="210.2" y2="-144.2"/>
			<line class="st1" x1="141.2" y1="-207.2" x2="204.2" y2="-144.2"/>
			<line class="st1" x1="141.2" y1="-201.2" x2="198.2" y2="-144.2"/>
			<line class="st1" x1="141.2" y1="-195.2" x2="192.2" y2="-144.2"/>
			<line class="st1" x1="141.2" y1="-189.2" x2="186.2" y2="-144.2"/>
			<line class="st1" x1="141.2" y1="-183.2" x2="180.2" y2="-144.2"/>
			<line class="st1" x1="141.2" y1="-177.2" x2="174.2" y2="-144.2"/>
			<line class="st1" x1="141.2" y1="-171.2" x2="168.2" y2="-144.2"/>
			<line class="st1" x1="141.2" y1="-165.2" x2="162.2" y2="-144.2"/>
			<line class="st1" x1="141.2" y1="-159.2" x2="156.2" y2="-144.2"/>
			<line class="st1" x1="141.2" y1="-153.3" x2="150.2" y2="-144.2"/>
			<line class="st1" x1="141.2" y1="-147.3" x2="144.2" y2="-144.2"/>
			<line class="st1" x1="216.2" y1="-216.2" x2="144.2" y2="-144.2"/>
		</g>
		<g>
			<line class="st1" x1="72.2" y1="-216.2" x2="144.2" y2="-144.2"/>
			<line class="st1" x1="69.2" y1="-213.2" x2="138.2" y2="-144.2"/>
			<line class="st1" x1="69.2" y1="-207.2" x2="132.2" y2="-144.2"/>
			<line class="st1" x1="69.2" y1="-201.2" x2="126.2" y2="-144.2"/>
			<line class="st1" x1="69.2" y1="-195.2" x2="120.2" y2="-144.2"/>
			<line class="st1" x1="69.2" y1="-189.2" x2="114.2" y2="-144.2"/>
			<line class="st1" x1="69.2" y1="-183.2" x2="108.2" y2="-144.2"/>
			<line class="st1" x1="69.2" y1="-177.2" x2="102.2" y2="-144.2"/>
			<line class="st1" x1="69.2" y1="-171.2" x2="96.2" y2="-144.2"/>
			<line class="st1" x1="69.2" y1="-165.2" x2="90.2" y2="-144.2"/>
			<line class="st1" x1="69.2" y1="-159.2" x2="84.2" y2="-144.2"/>
			<line class="st1" x1="69.2" y1="-153.3" x2="78.2" y2="-144.2"/>
			<line class="st1" x1="69.2" y1="-147.3" x2="72.2" y2="-144.2"/>
			<line class="st1" x1="144.2" y1="-216.2" x2="72.2" y2="-144.2"/>
			<line class="st1" x1="147.2" y1="-213.2" x2="78.2" y2="-144.2"/>
			<line class="st1" x1="147.2" y1="-207.2" x2="84.2" y2="-144.2"/>
			<line class="st1" x1="147.2" y1="-201.2" x2="90.2" y2="-144.2"/>
			<line class="st1" x1="147.2" y1="-195.2" x2="96.2" y2="-144.2"/>
			<line class="st1" x1="147.2" y1="-189.2" x2="102.2" y2="-144.2"/>
			<line class="st1" x1="147.2" y1="-183.2" x2="108.2" y2="-144.2"/>
			<line class="st1" x1="147.2" y1="-177.2" x2="114.2" y2="-144.2"/>
			<line class="st1" x1="147.2" y1="-171.2" x2="120.2" y2="-144.2"/>
			<line class="st1" x1="147.2" y1="-165.2" x2="126.2" y2="-144.2"/>
			<line class="st1" x1="147.2" y1="-159.2" x2="132.2" y2="-144.2"/>
			<line class="st1" x1="147.3" y1="-153.3" x2="138.2" y2="-144.2"/>
			<line class="st1" x1="147.3" y1="-147.3" x2="144.2" y2="-144.2"/>
		</g>
		<g>
			<line class="st1" x1="0.2" y1="-216.2" x2="72.2" y2="-144.2"/>
			<line class="st1" x1="72.2" y1="-216.2" x2="0.2" y2="-144.2"/>
			<line class="st1" x1="75.2" y1="-213.2" x2="6.2" y2="-144.2"/>
			<line class="st1" x1="75.2" y1="-207.2" x2="12.2" y2="-144.2"/>
			<line class="st1" x1="75.2" y1="-201.2" x2="18.2" y2="-144.2"/>
			<line class="st1" x1="75.2" y1="-195.2" x2="24.2" y2="-144.2"/>
			<line class="st1" x1="75.2" y1="-189.2" x2="30.2" y2="-144.2"/>
			<line class="st1" x1="75.2" y1="-183.2" x2="36.2" y2="-144.2"/>
			<line class="st1" x1="75.2" y1="-177.2" x2="42.2" y2="-144.2"/>
			<line class="st1" x1="75.2" y1="-171.2" x2="48.2" y2="-144.2"/>
			<line class="st1" x1="75.2" y1="-165.2" x2="54.2" y2="-144.2"/>
			<line class="st1" x1="75.2" y1="-159.2" x2="60.2" y2="-144.2"/>
			<line class="st1" x1="75.3" y1="-153.3" x2="66.2" y2="-144.2"/>
			<line class="st1" x1="75.3" y1="-147.3" x2="72.2" y2="-144.2"/>
		</g>
	</g>
</pattern>
<g>
	<g>
		<path class="st2" d="M708.6,1025.9v38l-34.2-33.2c-0.2-0.2-0.2-0.2-0.5-0.2v-38l34.2,33.2C708.4,1025.9,708.4,1025.9,708.6,1025.9
			z"/>
		<path class="st2" d="M708.6,1106v38l-34.2-33.2c-0.2-0.2-0.2-0.2-0.5-0.2v-38l34.2,33.2C708.4,1106,708.4,1106,708.6,1106z"/>
		<path class="st2" d="M708.6,1145.9v38l-34.2-33.2c-0.2-0.2-0.2-0.2-0.5-0.2v-38l34.2,33.2C708.4,1145.9,708.4,1145.9,708.6,1145.9
			z"/>
		<path class="st2" d="M708.6,1066.1v38l-34.2-33.2c-0.2-0.2-0.2-0.2-0.5-0.2v-38l34.2,33.2C708.4,1065.8,708.4,1066.1,708.6,1066.1
			z"/>
		<polygon class="st2" points="676.9,953 708.6,953 708.6,984 		"/>
		<path class="st2" d="M674,1153v38c0.2,0,0.5,0,0.5,0.2l28.1,27.3h6v-32.2c-0.2,0-0.2,0-0.5-0.2L674,1153z"/>
		<polygon class="st2" points="674,1192.9 674,1218.5 700.6,1218.5 		"/>
		<path class="st2" d="M675,953.7l33,32c0.2,0.2,0.2,0.2,0.5,0.2v38L674.5,991c-0.2-0.2-0.2-0.2-0.5-0.2v-37.5h0.7
			C674.7,953.2,675,953.5,675,953.7z"/>
	</g>
	<g>
		<path class="st2" d="M169.7,1024.9v37.5l-34.2-32.7c-0.2-0.2-0.2-0.2-0.5-0.2v-37.5l34.2,32.7
			C169.4,1024.9,169.4,1024.9,169.7,1024.9z"/>
		<path class="st2" d="M169.7,1103.9v37.5l-34.2-32.7c-0.2-0.2-0.2-0.2-0.5-0.2V1071l34.2,32.7
			C169.4,1103.9,169.4,1103.9,169.7,1103.9z"/>
		<path class="st2" d="M169.7,1143.3v37.5l-34.2-32.7c-0.2-0.2-0.2-0.2-0.5-0.2v-37.5l34.2,32.7
			C169.4,1143.3,169.4,1143.3,169.7,1143.3z"/>
		<path class="st2" d="M169.7,1064.5v37.5l-34.2-32.7c-0.2-0.2-0.2-0.2-0.5-0.2v-37.5l34.2,32.7
			C169.4,1064.3,169.4,1064.5,169.7,1064.5z"/>
		<polygon class="st2" points="137.9,953 169.7,953 169.7,983.6 		"/>
		<path class="st2" d="M135,1150.3v37.5c0.2,0,0.5,0,0.5,0.2l28.1,27h6v-31.7c-0.2,0-0.2,0-0.5-0.2L135,1150.3z"/>
		<polygon class="st2" points="135,1189.7 135,1215 161.7,1215 		"/>
		<path class="st2" d="M136,953.7l33,31.5c0.2,0.2,0.2,0.2,0.5,0.2v37.5l-33.9-32.5c-0.2-0.2-0.2-0.2-0.5-0.2v-37h0.7
			C135.8,953.2,136,953.5,136,953.7z"/>
	</g>
	<g>
		<path class="st2" d="M707.2,383.8v37.5l-34.2-32.7c-0.2-0.2-0.2-0.2-0.5-0.2v-37.5l34.2,32.7C707,383.8,707,383.8,707.2,383.8z"/>
		<path class="st2" d="M707.2,462.9v37.5l-34.2-32.7c-0.2-0.2-0.2-0.2-0.5-0.2v-37.5l34.2,32.7C707,462.9,707,462.9,707.2,462.9z"/>
		<path class="st2" d="M707.2,502.3v37.5L673.1,507c-0.2-0.2-0.2-0.2-0.5-0.2v-37.5l34.2,32.7C707,502.3,707,502.3,707.2,502.3z"/>
		<path class="st2" d="M707.2,423.5v37.5l-34.2-32.7c-0.2-0.2-0.2-0.2-0.5-0.2v-37.5l34.2,32.7C707,423.2,707,423.5,707.2,423.5z"/>
		<polygon class="st2" points="675.4,311.9 707.2,311.9 707.2,342.5 		"/>
		<path class="st2" d="M672.6,509.2v37.5c0.2,0,0.5,0,0.5,0.2l28.1,27h6v-31.7c-0.2,0-0.2,0-0.5-0.2L672.6,509.2z"/>
		<polygon class="st2" points="672.6,548.6 672.6,573.9 699.2,573.9 		"/>
		<path class="st2" d="M673.5,312.6l33,31.5c0.2,0.2,0.2,0.2,0.5,0.2v37.5l-33.9-32.5c-0.2-0.2-0.2-0.2-0.5-0.2v-37h0.7
			C673.3,312.2,673.5,312.4,673.5,312.6z"/>
	</g>
	<g>
		<path class="st2" d="M167.8,383.8v37.5l-34.2-32.7c-0.2-0.2-0.2-0.2-0.5-0.2v-37.5l34.2,32.7C167.5,383.8,167.5,383.8,167.8,383.8
			z"/>
		<path class="st2" d="M167.8,462.9v37.5l-34.2-32.7c-0.2-0.2-0.2-0.2-0.5-0.2v-37.5l34.2,32.7C167.5,462.9,167.5,462.9,167.8,462.9
			z"/>
		<path class="st2" d="M167.8,502.3v37.5L133.6,507c-0.2-0.2-0.2-0.2-0.5-0.2v-37.5l34.2,32.7C167.5,502.3,167.5,502.3,167.8,502.3z
			"/>
		<path class="st2" d="M167.8,423.5v37.5l-34.2-32.7c-0.2-0.2-0.2-0.2-0.5-0.2v-37.5l34.2,32.7C167.5,423.2,167.5,423.5,167.8,423.5
			z"/>
		<polygon class="st2" points="136,311.9 167.8,311.9 167.8,342.5 		"/>
		<path class="st2" d="M133.1,509.2v37.5c0.2,0,0.5,0,0.5,0.2l28.1,27h6v-31.7c-0.2,0-0.2,0-0.5-0.2L133.1,509.2z"/>
		<polygon class="st2" points="133.1,548.6 133.1,573.9 159.7,573.9 		"/>
		<path class="st2" d="M134.1,312.6l33,31.5c0.2,0.2,0.2,0.2,0.5,0.2v37.5l-33.9-32.5c-0.2-0.2-0.2-0.2-0.5-0.2v-37h0.7
			C133.9,312.2,134.1,312.4,134.1,312.6z"/>
	</g>
	<g>
		<polygon class="st2" points="553.1,1207.9 547.4,1212.7 545.4,1204.3 		"/>
		<polygon class="st2" points="619.7,1216.3 620.5,1206.5 626.4,1215.1 		"/>
		<path class="st2" d="M535.2,1199.8c0,0.2,0,0.5,0.2,0.5l3.8,4.8c0.2,0.2,0.3,0.2,0.5,0.2c0.2,0,0.3,0,0.5-0.2
			c0.2-0.2,0.2-0.7,0-1.2l-3.3-4.1h54.1l-0.8,1c-0.2,0.2-0.2,0.7,0,1.2c0.2,0.2,0.3,0.2,0.5,0.2c0.2,0,0.3,0,0.5-0.2l1.3-1.7
			c0.2-0.2,0.2-0.2,0.2-0.5h83.7v17.4h-52.6l4.4-0.7c0,0,0,0,0.2,0h0.2l0,0c0,0,0-0.2,0.2-0.2v-0.2l0,0c0,0,0-0.2-0.2-0.2v-0.2
			l-7.4-11h-0.2l-0.2-0.2l0,0h-0.2c-0.2,0-0.2,0-0.3,0.2l0,0l0,0c0,0-0.2,0.2-0.2,0.5l-1.3,12.7l0,0h-2.5c0-0.2,0-0.5-0.2-0.7
			l-3.8-3.1c-0.3-0.2-0.7-0.2-0.8,0.2c-0.2,0.5-0.2,1,0.2,1.2l3,2.4H442v-17.4h93.2L535.2,1199.8L535.2,1199.8z M580.4,1214.8h4.9
			c0.3,0,0.7-0.2,0.7-0.7s-0.3-0.7-0.7-0.7h-4.9c-0.3,0-0.7,0.2-0.7,0.7S580.1,1214.8,580.4,1214.8z M546.4,1214.4L546.4,1214.4
			L546.4,1214.4c0.2,0.5,0.3,0.5,0.7,0.5h0.2l0,0c0,0,0,0,0.2,0l7.4-6.2c0.2,0,0.2-0.2,0.2-0.2l0,0l0,0v-0.2v-0.2l0,0
			c0,0-0.2,0-0.2-0.2c0,0,0-0.2-0.2-0.2l-9.9-4.8h-0.2h-0.2l0,0c0,0-0.2,0-0.2,0.2l-0.2,0.2l0,0v0.2v0.2L546.4,1214.4z
			 M505.6,1209.3h4.9c0.3,0,0.7-0.2,0.7-0.7s-0.3-0.7-0.7-0.7h-4.9c-0.3,0-0.7,0.2-0.7,0.7S505.3,1209.3,505.6,1209.3z M467,1211
			L467,1211l4.9-1.7c0.3,0,0.5-0.5,0.5-1c-0.2-0.5-0.5-0.7-0.8-0.5l-4.8,1.7c-0.3,0-0.5,0.5-0.5,1C466.3,1210.8,466.7,1211,467,1211
			z"/>
	</g>
	<g>
		<polygon class="st2" points="450.6,1481.5 455.4,1487.9 447,1490.2 		"/>
		<path class="st2" d="M443,1437.7c-0.2-0.2-0.2-0.2-0.5-0.2v-0.8h17.9V1575h-7.5l-0.9-2.9c0-0.4-0.5-0.5-1-0.5
			c-0.5,0.2-0.7,0.5-0.5,0.9l0.8,2.5H443v-73.5h-0.5c0.2,0,0.5,0,0.5-0.2l4.8-4.2c0.2-0.2,0.2-0.4,0.2-0.5c0-0.2,0-0.4-0.2-0.5
			c-0.2-0.2-0.7-0.2-1.2,0l-4.1,3.7v-60.4l1,0.9c0.2,0.2,0.7,0.2,1.2,0c0.2-0.2,0.2-0.4,0.2-0.5c0-0.2,0-0.4-0.2-0.5L443,1437.7z
			 M457.5,1445.6c0-0.4-0.2-0.7-0.7-0.7c-0.5,0-0.7,0.4-0.7,0.7v5.5c0,0.4,0.2,0.7,0.7,0.7c0.5,0,0.7-0.4,0.7-0.7V1445.6z
			 M450.6,1534.6c0,0.4,0.2,0.7,0.7,0.7c0.5,0,0.7-0.4,0.7-0.7v-5.5c0-0.4-0.2-0.7-0.7-0.7c-0.5,0-0.7,0.4-0.7,0.7V1534.6z
			 M445.3,1491.3c0,0,0,0.2,0.2,0.2l0.2,0.2h0.5l10.7-2.6c0.5-0.2,0.5-0.4,0.5-0.8v-0.2c0,0,0,0,0-0.2l-6.2-8.2
			c0-0.2-0.2-0.2-0.2-0.2h-0.5c0,0,0,0.2-0.2,0.2c0,0-0.2,0-0.2,0.2l-4.8,11V1491.3z"/>
	</g>
	<g>
		<polygon class="st2" points="450.6,1261.6 455.4,1268 447,1270.2 		"/>
		<path class="st2" d="M443,1217.8c-0.2-0.2-0.2-0.2-0.5-0.2v-0.8h17.9v87.7H443v-23h-0.5c0.2,0,0.5,0,0.5-0.2l4.8-4.2
			c0.2-0.2,0.2-0.4,0.2-0.5c0-0.2,0-0.4-0.2-0.5c-0.2-0.2-0.7-0.2-1.2,0l-4.1,3.7v-60.4l1,0.9c0.2,0.2,0.7,0.2,1.2,0
			c0.2-0.2,0.2-0.4,0.2-0.5c0-0.2,0-0.4-0.2-0.5L443,1217.8z M457.5,1225.6c0-0.4-0.2-0.7-0.7-0.7c-0.5,0-0.7,0.4-0.7,0.7v5.5
			c0,0.4,0.2,0.7,0.7,0.7c0.5,0,0.7-0.4,0.7-0.7V1225.6z M445.3,1271.3c0,0,0,0.2,0.2,0.2l0.2,0.2h0.5l10.7-2.6
			c0.5-0.2,0.5-0.4,0.5-0.8v-0.2c0,0,0,0,0-0.2l-6.2-8.2c0-0.2-0.2-0.2-0.2-0.2h-0.5c0,0,0,0.2-0.2,0.2c0,0-0.2,0-0.2,0.2l-4.8,11
			V1271.3z"/>
	</g>
	<g>
		<polygon class="st2" points="688.5,703.1 690.9,686.9 698.5,701 		"/>
		<polygon class="st2" points="687.3,725.1 680.1,733 677.5,719.4 		"/>
		<path class="st2" d="M709.5,572.5v100.3l-4.5-2.4c-0.5-0.2-1,0.2-1,0.7c-0.2,0.7,0,1.4,0.5,1.7l4.8,2.6h0.2v281.3h-36.3V572.5
			H709.5z M694,645.1l-6.2-5c-0.5-0.2-1,0-1,0.5c-0.2,0.7,0,1.4,0.2,1.7l6.2,5l0.2,0.2c0.2,0,0.5-0.2,0.7-0.7
			C694.7,646,694.4,645.3,694,645.1z M700.9,701.9c0-0.1,0-0.2,0-0.2v-0.5l-9.6-17.7c0,0-0.2,0-0.2-0.2c0,0,0-0.2-0.2-0.2h-0.2
			c0,0-0.2,0-0.2,0.2v0.2l-0.2,0.2l-3.1,20.3v0.7c0,0.2,0,0.2,0,0.2c0,0.2,0.2,0.2,0.2,0.2s0,0.2,0.2,0.2h0.2l12.7-2.6
			c0,0,0,0,0.2-0.2c0,0,0.2,0,0.2-0.2C700.9,702.1,700.9,702.1,700.9,701.9z M702.3,810.6c-0.2-0.7-0.7-1-1-0.5l-6.2,5
			c-0.5,0.2-0.5,1-0.2,1.7c0.2,0.5,0.5,0.7,0.7,0.7c0,0,0.2,0,0.2-0.2l6.2-5C702.3,812,702.6,811.1,702.3,810.6z M694.9,946.7l4.8,5
			c0.2,0.2,0.2,0.2,0.5,0.2s0.5-0.2,0.7-0.5c0.2-0.5,0.2-1.4-0.2-1.7l-4.8-5c-0.5-0.5-1-0.2-1.2,0.2
			C694.4,945.5,694.4,946.2,694.9,946.7z M691.8,845.2l6.2,5l0.2,0.2c0.2,0,0.5-0.2,0.7-0.7c0.2-0.7,0-1.4-0.2-1.7l-6.2-5
			c-0.5-0.2-1,0-1,0.5C691.6,844,691.3,845,691.8,845.2z M690.1,743.7l4.8,5c0.2,0.2,0.2,0.2,0.5,0.2c0.2,0,0.5-0.2,0.7-0.5
			c0.2-0.5,0.2-1.4-0.2-1.7l-4.8-5c-0.5-0.5-1-0.2-1.2,0.2C689.7,742.5,689.7,743.2,690.1,743.7z M682.7,779.3h6.2
			c0.5,0,0.7-0.5,0.7-1.2c0-0.7-0.2-1.2-0.7-1.2h-6.2c-0.5,0-0.7,0.5-0.7,1.2C682,778.8,682.3,779.3,682.7,779.3z M675.6,717.4
			c0,0.2,0,0.2,0,0.5l3.1,17.4c0.2,0.7,0.5,0.7,0.7,0.7h0.2c0,0,0,0,0.2,0l9.6-10.3c0-0.2,0.2-0.2,0.2-0.5c0-0.2,0-0.2,0-0.5
			c0-0.2,0-0.2,0-0.5l-0.2-0.2c0,0,0-0.2-0.2-0.2l-12.7-7.6H676l-0.2,0.2c0,0.2-0.2,0.2-0.2,0.5
			C675.6,717.2,675.6,717.2,675.6,717.4z"/>
	</g>
	<g>
		<polygon class="st2" points="149.5,703.1 151.9,686.9 159.5,701 		"/>
		<polygon class="st2" points="148.3,725.1 141.1,733 138.5,719.4 		"/>
		<path class="st2" d="M170.5,572.5v100.3l-4.5-2.4c-0.5-0.2-1,0.2-1,0.7c-0.2,0.7,0,1.4,0.5,1.7l4.8,2.6h0.2v281.3h-36.3V572.5
			H170.5z M155,645.1l-6.2-5c-0.5-0.2-1,0-1,0.5c-0.2,0.7,0,1.4,0.2,1.7l6.2,5l0.2,0.2c0.2,0,0.5-0.2,0.7-0.7
			C155.7,646,155.5,645.3,155,645.1z M161.9,701.9c0-0.1,0-0.2,0-0.2v-0.5l-9.6-17.7c0,0-0.2,0-0.2-0.2c0,0,0-0.2-0.2-0.2h-0.2
			c0,0-0.2,0-0.2,0.2v0.2l-0.2,0.2l-3.1,20.3v0.7c0,0.2,0,0.2,0,0.2c0,0.2,0.2,0.2,0.2,0.2s0,0.2,0.2,0.2h0.2l12.7-2.6
			c0,0,0,0,0.2-0.2c0,0,0.2,0,0.2-0.2C161.9,702.1,161.9,702.1,161.9,701.9z M163.3,810.6c-0.2-0.7-0.7-1-1-0.5l-6.2,5
			c-0.5,0.2-0.5,1-0.2,1.7c0.2,0.5,0.5,0.7,0.7,0.7c0,0,0.2,0,0.2-0.2l6.2-5C163.3,812,163.6,811.1,163.3,810.6z M155.9,946.7l4.8,5
			c0.2,0.2,0.2,0.2,0.5,0.2c0.2,0,0.5-0.2,0.7-0.5c0.2-0.5,0.2-1.4-0.2-1.7l-4.8-5c-0.5-0.5-1-0.2-1.2,0.2
			C155.5,945.5,155.5,946.2,155.9,946.7z M152.8,845.2l6.2,5l0.2,0.2c0.2,0,0.5-0.2,0.7-0.7c0.2-0.7,0-1.4-0.2-1.7l-6.2-5
			c-0.5-0.2-1,0-1,0.5C152.6,844,152.4,845,152.8,845.2z M151.2,743.7l4.8,5c0.2,0.2,0.2,0.2,0.5,0.2c0.2,0,0.5-0.2,0.7-0.5
			c0.2-0.5,0.2-1.4-0.2-1.7l-4.8-5c-0.5-0.5-1-0.2-1.2,0.2C150.7,742.5,150.7,743.2,151.2,743.7z M143.8,779.3h6.2
			c0.5,0,0.7-0.5,0.7-1.2c0-0.7-0.2-1.2-0.7-1.2h-6.2c-0.5,0-0.7,0.5-0.7,1.2C143,778.8,143.3,779.3,143.8,779.3z M136.6,717.4
			c0,0.2,0,0.2,0,0.5l3.1,17.4c0.2,0.7,0.5,0.7,0.7,0.7h0.2c0,0,0,0,0.2,0l9.6-10.3c0-0.2,0.2-0.2,0.2-0.5c0-0.2,0-0.2,0-0.5
			c0-0.2,0-0.2,0-0.5l-0.2-0.2c0,0,0-0.2-0.2-0.2l-12.7-7.6h-0.5l-0.2,0.2c0,0.2-0.2,0.2-0.2,0.5
			C136.6,717.2,136.6,717.2,136.6,717.4z"/>
	</g>
	<g>
		<polygon class="st2" points="488.7,333.7 476.8,331.4 487.2,323.7 		"/>
		<polygon class="st2" points="504.9,334.9 510.7,342.1 500.7,344.7 		"/>
		<path class="st2" d="M675,312.7V349H471v-36.3H675z M666.4,327.5c0.4,0.2,0.9,0.2,1.2-0.2l3.7-4.8c0.2-0.2,0.2-0.2,0.2-0.5
			c0-0.2-0.2-0.5-0.4-0.7c-0.4-0.2-1.1-0.2-1.2,0.2l-3.7,4.8C665.9,326.8,666.1,327.3,666.4,327.5z M591.9,330.6
			c0.4,0,1.1,0.2,1.2-0.2l3.7-6.2l0.2-0.2c0-0.2-0.2-0.5-0.5-0.7c-0.5-0.2-1.1,0-1.2,0.2l-3.7,6.2
			C591.3,330.2,591.5,330.6,591.9,330.6z M567.3,320.8l3.7,6.2c0.2,0.5,0.7,0.5,1.2,0.2c0.4-0.2,0.5-0.5,0.5-0.7c0,0,0-0.2-0.2-0.2
			l-3.7-6.2c-0.2-0.2-0.9-0.5-1.2-0.2C567.1,320.1,567,320.6,567.3,320.8z M542.9,339.5c0,0.5,0.4,0.7,0.9,0.7
			c0.5,0,0.9-0.2,0.9-0.7v-6.2c0-0.5-0.4-0.7-0.9-0.7c-0.5,0-0.9,0.2-0.9,0.7V339.5z M517.3,332.3c0.4,0.2,0.9,0.2,1.2-0.2l3.7-4.8
			c0.2-0.2,0.2-0.2,0.2-0.5c0-0.2-0.2-0.5-0.4-0.7c-0.4-0.2-1.1-0.2-1.2,0.2l-3.7,4.8C516.8,331.6,517,332.1,517.3,332.3z
			 M498.4,346.2l0.2,0.2c0.2,0,0.2,0.2,0.4,0.2c0.2,0,0.2,0,0.4,0c0.2,0,0.2,0,0.4,0l12.8-3.1c0.5-0.2,0.5-0.5,0.5-0.7v-0.2
			c0,0,0,0,0-0.2l-7.5-9.6c-0.2,0-0.2-0.2-0.4-0.2c-0.2,0-0.2,0-0.4,0c-0.2,0-0.2,0-0.4,0l-0.2,0.2c0,0-0.2,0-0.2,0.2l-5.6,12.7
			V346.2z M474,331.6c0,0,0,0.2,0.2,0.2h0.2l0.2,0.2l14.9,3.1h0.5c0.2,0,0.2,0,0.2,0c0.2,0,0.2-0.2,0.2-0.2s0.2,0,0.2-0.2v-0.2
			l-1.9-12.7c0,0,0,0-0.2-0.2c0,0,0-0.2-0.2-0.2c-0.2,0-0.2,0-0.4,0c-0.1,0-0.1,0-0.1,0h-0.4l-13,9.6c0,0,0,0.2-0.2,0.2
			c0,0-0.2,0-0.2,0.2V331.6z"/>
	</g>
	<g>
		<polygon class="st2" points="729.1,1203.3 715.3,1200.9 727.3,1193.2 		"/>
		<polygon class="st2" points="747.8,1204.5 754.5,1211.6 742.9,1214.2 		"/>
		<path class="st2" d="M897.7,1182.2v36.3H708.6v-36.3H897.7z M848.5,1200.2c0.4,0,1.2,0.2,1.4-0.2l4.3-6.2l0.2-0.2
			c0-0.2-0.2-0.5-0.6-0.7c-0.6-0.2-1.2,0-1.4,0.2l-4.3,6.2C847.9,1199.7,848.1,1200.2,848.5,1200.2z M820.1,1190.4l4.3,6.2
			c0.2,0.5,0.8,0.5,1.4,0.2c0.4-0.2,0.6-0.5,0.6-0.7c0,0,0-0.2-0.2-0.2l-4.3-6.2c-0.2-0.2-1-0.5-1.4-0.2
			C819.9,1189.6,819.7,1190.1,820.1,1190.4z M791.9,1209c0,0.5,0.4,0.7,1,0.7c0.6,0,1-0.2,1-0.7v-6.2c0-0.5-0.4-0.7-1-0.7
			c-0.6,0-1,0.2-1,0.7V1209z M762.2,1201.8c0.4,0.2,1,0.2,1.4-0.2l4.3-4.8c0.2-0.2,0.2-0.2,0.2-0.5s-0.2-0.5-0.4-0.7
			c-0.4-0.2-1.2-0.2-1.4,0.2l-4.3,4.8C761.6,1201.1,761.8,1201.6,762.2,1201.8z M740.3,1215.7l0.2,0.2c0.2,0,0.2,0.2,0.4,0.2
			c0.2,0,0.2,0,0.4,0c0.2,0,0.2,0,0.4,0l14.8-3.1c0.6-0.2,0.6-0.5,0.6-0.7v-0.2c0,0,0,0,0-0.2l-8.7-9.6c-0.2,0-0.2-0.2-0.4-0.2
			c-0.2,0-0.2,0-0.4,0c-0.2,0-0.2,0-0.4,0l-0.2,0.2c0,0-0.2,0-0.2,0.2l-6.5,12.7V1215.7z M712,1201.1c0,0,0,0.2,0.2,0.2h0.2l0.2,0.2
			l17.3,3.1h0.6c0.2,0,0.2,0,0.2,0c0.2,0,0.2-0.2,0.2-0.2s0.2,0,0.2-0.2v-0.2l-2.2-12.7c0,0,0,0-0.2-0.2c0,0,0-0.2-0.2-0.2
			c-0.2,0-0.2,0-0.4,0c-0.1,0-0.1,0-0.1,0h-0.5l-15,9.6c0,0,0,0.2-0.2,0.2c0,0-0.2,0-0.2,0.2V1201.1z"/>
	</g>
	<g>
		<polygon class="st2" points="147.7,1596 138.1,1593.6 146.4,1586 		"/>
		<polygon class="st2" points="160.7,1597.2 165.4,1604.4 157.3,1607 		"/>
		<path class="st2" d="M265.1,1575v36.3H133.5V1575H265.1z M230.8,1592.9c0.3,0,0.8,0.2,1-0.2l3-6.2l0.1-0.2c0-0.2-0.1-0.5-0.4-0.7
			c-0.4-0.2-0.8,0-1,0.2l-3,6.2C230.4,1592.4,230.5,1592.9,230.8,1592.9z M211,1583.1l3,6.2c0.1,0.5,0.6,0.5,1,0.2
			c0.3-0.2,0.4-0.5,0.4-0.7c0,0,0-0.2-0.1-0.2l-3-6.2c-0.1-0.2-0.7-0.5-1-0.2C210.9,1582.4,210.7,1582.9,211,1583.1z M191.4,1601.8
			c0,0.5,0.3,0.7,0.7,0.7c0.4,0,0.7-0.2,0.7-0.7v-6.2c0-0.5-0.3-0.7-0.7-0.7c-0.4,0-0.7,0.2-0.7,0.7V1601.8z M170.8,1594.6
			c0.3,0.2,0.7,0.2,1-0.2l3-4.8c0.1-0.2,0.1-0.2,0.1-0.5s-0.1-0.5-0.3-0.7c-0.3-0.2-0.8-0.2-1,0.2l-3,4.8
			C170.3,1593.9,170.5,1594.4,170.8,1594.6z M155.5,1608.5l0.1,0.2c0.1,0,0.1,0.2,0.3,0.2c0.1,0,0.1,0,0.3,0c0.1,0,0.1,0,0.3,0
			l10.3-3.1c0.4-0.2,0.4-0.5,0.4-0.7v-0.2c0,0,0,0,0-0.2l-6.1-9.6c-0.1,0-0.1-0.2-0.3-0.2c-0.1,0-0.1,0-0.3,0c-0.1,0-0.1,0-0.3,0
			l-0.1,0.2c0,0-0.1,0-0.1,0.2l-4.5,12.7V1608.5z M135.8,1593.9c0,0,0,0.2,0.1,0.2h0.1l0.1,0.2l12,3.1h0.4c0.1,0,0.1,0,0.1,0
			c0.1,0,0.1-0.2,0.1-0.2s0.1,0,0.1-0.2v-0.2l-1.6-12.7c0,0,0,0-0.1-0.2c0,0,0-0.2-0.1-0.2c-0.1,0-0.1,0-0.3,0c-0.1,0-0.1,0-0.1,0
			h-0.3l-10.5,9.6c0,0,0,0.2-0.1,0.2c0,0-0.1,0-0.1,0.2V1593.9z"/>
	</g>
	<g>
		<polygon class="st2" points="876.7,1323.9 879.1,1307.6 886.7,1321.7 		"/>
		<polygon class="st2" points="875.5,1345.8 868.3,1353.7 865.7,1340.1 		"/>
		<path class="st2" d="M897.7,1217.4v76.1l-4.5-2.4c-0.5-0.2-1,0.2-1,0.7c-0.2,0.7,0,1.4,0.5,1.7l4.8,2.6h0.2v281.3h-36.3v-360.1
			H897.7z M882.2,1265.8l-6.2-5c-0.5-0.2-1,0-1,0.5c-0.2,0.7,0,1.4,0.2,1.7l6.2,5l0.2,0.2c0.2,0,0.5-0.2,0.7-0.7
			C882.9,1266.8,882.7,1266.1,882.2,1265.8z M889.1,1322.7c0-0.1,0-0.2,0-0.2v-0.5l-9.6-17.7c0,0-0.2,0-0.2-0.2c0,0,0-0.2-0.2-0.2
			h-0.2c0,0-0.2,0-0.2,0.2v0.2l-0.2,0.2l-3.1,20.3v0.7c0,0.2,0,0.2,0,0.2c0,0.2,0.2,0.2,0.2,0.2s0,0.2,0.2,0.2h0.2l12.7-2.6
			c0,0,0,0,0.2-0.2c0,0,0.2,0,0.2-0.2S889.1,1322.9,889.1,1322.7z M890.5,1431.3c-0.2-0.7-0.7-1-1-0.5l-6.2,5
			c-0.5,0.2-0.5,1-0.2,1.7c0.2,0.5,0.5,0.7,0.7,0.7c0,0,0.2,0,0.2-0.2l6.2-5C890.5,1432.8,890.8,1431.8,890.5,1431.3z M883.1,1567.5
			l4.8,5c0.2,0.2,0.2,0.2,0.5,0.2c0.2,0,0.5-0.2,0.7-0.5c0.2-0.5,0.2-1.4-0.2-1.7l-4.8-5c-0.5-0.5-1-0.2-1.2,0.2
			C882.7,1566.3,882.7,1567,883.1,1567.5z M880,1466l6.2,5l0.2,0.2c0.2,0,0.5-0.2,0.7-0.7c0.2-0.7,0-1.4-0.2-1.7l-6.2-5
			c-0.5-0.2-1,0-1,0.5C879.8,1464.8,879.6,1465.7,880,1466z M878.4,1364.5l4.8,5c0.2,0.2,0.2,0.2,0.5,0.2c0.2,0,0.5-0.2,0.7-0.5
			c0.2-0.5,0.2-1.4-0.2-1.7l-4.8-5c-0.5-0.5-1-0.2-1.2,0.2C877.9,1363.3,877.9,1364,878.4,1364.5z M871,1400h6.2
			c0.5,0,0.7-0.5,0.7-1.2c0-0.7-0.2-1.2-0.7-1.2H871c-0.5,0-0.7,0.5-0.7,1.2C870.2,1399.6,870.5,1400,871,1400z M863.8,1338.2
			c0,0.2,0,0.2,0,0.5l3.1,17.4c0.2,0.7,0.5,0.7,0.7,0.7h0.2c0,0,0,0,0.2,0l9.6-10.3c0-0.2,0.2-0.2,0.2-0.5c0-0.2,0-0.2,0-0.5
			c0-0.2,0-0.2,0-0.5l-0.2-0.2c0,0,0-0.2-0.2-0.2l-12.7-7.6h-0.5l-0.2,0.2c0,0.2-0.2,0.2-0.2,0.5
			C863.8,1337.9,863.8,1337.9,863.8,1338.2z"/>
	</g>
	<g>
		<polygon class="st2" points="148.7,1323.9 151.1,1307.6 158.8,1321.7 		"/>
		<polygon class="st2" points="147.6,1345.8 140.4,1353.7 137.8,1340.1 		"/>
		<path class="st2" d="M169.8,1217.4v76.1l-4.5-2.4c-0.5-0.2-1,0.2-1,0.7c-0.2,0.7,0,1.4,0.5,1.7l4.8,2.6h0.2v281.3h-36.3v-360.1
			H169.8z M154.2,1265.8l-6.2-5c-0.5-0.2-1,0-1,0.5c-0.2,0.7,0,1.4,0.2,1.7l6.2,5l0.2,0.2c0.2,0,0.5-0.2,0.7-0.7
			C154.9,1266.8,154.7,1266.1,154.2,1265.8z M161.2,1322.7c0-0.1,0-0.2,0-0.2v-0.5l-9.6-17.7c0,0-0.2,0-0.2-0.2c0,0,0-0.2-0.2-0.2
			h-0.2c0,0-0.2,0-0.2,0.2v0.2l-0.2,0.2l-3.1,20.3v0.7c0,0.2,0,0.2,0,0.2c0,0.2,0.2,0.2,0.2,0.2s0,0.2,0.2,0.2h0.2l12.7-2.6
			c0,0,0,0,0.2-0.2c0,0,0.2,0,0.2-0.2S161.2,1322.9,161.2,1322.7z M162.6,1431.3c-0.2-0.7-0.7-1-1-0.5l-6.2,5
			c-0.5,0.2-0.5,1-0.2,1.7c0.2,0.5,0.5,0.7,0.7,0.7c0,0,0.2,0,0.2-0.2l6.2-5C162.6,1432.8,162.8,1431.8,162.6,1431.3z M155.2,1567.5
			l4.8,5c0.2,0.2,0.2,0.2,0.5,0.2c0.2,0,0.5-0.2,0.7-0.5c0.2-0.5,0.2-1.4-0.2-1.7l-4.8-5c-0.5-0.5-1-0.2-1.2,0.2
			C154.7,1566.3,154.7,1567,155.2,1567.5z M152.1,1466l6.2,5l0.2,0.2c0.2,0,0.5-0.2,0.7-0.7c0.2-0.7,0-1.4-0.2-1.7l-6.2-5
			c-0.5-0.2-1,0-1,0.5C151.8,1464.8,151.6,1465.7,152.1,1466z M150.4,1364.5l4.8,5c0.2,0.2,0.2,0.2,0.5,0.2c0.2,0,0.5-0.2,0.7-0.5
			c0.2-0.5,0.2-1.4-0.2-1.7l-4.8-5c-0.5-0.5-1-0.2-1.2,0.2C149.9,1363.3,149.9,1364,150.4,1364.5z M143,1400h6.2
			c0.5,0,0.7-0.5,0.7-1.2c0-0.7-0.2-1.2-0.7-1.2H143c-0.5,0-0.7,0.5-0.7,1.2C142.3,1399.6,142.5,1400,143,1400z M135.8,1338.2
			c0,0.2,0,0.2,0,0.5l3.1,17.4c0.2,0.7,0.5,0.7,0.7,0.7h0.2c0,0,0,0,0.2,0l9.6-10.3c0-0.2,0.2-0.2,0.2-0.5c0-0.2,0-0.2,0-0.5
			c0-0.2,0-0.2,0-0.5l-0.2-0.2c0,0,0-0.2-0.2-0.2l-12.7-7.6h-0.5l-0.2,0.2c0,0.2-0.2,0.2-0.2,0.5
			C135.8,1337.9,135.8,1337.9,135.8,1338.2z"/>
	</g>
	<path class="st2" d="M792.6,1459.2h67.5v-240.6h-67.5V1459.2z M850.1,1422.9v25.8l-46.8,4.1v-34L850.1,1422.9z M850.1,1270.3v137.3
		l-46.8,4.7v-146.7L850.1,1270.3z M850.1,1229.2v25.8l-46.8,4.1v-34L850.1,1229.2z"/>
	
		<rect x="20.3" y="167.8" transform="matrix(6.123234e-17 -1 1 6.123234e-17 -34.6425 314.5424)" class="st2" width="239.2" height="13.6"/>
	
		<rect x="669.6" y="281.8" transform="matrix(-1 -1.224647e-16 1.224647e-16 -1 1378.0129 577.1388)" class="st2" width="38.8" height="13.6"/>
	<g>
		<pattern  id="SVGID_1_" xlink:href="#Diamond" patternTransform="matrix(-2.3793 0 0 2.1345 -29931.3984 5803.3682)">
		</pattern>
		<rect x="133.1" y="294.2" class="st3" width="85.5" height="19"/>
		<path class="st2" d="M218.9,313.5h-86.1v-19.6h86.1V313.5z M133.4,312.9h84.9v-18.4h-84.9V312.9z"/>
	</g>
	<g>
		
			<pattern  id="SVGID_00000021810079512650662510000009237405595234235015_" xlink:href="#Diamond" patternTransform="matrix(-2.3793 0 0 2.1345 -29931.3984 5803.3682)">
		</pattern>
		
			<rect x="472.2" y="294.2" style="fill:url(#SVGID_00000021810079512650662510000009237405595234235015_);" width="235" height="19"/>
		<path class="st2" d="M707.6,313.5H471.9v-19.6h235.6V313.5z M472.5,312.9H707v-18.4H472.5V312.9z"/>
	</g>
	<path class="st2" d="M342.5,348.2H218v-54.1h124.5V348.2z M220.4,345.8h119.7v-49.3H220.4V345.8z"/>
	<rect x="218.6" y="313.4" class="st2" width="122.7" height="1.8"/>
	<rect x="219.2" y="330" class="st2" width="122.1" height="1.8"/>
	<g>
		<path class="st2" d="M219.2,312.5v9.2l-1.5-1.8c-0.3-0.2-1.2-0.5-1.7-0.2c-0.7,0.2-1,0.7-0.5,1l3.7,4.4v23.7h-51.4v-36.3H219.2z
			 M181.8,339.3c0,0.5,0.5,0.7,1.2,0.7c0.7,0,1.2-0.2,1.2-0.7v-6.2c0-0.5-0.5-0.7-1.2-0.7c-0.7,0-1.2,0.2-1.2,0.7V339.3z"/>
	</g>
	<g>
		<path class="st2" d="M571.3,1255.8c0,7.1-6,13.2-13.2,13.2s-13.2-6-13.2-13.2c0-7.1,6-13.2,13.2-13.2
			C565.3,1242.6,571.3,1248.6,571.3,1255.8z M569.1,1255.8c0-6-4.9-11-11-11c-6,0-11,4.9-11,11c0,6,4.9,11,11,11
			C564.2,1266.7,569.1,1261.8,569.1,1255.8z"/>
		<path class="st2" d="M560.3,1261.3h-4.9l0-43.4h4.9L560.3,1261.3z M557,1259.6h1.6V1220H557L557,1259.6z"/>
		<path class="st2" d="M613.7,1215.1l0.5,44.5c0,7.7-2.2,14.8-6,20.9c-7.1,11-22.5,29.7-52.2,28.6c-28-1.1-44-17.6-52.2-30.8
			c-3.8-6.6-6-13.7-6-20.9l0-41.8h1.6l0,41.8c0,7.1,1.6,14.3,5.5,19.8c8.2,13.2,23.6,29.1,50.6,30.2c27.5,1.1,42.3-14.3,50.6-27.5
			c3.8-6,5.5-12.6,5.5-19.8v-44.5h2.2L613.7,1215.1L613.7,1215.1z"/>
		<path class="st2" d="M606.5,1244.8c0,13.2-3.3,25.3-9.9,35.7c-7.1,11.5-19.8,23.6-41.8,22c-14.8-1.1-27.5-7.7-37.4-18.7
			c-9.3-10.4-14.3-24.7-14.3-40.1c0-8.8,7.7-16.5,16.5-16.5H590C599.9,1227.2,607.6,1234.9,606.5,1244.8L606.5,1244.8z
			 M596.1,1278.8c6-9.9,9.3-22,9.3-34.6c0-8.2-6.6-15.4-15.4-15.4h-70.4c-8.2,0-14.3,6.6-14.3,14.3c0,14.8,4.9,28.6,13.7,39
			c9.3,11,22,17,36.3,18.1c1.1,0,2.7,0,3.8,0C574.6,1300.3,587.3,1293.1,596.1,1278.8L596.1,1278.8z"/>
	</g>
	<g>
		<g>
			<path class="st2" d="M730.3,1259.4c4.9,0,8.8,3.9,8.8,8.4s-3.9,8.4-8.8,8.4c-4.9,0-8.8-3.9-8.8-8.4S725.4,1259.4,730.3,1259.4z
				 M730.3,1260.4c-3.9,0-7.9,3.4-7.9,7.4c0,3.9,3.4,7.4,7.9,7.4c3.9,0,7.9-3.4,7.9-7.4C738.2,1263.3,734.3,1260.4,730.3,1260.4z"/>
			<path class="st2" d="M730.3,1258.9c4.9,0,8.8,3.9,8.8,8.4s-3.9,8.4-8.8,8.4c-4.9,0-8.8-3.9-8.8-8.4
				C721.5,1262.8,725.4,1258.9,730.3,1258.9z M730.3,1259.9c-4.9,0-8.4,3.4-8.4,7.9s3.4,7.9,8.4,7.9c4.9,0,8.4-3.4,8.4-7.9
				S735.3,1259.9,730.3,1259.9z M730.3,1260.4c4.4,0,8.4,3.4,8.4,7.4c0,3.9-3.4,7.4-8.4,7.4c-4.9,0-8.4-3.4-8.4-7.4
				C722,1263.8,725.4,1260.4,730.3,1260.4z M730.3,1260.9c-3.9,0-7.4,2.9-7.4,6.9s3.4,6.9,7.4,6.9c3.9,0,7.4-2.9,7.4-6.9
				C737.7,1263.3,734.3,1260.9,730.3,1260.9z"/>
		</g>
		<g>
			<path class="st2" d="M670.9,1224h119.4v281.6H670.9L670.9,1224L670.9,1224L670.9,1224z M788.8,1505.1V1225H671.4l0,280.1H788.8z"
				/>
			<path class="st2" d="M790.8,1223.5v282.6H670.9l0-282.6H790.8z M789.3,1505.1V1224H670.9v281.1H789.3z M671.9,1224.5h117.9
				l0,280.6H671.9L671.9,1224.5L671.9,1224.5L671.9,1224.5z M788.8,1504.6v-279.1h-117l0,279.1H788.8z"/>
		</g>
		<g>
			<path class="st2" d="M697.9,1239.7h61.9c9.3,0,16.7,7.4,16.7,16.2v223.1c0,8.8-7.4,16.2-16.7,16.2h-61.9
				c-9.3,0-16.7-7.4-16.7-16.2l0-223.1C681.2,1247.1,689.1,1239.7,697.9,1239.7L697.9,1239.7z M776.5,1256.5
				c0-8.4-6.9-15.7-16.2-15.7h-61.9c-8.8,0-16.2,6.9-16.2,15.7l0,223.1c0,8.4,6.9,15.7,16.2,15.7h61.9c8.8,0,16.2-6.9,16.2-15.7
				L776.5,1256.5z"/>
			<path class="st2" d="M697.9,1239.7h61.9c9.8,0,17.2,7.4,17.2,16.7v223.1c0,9.3-7.9,16.7-17.2,16.7h-61.9
				c-9.8,0-17.2-7.4-17.2-16.7l0-223.1C681.2,1246.6,688.6,1239.3,697.9,1239.7z M777,1479.1l0.5-223.1c0-8.8-7.4-16.2-16.7-16.2
				h-61.9c-9.8,0-16.7,7.4-16.7,16.2l0,223.1c0,8.8,7.4,16.2,16.7,16.2h61.9C769.2,1495.8,777,1487.9,777,1479.1L777,1479.1z
				 M697.9,1240.7h61.9c8.8,0,16.2,6.9,16.2,15.7l0,223.1c0,8.4-6.9,15.7-16.2,15.7h-61.9c-8.8,0-16.2-6.9-16.2-15.7l0-223.1
				C682.2,1247.1,689.1,1239.7,697.9,1240.7z M776,1256.5c0-8.4-7.4-15.2-16.2-15.2h-61.9c-8.8,0-16.2,6.9-16.2,15.2l0,223.1
				c0,8.4,7.4,15.2,16.2,15.2h61.9c8.8,0,16.2-6.9,16.2-15.2L776,1256.5z"/>
		</g>
	</g>
	<g>
		<path class="st2" d="M580.7,1506.5c14.8,0,26.4-13.7,26.4-30.8c0-17.6-12.1-30.8-26.4-30.8c-14.8,0-26.4,14.3-26.4,30.8
			C554.3,1492.8,566.4,1506.5,580.7,1506.5z M580.7,1504.9c-13.7,0-25.3-13.2-25.3-29.1c0-16.5,11.5-29.1,25.3-29.1
			s25.3,13.2,25.3,29.1S595,1504.9,580.7,1504.9z"/>
		<path class="st2" d="M580.7,1502.1c12.6,0,23.1-12.1,23.1-26.4c0-14.8-10.4-26.4-23.1-26.4c-12.6,0-23.1,12.1-23.1,26.4
			C558.1,1490.6,568.6,1502.1,580.7,1502.1z M580.7,1500.5c-11.5,0-20.9-11.5-20.9-24.7c0-13.7,9.3-24.7,20.9-24.7
			c11.5,0,20.9,11.5,20.9,24.7C602.1,1489.5,592.8,1500.5,580.7,1500.5z"/>
		<path class="st2" d="M580.7,1492.8c4.9,0,9.3-4.4,9.3-9.3c0-4.9-4.4-9.3-9.3-9.3c-4.9,0-9.3,3.8-9.3,9.3
			C571.3,1489,575.7,1492.8,580.7,1492.8z M580.7,1491.7c-4.4,0-7.7-3.3-7.7-7.7c0-4.4,3.3-7.7,7.7-7.7c4.4,0,7.7,3.3,7.7,7.7
			C588.4,1487.9,585.1,1491.7,580.7,1491.7z"/>
		<g>
			<path class="st2" d="M543.8,1489l8.2,41.2l1.1-0.5c28.6-14.8,53.9-0.5,53.9,0l1.1,0.5l8.2-41.2c3.3-16.5-1.1-33.5-12.1-45.1
				c-7.1-7.7-13.2-9.3-23.1-9.9l0,0c-11.5,0-18.7,3.3-25.3,9.9c-8.2,8.8-12.6,22-12.6,34.6C543.3,1481.3,543.8,1485.1,543.8,1489z
				 M604.3,1444.4c9.9,11.5,14.3,28,11.5,44l-7.7,39c-4.9-2.7-28-12.6-53.9,0l-7.7-39c-3.3-15.9,1.1-32.4,11.5-44
				c6-6.6,13.2-9.3,24.2-9.3C590.6,1435.6,596.6,1437.3,604.3,1444.4z"/>
			<path class="st2" d="M541.1,1573.1c1.6,1.1,3.3,2.2,4.9,2.2l68.7-1.1c3.3,0,6-2.7,6-6.6c0.5-4.4,0.5-11-0.5-18.7
				c-1.1-14.8-13.2-19.2-13.2-19.2l0,0c-0.5-0.5-11-6.6-24.7-7.7c-17-1.6-29.1,7.1-30.2,7.7h-0.5c-7.7,3.8-13.2,13.2-13.2,23.6
				l0,13.2C538.9,1568.7,540,1570.9,541.1,1573.1L541.1,1573.1z M620.3,1567.6c0,2.7-2.2,4.9-4.4,4.9l-68.7,1.1
				c-1.6,0-2.7-0.5-3.8-1.6c-1.6-1.6-2.2-3.3-2.2-4.9l0-13.2c0-9.9,4.9-18.7,12.6-22l0.5-0.5c0,0,13.2-8.8,29.1-7.7
				c13.7,1.1,24.2,7.7,24.2,7.7c0.5,0.5,11,3.8,12.1,18.1c0.5,4.9,0.5,8.8,0.5,12.6C620.3,1563.7,620.3,1565.9,620.3,1567.6
				L620.3,1567.6z"/>
		</g>
	</g>
	<g>
		<path class="st2" d="M670.6,1199.9L670.6,1199.9l0.5-158.3l-103.9,0v0.5c0,28-23.1,50.6-51.1,50.6h-4.4v107.2L670.6,1199.9
			L670.6,1199.9z M516.1,1093.2L516.1,1093.2c28.6,0,51.7-23.1,51.7-52.2h102.3v157.2H512.8v-105.6L516.1,1093.2L516.1,1093.2
			L516.1,1093.2z"/>
		<path class="st2" d="M671.2,933.8V826.6H566.7v107.2H671.2z M567.8,827.1l103.4,0v105.6l-103.4,0V827.1L567.8,827.1z"/>
		<polygon class="st2" points="632.7,1126.2 633.2,1125.7 642.6,1164.2 641.5,1164.2 		"/>
		<polygon class="st2" points="623.9,1141.6 648.6,1135.6 648.6,1136.1 623.9,1142.7 		"/>
		<polygon class="st2" points="595.8,1162.5 596.4,1161.4 634.3,1170.2 634.3,1171.3 		"/>
		<polygon class="st2" points="606.3,1177.9 613.4,1154.3 614,1154.3 606.8,1178.5 		"/>
		<path class="st2" d="M515,1100.4v0.5l-3.3,0v-1.1h2.7c31.9,0,57.7-25.8,57.7-57.7h1.1C573.3,1074,547.5,1100.4,515,1100.4
			L515,1100.4z"/>
		<path class="st2" d="M649.7,1185.1c3.3,0,6.6-3.3,6.6-6.6c0-3.3-3.3-6.6-6.6-6.6c-3.3,0-6.6,2.7-6.6,6.6
			C643.1,1182.9,646.4,1185.1,649.7,1185.1z M649.7,1184.5c-2.7,0-5.5-2.2-5.5-5.5c0-2.7,2.7-5.5,5.5-5.5c2.7,0,5.5,2.2,5.5,5.5
			S652.5,1184.5,649.7,1184.5z"/>
		<path class="st2" d="M635.4,1144.4c2.7,0,6-2.7,6-6s-2.7-6-6-6c-2.7,0-6,2.7-6,6C629.9,1142.2,632.7,1144.9,635.4,1144.4z
			 M636,1144.4c-2.7,0-5.5-2.2-5.5-5.5c0-2.7,2.2-5.5,5.5-5.5c2.7,0,5.5,2.2,5.5,5.5C641.5,1141.6,638.7,1144.4,636,1144.4z"/>
		<path class="st2" d="M636,1142.7c2.2,0,3.8-1.6,3.8-3.8s-1.6-3.8-3.8-3.8c-2.2,0-3.8,1.6-3.8,3.8
			C632.1,1141.1,633.8,1142.7,636,1142.7z M635.4,1141.6c-2.2,0-3.3-1.6-3.3-3.3c0-2.2,1.6-3.3,3.3-3.3c2.2,0,3.3,1.6,3.3,3.3
			C638.7,1140.5,637.6,1141.6,635.4,1141.6z"/>
		<path class="st2" d="M609.6,1171.3c2.7,0,6-2.7,6-6s-2.7-6-6-6c-2.7,0-6,2.7-6,6S606.3,1171.3,609.6,1171.3z M609.6,1170.8
			c-2.7,0-5.5-2.7-5.5-5.5s2.2-5.5,5.5-5.5c2.7,0,5.5,2.2,5.5,5.5C615.1,1168,612.3,1170.8,609.6,1170.8z"/>
		<path class="st2" d="M610.1,1169.1c2.2,0,3.8-1.6,3.8-3.8s-1.6-3.8-3.8-3.8c-2.2,0-3.8,1.6-3.8,3.8
			C606.3,1166.9,607.9,1169.1,610.1,1169.1z M609,1168.6c-2.2,0-3.3-1.6-3.3-3.3c0-2.2,1.6-3.3,3.3-3.3c2.2,0,3.3,1.6,3.3,3.3
			C612.3,1166.4,611.2,1168,609,1168.6z"/>
		<path class="st2" d="M573.3,1089.9c2.2,4.9,3.8,8.8,6.6,11.5c5.5,6,48.9,48.4,50.6,50c0,1.1,3.8,5.5,22.5,5.5
			c7.1-1.6,7.7-9.9,7.7-10.4v-87.4c0-4.9-3.8-9.3-9.3-9.3h-71.5c-5.5,0-9.9,4.4-9.9,9.9v10.4C570,1077.8,571.1,1084.4,573.3,1089.9z
			 M660.2,1147.7v0.5l-1.1,0c0,0,0,7.7-6,8.8c-18.7,0-22-5-22-5.5l0,0c-0.5-0.6-45.1-44-50.6-50c-2.2-2.7-4.4-6.6-6-11
			c-2.2-5.5-3.3-12.1-3.3-19.2v-10.4c0-4.9,3.8-8.8,8.8-8.8h71.5c4.9,0,8.8,4.4,8.8,8.8L660.2,1147.7L660.2,1147.7z"/>
		<path class="st2" d="M521.6,1180.1c-0.6,5.5,3.8,9.9,9.3,9.9h87.4c0,0,9.3,0,10.4-7.7v-0.5c0-18.7-4.4-22-5.5-22.5
			c-1.6-1.6-44-45.1-50-50.6c-3.3-2.7-7.1-5-11.5-6.6c-6-2.2-12.6-3.3-19.8-3.3l-10.4,0c-5.5,0-9.9,4.4-9.9,9.9L521.6,1180.1
			L521.6,1180.1z M627.2,1182.3L627.2,1182.3c-1.1,6.6-8.8,6.6-9.3,7.1H531c-4.9,0-8.8-4.4-8.8-8.8v-71.5c0-4.9,3.8-8.8,8.8-8.8
			h10.4c7.1,0,13.2,0.5,19.2,3.3c5,2.2,8.2,3.8,11,6.6c6,5.5,49.5,50,50,50.6l0,0C622.2,1160.9,627.2,1163.6,627.2,1182.3
			L627.2,1182.3z"/>
		<path class="st2" d="M566.7,1042.1l103.9,0V933.8H566.7v107.8V1042.1z M669.5,934.9v106.7H567.8V934.9H669.5z"/>
		<path class="st2" d="M662.9,1035v-94.6h-90.2v94.6H662.9z M662.4,941.5v92.4h-88.5v-92.4H662.4z"/>
		<rect x="575.5" y="987.1" class="st2" width="95.1" height="1.1"/>
		
			<rect x="617.8" y="913.5" transform="matrix(0.7246 -0.6892 0.6892 0.7246 -510.257 698.1246)" class="st2" width="1.1" height="147.9"/>
		
			<rect x="544.7" y="987.1" transform="matrix(0.6892 -0.7246 0.7246 0.6892 -523.3462 755.2735)" class="st2" width="147.9" height="1.1"/>
		<path class="st2" d="M660.7,961.3c0-7.1-5.5-13.2-13.2-13.2s-13.2,5.5-13.2,13.2c0,7.1,6,13.2,13.2,13.2S660.2,969,660.7,961.3z
			 M635.4,961.3c0-7.1,5.5-12.6,12.1-12.6c6.6,0,12.1,5.5,12.1,12.6s-5.5,12.6-12.1,12.6S635.4,968.4,635.4,961.3z"/>
		<path class="st2" d="M660.7,1014.6c0-7.1-5.5-13.2-13.2-13.2s-13.2,6-13.2,13.2c0,7.1,6,13.2,13.2,13.2S660.2,1021.8,660.7,1014.6
			z M635.4,1014.6c0-7.1,5.5-12.6,12.1-12.6c6.6,0,12.1,5.5,12.1,12.6c0,7.1-5.5,12.6-12.1,12.6S635.4,1021.2,635.4,1014.6z"/>
		<path class="st2" d="M609.6,961.3c0-7.1-6-13.2-13.2-13.2s-13.2,5.5-13.2,13.2c0,7.1,6,13.2,13.2,13.2S609,969,609.6,961.3z
			 M584.3,961.3c0-7.1,5.5-12.6,12.1-12.6c6.6,0,12.1,5.5,12.1,12.6s-5.5,12.6-12.1,12.6C589.8,973.9,584.3,968.4,584.3,961.3z"/>
		<path class="st2" d="M609.6,1014.6c0-7.1-6-13.2-13.2-13.2s-13.2,6-13.2,13.2c0,7.1,6,13.2,13.2,13.2S609,1021.8,609.6,1014.6z
			 M584.3,1014.6c0-7.1,5.5-12.6,12.1-12.6c6.6,0,12.1,5.5,12.1,12.6c0,7.1-5.5,12.6-12.1,12.6
			C589.8,1027.3,584.3,1021.8,584.3,1014.6z"/>
	</g>
	<g>
		<path class="st2" d="M569,376.3v40h-4.1V380h-9.4v-3.7H569z"/>
		<path class="st2" d="M606.8,376.3v2.9l-16.8,37.1h-4.5l16.5-36.4h-20.6v7.5h-4.1v-11.2H606.8z"/>
		<path class="st2" d="M614.6,411.3c0.6,0.6,0.9,1.3,0.9,2.2c0,0.5-0.1,1-0.2,1.5c-0.1,0.5-0.3,1.1-0.6,1.8l-2.4,7.9h-2.7l1.9-8.3
			c-0.6-0.2-1.1-0.5-1.5-1.1c-0.4-0.5-0.6-1.1-0.6-1.9c0-0.9,0.3-1.6,0.9-2.2c0.6-0.6,1.3-0.9,2.2-0.9
			C613.3,410.4,614,410.7,614.6,411.3z"/>
		<path class="st2" d="M650.7,399.1c1.4,1.7,2,3.7,2,6.1c0,2.3-0.6,4.4-1.9,6.1c-1.3,1.7-3.1,3.1-5.4,4c-2.3,0.9-5.1,1.4-8.3,1.4
			c-4.8,0-8.6-1-11.3-3.1c-2.7-2.1-4.1-4.9-4.1-8.4c0-2.4,0.7-4.4,2-6.1c1.3-1.7,3.2-2.9,5.7-3.7c-2.1-0.8-3.6-2-4.7-3.5
			c-1.1-1.5-1.6-3.3-1.6-5.3c0-3.2,1.3-5.8,3.8-7.7c2.5-1.9,5.9-2.9,10.2-2.9c2.8,0,5.3,0.4,7.4,1.3c2.1,0.9,3.8,2.1,4.9,3.7
			c1.2,1.6,1.8,3.5,1.8,5.6c0,2.1-0.6,3.8-1.7,5.3c-1.1,1.5-2.7,2.7-4.7,3.5C647.4,396.2,649.3,397.4,650.7,399.1z M645.5,411
			c2-1.4,3-3.4,3-5.9c0-2.5-1-4.4-3-5.9c-2-1.4-4.8-2.1-8.3-2.1c-3.5,0-6.3,0.7-8.3,2.1c-2,1.4-3,3.4-3,5.9c0,2.5,1,4.5,3,5.9
			s4.7,2.1,8.3,2.1C640.7,413.2,643.5,412.5,645.5,411z M629.9,391.9c1.8,1.3,4.2,1.9,7.3,1.9c3.1,0,5.5-0.6,7.3-1.9
			c1.8-1.3,2.7-3,2.7-5.2c0-2.2-0.9-4-2.7-5.3c-1.8-1.3-4.2-1.9-7.2-1.9c-3.1,0-5.5,0.6-7.2,1.9c-1.8,1.3-2.7,3.1-2.7,5.3
			S628.1,390.6,629.9,391.9z"/>
	</g>
	<g>
		<path class="st2" d="M214.1,148.7c2.2,2,3.3,4.7,3.3,8c0,2.3-0.6,4.3-1.7,6.1c-1.1,1.8-2.7,3.2-4.9,4.2c-2.2,1-4.8,1.5-8,1.5
			c-2.9,0-5.6-0.5-8.2-1.4c-2.6-0.9-4.6-2.2-6.2-3.7l2-3.3c1.3,1.4,3.1,2.5,5.3,3.3c2.2,0.9,4.6,1.3,7.1,1.3c3.3,0,5.8-0.7,7.6-2.1
			c1.8-1.4,2.7-3.4,2.7-5.9c0-2.5-0.9-4.4-2.7-5.8c-1.8-1.4-4.5-2.1-8.1-2.1h-2.9v-3l11.1-13.9h-20.5v-3.7h25.7v2.9l-11.3,14.2
			C208.7,145.5,211.9,146.6,214.1,148.7z"/>
		<path class="st2" d="M228.5,163.1c0.6,0.6,0.9,1.3,0.9,2.2c0,0.5-0.1,1-0.2,1.5c-0.1,0.5-0.3,1.1-0.6,1.8l-2.4,7.9h-2.7l1.9-8.3
			c-0.6-0.2-1.1-0.5-1.5-1.1c-0.4-0.5-0.6-1.1-0.6-1.9c0-0.9,0.3-1.6,0.9-2.2c0.6-0.6,1.3-0.9,2.2-0.9
			C227.2,162.2,227.9,162.5,228.5,163.1z"/>
		<path class="st2" d="M258.5,147.6c2.6,2.1,4,5,4,8.7c0,2.3-0.5,4.4-1.6,6.2c-1.1,1.8-2.7,3.3-4.9,4.3c-2.2,1-4.8,1.6-8,1.6
			c-2.9,0-5.6-0.5-8.2-1.4c-2.6-0.9-4.6-2.2-6.2-3.7l2-3.3c1.3,1.4,3.1,2.5,5.3,3.3s4.5,1.3,7,1.3c3.3,0,5.9-0.7,7.7-2.2
			c1.8-1.5,2.7-3.5,2.7-5.9c0-2.7-1-4.8-3.1-6.2c-2-1.4-5.5-2.1-10.3-2.1h-8.5l2.1-20.1h21.9v3.7H242l-1.4,12.8h5.1
			C251.6,144.5,255.8,145.6,258.5,147.6z"/>
	</g>
	<g>
		<path class="st2" d="M556.5,1377.5h-8v10.5h-4.1v-10.5h-22.6v-3L543,1348h4.6l-20.5,25.9h17.4v-9.3h4v9.3h8V1377.5z"/>
		<path class="st2" d="M566.7,1383c0.6,0.6,0.9,1.3,0.9,2.2c0,0.5-0.1,1-0.2,1.5c-0.1,0.5-0.3,1.1-0.6,1.8l-2.4,7.9h-2.7l1.9-8.3
			c-0.6-0.2-1.1-0.5-1.5-1.1c-0.4-0.5-0.6-1.1-0.6-1.9c0-0.9,0.3-1.6,0.9-2.2c0.6-0.6,1.3-0.9,2.2-0.9S566.2,1382.4,566.7,1383z"/>
		<path class="st2" d="M597.3,1368.6c2.2,2,3.3,4.7,3.3,8c0,2.3-0.6,4.3-1.7,6.1c-1.1,1.8-2.7,3.2-4.9,4.2s-4.8,1.5-8,1.5
			c-2.9,0-5.6-0.5-8.2-1.4c-2.6-0.9-4.6-2.2-6.2-3.7l2-3.3c1.3,1.4,3.1,2.5,5.3,3.3c2.2,0.9,4.6,1.3,7.1,1.3c3.3,0,5.8-0.7,7.6-2.1
			c1.8-1.4,2.7-3.4,2.7-5.9c0-2.5-0.9-4.4-2.7-5.8c-1.8-1.4-4.5-2.1-8.1-2.1h-2.9v-3l11.1-13.9h-20.5v-3.7H599v2.9l-11.3,14.2
			C591.9,1365.4,595.1,1366.5,597.3,1368.6z"/>
	</g>
	<path class="st2" d="M651.7,784H197.7V521.5h453.9V784z M200.1,781.6h449.2V523.8H200.1V781.6z"/>
	<rect x="474.3" y="522.7" class="st2" width="2.4" height="260.2"/>
	<rect x="475.5" y="606.8" class="st2" width="174.9" height="2.4"/>
	<rect x="475.5" y="694.2" class="st2" width="174.9" height="2.4"/>
	<g>
		<path class="st2" d="M322.9,682.7c-6.3-3.4-11.2-8.2-14.7-14.3c-3.6-6.1-5.3-13-5.3-20.5c0-7.6,1.8-14.4,5.3-20.5
			c3.6-6.1,8.5-10.9,14.8-14.3c6.3-3.4,13.3-5.2,21.1-5.2c5.8,0,11.2,1,16.2,2.9c4.9,1.9,9.1,4.8,12.6,8.5l-5.3,5.3
			c-6.1-6.2-13.9-9.3-23.3-9.3c-6.2,0-11.9,1.4-17,4.3c-5.1,2.9-9.1,6.7-12,11.7c-2.9,4.9-4.3,10.5-4.3,16.6
			c0,6.1,1.4,11.7,4.3,16.6c2.9,4.9,6.9,8.8,12,11.7c5.1,2.9,10.8,4.3,17,4.3c9.4,0,17.2-3.1,23.3-9.4l5.3,5.3
			c-3.4,3.8-7.7,6.6-12.7,8.6c-5,2-10.4,3-16.2,3C336.1,687.9,329.1,686.1,322.9,682.7z"/>
	</g>
	<g>
		<path class="st2" d="M555.3,551.6v40h-4.1v-36.4h-9.4v-3.7H555.3z"/>
		<path class="st2" d="M593.1,551.6v2.9l-16.8,37.1h-4.5l16.5-36.4h-20.6v7.5h-4.1v-11.2H593.1z"/>
		<path class="st2" d="M600.8,586.5c0.6,0.6,0.9,1.3,0.9,2.2c0,0.5-0.1,1-0.2,1.5c-0.1,0.5-0.3,1.1-0.6,1.8l-2.4,7.9h-2.7l1.9-8.3
			c-0.6-0.2-1.1-0.5-1.5-1.1c-0.4-0.5-0.6-1.1-0.6-1.9c0-0.9,0.3-1.6,0.9-2.2c0.6-0.6,1.3-0.9,2.2-0.9
			C599.5,585.7,600.2,586,600.8,586.5z"/>
		<path class="st2" d="M636.9,574.4c1.4,1.7,2,3.7,2,6.1c0,2.3-0.6,4.4-1.9,6.1c-1.3,1.7-3.1,3.1-5.4,4c-2.3,0.9-5.1,1.4-8.3,1.4
			c-4.8,0-8.6-1-11.3-3.1c-2.7-2.1-4.1-4.9-4.1-8.4c0-2.4,0.7-4.4,2-6.1c1.3-1.7,3.2-2.9,5.7-3.7c-2.1-0.8-3.6-2-4.7-3.5
			c-1.1-1.5-1.6-3.3-1.6-5.3c0-3.2,1.3-5.8,3.8-7.7c2.5-1.9,5.9-2.9,10.2-2.9c2.8,0,5.3,0.4,7.4,1.3c2.1,0.9,3.8,2.1,4.9,3.7
			c1.2,1.6,1.8,3.5,1.8,5.6c0,2.1-0.6,3.8-1.7,5.3c-1.1,1.5-2.7,2.7-4.7,3.5C633.6,571.5,635.6,572.7,636.9,574.4z M631.7,586.3
			c2-1.5,3-3.4,3-5.9c0-2.5-1-4.4-3-5.9c-2-1.4-4.8-2.1-8.3-2.1c-3.5,0-6.3,0.7-8.3,2.1c-2,1.4-3,3.4-3,5.9c0,2.5,1,4.5,3,5.9
			c2,1.4,4.7,2.1,8.3,2.1C626.9,588.5,629.7,587.7,631.7,586.3z M616.1,567.2c1.8,1.3,4.2,1.9,7.3,1.9c3.1,0,5.5-0.6,7.3-1.9
			c1.8-1.3,2.7-3,2.7-5.2c0-2.2-0.9-4-2.7-5.3c-1.8-1.3-4.2-1.9-7.2-1.9c-3.1,0-5.5,0.7-7.2,1.9c-1.8,1.3-2.7,3.1-2.7,5.3
			C613.5,564.1,614.4,565.9,616.1,567.2z"/>
	</g>
	<g>
		<path class="st2" d="M574.4,676.1v3.7h-28.1v-2.9l16.6-16.3c2.1-2.1,3.5-3.8,4.3-5.3c0.7-1.5,1.1-3,1.1-4.5c0-2.4-0.8-4.2-2.4-5.5
			c-1.6-1.3-3.9-2-7-2c-4.7,0-8.3,1.5-10.9,4.5l-2.9-2.5c1.6-1.8,3.6-3.2,6-4.2c2.4-1,5.2-1.5,8.2-1.5c4.1,0,7.3,1,9.7,2.9
			c2.4,1.9,3.6,4.6,3.6,7.9c0,2.1-0.5,4-1.4,5.9c-0.9,1.9-2.7,4.1-5.2,6.6l-13.6,13.4H574.4z"/>
		<path class="st2" d="M606.8,676.1v3.7h-28.1v-2.9l16.6-16.3c2.1-2.1,3.5-3.8,4.3-5.3c0.7-1.5,1.1-3,1.1-4.5c0-2.4-0.8-4.2-2.4-5.5
			c-1.6-1.3-3.9-2-7-2c-4.7,0-8.3,1.5-10.9,4.5l-2.9-2.5c1.6-1.8,3.6-3.2,6-4.2c2.4-1,5.2-1.5,8.2-1.5c4.1,0,7.3,1,9.7,2.9
			c2.4,1.9,3.6,4.6,3.6,7.9c0,2.1-0.5,4-1.4,5.9c-0.9,1.9-2.7,4.1-5.2,6.6l-13.6,13.4H606.8z"/>
		<path class="st2" d="M617.9,674.7c0.6,0.6,0.9,1.3,0.9,2.2c0,0.5-0.1,1-0.2,1.5s-0.3,1.1-0.6,1.8l-2.4,7.9h-2.7l1.9-8.3
			c-0.6-0.2-1.1-0.5-1.5-1.1c-0.4-0.5-0.6-1.1-0.6-1.9c0-0.9,0.3-1.6,0.9-2.2c0.6-0.6,1.3-0.9,2.2-0.9
			C616.6,673.9,617.3,674.2,617.9,674.7z"/>
		<path class="st2" d="M635.1,639.8v40H631v-36.4h-9.4v-3.7H635.1z"/>
	</g>
	<g>
		<path class="st2" d="M575.2,762v3.7h-28.1v-2.9l16.6-16.3c2.1-2.1,3.5-3.8,4.3-5.3c0.7-1.5,1.1-3,1.1-4.5c0-2.4-0.8-4.2-2.4-5.5
			s-3.9-2-7-2c-4.7,0-8.3,1.5-10.9,4.5l-2.9-2.5c1.6-1.8,3.6-3.2,6-4.2c2.4-1,5.2-1.5,8.2-1.5c4.1,0,7.3,1,9.7,2.9
			c2.4,1.9,3.6,4.6,3.6,7.9c0,2.1-0.5,4-1.4,5.9c-0.9,1.9-2.6,4.1-5.2,6.6L553.1,762H575.2z"/>
		<path class="st2" d="M603.5,746.2c2.2,2,3.3,4.7,3.3,8c0,2.3-0.6,4.3-1.7,6.1c-1.1,1.8-2.7,3.2-4.9,4.2s-4.8,1.5-8,1.5
			c-2.9,0-5.6-0.5-8.2-1.4c-2.6-0.9-4.6-2.2-6.2-3.7l2-3.3c1.3,1.4,3.1,2.5,5.3,3.3c2.2,0.9,4.6,1.3,7.1,1.3c3.3,0,5.8-0.7,7.6-2.1
			c1.8-1.4,2.7-3.4,2.7-5.9c0-2.5-0.9-4.4-2.7-5.8c-1.8-1.4-4.5-2.1-8.1-2.1h-2.9v-3l11.1-13.9h-20.5v-3.7h25.7v2.9l-11.3,14.2
			C598.1,743.1,601.3,744.2,603.5,746.2z"/>
		<path class="st2" d="M617.9,760.6c0.6,0.6,0.9,1.3,0.9,2.2c0,0.5-0.1,1-0.2,1.5c-0.1,0.5-0.3,1.1-0.6,1.8l-2.4,7.9h-2.7l1.9-8.3
			c-0.6-0.2-1.1-0.5-1.5-1.1c-0.4-0.5-0.6-1.1-0.6-1.9c0-0.9,0.3-1.6,0.9-2.2c0.6-0.6,1.3-0.9,2.2-0.9
			C616.6,759.8,617.3,760,617.9,760.6z"/>
		<path class="st2" d="M635.1,725.7v40H631v-36.4h-9.4v-3.7H635.1z"/>
	</g>
	<g>
		<g>
			<polygon class="st2" points="566.3,1590.5 574.5,1592.9 567.5,1600.3 			"/>
			<polygon class="st2" points="555.3,1589.3 551.4,1581.9 558.2,1579.5 			"/>
		</g>
		<g>
			<g>
				<polygon class="st2" points="878.3,1596.2 868,1593.8 877.1,1586.2 				"/>
				<polygon class="st2" points="892.6,1597.4 897.7,1604.6 888.8,1607.2 				"/>
				<path class="st2" d="M860.5,1575.2v0.2l-1.7,4.8c-0.2,0.5-0.6,0.7-1.1,0.5c-0.3,0-0.6-0.5-0.5-1l1.5-4.5H442.5v23.9l1.3-2.4
					c0.2-0.2,0.6-0.5,0.8-0.2c0.4,0.2,0.4,0.7,0.2,1.2l-2.2,4.2v9.6h303.8v-0.2l1.6-4.8c0.1-0.5,0.6-0.7,1-0.5c0.3,0,0.6,0.5,0.4,1
					l-1.5,4.5h149.8v-5.1l-9.7,2.7c-0.1,0-0.1,0-0.3,0c-0.1,0-0.1,0-0.3,0c-0.2,0-0.2-0.2-0.3-0.2l-0.2-0.2v-0.5l4.9-12.7
					c0-0.2,0.1-0.2,0.1-0.2s0-0.2,0.2-0.2c0.1,0,0.1,0,0.3,0c0.1,0,0.1,0,0.3,0c0.1,0,0.1,0.2,0.3,0.2l4.6,6.6v-26.7H860.5z
					 M496,1594.3l-2.5,6.2c0,0.2-0.4,0.5-0.8,0.2c-0.2-0.2-0.4-0.5-0.4-0.7v-0.2l2.5-6.2c0.2-0.2,0.8-0.2,1-0.2
					S496.2,1593.9,496,1594.3z M512.3,1604.1c-0.4,0.2-0.8,0.2-1-0.2l-2.5-6.2v-0.2c0-0.2,0.2-0.5,0.4-0.7c0.2-0.2,0.6-0.2,0.8,0.2
					l2.5,6.2C512.7,1603.4,512.7,1603.9,512.3,1604.1z M529.1,1590.8c0,0.5-0.2,0.7-0.6,0.7c-0.4,0-0.6-0.2-0.6-0.7v-6.2
					c0-0.2,0.2-0.7,0.6-0.7c0.4,0,0.6,0.2,0.6,0.7V1590.8z M547,1593.2l-2.5,4.8c-0.2,0.5-0.6,0.5-1,0.2c0-0.2-0.2-0.5-0.2-0.7
					c0-0.2,0.2-0.2,0.2-0.5l2.5-4.8c0.2-0.5,0.6-0.5,0.8-0.2C547.2,1592.2,547.2,1592.7,547,1593.2z M559.6,1578.6l-3.9,12.7
					c0,0.2-0.2,0.2-0.2,0.2c-0.2,0-0.2,0.2-0.2,0.2h-0.4l-0.2-0.2l-5-9.6c0-0.2,0-0.2,0-0.2v-0.2c0-0.2,0-0.5,0.4-0.7l8.7-3.1h0.4
					l0.2,0.2c0.2,0,0.2,0.2,0.2,0.2V1578.6z M574.6,1594.6l-7.3,7.9c-0.2,0-0.2,0-0.4,0.2c0,0-0.2,0-0.6,0c0-0.2-0.2-0.2-0.2-0.2
					v-0.2c0-0.2,0-0.2,0-0.2l-1.4-12.7v-0.2c0-0.2,0-0.2,0-0.2l0.2-0.2h0.2c0.2,0,0.2,0,0.2,0c0.2,0,0.2,0,0.2,0c0.2,0,0.2,0,0.2,0
					l8.9,2.7V1594.6z M581.9,1597.9l-3.1,4.8c-0.1,0.5-0.7,0.5-1,0.2c-0.1-0.2-0.3-0.5-0.3-0.7c0-0.2,0-0.2,0.1-0.5l3.1-4.8
					c0.3-0.5,0.7-0.5,1-0.2C582,1597,582.2,1597.5,581.9,1597.9z M644,1594.6l-3.1,6.2c-0.1,0.2-0.6,0.5-1,0.2
					c-0.3-0.2-0.4-0.5-0.4-0.7l0.1-0.2l3.1-6.2c0.1-0.5,0.7-0.2,1-0.2C644,1593.6,644.1,1594.1,644,1594.6z M663.8,1604.4
					c-0.3,0.2-0.9,0-1-0.2l-3.1-6.2c-0.1,0-0.1-0.2-0.1-0.2c0-0.2,0.1-0.5,0.4-0.7c0.4-0.2,0.9-0.2,1,0.2l3.1,6.2
					C664.4,1603.7,664.2,1604.1,663.8,1604.4z M684.4,1591c0,0.5-0.3,0.7-0.7,0.7c-0.4,0-0.7-0.2-0.7-0.7v-6.2
					c0-0.5,0.3-0.7,0.7-0.7c0.4,0,0.7,0.2,0.7,0.7V1591z M705.8,1593.2l-3.1,4.8c-0.1,0.5-0.7,0.5-1,0.2c-0.1-0.2-0.3-0.5-0.3-0.7
					c0-0.2,0-0.2,0.1-0.5l3.1-4.8c0.3-0.5,0.7-0.5,1-0.2C705.9,1592.2,706.1,1592.7,705.8,1593.2z M721.4,1578.6l-4.7,12.7
					c0,0.2-0.1,0.2-0.1,0.2l-0.1,0.2c-0.1,0-0.1,0-0.3,0s-0.1,0-0.3,0c-0.1,0-0.1-0.2-0.3-0.2l-6.3-9.6c0-0.2,0-0.2,0-0.2v-0.2
					c0-0.2,0-0.5,0.4-0.7l10.6-3.1c0.1,0,0.1,0,0.3,0c0.1,0,0.1,0,0.3,0c0.1,0,0.1,0.2,0.3,0.2l0.1,0.2V1578.6z M741.6,1592.9
					c0,0.2-0.1,0.2-0.1,0.2c-0.1,0-0.1,0.2-0.1,0.2l-10.8,9.6h-0.3c0,0,0,0-0.1,0c-0.1,0-0.1,0-0.3,0c-0.1,0-0.1-0.2-0.1-0.2
					c-0.1-0.2-0.1-0.2-0.1-0.2l-1.6-12.7v-0.2c0-0.2,0.1-0.2,0.1-0.2s0-0.2,0.1-0.2c0,0,0,0,0.1,0h0.4l12.4,3.1l0.1,0.2h0.1
					c0.1,0,0.1,0.2,0.1,0.2V1592.9z M767.9,1589.8l-3.1,6.2c-0.1,0.5-0.6,0.7-1,0.2c-0.3-0.2-0.4-0.5-0.4-0.7l0.1-0.2l3.1-6.2
					c0.1-0.2,0.6-0.5,1-0.2C767.9,1588.9,768,1589.3,767.9,1589.8z M842.3,1591.5l-3.2,6.2c-0.1,0.2-0.6,0.5-1.1,0.2
					c-0.3,0-0.5-0.5-0.3-1l3.2-6.2c0.3-0.5,0.8-0.7,1.1-0.2c0.3,0.2,0.5,0.5,0.5,0.7L842.3,1591.5z M879.9,1597.2
					c0,0.2-0.2,0.2-0.2,0.2s0,0.2-0.1,0.2c0,0,0,0-0.1,0h-0.5l-13.1-3.1l-0.2-0.2h-0.1c-0.2,0-0.2-0.2-0.2-0.2v-0.2
					c0-0.2,0.2-0.2,0.2-0.2c0.1,0,0.1-0.2,0.1-0.2l11.4-9.6c0.1,0,0.1,0,0.5,0c0.1,0,0.1,0,0.3,0c0.1,0,0.1,0.2,0.1,0.2
					c0.2,0.2,0.2,0.2,0.2,0.2l1.7,12.7V1597.2z"/>
			</g>
			<g>
				<polygon class="st2" points="729.4,1590.5 739.3,1592.9 730.7,1600.5 				"/>
				<polygon class="st2" points="716,1589.3 711.1,1582.2 719.5,1579.5 				"/>
			</g>
		</g>
	</g>
	
		<rect x="327.8" y="1351.4" transform="matrix(0.7065 -0.7078 0.7078 0.7065 -841.0598 676.692)" class="st2" width="134.9" height="1.8"/>
	
		<rect x="360.1" y="391.4" transform="matrix(0.7065 -0.7078 0.7078 0.7065 -152.8887 416.0128)" class="st2" width="130" height="1.8"/>
	<rect x="690" y="72" class="st2" width="1.8" height="209.8"/>
	<rect x="145.8" y="71.1" class="st2" width="546.1" height="1.8"/>
	<rect x="706.4" y="56" class="st2" width="1.8" height="225.8"/>
	<rect x="144" y="55.1" class="st2" width="564.2" height="1.8"/>
	<rect x="670" y="90.9" class="st2" width="1.8" height="190.7"/>
	<rect x="142.9" y="90" class="st2" width="527.9" height="1.8"/>
	<path class="st2" d="M691.3,188.1h-20.8v-20.8h20.8V188.1z M672.3,186.3h17.2v-17.2h-17.2V186.3z"/>
	<path class="st2" d="M690.5,282.6h-20v-20h20V282.6z M672.3,280.8h16.5v-16.5h-16.5V280.8z"/>
	<path class="st2" d="M691.8,92.9H670V71.1h21.8V92.9z M671.8,91.1H690V72.9h-18.2V91.1z"/>
	<path class="st2" d="M545.3,91.8h-20.8V71.1h20.8V91.8z M526.3,90h17.2V72.9h-17.2V90z"/>
	<path class="st2" d="M391.7,91.8H371V71.1h20.8V91.8z M372.8,90h17.2V72.9h-17.2V90z"/>
	<path class="st2" d="M238.1,92.2H217V71.1h21.2V92.2z M218.7,90.5h17.6V72.9h-17.6V90.5z"/>
	
		<rect x="326.1" y="1585.7" transform="matrix(0.7071 -0.7071 0.7071 0.7071 -1087.4016 721.3177)" class="st2" width="1.8" height="175.3"/>
</g>
</svg>
