<svg width="1000" height="1000" viewBox="0 0 1000 1000" fill="none" xmlns="http://www.w3.org/2000/svg">
<path d="M849.896 593.785V626.083H863.975V593.785H849.896ZM852.381 614.075L851.553 613.247L852.381 612.833V614.075ZM854.451 606.622L853.623 605.793L854.451 605.379V606.622ZM856.936 621.114L856.108 620.286L856.936 619.872V621.114ZM856.108 597.926L856.936 597.512V598.34L856.108 597.926ZM859.006 608.692L858.592 607.864L859.834 608.278L859.006 608.692ZM861.491 619.044L860.662 618.216L861.491 617.802V619.044ZM861.491 596.684L860.662 595.856L861.491 595.441V596.684Z" fill="#030405"/>
<path d="M222.981 366.87V367.698V450.928H237.06V381.776V366.87H222.981ZM232.919 371.01L232.091 371.839L231.677 371.01H232.919ZM232.505 383.847V384.675L231.677 383.847H232.505ZM227.536 368.94V369.768L226.708 368.94H227.536ZM227.536 371.01V372.253L226.708 371.424L227.536 371.01ZM225.466 439.333L224.638 438.505L225.466 438.091V439.333ZM224.224 380.12L225.052 379.706V380.534L224.224 380.12ZM225.466 416.973L224.638 416.145L225.466 415.731V416.973ZM225.466 403.309L224.638 402.48L225.466 402.066V403.309ZM225.466 379.706L224.638 378.878L225.466 378.464V379.706ZM226.708 389.644V390.472L225.88 389.644H226.708ZM227.536 431.466L226.708 430.638L227.536 430.224V431.466ZM228.364 414.075L227.536 413.246L228.364 412.832V414.075ZM228.364 400.41L227.536 399.582L228.364 399.168V400.41ZM228.779 392.957L229.607 393.371L228.779 394.199V392.957ZM230.021 422.77V423.598L229.193 422.77H230.021ZM230.021 445.959L229.193 445.13L230.021 444.716V445.959ZM230.021 443.888L229.607 443.06L230.435 443.474L230.021 443.888ZM230.021 421.528L229.607 420.7L230.435 421.114L230.021 421.528ZM229.193 409.52L230.021 409.106V409.934L229.193 409.52ZM230.021 407.863L229.607 407.035L230.435 407.449L230.021 407.863ZM232.091 433.536L231.677 432.708L232.919 433.122L232.091 433.536ZM232.091 374.323L231.677 373.495L232.919 373.909L232.091 374.323ZM234.162 380.534V381.776L233.333 380.948L234.162 380.534ZM234.576 444.302L233.747 443.474L234.576 443.06V444.302ZM234.576 421.942L233.747 421.114L234.576 420.7V421.942ZM234.576 408.278L233.747 407.449L234.576 407.035V408.278Z" fill="#030405"/>
<path d="M863.147 381.362V366.456H849.068V367.284V518.422H863.147V463.764V448.857V381.362ZM860.249 380.12V380.948L859.42 380.12H860.249ZM859.006 370.596L858.178 371.425L857.764 370.596H859.006ZM858.592 383.019V383.847L857.764 383.019H858.592ZM859.006 432.294L858.178 433.122L857.764 432.294H859.006ZM859.006 452.998L858.178 453.826L857.764 452.998H859.006ZM858.592 465.42V466.249L857.764 465.42H858.592ZM854.865 392.543L855.694 392.957L854.865 393.785V392.543ZM856.108 422.356V423.184L855.28 422.356H856.108ZM856.108 444.302V445.131L855.28 444.302H856.108ZM853.623 452.998V453.826L852.795 452.998H853.623ZM852.795 451.342L853.623 450.928V451.756L852.795 451.342ZM853.623 431.052L852.795 430.224L853.623 429.81V431.052ZM852.795 371.01L853.623 370.596V371.425L852.795 371.01ZM853.623 368.526V369.354L852.795 368.526H853.623ZM852.795 389.23V390.058L851.967 389.23H852.795ZM850.725 415.731L851.553 415.317V416.145L850.725 415.731ZM851.553 437.677V438.505L850.725 437.677H851.553ZM850.725 402.066L851.553 401.652V402.48L850.725 402.066ZM851.139 380.534L850.311 379.706L851.139 379.292V380.534ZM851.139 461.694V462.522L850.311 461.694H851.139ZM851.553 498.961L850.725 498.133L851.553 497.719V498.961ZM851.553 485.296L850.725 484.468L851.553 484.054V485.296ZM851.553 461.694L850.725 460.866L851.553 460.451V461.694ZM851.553 379.292L850.725 378.464L851.553 378.05V379.292ZM852.795 471.632V472.46L851.967 471.632H852.795ZM853.623 513.454L852.795 512.625L853.623 512.211V513.454ZM854.451 496.062L853.623 495.234L854.451 494.82V496.062ZM854.451 482.398L853.623 481.569L854.451 481.155V482.398ZM854.451 413.661L853.623 412.832L854.451 412.418V413.661ZM854.451 399.996L853.623 399.168L854.451 398.754V399.996ZM854.865 474.944L855.694 475.358L854.865 476.186V474.944ZM856.108 505.586L855.28 504.758L856.108 504.344V505.586ZM855.28 491.507L856.108 491.093V491.921L855.28 491.507ZM855.28 409.106L856.108 408.692V409.52L855.28 409.106ZM858.178 515.524L857.764 514.696L859.006 515.11L858.178 515.524ZM858.178 456.311L857.764 455.482L859.006 455.897L858.178 456.311ZM858.178 373.909L857.764 373.081L859.006 373.495L858.178 373.909ZM860.249 462.522V463.764L859.42 462.936L860.249 462.522ZM860.663 503.93L859.834 503.102L860.663 502.687V503.93ZM860.663 490.265L859.834 489.437L860.663 489.023V490.265ZM860.663 443.888L859.834 443.06L860.663 442.646V443.888ZM860.663 421.528L859.834 420.7L860.663 420.286V421.528ZM860.663 407.863L859.834 407.035L860.663 406.621V407.863Z" fill="#030405"/>
<path d="M222.567 584.261V625.669H236.646V584.261H222.567ZM225.052 613.661L224.224 612.833L225.052 612.419V613.661ZM225.052 591.301L224.224 590.472L225.052 590.058V591.301ZM227.122 606.207L226.294 605.379L227.122 604.965V606.207ZM227.95 588.402L227.122 587.574L227.95 587.16V588.402ZM229.607 620.7L228.779 619.872L229.607 619.458V620.7ZM229.607 618.63L229.193 617.802L230.021 618.216L229.607 618.63ZM228.779 597.512L229.607 597.098V597.926L228.779 597.512ZM229.607 595.855L229.193 595.027L230.021 595.441L229.607 595.855ZM231.677 608.278L231.263 607.45L232.505 607.864L231.677 608.278ZM234.162 619.044L233.333 618.216L234.162 617.802V619.044ZM234.162 596.27L233.333 595.441L234.162 595.027V596.27Z" fill="#030405"/>
<path d="M863.975 626.083H854.037L854.451 626.497L838.716 633.95L838.302 633.536L854.037 626.083H836.646L837.06 626.497L827.122 631.052L826.708 630.638L836.646 626.083H820.497L820.911 626.497L805.176 633.95L804.762 633.536L820.083 626.083H758.385L758.799 626.497L743.064 633.95L742.65 633.536L757.971 626.083H694.617L695.031 626.497L679.296 633.95L678.882 633.536L694.617 626.083H649.068L649.483 626.497L633.747 633.95L633.333 633.536L649.068 626.083H615.114L615.528 626.497L605.59 631.052L605.176 630.638L615.114 626.083H543.892L544.307 626.497L528.572 633.95L528.157 633.536L543.478 626.083H478.882L479.296 626.497L463.561 633.95L463.147 633.536L478.882 626.083H436.646L437.06 626.497L421.325 633.95L420.911 633.536L436.646 626.083H402.692L403.106 626.497L393.168 631.052L392.754 630.638L402.278 626.083H372.878L373.292 626.497L357.557 633.95L357.143 633.536L372.878 626.083H354.659L355.073 626.497L345.135 631.052L344.721 630.638L354.659 626.083H338.509L338.924 626.497L323.189 633.95L322.774 633.536L338.509 626.083H276.812L277.226 626.497L261.491 633.95L261.077 633.536L276.812 626.083H242.857L243.271 626.497L233.333 631.052L232.919 630.638L242.443 626.083H222.153V629.81L225.466 628.153L228.779 626.497L229.193 626.911L225.052 628.567L221.739 630.224V642.232H229.193L230.021 641.818L244.514 634.779L244.928 635.193L230.435 642.232H265.218L264.803 641.818L269.358 639.748L269.772 640.162L265.218 642.232H310.766L310.352 641.818L314.907 639.748L315.321 640.162L310.766 642.232H326.915L326.501 641.818L331.056 639.748L331.47 640.162L326.915 642.232H360.87L360.456 641.818L365.01 639.748L365.425 640.162L360.87 642.232H389.441L390.269 641.818L404.762 634.779L405.176 635.193L390.683 642.232H425.052L424.638 641.818L429.193 639.748L429.607 640.162L425.052 642.232H466.874L466.46 641.818L471.015 639.748L471.429 640.162L466.874 642.232H495.031L495.859 641.818L510.352 634.779H510.766L511.18 635.193L510.352 635.607L496.273 642.232H532.298L531.884 641.818L536.439 639.748L536.853 640.162L532.298 642.232H574.12L573.706 641.818L578.261 639.748L578.675 640.162L574.12 642.232H602.278L603.106 641.818L617.598 634.779L618.013 635.193L603.52 642.232H683.437L683.023 641.818L687.578 639.748L687.992 640.162L683.437 642.232H711.18L712.008 641.818L726.501 634.779L726.915 635.193L712.422 642.232H747.205L746.791 641.818L751.346 639.748L751.76 640.162L747.205 642.232H792.754L792.34 641.818L796.895 639.748L797.309 640.162L792.754 642.232H808.903L808.489 641.818L813.044 639.748L813.458 640.162L808.903 642.232H842.857L842.443 641.818L846.998 639.748L847.412 640.162L842.857 642.232H863.975V630.224L861.491 631.466L861.077 631.052L863.975 629.81V626.083ZM286.75 629.81L283.437 631.052L283.023 630.638L286.75 628.982V629.81ZM315.735 630.224L307.454 634.365L307.039 633.95L315.735 629.81V630.224ZM385.714 628.567L379.917 631.466L379.503 631.052L385.714 628.567L389.441 626.497L389.855 626.911L385.714 628.567ZM491.304 628.567L485.507 631.466L485.093 631.052L491.304 628.567L495.031 626.497L495.445 626.911L491.304 628.567ZM499.172 631.052L498.758 630.638L508.282 626.083L508.696 626.497L499.172 631.052ZM570.393 633.95L585.3 626.083L585.714 626.497L570.393 633.95ZM598.137 628.567L592.34 631.466L591.926 631.052L598.137 628.567L601.863 626.497L602.278 626.911L598.137 628.567ZM637.888 642.232L642.029 639.748L642.443 640.162L637.888 642.232ZM659.006 629.81L655.694 631.052L655.28 630.638L659.006 628.982V629.81ZM707.868 628.567L702.07 631.466L701.656 631.052L707.868 628.567L711.18 626.497L711.594 626.911L707.868 628.567ZM714.907 631.052L714.493 630.638L724.017 626.083L724.431 626.497L714.907 631.052ZM768.323 629.81L765.01 631.052L764.596 630.638L768.323 628.982V629.81ZM797.723 630.224L789.441 634.365L789.027 633.95L797.723 629.81V630.224Z" fill="#030405"/>
<path d="M863.147 349.893H854.866L855.28 350.307L839.545 357.76L839.131 357.346L854.866 349.893H836.646L837.06 350.307L827.122 354.862L826.708 354.447L836.646 349.893H820.497L820.911 350.307L805.176 357.76L804.762 357.346L820.083 349.893H758.385L758.799 350.307L743.064 357.76L742.65 357.346L757.971 349.893H724.017L724.431 350.307L714.907 354.862L714.493 354.447L724.431 349.893H694.617L695.031 350.307L679.296 357.76L678.882 357.346L694.617 349.893H649.068L649.483 350.307L633.747 357.76L633.333 357.346L649.068 349.893H615.114L615.528 350.307L605.59 354.862L605.176 354.447L615.114 349.893H585.3L585.714 350.307L570.393 357.76L569.979 357.346L585.714 349.893H543.892L544.307 350.307L528.572 357.76L528.157 357.346L543.478 349.893H508.282L508.696 350.307L499.172 354.862L498.758 354.447L508.696 349.893H478.882L479.296 350.307L463.561 357.76L463.147 357.346L478.882 349.893H436.646L437.06 350.307L421.325 357.76L420.911 357.346L436.646 349.893H402.692L403.106 350.307L393.168 354.862L392.754 354.447L402.278 349.893H372.878L373.292 350.307L357.557 357.76L357.143 357.346L372.878 349.893H354.659L355.073 350.307L345.135 354.862L344.721 354.447L354.659 349.893H338.509L338.924 350.307L323.189 357.76L322.774 357.346L338.509 349.893H276.812L277.226 350.307L261.491 357.76L261.077 357.346L276.812 349.893H242.857L243.271 350.307L233.333 354.862L232.919 354.447L242.443 349.893H222.153V353.619L225.466 351.963L228.779 350.307L229.193 350.721L225.052 352.377L221.739 354.033V366.042H229.193L230.021 365.628L244.514 358.588L244.928 359.002L230.435 366.042H265.218L264.803 365.628L269.358 363.557L269.772 363.971L265.218 366.042H310.766L310.352 365.628L314.907 363.557L315.321 363.971L310.766 366.042H326.915L326.501 365.628L331.056 363.557L331.47 363.971L326.915 366.042H360.87L360.456 365.628L365.01 363.557L365.425 363.971L360.87 366.042H389.441L390.269 365.628L404.762 358.588L405.176 359.002L390.683 366.042H425.052L424.638 365.628L429.193 363.557L429.607 363.971L425.052 366.042H466.874L466.46 365.628L471.015 363.557L471.429 363.971L466.874 366.042H495.031L495.859 365.628L510.352 358.588H510.766L511.18 359.002L510.352 359.416L496.273 366.042H532.298L531.884 365.628L536.439 363.557L536.853 363.971L532.298 366.042H574.12L573.706 365.628L578.261 363.557L578.675 363.971L574.12 366.042H602.278L603.106 365.628L617.598 358.588L618.013 359.002L603.52 366.042H638.302L637.888 365.628L642.443 363.557L642.857 363.971L638.302 366.042H683.851L683.437 365.628L687.992 363.557L688.406 363.971L683.851 366.042H711.594L712.422 365.628L726.915 358.588L727.329 359.002L712.837 366.042H747.619L747.205 365.628L751.76 363.557L752.174 363.971L747.619 366.042H793.168L792.754 365.628L797.309 363.557L797.723 363.971L793.168 366.042H809.317L808.903 365.628L813.458 363.557L813.872 363.971L809.317 366.042H843.271L842.857 365.628L847.412 363.557L847.826 363.971L843.271 366.042H862.733V354.447L861.491 355.276L861.077 354.862L862.733 354.033V349.893H863.147ZM286.75 353.205L283.437 354.447L283.023 354.033L286.75 352.377V353.205ZM315.735 353.619L307.454 357.76L307.039 357.346L315.735 353.619ZM385.714 352.377L379.917 355.276L379.503 354.862L385.714 352.377L389.441 350.307L389.855 350.721L385.714 352.377ZM491.304 352.377L485.507 355.276L485.093 354.862L491.304 352.377L495.031 350.307L495.445 350.721L491.304 352.377ZM598.137 352.377L592.34 355.276L591.926 354.862L598.137 352.377L601.863 350.307L602.278 350.721L598.137 352.377ZM659.006 353.205L655.694 354.447L655.28 354.033L659.006 352.377V353.205ZM707.868 352.377L702.07 355.276L701.656 354.862L707.868 352.377L711.18 350.307L711.594 350.721L707.868 352.377ZM768.323 353.205L765.01 354.447L764.596 354.033L768.323 352.377V353.205ZM797.723 353.619L789.441 357.76L789.027 357.346L797.723 353.619Z" fill="#030405"/>
<path d="M218.841 584.675H214.286V645.959H218.841V584.675Z" fill="#030405"/>
<path d="M218.841 349.893H214.286V450.928H218.841V349.893Z" fill="#030405"/>
<path d="M397.309 645.131H214.286V649.686H397.309V645.131Z" fill="#030405"/>
<path d="M856.522 517.594H851.967V522.977H856.522V517.594Z" fill="#030405"/>
<path d="M856.522 590.472H851.967V595.855H856.522V590.472Z" fill="#030405"/>
<path d="M732.712 499.375H645.342V503.93H732.712V499.375Z" fill="#030405"/>
<path d="M720.704 417.387L723.189 414.075" stroke="#030405" stroke-width="0.2401" stroke-miterlimit="10" stroke-linecap="round" stroke-linejoin="round"/>
<path d="M718.634 419.044L720.704 417.387" stroke="#030405" stroke-width="0.2401" stroke-miterlimit="10" stroke-linecap="round" stroke-linejoin="round"/>
<path d="M717.392 420.286L718.634 419.043" stroke="#030405" stroke-width="0.2401" stroke-miterlimit="10" stroke-linecap="round" stroke-linejoin="round"/>
<path d="M714.907 420.7L717.391 420.286" stroke="#030405" stroke-width="0.2401" stroke-miterlimit="10" stroke-linecap="round" stroke-linejoin="round"/>
<path d="M713.25 420.7H714.907" stroke="#030405" stroke-width="0.2401" stroke-miterlimit="10" stroke-linecap="round" stroke-linejoin="round"/>
<path d="M711.18 420.286L713.251 420.7" stroke="#030405" stroke-width="0.2401" stroke-miterlimit="10" stroke-linecap="round" stroke-linejoin="round"/>
<path d="M709.11 419.043L711.18 420.286" stroke="#030405" stroke-width="0.2401" stroke-miterlimit="10" stroke-linecap="round" stroke-linejoin="round"/>
<path d="M707.454 417.387L709.11 419.044" stroke="#030405" stroke-width="0.2401" stroke-miterlimit="10" stroke-linecap="round" stroke-linejoin="round"/>
<path d="M705.383 414.075L707.454 417.387" stroke="#030405" stroke-width="0.2401" stroke-miterlimit="10" stroke-linecap="round" stroke-linejoin="round"/>
<path d="M723.189 391.3L720.704 390.886" stroke="#030405" stroke-width="0.2401" stroke-miterlimit="10" stroke-linecap="round" stroke-linejoin="round"/>
<path d="M720.704 390.886L715.735 389.644" stroke="#030405" stroke-width="0.2401" stroke-miterlimit="10" stroke-linecap="round" stroke-linejoin="round"/>
<path d="M715.735 389.644H712.008" stroke="#030405" stroke-width="0.2401" stroke-miterlimit="10" stroke-linecap="round" stroke-linejoin="round"/>
<path d="M712.009 389.644L707.454 390.886" stroke="#030405" stroke-width="0.2401" stroke-miterlimit="10" stroke-linecap="round" stroke-linejoin="round"/>
<path d="M707.454 390.886L705.383 391.3" stroke="#030405" stroke-width="0.2401" stroke-miterlimit="10" stroke-linecap="round" stroke-linejoin="round"/>
<path d="M723.188 414.075L724.431 410.348" stroke="#030405" stroke-width="0.2401" stroke-miterlimit="10" stroke-linecap="round" stroke-linejoin="round"/>
<path d="M724.431 410.348L726.087 407.035" stroke="#030405" stroke-width="0.2401" stroke-miterlimit="10" stroke-linecap="round" stroke-linejoin="round"/>
<path d="M726.087 407.035L726.501 403.309" stroke="#030405" stroke-width="0.2401" stroke-miterlimit="10" stroke-linecap="round" stroke-linejoin="round"/>
<path d="M726.501 403.309L726.915 399.996" stroke="#030405" stroke-width="0.2401" stroke-miterlimit="10" stroke-linecap="round" stroke-linejoin="round"/>
<path d="M726.915 399.996V398.34" stroke="#030405" stroke-width="0.2401" stroke-miterlimit="10" stroke-linecap="round" stroke-linejoin="round"/>
<path d="M726.915 398.339L726.501 396.683" stroke="#030405" stroke-width="0.2401" stroke-miterlimit="10" stroke-linecap="round" stroke-linejoin="round"/>
<path d="M726.501 396.683L726.087 395.027" stroke="#030405" stroke-width="0.2401" stroke-miterlimit="10" stroke-linecap="round" stroke-linejoin="round"/>
<path d="M726.087 395.027L724.845 392.957" stroke="#030405" stroke-width="0.2401" stroke-miterlimit="10" stroke-linecap="round" stroke-linejoin="round"/>
<path d="M724.845 392.957L723.188 391.3" stroke="#030405" stroke-width="0.2401" stroke-miterlimit="10" stroke-linecap="round" stroke-linejoin="round"/>
<path d="M703.312 410.348L705.383 414.075" stroke="#030405" stroke-width="0.2401" stroke-miterlimit="10" stroke-linecap="round" stroke-linejoin="round"/>
<path d="M702.484 407.035L703.313 410.348" stroke="#030405" stroke-width="0.2401" stroke-miterlimit="10" stroke-linecap="round" stroke-linejoin="round"/>
<path d="M701.242 403.309L702.484 407.035" stroke="#030405" stroke-width="0.2401" stroke-miterlimit="10" stroke-linecap="round" stroke-linejoin="round"/>
<path d="M701.242 399.996V403.309" stroke="#030405" stroke-width="0.2401" stroke-miterlimit="10" stroke-linecap="round" stroke-linejoin="round"/>
<path d="M701.242 398.34V399.996" stroke="#030405" stroke-width="0.2401" stroke-miterlimit="10" stroke-linecap="round" stroke-linejoin="round"/>
<path d="M701.656 396.683L701.242 398.339" stroke="#030405" stroke-width="0.2401" stroke-miterlimit="10" stroke-linecap="round" stroke-linejoin="round"/>
<path d="M701.656 395.027V396.683" stroke="#030405" stroke-width="0.2401" stroke-miterlimit="10" stroke-linecap="round" stroke-linejoin="round"/>
<path d="M702.898 392.957L701.656 395.027" stroke="#030405" stroke-width="0.2401" stroke-miterlimit="10" stroke-linecap="round" stroke-linejoin="round"/>
<path d="M705.383 391.3L702.898 392.957" stroke="#030405" stroke-width="0.2401" stroke-miterlimit="10" stroke-linecap="round" stroke-linejoin="round"/>
<path d="M722.36 386.332L723.188 391.3" stroke="#030405" stroke-width="0.2401" stroke-miterlimit="10" stroke-linecap="round" stroke-linejoin="round"/>
<path d="M705.797 386.332L705.383 391.3" stroke="#030405" stroke-width="0.2401" stroke-miterlimit="10" stroke-linecap="round" stroke-linejoin="round"/>
<path d="M731.056 379.706L729.4 384.675" stroke="#030405" stroke-width="0.2401" stroke-miterlimit="10" stroke-linecap="round" stroke-linejoin="round"/>
<path d="M729.4 384.675L724.845 386.331" stroke="#030405" stroke-width="0.2401" stroke-miterlimit="10" stroke-linecap="round" stroke-linejoin="round"/>
<path d="M731.056 366.456V379.706" stroke="#030405" stroke-width="0.2401" stroke-miterlimit="10" stroke-linecap="round" stroke-linejoin="round"/>
<path d="M696.688 366.456H731.056" stroke="#030405" stroke-width="0.2401" stroke-miterlimit="10" stroke-linecap="round" stroke-linejoin="round"/>
<path d="M696.688 379.706V366.456" stroke="#030405" stroke-width="0.2401" stroke-miterlimit="10" stroke-linecap="round" stroke-linejoin="round"/>
<path d="M703.313 386.331L698.758 384.675" stroke="#030405" stroke-width="0.2401" stroke-miterlimit="10" stroke-linecap="round" stroke-linejoin="round"/>
<path d="M698.758 384.675L696.688 379.706" stroke="#030405" stroke-width="0.2401" stroke-miterlimit="10" stroke-linecap="round" stroke-linejoin="round"/>
<path d="M724.845 386.332H703.312" stroke="#030405" stroke-width="0.2401" stroke-miterlimit="10" stroke-linecap="round" stroke-linejoin="round"/>
<path d="M770.394 375.151H775.363" stroke="#030405" stroke-width="0.2401" stroke-miterlimit="10" stroke-linecap="round" stroke-linejoin="round"/>
<path d="M775.363 375.151L779.918 376.808" stroke="#030405" stroke-width="0.2401" stroke-miterlimit="10" stroke-linecap="round" stroke-linejoin="round"/>
<path d="M768.737 380.12L769.98 380.948" stroke="#030405" stroke-width="0.2401" stroke-miterlimit="10" stroke-linecap="round" stroke-linejoin="round"/>
<path d="M769.979 380.948L770.394 380.12" stroke="#030405" stroke-width="0.2401" stroke-miterlimit="10" stroke-linecap="round" stroke-linejoin="round"/>
<path d="M770.394 372.667V380.12" stroke="#030405" stroke-width="0.2401" stroke-miterlimit="10" stroke-linecap="round" stroke-linejoin="round"/>
<path d="M768.737 372.667V380.12" stroke="#030405" stroke-width="0.2401" stroke-miterlimit="10" stroke-linecap="round" stroke-linejoin="round"/>
<path d="M759.627 376.808L764.182 375.151" stroke="#030405" stroke-width="0.2401" stroke-miterlimit="10" stroke-linecap="round" stroke-linejoin="round"/>
<path d="M764.183 375.151H768.738" stroke="#030405" stroke-width="0.2401" stroke-miterlimit="10" stroke-linecap="round" stroke-linejoin="round"/>
<path d="M783.23 380.12L781.574 378.05" stroke="#030405" stroke-width="0.2401" stroke-miterlimit="10" stroke-linecap="round" stroke-linejoin="round"/>
<path d="M781.574 378.05L779.917 376.808" stroke="#030405" stroke-width="0.2401" stroke-miterlimit="10" stroke-linecap="round" stroke-linejoin="round"/>
<path d="M756.729 380.12L757.971 378.05" stroke="#030405" stroke-width="0.2401" stroke-miterlimit="10" stroke-linecap="round" stroke-linejoin="round"/>
<path d="M757.971 378.05L759.628 376.808" stroke="#030405" stroke-width="0.2401" stroke-miterlimit="10" stroke-linecap="round" stroke-linejoin="round"/>
<path d="M756.729 380.12V387.574" stroke="#030405" stroke-width="0.2401" stroke-miterlimit="10" stroke-linecap="round" stroke-linejoin="round"/>
<path d="M756.729 387.574L760.042 393.371" stroke="#030405" stroke-width="0.2401" stroke-miterlimit="10" stroke-linecap="round" stroke-linejoin="round"/>
<path d="M760.042 393.371L765.839 397.097" stroke="#030405" stroke-width="0.2401" stroke-miterlimit="10" stroke-linecap="round" stroke-linejoin="round"/>
<path d="M765.839 397.097H773.292" stroke="#030405" stroke-width="0.2401" stroke-miterlimit="10" stroke-linecap="round" stroke-linejoin="round"/>
<path d="M773.292 397.097L779.09 393.371" stroke="#030405" stroke-width="0.2401" stroke-miterlimit="10" stroke-linecap="round" stroke-linejoin="round"/>
<path d="M779.089 393.371L782.816 387.574" stroke="#030405" stroke-width="0.2401" stroke-miterlimit="10" stroke-linecap="round" stroke-linejoin="round"/>
<path d="M782.816 387.574L783.23 380.12" stroke="#030405" stroke-width="0.2401" stroke-miterlimit="10" stroke-linecap="round" stroke-linejoin="round"/>
<path d="M765.425 372.667L766.667 373.909" stroke="#030405" stroke-width="0.2401" stroke-miterlimit="10" stroke-linecap="round" stroke-linejoin="round"/>
<path d="M766.667 373.909L767.081 372.667" stroke="#030405" stroke-width="0.2401" stroke-miterlimit="10" stroke-linecap="round" stroke-linejoin="round"/>
<path d="M767.081 372.667L766.667 372.252" stroke="#030405" stroke-width="0.2401" stroke-miterlimit="10" stroke-linecap="round" stroke-linejoin="round"/>
<path d="M766.667 372.252L765.425 372.667" stroke="#030405" stroke-width="0.2401" stroke-miterlimit="10" stroke-linecap="round" stroke-linejoin="round"/>
<path d="M770.394 372.667L769.979 372.252" stroke="#030405" stroke-width="0.2401" stroke-miterlimit="10" stroke-linecap="round" stroke-linejoin="round"/>
<path d="M769.98 372.252L768.737 372.667" stroke="#030405" stroke-width="0.2401" stroke-miterlimit="10" stroke-linecap="round" stroke-linejoin="round"/>
<path d="M772.464 372.667L773.292 373.909" stroke="#030405" stroke-width="0.2401" stroke-miterlimit="10" stroke-linecap="round" stroke-linejoin="round"/>
<path d="M773.292 373.909L774.121 372.667" stroke="#030405" stroke-width="0.2401" stroke-miterlimit="10" stroke-linecap="round" stroke-linejoin="round"/>
<path d="M774.121 372.667L773.292 372.252" stroke="#030405" stroke-width="0.2401" stroke-miterlimit="10" stroke-linecap="round" stroke-linejoin="round"/>
<path d="M773.292 372.252L772.464 372.667" stroke="#030405" stroke-width="0.2401" stroke-miterlimit="10" stroke-linecap="round" stroke-linejoin="round"/>
<path d="M768.323 383.847L769.98 385.503" stroke="#030405" stroke-width="0.2401" stroke-miterlimit="10" stroke-linecap="round" stroke-linejoin="round"/>
<path d="M769.979 385.503L771.222 383.847" stroke="#030405" stroke-width="0.2401" stroke-miterlimit="10" stroke-linecap="round" stroke-linejoin="round"/>
<path d="M771.222 383.847L769.979 382.604" stroke="#030405" stroke-width="0.2401" stroke-miterlimit="10" stroke-linecap="round" stroke-linejoin="round"/>
<path d="M769.98 382.604L768.323 383.847" stroke="#030405" stroke-width="0.2401" stroke-miterlimit="10" stroke-linecap="round" stroke-linejoin="round"/>
<path d="M769.566 399.582C778.256 399.582 785.301 392.537 785.301 383.847C785.301 375.157 778.256 368.112 769.566 368.112C760.875 368.112 753.831 375.157 753.831 383.847C753.831 392.537 760.875 399.582 769.566 399.582Z" stroke="#030405" stroke-width="0.2401" stroke-miterlimit="10" stroke-linecap="round" stroke-linejoin="round"/>
<path d="M846.584 489.023H794.824" stroke="#030405" stroke-width="0.2401" stroke-miterlimit="10" stroke-linecap="round" stroke-linejoin="round"/>
<path d="M846.584 368.526V489.023" stroke="#030405" stroke-width="0.2401" stroke-miterlimit="10" stroke-linecap="round" stroke-linejoin="round"/>
<path d="M794.824 368.526H846.584" stroke="#030405" stroke-width="0.2401" stroke-miterlimit="10" stroke-linecap="round" stroke-linejoin="round"/>
<path d="M794.824 489.023V368.526" stroke="#030405" stroke-width="0.2401" stroke-miterlimit="10" stroke-linecap="round" stroke-linejoin="round"/>
<path d="M822.567 381.777L820.497 380.121" stroke="#030405" stroke-width="0.2401" stroke-miterlimit="10" stroke-linecap="round" stroke-linejoin="round"/>
<path d="M820.497 380.121L818.841 381.777" stroke="#030405" stroke-width="0.2401" stroke-miterlimit="10" stroke-linecap="round" stroke-linejoin="round"/>
<path d="M818.841 381.777L820.497 383.847" stroke="#030405" stroke-width="0.2401" stroke-miterlimit="10" stroke-linecap="round" stroke-linejoin="round"/>
<path d="M820.497 383.847L822.567 381.777" stroke="#030405" stroke-width="0.2401" stroke-miterlimit="10" stroke-linecap="round" stroke-linejoin="round"/>
<path d="M822.567 484.054L830.021 482.398" stroke="#030405" stroke-width="0.2401" stroke-miterlimit="10" stroke-linecap="round" stroke-linejoin="round"/>
<path d="M830.021 482.398L835.818 478.671" stroke="#030405" stroke-width="0.2401" stroke-miterlimit="10" stroke-linecap="round" stroke-linejoin="round"/>
<path d="M835.818 478.671L839.545 472.046" stroke="#030405" stroke-width="0.2401" stroke-miterlimit="10" stroke-linecap="round" stroke-linejoin="round"/>
<path d="M839.545 472.046L841.615 465.421" stroke="#030405" stroke-width="0.2401" stroke-miterlimit="10" stroke-linecap="round" stroke-linejoin="round"/>
<path d="M799.793 465.421L801.863 472.046" stroke="#030405" stroke-width="0.2401" stroke-miterlimit="10" stroke-linecap="round" stroke-linejoin="round"/>
<path d="M801.864 472.046L805.59 478.671" stroke="#030405" stroke-width="0.2401" stroke-miterlimit="10" stroke-linecap="round" stroke-linejoin="round"/>
<path d="M805.59 478.671L811.387 482.398" stroke="#030405" stroke-width="0.2401" stroke-miterlimit="10" stroke-linecap="round" stroke-linejoin="round"/>
<path d="M811.387 482.398L818.841 484.054" stroke="#030405" stroke-width="0.2401" stroke-miterlimit="10" stroke-linecap="round" stroke-linejoin="round"/>
<path d="M834.576 373.909L839.131 375.565" stroke="#030405" stroke-width="0.2401" stroke-miterlimit="10" stroke-linecap="round" stroke-linejoin="round"/>
<path d="M839.131 375.566L841.615 380.949" stroke="#030405" stroke-width="0.2401" stroke-miterlimit="10" stroke-linecap="round" stroke-linejoin="round"/>
<path d="M799.793 380.949L802.277 375.566" stroke="#030405" stroke-width="0.2401" stroke-miterlimit="10" stroke-linecap="round" stroke-linejoin="round"/>
<path d="M802.278 375.565L806.833 373.909" stroke="#030405" stroke-width="0.2401" stroke-miterlimit="10" stroke-linecap="round" stroke-linejoin="round"/>
<path d="M822.568 484.054H818.841" stroke="#030405" stroke-width="0.2401" stroke-miterlimit="10" stroke-linecap="round" stroke-linejoin="round"/>
<path d="M799.793 465.421V380.949" stroke="#030405" stroke-width="0.2401" stroke-miterlimit="10" stroke-linecap="round" stroke-linejoin="round"/>
<path d="M806.833 373.909H834.576" stroke="#030405" stroke-width="0.2401" stroke-miterlimit="10" stroke-linecap="round" stroke-linejoin="round"/>
<path d="M841.615 380.949V465.421" stroke="#030405" stroke-width="0.2401" stroke-miterlimit="10" stroke-linecap="round" stroke-linejoin="round"/>
<path d="M854.452 522.149L854.038 521.735L820.083 550.307L820.497 550.721L854.452 522.149Z" fill="#030405"/>
<path d="M256.522 555.689L256.108 555.275L222.153 583.847L222.567 584.261L256.522 555.689Z" fill="#030405"/>
<path d="M229.607 450.928V456.725H222.567V450.928H229.607ZM228.364 455.897V452.17H223.396V455.897H228.364Z" fill="#030405"/>
<path d="M229.607 525.462V531.259H222.567V525.462H229.607ZM228.364 530.431V526.704H223.396V530.431H228.364Z" fill="#030405"/>
<path d="M223.81 456.725H223.396V526.29H223.81V456.725Z" fill="#030405"/>
<path d="M228.779 456.725H228.365V526.29H228.779V456.725Z" fill="#030405"/>
<path d="M226.294 456.725H225.88V526.29H226.294V456.725Z" fill="#030405"/>
<path d="M127.743 427.739V421.942H134.369V427.739H127.743ZM128.986 422.771V426.497H133.541V422.771H128.986Z" fill="#030405"/>
<path d="M127.743 497.718V491.921H134.369V497.718H127.743ZM128.986 492.75V496.476H133.541V492.75H128.986Z" fill="#030405"/>
<path d="M127.743 567.698V561.901H134.369V567.698H127.743ZM128.986 562.729V566.456H133.541V562.729H128.986Z" fill="#030405"/>
<path d="M127.743 637.677V631.88H134.369V637.677H127.743ZM128.986 632.709V636.435H133.541V632.709H128.986Z" fill="#030405"/>
<path d="M127.743 357.76V351.963H134.369V357.76H127.743ZM128.986 352.791V356.518H133.541V352.791H128.986Z" fill="#030405"/>
<path d="M128.986 357.346H128.572V637.263H128.986V357.346Z" fill="#030405"/>
<path d="M134.369 356.932H133.955V637.263H134.369V356.932Z" fill="#030405"/>
<path d="M131.056 567.698H130.642V632.708H131.056V567.698Z" fill="#030405"/>
<path d="M131.056 497.305H130.642V562.315H131.056V497.305Z" fill="#030405"/>
<path d="M131.056 427.325H130.642V492.336H131.056V427.325Z" fill="#030405"/>
<path d="M131.056 356.932H130.642V421.942H131.056V356.932Z" fill="#030405"/>
<path d="M217.185 351.963H131.056V352.377H217.185V351.963Z" fill="#030405"/>
<path d="M216.77 357.346H132.712V357.76H216.77V357.346Z" fill="#030405"/>
<path d="M215.942 354.447H134.369V354.861H215.942V354.447Z" fill="#030405"/>
<path d="M217.185 631.88H130.642V632.294H217.185V631.88Z" fill="#030405"/>
<path d="M217.184 637.263H132.298V637.677H217.184V637.263Z" fill="#030405"/>
<path d="M215.942 634.365H133.955V634.779H215.942V634.365Z" fill="#030405"/>
<path d="M476.812 482.398H337.267V564.386H476.812V482.398Z" stroke="#030405" stroke-width="0.25" stroke-miterlimit="10"/>
<path d="M400.621 482.398V564.386" stroke="#030405" stroke-width="0.25" stroke-miterlimit="10"/>
<path d="M401.035 509.727H475.984" stroke="#030405" stroke-width="0.25" stroke-miterlimit="10"/>
<path d="M400.621 537.056H475.984" stroke="#030405" stroke-width="0.25" stroke-miterlimit="10"/>
<path d="M432.091 530.017V531.673H419.669V530.431L427.122 522.977C427.951 522.149 428.779 521.321 429.193 520.493C429.607 519.665 429.607 519.251 429.607 518.423C429.607 517.18 429.193 516.352 428.365 515.938C427.536 515.524 426.708 515.11 425.466 515.11C423.396 515.11 421.739 515.938 420.497 517.18L419.255 515.938C420.083 515.11 420.911 514.696 421.739 513.868C422.982 513.454 424.224 513.04 425.466 513.04C427.122 513.04 428.779 513.454 429.607 514.282C430.849 515.11 431.263 516.352 431.263 518.008C431.263 518.837 431.263 519.665 430.849 520.493C430.435 521.321 429.607 522.149 428.365 523.392L422.153 529.189H432.091V530.017Z" fill="#030304"/>
<path d="M444.928 521.735C445.756 522.149 446.584 522.977 446.998 523.806C447.412 524.634 447.826 525.462 447.826 526.704C447.826 527.946 447.412 528.775 446.998 529.603C446.584 530.431 445.756 531.259 444.928 531.673C444.1 532.087 442.857 532.501 441.615 532.501C439.131 532.501 437.474 531.673 436.232 530.017C434.99 528.36 434.162 526.29 434.162 523.391C434.162 521.321 434.576 519.665 434.99 518.423C435.404 517.18 436.646 515.938 437.888 515.11C439.131 514.282 440.373 513.868 442.029 513.868C443.685 513.868 445.342 514.282 446.17 514.696L445.342 516.352C444.514 515.938 443.271 515.524 442.029 515.524C439.959 515.524 438.716 516.352 437.474 517.594C436.232 518.837 435.818 520.493 435.818 522.977C435.818 523.391 435.818 523.806 435.818 524.634C436.232 523.806 437.06 522.977 437.888 522.563C438.716 522.149 439.959 521.735 441.201 521.735C442.857 520.907 444.1 521.321 444.928 521.735ZM444.928 529.189C445.756 528.36 446.17 527.532 446.17 526.29C446.17 525.048 445.756 524.22 444.928 523.391C444.1 522.563 442.857 522.149 441.615 522.149C440.787 522.149 439.959 522.149 439.131 522.563C438.302 522.977 437.888 523.391 437.474 523.806C437.06 524.22 437.06 525.048 437.06 525.876C437.06 526.704 437.06 527.118 437.474 527.946C437.888 528.36 438.302 529.189 439.131 529.189C439.959 529.603 440.787 529.603 441.615 529.603C442.857 530.431 444.1 530.017 444.928 529.189Z" fill="#030304"/>
<path d="M452.381 529.603C452.795 530.017 452.795 530.017 452.795 530.431C452.795 530.431 452.795 530.845 452.795 531.259C452.795 531.673 452.795 531.673 452.381 532.087L451.139 535.4H449.897L450.725 531.673C450.311 531.673 450.311 531.259 449.897 531.259C449.897 530.845 449.483 530.845 449.483 530.431C449.483 530.017 449.483 529.603 449.897 529.603C450.311 529.188 450.311 529.188 450.725 529.188C451.139 529.188 452.381 529.188 452.381 529.603Z" fill="#030304"/>
<path d="M470.187 527.118H466.46V531.673H464.804V527.118H454.866V525.876L464.39 513.868H466.46L457.35 525.462H465.218V521.321H466.874V525.462H470.601V527.118H470.187Z" fill="#030304"/>
<path d="M433.334 502.688V504.344H420.911V503.102L428.365 495.648C429.193 494.82 430.021 493.992 430.435 493.164C430.849 492.336 430.849 491.922 430.849 491.093C430.849 489.851 430.435 489.023 429.607 488.609C428.779 488.195 427.95 487.781 426.708 487.781C424.638 487.781 422.982 488.609 421.739 489.851L420.497 488.609C421.325 487.781 422.153 487.367 422.982 486.539C424.224 486.125 425.466 485.71 426.708 485.71C428.365 485.71 430.021 486.125 430.849 486.953C432.091 487.781 432.505 489.023 432.505 490.679C432.505 491.508 432.505 492.336 432.091 493.164C431.677 493.992 430.849 494.82 429.607 496.062L423.396 501.86H433.334V502.688Z" fill="#030304"/>
<path d="M447.826 502.688V504.344H435.404V503.102L442.857 495.648C443.685 494.82 444.514 493.992 444.928 493.164C445.342 492.336 445.342 491.922 445.342 491.093C445.342 489.851 444.928 489.023 444.099 488.609C443.271 488.195 442.443 487.781 441.201 487.781C439.131 487.781 437.474 488.609 436.232 489.851L434.99 489.023C435.818 488.195 436.646 487.781 437.474 486.953C438.716 486.539 439.959 486.125 441.201 486.125C442.857 486.125 444.514 486.539 445.342 487.367C446.584 488.195 446.998 489.437 446.998 491.093C446.998 491.922 446.998 492.75 446.584 493.578C446.17 494.406 445.342 495.234 444.099 496.476L437.888 502.274H447.826V502.688Z" fill="#030304"/>
<path d="M452.795 502.273C453.209 502.688 453.209 502.688 453.209 503.102C453.209 503.102 453.209 503.516 453.209 503.93C453.209 504.344 453.209 504.344 452.795 504.758L451.553 508.071H450.311L451.139 504.344C450.725 504.344 450.725 503.93 450.311 503.93C450.311 503.516 449.897 503.516 449.897 503.102C449.897 502.688 449.897 502.273 450.311 502.273C450.725 501.859 450.725 501.859 451.139 501.859C452.381 501.859 452.795 501.859 452.795 502.273Z" fill="#030304"/>
<path d="M470.601 499.789H466.874V504.344H465.218V499.789H455.28V498.547L464.804 486.539H466.874L457.764 498.133H465.632V493.992H467.288V498.133H471.015V499.789H470.601Z" fill="#030304"/>
<path d="M357.143 511.797V534.986H354.659V513.868H349.276V511.797H357.143Z" fill="#030304"/>
<path d="M368.737 534.158C367.081 533.329 365.425 531.673 364.182 530.017C362.94 528.361 362.526 526.29 362.526 523.806C362.526 521.735 362.94 519.665 364.182 517.594C365.425 515.524 366.667 514.282 368.737 513.454C370.808 512.626 372.878 511.797 374.948 511.797C376.605 511.797 378.261 512.211 379.917 512.626C381.574 513.04 382.816 513.868 383.644 515.11L381.988 516.766C380.331 515.11 377.847 513.868 374.948 513.868C373.292 513.868 371.222 514.282 369.98 515.11C368.323 515.938 367.081 517.18 366.253 518.423C365.425 520.079 365.011 521.735 365.011 523.392C365.011 525.048 365.425 526.704 366.253 528.361C367.081 530.017 368.323 530.845 369.98 531.673C371.636 532.501 373.292 532.915 374.948 532.915C377.847 532.915 379.917 532.087 381.988 530.017L383.644 531.673C382.816 532.915 381.574 533.744 379.917 534.158C378.261 534.572 377.019 534.986 374.948 534.986C372.464 535.4 370.394 534.986 368.737 534.158Z" fill="#030304"/>
<path d="M616.357 381.363L618.427 380.949L619.669 379.292L620.083 377.636L619.669 375.565L618.427 374.323L616.357 373.909L614.7 374.323L613.044 375.565L612.63 377.636L613.044 379.292L614.7 380.949L616.357 381.363Z" stroke="#030405" stroke-width="0.2" stroke-miterlimit="10" stroke-linecap="round" stroke-linejoin="round"/>
<path d="M632.92 382.604L634.99 382.19L636.646 381.362L637.475 379.292L637.889 377.635L637.475 375.565L636.646 373.909L634.99 373.081L632.92 372.252L630.849 373.081L629.193 373.909L628.365 375.565L627.951 377.635L628.365 379.292L629.193 381.362L630.849 382.19L632.92 382.604Z" stroke="#030405" stroke-width="0.2" stroke-miterlimit="10" stroke-linecap="round" stroke-linejoin="round"/>
<path d="M616.356 399.168L618.427 398.754L620.083 397.512L621.325 395.855V394.199V392.129L620.083 390.472L618.427 389.23L616.356 388.816L614.7 389.23L613.044 390.472L611.801 392.129L611.387 394.199L611.801 395.855L613.044 397.512L614.7 398.754L616.356 399.168Z" stroke="#030405" stroke-width="0.2" stroke-miterlimit="10" stroke-linecap="round" stroke-linejoin="round"/>
<path d="M632.92 397.926L634.99 397.512L636.232 395.855L636.646 394.199L636.232 392.128L634.99 390.472L632.92 390.058L630.849 390.472L629.607 392.128L629.193 394.199L629.607 395.855L630.849 397.512L632.92 397.926Z" stroke="#030405" stroke-width="0.2" stroke-miterlimit="10" stroke-linecap="round" stroke-linejoin="round"/>
<path d="M605.59 404.965V366.87H643.686V404.965H605.59ZM605.59 404.965V368.526" stroke="#030405" stroke-width="0.2" stroke-miterlimit="10" stroke-linecap="round" stroke-linejoin="round"/>
<path d="M643.686 368.526V404.965H605.59" stroke="#030405" stroke-width="0.2" stroke-miterlimit="10" stroke-linecap="round" stroke-linejoin="round"/>
<path d="M608.075 402.066V369.354H641.201V402.066H608.075Z" stroke="#030405" stroke-width="0.2" stroke-miterlimit="10" stroke-linecap="round" stroke-linejoin="round"/>
<path d="M605.59 404.965H529.814" stroke="#030405" stroke-width="0.2" stroke-miterlimit="10" stroke-linecap="round" stroke-linejoin="round"/>
<path d="M587.371 379.706V380.12L586.957 380.534H586.542V380.12L586.128 379.706" stroke="#030405" stroke-width="0.2" stroke-miterlimit="10" stroke-linecap="round" stroke-linejoin="round"/>
<path d="M587.371 367.284V379.706" stroke="#030405" stroke-width="0.2" stroke-miterlimit="10" stroke-linecap="round" stroke-linejoin="round"/>
<path d="M586.128 367.284V379.706" stroke="#030405" stroke-width="0.2" stroke-miterlimit="10" stroke-linecap="round" stroke-linejoin="round"/>
<path d="M587.371 379.706V380.534H586.957H586.542H586.128V379.706" stroke="#030405" stroke-width="0.2" stroke-miterlimit="10" stroke-linecap="round" stroke-linejoin="round"/>
<path d="M587.371 380.534H586.957H586.542" stroke="#030405" stroke-width="0.2" stroke-miterlimit="10" stroke-linecap="round" stroke-linejoin="round"/>
<path d="M586.128 380.534H586.542" stroke="#030405" stroke-width="0.2" stroke-miterlimit="10" stroke-linecap="round" stroke-linejoin="round"/>
<path d="M562.94 371.425V399.996" stroke="#030405" stroke-width="0.2" stroke-miterlimit="10" stroke-linecap="round" stroke-linejoin="round"/>
<path d="M560.042 371.425V399.996" stroke="#030405" stroke-width="0.2" stroke-miterlimit="10" stroke-linecap="round" stroke-linejoin="round"/>
<path d="M556.729 371.425V399.996" stroke="#030405" stroke-width="0.2" stroke-miterlimit="10" stroke-linecap="round" stroke-linejoin="round"/>
<path d="M553.417 371.425V399.996" stroke="#030405" stroke-width="0.2" stroke-miterlimit="10" stroke-linecap="round" stroke-linejoin="round"/>
<path d="M550.104 371.425V399.996" stroke="#030405" stroke-width="0.2" stroke-miterlimit="10" stroke-linecap="round" stroke-linejoin="round"/>
<path d="M547.205 371.425V399.996" stroke="#030405" stroke-width="0.2" stroke-miterlimit="10" stroke-linecap="round" stroke-linejoin="round"/>
<path d="M543.893 371.425V399.996" stroke="#030405" stroke-width="0.2" stroke-miterlimit="10" stroke-linecap="round" stroke-linejoin="round"/>
<path d="M540.994 371.425V399.996" stroke="#030405" stroke-width="0.2" stroke-miterlimit="10" stroke-linecap="round" stroke-linejoin="round"/>
<path d="M537.681 371.425V399.996" stroke="#030405" stroke-width="0.2" stroke-miterlimit="10" stroke-linecap="round" stroke-linejoin="round"/>
<path d="M534.369 371.425V399.996" stroke="#030405" stroke-width="0.2" stroke-miterlimit="10" stroke-linecap="round" stroke-linejoin="round"/>
<path d="M594.824 398.754H578.675" stroke="#030405" stroke-width="0.2" stroke-miterlimit="10" stroke-linecap="round" stroke-linejoin="round"/>
<path d="M601.035 378.464V392.543" stroke="#030405" stroke-width="0.2" stroke-miterlimit="10" stroke-linecap="round" stroke-linejoin="round"/>
<path d="M601.035 376.808V378.05" stroke="#030405" stroke-width="0.2" stroke-miterlimit="10" stroke-linecap="round" stroke-linejoin="round"/>
<path d="M572.464 376.808V392.543" stroke="#030405" stroke-width="0.2" stroke-miterlimit="10" stroke-linecap="round" stroke-linejoin="round"/>
<path d="M578.675 370.597L576.605 371.011L574.12 372.253L572.878 374.323L572.464 376.808" stroke="#030405" stroke-width="0.2" stroke-miterlimit="10" stroke-linecap="round" stroke-linejoin="round"/>
<path d="M601.035 376.808L600.207 374.323L598.965 372.253L597.309 371.011L594.824 370.597" stroke="#030405" stroke-width="0.2" stroke-miterlimit="10" stroke-linecap="round" stroke-linejoin="round"/>
<path d="M594.824 398.754L597.309 398.34L598.965 397.097L600.207 395.027L601.035 392.542" stroke="#030405" stroke-width="0.2" stroke-miterlimit="10" stroke-linecap="round" stroke-linejoin="round"/>
<path d="M595.652 376.808L596.481 376.394L597.309 375.151L596.481 374.323L595.652 373.909L594.41 374.323L593.996 375.151L594.41 376.394L595.652 376.808Z" stroke="#030405" stroke-width="0.2" stroke-miterlimit="10" stroke-linecap="round" stroke-linejoin="round"/>
<path d="M572.464 392.542L572.878 395.027L574.12 397.097L576.605 398.34L578.675 398.754" stroke="#030405" stroke-width="0.2" stroke-miterlimit="10" stroke-linecap="round" stroke-linejoin="round"/>
<path d="M567.495 366.87V404.965" stroke="#030405" stroke-width="0.2" stroke-miterlimit="10" stroke-linecap="round" stroke-linejoin="round"/>
<path d="M529.814 366.87V404.965" stroke="#030405" stroke-width="0.2" stroke-miterlimit="10" stroke-linecap="round" stroke-linejoin="round"/>
<path d="M605.59 404.965V366.87H529.814" stroke="#030405" stroke-width="0.2" stroke-miterlimit="10" stroke-linecap="round" stroke-linejoin="round"/>
<path d="M529.814 404.965H605.59" stroke="#030405" stroke-width="0.2" stroke-miterlimit="10" stroke-linecap="round" stroke-linejoin="round"/>
<path d="M698.344 488.195H695.031V491.921H693.375V488.195H683.851V486.953L692.547 477.429H694.617L685.921 486.538H692.961V483.226H694.617V486.538H697.93V488.195H698.344Z" fill="#030304"/>
<path d="M702.899 489.851C703.313 490.265 703.313 490.265 703.313 490.679V491.093C703.313 491.093 703.313 491.507 702.899 491.921L702.07 494.82H700.828L701.656 491.921C701.242 491.921 701.242 491.921 701.242 491.507C701.242 491.507 700.828 491.093 700.828 490.679C700.828 490.265 700.828 490.265 701.242 489.851C701.656 489.437 701.656 489.437 702.07 489.437C702.07 489.851 702.484 489.851 702.899 489.851Z" fill="#030304"/>
<path d="M708.696 491.093C707.868 490.679 707.04 489.851 706.211 488.609C705.383 487.367 705.383 486.124 705.383 484.882C705.383 483.64 705.797 481.984 706.211 481.155C706.626 480.327 707.454 479.085 708.696 478.671C709.524 478.257 710.766 477.843 712.009 477.843C713.251 477.843 714.493 478.257 715.321 478.671C716.149 479.085 716.978 479.913 717.806 481.155C718.634 482.398 718.634 483.64 718.634 484.882C718.634 486.124 718.22 487.781 717.806 488.609C717.392 489.437 716.563 490.679 715.321 491.093C714.493 491.507 713.251 491.921 712.009 491.921C710.766 491.921 709.524 491.507 708.696 491.093ZM714.493 489.851C715.321 489.437 715.735 488.609 716.149 487.781C716.563 486.953 716.563 485.71 716.563 484.468C716.563 483.226 716.563 481.984 716.149 481.155C715.735 480.327 715.321 479.499 714.493 479.085C713.665 478.671 712.837 478.257 712.009 478.257C711.18 478.257 710.352 478.671 709.524 479.085C708.696 479.499 708.282 480.327 707.868 481.155C707.454 481.984 707.454 483.226 707.454 484.468C707.454 485.71 707.454 486.953 707.868 487.781C708.282 488.609 708.696 489.437 709.524 489.851C710.352 490.265 711.18 490.679 712.009 490.679C712.837 490.679 713.665 490.265 714.493 489.851Z" fill="#030304"/>
<path d="M765.425 606.207V607.449H753.831V606.207L760.87 600.41C761.698 599.582 762.526 599.168 762.526 598.34C762.94 597.926 762.94 597.097 762.94 596.683C762.94 595.855 762.526 595.027 762.112 594.613C761.284 594.199 760.456 593.785 759.214 593.785C757.143 593.785 755.901 594.199 754.659 595.441L753.417 594.613C754.245 593.785 755.073 593.371 755.901 592.957C756.729 592.543 757.971 592.542 759.214 592.542C760.87 592.542 762.112 592.957 763.354 593.371C764.183 594.199 765.011 595.027 765.011 596.269C765.011 597.097 765.011 597.511 764.597 598.34C764.183 599.168 763.354 599.996 762.526 600.824L756.729 605.793L765.425 606.207Z" fill="#030304"/>
<path d="M779.089 606.207V607.449H767.495V606.207L774.534 600.41C775.363 599.582 776.191 599.168 776.191 598.34C776.605 597.926 776.605 597.097 776.605 596.683C776.605 595.855 776.191 595.027 775.777 594.613C774.949 594.199 774.12 593.785 772.878 593.785C770.808 593.785 769.565 594.199 768.323 595.441L767.081 594.613C767.909 593.785 768.737 593.371 769.565 592.957C770.394 592.543 771.636 592.542 772.878 592.542C774.534 592.542 775.777 592.957 777.019 593.371C777.847 594.199 778.675 595.027 778.675 596.269C778.675 597.097 778.675 597.511 778.261 598.34C777.847 599.168 777.019 599.996 776.191 600.824L770.394 605.793L779.089 606.207Z" fill="#030304"/>
<path d="M783.644 605.793C784.058 606.207 784.058 606.207 784.058 606.621V607.035C784.058 607.035 784.058 607.449 783.644 607.863L782.816 610.762H781.574L782.402 607.863C781.988 607.863 781.988 607.863 781.988 607.449C781.988 607.449 781.574 607.035 781.574 606.621C781.574 606.207 781.574 606.207 781.988 605.793C782.402 605.379 782.402 605.379 782.816 605.379C783.23 605.379 783.23 605.379 783.644 605.793Z" fill="#030304"/>
<path d="M800.208 603.723H796.895V607.449H795.239V603.723H785.715V602.48L794.41 592.957H796.481L787.785 602.066H794.825V598.754H796.481V602.066H799.793V603.723H800.208Z" fill="#030304"/>
<path d="M676.398 498.547H644.928V503.102H676.398V498.547Z" fill="#030405"/>
<path d="M676.398 363.971H671.843V501.859H676.398V363.971Z" fill="#030405"/>
<path d="M649.483 366.042H644.928V501.859H649.483V366.042Z" fill="#030405"/>
<path d="M669.359 369.768H652.795V388.402H669.359V369.768Z" stroke="#030405" stroke-width="0.2401" stroke-miterlimit="10" stroke-linecap="round" stroke-linejoin="round"/>
<path d="M668.944 369.768L652.795 387.988" stroke="#030405" stroke-width="0.2401" stroke-miterlimit="10" stroke-linecap="round" stroke-linejoin="round"/>
<path d="M668.944 388.402L652.795 370.182" stroke="#030405" stroke-width="0.2401" stroke-miterlimit="10" stroke-linecap="round" stroke-linejoin="round"/>
<path d="M651.553 477.843L670.6 474.53" stroke="#030405" stroke-width="0.2401" stroke-miterlimit="10" stroke-linecap="round" stroke-linejoin="round"/>
<path d="M670.601 416.145V474.53" stroke="#030405" stroke-width="0.2401" stroke-miterlimit="10" stroke-linecap="round" stroke-linejoin="round"/>
<path d="M651.553 413.247L670.6 416.145" stroke="#030405" stroke-width="0.2401" stroke-miterlimit="10" stroke-linecap="round" stroke-linejoin="round"/>
<path d="M651.553 496.062L671.429 493.992" stroke="#030405" stroke-width="0.2401" stroke-miterlimit="10" stroke-linecap="round" stroke-linejoin="round"/>
<path d="M651.553 479.499L670.6 481.155" stroke="#030405" stroke-width="0.2401" stroke-miterlimit="10" stroke-linecap="round" stroke-linejoin="round"/>
<path d="M671.429 493.992V481.155" stroke="#030405" stroke-width="0.2401" stroke-miterlimit="10" stroke-linecap="round" stroke-linejoin="round"/>
<path d="M651.139 411.59L671.429 408.692" stroke="#030405" stroke-width="0.2401" stroke-miterlimit="10" stroke-linecap="round" stroke-linejoin="round"/>
<path d="M671.429 397.512V408.692" stroke="#030405" stroke-width="0.2401" stroke-miterlimit="10" stroke-linecap="round" stroke-linejoin="round"/>
<path d="M673.499 392.128H647.826" stroke="#030405" stroke-width="0.2401" stroke-miterlimit="10" stroke-linecap="round" stroke-linejoin="round"/>
<path d="M671.429 397.511L651.139 394.199" stroke="#030405" stroke-width="0.2401" stroke-miterlimit="10" stroke-linecap="round" stroke-linejoin="round"/>
<path d="M651.139 411.59V394.199" stroke="#030405" stroke-width="0.2401" stroke-miterlimit="10" stroke-linecap="round" stroke-linejoin="round"/>
<path d="M651.553 477.843V413.247" stroke="#030405" stroke-width="0.2401" stroke-miterlimit="10" stroke-linecap="round" stroke-linejoin="round"/>
<path d="M651.553 496.062V479.499" stroke="#030405" stroke-width="0.2401" stroke-miterlimit="10" stroke-linecap="round" stroke-linejoin="round"/>
<path d="M148.033 573.495V590.058H146.377V574.737H142.65V573.081H148.033V573.495Z" fill="#020203"/>
<path d="M154.244 587.988C154.659 588.402 154.659 588.402 154.659 588.816V589.23C154.659 589.23 154.659 589.644 154.244 590.058L153.416 593.371H152.174L153.002 590.058C152.588 590.058 152.588 589.644 152.588 589.644C152.588 589.23 152.174 589.23 152.174 588.816C152.174 588.402 152.174 587.988 152.588 587.988C153.002 587.574 153.002 587.574 153.416 587.574C153.83 587.574 153.83 587.574 154.244 587.988Z" fill="#020203"/>
<path d="M160.041 589.23C159.213 588.402 158.385 587.574 157.557 586.332C156.729 585.089 156.729 583.433 156.729 581.777C156.729 580.12 157.143 578.464 157.557 577.222C157.971 575.98 158.799 575.151 160.041 574.323C160.87 573.495 162.112 573.495 163.354 573.495C164.596 573.495 165.838 573.909 166.667 574.323C167.495 575.151 168.323 575.98 169.151 577.222C169.565 578.464 169.979 580.12 169.979 581.777C169.979 583.433 169.565 585.089 169.151 586.332C168.737 587.574 167.909 588.402 166.667 589.23C165.838 590.058 164.596 590.058 163.354 590.058C162.112 590.058 160.87 590.058 160.041 589.23ZM165.838 587.988C166.667 587.574 167.081 586.746 167.495 585.503C167.909 584.675 167.909 583.433 167.909 581.777C167.909 580.12 167.909 578.878 167.495 578.05C167.081 577.222 166.667 576.394 165.838 575.566C165.01 575.151 164.182 574.737 163.354 574.737C162.526 574.737 161.698 575.151 160.87 575.566C160.041 575.98 159.627 576.808 159.213 578.05C158.799 579.292 158.799 580.12 158.799 581.777C158.799 583.433 158.799 584.675 159.213 585.503C159.627 586.332 160.041 587.16 160.87 587.988C161.698 588.402 162.526 588.816 163.354 588.816C164.182 588.816 165.01 588.402 165.838 587.988Z" fill="#020203"/>
<path d="M145.135 618.216C144.72 616.145 144.306 614.489 144.306 612.004C144.306 609.52 144.72 607.864 145.135 605.793C145.549 603.723 146.377 602.066 147.205 600.824H148.861C148.033 602.481 147.205 604.137 146.791 605.793C146.377 607.449 145.963 609.52 145.963 611.59C145.963 613.661 146.377 615.731 146.791 617.387C147.205 619.044 148.033 621.114 148.861 622.356H147.205C146.377 621.942 145.963 620.286 145.135 618.216Z" fill="#020203"/>
<path d="M160.87 610.348C161.698 611.176 162.112 612.418 162.112 613.661C162.112 614.489 161.698 615.317 161.284 616.145C160.87 616.973 160.041 617.387 159.213 617.801C158.385 618.215 157.143 618.63 155.901 618.63C154.658 618.63 153.416 618.63 152.588 618.215C151.346 617.801 150.518 617.387 150.104 616.559L150.932 615.317C151.346 615.731 152.174 616.145 153.002 616.559C153.83 616.973 155.072 616.973 155.901 616.973C157.143 616.973 158.385 616.559 159.213 616.145C160.041 615.731 160.455 614.903 160.455 613.661C160.455 612.832 160.041 612.004 159.213 611.176C158.385 610.762 157.143 610.348 155.901 610.348H154.658V609.106L159.213 603.309H150.518V601.652H161.284V602.895L156.729 608.692C158.799 609.106 160.041 609.52 160.87 610.348Z" fill="#020203"/>
<path d="M166.667 616.559C167.081 616.973 167.081 616.973 167.081 617.387V617.801C167.081 617.801 167.081 618.215 166.667 618.629L165.839 621.942H164.596L165.425 618.629C165.011 618.629 165.011 618.215 165.011 618.215C165.011 617.801 164.596 617.801 164.596 617.387C164.596 616.973 164.596 616.559 165.011 616.559C165.425 616.145 165.425 616.145 165.839 616.145C166.253 616.145 166.667 616.145 166.667 616.559Z" fill="#020203"/>
<path d="M183.644 614.075H180.331V618.63H178.675V614.075H169.151V612.832L177.847 601.652H179.917L171.222 612.418H178.675V608.692H180.331V612.418H183.644V614.075Z" fill="#020203"/>
<path d="M184.886 623.184C185.714 621.528 186.543 619.872 186.957 618.215C187.371 616.559 187.785 614.489 187.785 612.418C187.785 610.348 187.371 608.278 186.957 606.621C186.543 604.965 185.714 602.895 184.886 601.652H186.543C187.371 602.895 188.199 604.551 188.613 606.621C189.027 608.692 189.441 610.762 189.441 612.832C189.441 614.903 189.027 616.973 188.613 619.044C188.199 621.114 187.371 622.77 186.543 624.013H184.886V623.184Z" fill="#020203"/>
<path d="M434.162 557.76V559.416H421.739V558.174L429.193 550.721C430.021 549.892 430.849 549.064 431.263 548.236C431.677 547.408 431.677 546.994 431.677 546.166C431.677 544.923 431.263 544.095 430.435 543.681C429.607 543.267 428.779 542.853 427.536 542.853C425.466 542.853 423.81 543.681 422.567 544.924L421.325 543.681C422.153 542.853 422.982 542.439 423.81 541.611C425.052 541.197 426.294 540.783 427.536 540.783C429.193 540.783 430.849 541.197 431.677 542.025C432.919 542.853 433.333 544.095 433.333 545.752C433.333 546.58 433.333 547.408 432.919 548.236C432.505 549.064 431.677 549.892 430.435 551.135L424.224 556.932H434.162V557.76Z" fill="#020203"/>
<path d="M448.654 541.611V542.853L441.201 559.416H439.545L446.998 543.267H437.888V546.58H436.232V541.611H448.654Z" fill="#020203"/>
<path d="M452.381 557.346C452.795 557.76 452.795 557.76 452.795 558.174C452.795 558.174 452.795 558.588 452.795 559.002C452.795 559.416 452.795 559.416 452.381 559.83L451.139 563.143H449.897L450.725 559.416C450.311 559.416 450.311 559.002 449.897 559.002C449.897 558.588 449.483 558.588 449.483 558.174C449.483 557.76 449.483 557.346 449.897 557.346C450.311 556.932 450.311 556.932 450.725 556.932C451.553 556.932 451.967 556.932 452.381 557.346Z" fill="#020203"/>
<path d="M470.186 554.861H466.46V559.416H464.803V554.861H454.865V553.619L464.389 541.611H466.46L457.35 553.205H465.217V549.064H466.874V553.205H470.6V554.861H470.186Z" fill="#020203"/>
</svg>
